<mxfile host="65bd71144e">
    <diagram id="0cqkuqPc5MZ7pEyIj9Tv" name="ページ1">
        <mxGraphModel dx="1194" dy="570" grid="1" gridSize="10" guides="1" tooltips="1" connect="1" arrows="1" fold="1" page="1" pageScale="1" pageWidth="827" pageHeight="1169" math="0" shadow="0">
            <root>
                <mxCell id="0"/>
                <mxCell id="1" parent="0"/>
                <mxCell id="11" value="" style="swimlane;startSize=0;" parent="1" vertex="1">
                    <mxGeometry x="20" y="302.8" width="540" height="467.2" as="geometry">
                        <mxRectangle x="88.5" y="302.8" width="50" height="40" as="alternateBounds"/>
                    </mxGeometry>
                </mxCell>
                <mxCell id="12" value="Web Server" style="text;html=1;align=center;verticalAlign=middle;resizable=0;points=[];autosize=1;strokeColor=none;fillColor=none;" parent="11" vertex="1">
                    <mxGeometry x="55" y="67.19999999999999" width="90" height="30" as="geometry"/>
                </mxCell>
                <mxCell id="15" value="targets" style="text;html=1;align=center;verticalAlign=middle;resizable=0;points=[];autosize=1;strokeColor=none;fillColor=none;" parent="11" vertex="1">
                    <mxGeometry x="70" y="31.69999999999999" width="60" height="30" as="geometry"/>
                </mxCell>
                <mxCell id="26" value="" style="edgeStyle=none;html=1;entryX=1;entryY=0.75;entryDx=0;entryDy=0;" parent="11" source="23" target="22" edge="1">
                    <mxGeometry relative="1" as="geometry">
                        <mxPoint x="369.5" y="247.31301369863002" as="targetPoint"/>
                    </mxGeometry>
                </mxCell>
                <mxCell id="8" value="" style="points=[];aspect=fixed;html=1;align=center;shadow=0;dashed=0;fillColor=#FF6A00;strokeColor=none;shape=mxgraph.alibaba_cloud.prometheus;" parent="11" vertex="1">
                    <mxGeometry x="268.3" y="337.82" width="48.9" height="48.9" as="geometry"/>
                </mxCell>
                <mxCell id="16" value="Prometheus server" style="text;html=1;align=center;verticalAlign=middle;resizable=0;points=[];autosize=1;strokeColor=none;fillColor=none;" parent="11" vertex="1">
                    <mxGeometry x="238.5" y="31.69999999999999" width="120" height="30" as="geometry"/>
                </mxCell>
                <mxCell id="18" value="TSDB" style="strokeWidth=2;html=1;shape=mxgraph.flowchart.database;whiteSpace=wrap;" parent="11" vertex="1">
                    <mxGeometry x="268.5" y="157.7" width="60" height="47.8" as="geometry"/>
                </mxCell>
                <mxCell id="48" style="edgeStyle=none;html=1;exitX=1.008;exitY=0.308;exitDx=0;exitDy=0;entryX=0;entryY=0.5;entryDx=0;entryDy=0;exitPerimeter=0;" edge="1" parent="11" source="22" target="29">
                    <mxGeometry relative="1" as="geometry"/>
                </mxCell>
                <mxCell id="22" value="" style="rounded=1;arcSize=10;dashed=1;fillColor=none;gradientColor=none;dashPattern=1 1;strokeWidth=2;" parent="11" vertex="1">
                    <mxGeometry x="238.5" y="60" width="120" height="166" as="geometry"/>
                </mxCell>
                <mxCell id="27" value="Prometheus" style="text;html=1;align=center;verticalAlign=middle;resizable=0;points=[];autosize=1;strokeColor=none;fillColor=none;" parent="11" vertex="1">
                    <mxGeometry x="252.5" y="62.69999999999999" width="90" height="30" as="geometry"/>
                </mxCell>
                <mxCell id="43" value="" style="rounded=1;arcSize=10;dashed=1;fillColor=none;gradientColor=none;dashPattern=1 1;strokeWidth=2;" vertex="1" parent="11">
                    <mxGeometry x="237.5" y="324.55" width="120" height="75.45" as="geometry"/>
                </mxCell>
                <mxCell id="44" value="Pushgateway" style="text;html=1;align=center;verticalAlign=middle;resizable=0;points=[];autosize=1;strokeColor=none;fillColor=none;" vertex="1" parent="11">
                    <mxGeometry x="248.5" y="290.2" width="100" height="30" as="geometry"/>
                </mxCell>
                <mxCell id="45" value="" style="points=[];aspect=fixed;html=1;align=center;shadow=0;dashed=0;fillColor=#FF6A00;strokeColor=none;shape=mxgraph.alibaba_cloud.prometheus;" vertex="1" parent="11">
                    <mxGeometry x="273.05" y="92.69999999999993" width="48.9" height="48.9" as="geometry"/>
                </mxCell>
                <mxCell id="49" style="edgeStyle=none;html=1;exitX=0;exitY=0.5;exitDx=0;exitDy=0;entryX=0;entryY=0.75;entryDx=0;entryDy=0;" edge="1" parent="11" source="22" target="22">
                    <mxGeometry relative="1" as="geometry">
                        <Array as="points">
                            <mxPoint x="170" y="167"/>
                        </Array>
                    </mxGeometry>
                </mxCell>
                <mxCell id="50" style="edgeStyle=none;html=1;exitX=0.25;exitY=1;exitDx=0;exitDy=0;entryX=0.75;entryY=1;entryDx=0;entryDy=0;" edge="1" parent="11" source="22" target="22">
                    <mxGeometry relative="1" as="geometry">
                        <Array as="points">
                            <mxPoint x="299" y="297"/>
                        </Array>
                    </mxGeometry>
                </mxCell>
                <mxCell id="17" value="Grafana" style="text;html=1;align=center;verticalAlign=middle;resizable=0;points=[];autosize=1;strokeColor=none;fillColor=none;" parent="11" vertex="1">
                    <mxGeometry x="420.5" y="204.79999999999998" width="70" height="30" as="geometry"/>
                </mxCell>
                <mxCell id="6" value="" style="image;aspect=fixed;html=1;points=[];align=center;fontSize=12;image=img/lib/azure2/other/Grafana.svg;" parent="11" vertex="1">
                    <mxGeometry x="422.5" y="235.04999999999998" width="68" height="52.800000000000004" as="geometry"/>
                </mxCell>
                <mxCell id="23" value="" style="rounded=1;arcSize=10;dashed=1;fillColor=none;gradientColor=none;dashPattern=1 1;strokeWidth=2;" parent="11" vertex="1">
                    <mxGeometry x="395.5" y="204.6" width="120" height="100" as="geometry"/>
                </mxCell>
                <mxCell id="28" value="Visualization" style="text;html=1;align=center;verticalAlign=middle;resizable=0;points=[];autosize=1;strokeColor=none;fillColor=none;" parent="11" vertex="1">
                    <mxGeometry x="410.5" y="174.8" width="90" height="30" as="geometry"/>
                </mxCell>
                <mxCell id="29" value="" style="rounded=1;arcSize=10;dashed=1;fillColor=none;gradientColor=none;dashPattern=1 1;strokeWidth=2;" parent="11" vertex="1">
                    <mxGeometry x="396.5" y="61.499999999999964" width="120" height="100" as="geometry"/>
                </mxCell>
                <mxCell id="30" value="Alertmanager" style="text;html=1;align=center;verticalAlign=middle;resizable=0;points=[];autosize=1;strokeColor=none;fillColor=none;" parent="11" vertex="1">
                    <mxGeometry x="406.5" y="31.70000000000001" width="100" height="30" as="geometry"/>
                </mxCell>
                <mxCell id="34" value="" style="shape=image;verticalLabelPosition=bottom;labelBackgroundColor=default;verticalAlign=top;aspect=fixed;imageAspect=0;image=data:image/png,iVBORw0KGgoAAAANSUhEUgAAAJYAAACWCAYAAAA8AXHiAAAVvklEQVR42u2de5hcdXnHP+fM7iYbskuAzC5JSCAXjMQGCBdhYoo8CiKKQC0GEbBI0UKF1j7iBbEtWLEWLaI+CqICPlK5KHIpjZFbbIQMEMmNJhgICcmGXPYkWbKb3exldqZ/vO+Q2c3M7FzP+f1mz/d55sltsnPOb77nvV8cRiPiHkAEGAscDkwCovr7JmDCsD83APVAEugHuoFOwAN26+/Tf94J7AB6gAFi0dRoPGJnlBDJBQ4DjgSmAicDxwGtQIu+mpU8EcAt4qengEF99QC7gHZ9bQFeAl7L+LteYtGQWJYSKaKS5mjgVOB4JdNMYLxKqogPV5JSCdej0mwlsBpYDqwFOmqVaE6NSaUjgBOA04APAzNUGtUZdKUpVZtvKdGeAFYBG4H+WiGZYzGRUMIcASwAzgJOUhU33qJ7GwC2AitUbf6PkqzXZvvMsZRQY1S9fQS4AHgXcEgNPOhJJdky4NfA80C7jQRzLCPUocDpwOXAB9QYr1UHZL/aYw8CjwGbiUWTIbEqRyhHPbpzgEtV7TWPGo9WjP8NwENKsjeIRQdCYpVHqKiqusuAU4BxAV5Rl6rghoA+fxDYrDbYz4B1xKKJkFjFqbwmtZ+uVg+vMUAPzgN+oyGCm4FpAZ/QIBIfuw+4F3jTRBXpGEaqCDAP+AfgQiVYkHgF+BrwFPAp4MdIDMwEDALrgB+omuw0KVThGEIokCj4Z4GrVCoEfW3rgL8FXlT194CS3TT0AIuA7wArTFGPjgGEGgN8SKXUGQHaMJnYBVwLPEQsmiLuTQV+B7zH4DDFFuCnqiK3BC293IBJNQX4htoKZxlCqgRwB/BIRvxoojoSpsIFjtGzvA84g7hXN/qIJTf9l0qof0KqCEzBGuDn6uanEQn0ISwcEQ3H/BK4lrg3QR/gUUCsuNeotst9wAeRigJT0AfcnUWV7NOXDXDURr0F+CEwQ0M3NUqsuOcQ96YA3wJuNcRAH461wGNZUig7gG3YhXHqycoD7LNqdH0jleT27lajuNnALyKFVBpkI1AXkhi2DS4Q03O/nLg3pnaIJeUsZwD3AGdjVglLJvYAT+UINg4CS1RV2oipwG3A9cS9JvuJJQHPs4GfACdidn6vDfhz1n8Re+tFpDDPVkwAbgBuJu5NsJdYca8B+Ct13WdjftK4TVVeLmzNSbzi0Au8HdA9HgJcA9xE3GutpsfoVolUY4ErkRTIdAue5hTw5rAQQzY76yFVi6ViP5JAXhvgvY4F/h5JBU2tFrncKpCqQcMJt2B2UDETCWBj3oI6sb3+F4lwl0re+5GE9oyA77ce+Gvg9mqRy60wqSKq/m7CrKDnSEgiHTQj4XUlVykVnWs0zNJqyAMXAc7Xa2oxl1ji/Z0L/AeSArEJKQoLgA4gxXZdRf78LuC7SMHeDIM84zqVXDcQ9w41j1gSpzob+D7SchWk5EmV+P96RnyXeIcv6asY0j4CPKpS4ljDHqp64O+AG4l7480hlpDqFOA/DTDUVwL/rt5bssgvv7fA93YgNeiFlge3I1UH+/S8jzBQYjeqt3hNpYKo5RHLcUCaQG8D5hgQUmhAYmafRDpcCpVeAxQa/BQDf3ERRvwSpE6q+iGe8jAe+CrwCbWVAyJW3INl7U1I0G0+ZsSppivRVwNfUIO5EPRrKKBQtAFPF0DcfcB/ZajZQm25oHA4Un49v1xP0S1TOlyj0sGUp7ARaFXpsBK4EalZHwm9BdlYB9AHPFyAEb8CeD5DWg0igVaTMR34N2BaOeQqjRBiV30U+BLBds5ku5/xxL20ynoG+FUBkmVHUZ6eEGW5EicfXmRolH1QPUOTG1AdpKbr65TRc+CWQCrUs7nRwLCCw9BhH73AL1R15cMmZJ5CMdgLvJCHJF3AH4YEXeX328gf4TcBEdVEF2sYyReJ1YR0rpxo4IGkhnxpIln+D3hyBC+xjWIrF+a3pJDunbdzvGOLquPh2IzU1JuOJuArwMmlqMTiiCXsXQhchD9jgIpFAugaVv05oOpwb47/k0Ta14ukcCptx+XK+z2PDGXLJh1fxQ7MVGO+tXrEEtbOQrppTB3A0XeQsS6EWZ3HQ+xEWr1KQSdSHJjKQvClOVReNxJgHbSAWA7S5LKwWJVYzJsbkcaH9xh8ENty2FMdSI4vGzwkB1gKBoHnsqjDDuC1rFLwfa0ppJWsCztQj1RDzKk8scQLPAu42FAVmKlmth/sxbWk1NYayGHzlFbAJ8R5NYtq20iuUuZkEiQz8Ar24FjgC9oIU1GJNQm4Hpn6YiqSyGS83uw2Pa9xcEwrpZJsfxmfuzeLxHszj02H2l6Pqcq0AREkWX1OoR0/IxNLwvtXIEX5JmMfsDhPTdXGLAToQWJN5dg7g2rED2TYV6vzkkau8VHgDYuk1gQVLkeWTyzJBc4GPoNZ/X+53PsNef69h4Oj3q8Da8tqR5/fiqq1dLiin6G5wXzX+zDFJcuDxqmFGvL537CsPYJUg9pQXrwkq301VLKsz5BOKSR6vrOsT00l0w7A/gyvr5AexAHgtxRWYGgK0tXBR5dHLAkvnGe4wZ5Wg08Ti+ZWaQsmpSVLWmV1IXVSlXD7uziQXN5TkDNwIHj7oGVS693AZSNJLXcE2+oyJEhmOjYA8fyWUCIdjkirrJXA8gpNZenKkJYbKbQLJxbtQ7qYXrOIWPXAJ4DJJRDLASmhXWiBtEqpN1hIyKBbvcYk8DjZI+OloDuDWJsprlJiA3AXhRcOmoDZwMfyeYjZiRVvd4CPW2Jb9ahKK8R136/G9WbgyQqOuc6M+LcXNbpR1PeDwMuW2VqfIk9TSC5VOEnjFvUW3OR64E8FqrR0s+gDVDJf98HpKZWYqRKN8e0qtXosItc84P25EtRuFtsqHWU/3oKbSw/y2FHg+weAPwB35jX0i8VAP0qsviKuJVNqpVQ1/9EiYo0DPo2UNBcksZqAS5ARjqajHVhUhOrpQmZ1bqnoVSQG0sTqKolYgt3IVBib5nDNB+Zlk1puFqN9LrIpywasLlKl9QJtFZ/PKSU07Uqu0uJSck3PUHqlRRA4DBmbXp+fWGK0n4sdDaeDarQXV1JcvaGv7Sp1yrGTOpAOIFtyiOkS9ZaRVOGhwPuwY51IG7DUoAVGaWKVXnY8vyWJLGfaiT04FjhzuDp0M4z2tBo8wZIbWoFZSdxuJOpeurQRlfoGUiRoC8Yig4rdXBIrosbYBAtuph+pYzdpwt5+lViJCvycZ7ErYDqPYR3emcQ6BNlKaoMa7ACWGbaNtA+JR5UXxpB7er4M7zIIHAfMzVSHmcSahSQYbUAbsvrWJAyol1qJ+NhW8pcAmYbxaptHhhJLmBbDnkFpccyrGU/qdVWiZ7AHqaW3BQ4ys/+dJpv0nKZ6JHYVseAmEshqW7NsEFFhlSL7IFJSk8DcKdPDMR1JBXZmqsIoMorIBnQAG2pl23sekm6nvFp8v9FKRmDd1fLjKcBRltzAJqRZodaxA7uqS2UBvJbSuCxrT7uLtmyB30r+DphaQbtlxErzqCmtCl2kSN6GEpmUqojEKCBWH8UPKgkas9F0oItETqdiR/xqENhkUBqn2vfaY9k1T0hHFly15KdZcuEJKl3yYi6SFD4X1RQ0IsFSXKSVZ7JFh71rlBArhV1pHdScmkfcc1yks7UxPGwj7zVp2TU7KqTqXI0/1BMiRGVwBDDGRfoGHUsu2sWsmafVvtd6S4l1mJs2tixBxCJ7cLQ+RBOBVhd7Iu4gebOZQW1mD8AQbrbwupvTEqvJsqd4OnYky8vFYZQw+9OUByIdILUJU7En/VQOpiE5XCtVuIsd/YOZeBd2DCopHaLqZ1qqCl2g0cWeep9M43BOoSMLLUUDsh3CRpXvAA02EqsOOMdCSVusfXW6pdfuAPUu9sSwMhGjCutmDVKDpxL83uhyiOW6ll78FPJMOrEcY4ALLfPWsxpaNpagNAKXWmrc5nnW3xkmfI7Fd5ECki52rN7IhvlIa3ftGPEyTPgSChx5bTASLv5XY3Yiswn6y5SWTciS7Ak1JLOOAj5WIYcqgQyZ2+Sz8EgC/XVICayfZTNvImt1m5Ag4CykVnoWMpRkbBFu9pnAJ4l7PylqPKOZRnsD8DlVhcUSqFcf2E1I29jrSEHkW8BpyAL2iI/E6k0Ty09MRla/LdEDdZVQLUi6ZgGyCGomcAySiM11KOOUpMuIe6utbQkTJ2QBcOUI0iqlJPKURG3IVrPlSFePB7z9zrTCuFcPfB6Ji/kpsXrqkCkpfuIw4ELi3gpi0aRKmg59rSfuLdaDiKoUm4G0b89DcmcTGRrDmoUsbPwc9kzDG44jkeWiw3OD+9Vs2IHsRfyTSvwtSqoeYDDPAzVLQzN+2qEJoKsOmX3uZ8wkggwf+THZNjjIIfWrGH+LuLcU2QQ/HqnPPwFZcfYXKtmOAM5WlXhPRWeL+iOtxiHr+k5H2tp2IosO1qk0WoWUY+8HBgpuJBFN8AEkt+onuoG365AVZwt8/vC5wLlKhPy2kRxkPzJ7ag+wVlXHISq9JuqTPlbDDx3WkMpxQWJyryI7mHcosTygt0zV3gJcjv+ZlV3AzjoObFX3U1w2IBvFHufgVW8jQw68W1+b9Qm1L+wge3jeQEYGVC6eKGfxYYKZfL0L2O0SXAPoycB5FYuex6IpK/sNxc6s9HVPBP6GYJpkdgO9roreICbjNQKfZfSUGvtlszlILOy9Qchg5dOAq6okqOlxJwFXEPfqQkZUDNOAawimXj6hjkfKVe+rLaBDGANcrQQLUb60iiA7buYFdAW9wBpiUVyybx71E0cBVxP3xofMKItUaAjmMwRXINiJTshJJ6FXEdwEFwdZCHV+jVeFVhtNwJcJtmx7o3qFuMxvAVm43R3gBTUD/wycFJKrJGlVj6zUvYBCFshXDyvQJaCuDq3fSvBDvmYD36BWK0OrqwIXAF8k2O4lMdw14J1m905lW5BIr7O7jrg3JmRMwaQ6BvgWwTcee0guk0xi9SIbPoMOMDaoq7xwpGXWId4xIa5HauSDRhsZs8vky5MUyQtILi5oHA7cAJwwSlrpS5VWjcC1AXuBaaSQ/T9dwyUWSFmGKUuP3g3cBkwPyZWVVGOQOquvYMbgkF5gSWZkoW5YDOIZFatBe2YOslHqe8AjxL1UyKYhmAlchznNJBvUcCcbsRLIvuTryLHn12dEgPORvFeIgx88k8IyKxlWW3eAWLEoxL1VSIHZe8MDDFEgBpAdQkMKLId7XruQPTUhQhSKzcBTw4sShxJLVsc+yejY/BCiMniWLLnmocSSKPxLSAtRiBAjYR/wKFnq+bLVQXUADyL9aEHXSfVh3l5CE5AeIxm0/fky8GK22vyDiROLJol7i5AIeNCDb38P/Ct2zpeoJk4DfkCwo5x6gfvJ0bySSyJtAv4bmZ4XZFR3D1I4lgy5lIG4N5Hglwu8BizKVa+fPR8nRvz9SKNFiBDDMQg8RJ693NmJJUb8OpVaoRoKMRxvAr/Op0lyVxDMb+kH7sa8bfEhgpdWTyDVohRPLJFaa4CnsW9ZUIjqoQ24m1g0URqxBP3AXUghYIgQg8gcjXUjvTE/sSQ+sQJ4IJRaIZRQ944krQqRWBCL9gE/RQZXhBi92A/8cCTbqnBiCdYjhXf7w/MdlUgBT43kCRZPLPlhvwV+F4YfRiW2Ad9FW7sqKbHQH3oro2fZdwhBErgHeKGYeV2FJ5mlEPBl4E6k/8+P7Z+twIKwNPkgzMW/xtQVarAXtYu7+Ox43GsB7kUGe1U7u55AQh4hDtY0fqwD3IkM3F1U7HTBUspi2lVizab6s0vrsG+JVK2gH5kT+3QpIyuLF6fyIcvVmOsOz79mvcDfA3cSi5akMUrT0zKZ+JfAz5Fi+hC1hbXA1yljnkc5BuA+4BZldmhc1w52q6nzSjlTm8szvg/s1vsFwVebZuLP+jIdzchyBFOGoPQANwO3l6oCK0MsIZcLfETDEKYsx/62HpDpOB5YhCxBMMFYvwu4Eegsd31M+R6X1MgvBm5CxumYsNBmPNBn/HhumRlab8CVJICHgW8Si3ZWKh5CBciVUHX4L5gxseZYzBgTMJIZ0YI/8ah8SCItXNdTwfKoykVvJTJ7rxr0PQEf1hzMXyYZQSLoQUqsFNL5/jVgWyW3p1U2LRCL9iIlNj9C2oOCwkRgluEjkJqRFb1OgKR6CZmx9XqlV/JVPt8Ui3aprfX9ACXXWOCjBnlb2dTgKcj2sqDU3wtI7+iaaux5rE4iMxZ9G/gmEmTbHcDBOcgm+HmYiSbgKmR3YxCG+mPIJMCV1XJwqpchj0X3IbmmGwimZn4y8HniXpNh0soBziWYTfUDSIfNPwLrq7mRtrqlF1LWfA8y0tDvtSoOMvf8ImMG5YoKnAF8CVlX7Cd6kTTcdUBbtdccOz4daATZgnorspbDT4N1E7Ji7bnA41rSGn87cAn+Dvrv1M+9nVjUl0Wh/tycJK2fBD4NPIK/NVbHILNMTwvMS4x7EPea1Sy4yGdSbURWA38bH7fPOr4fsKQvvoxs/fJzOOsqda3jvg4ZcRxY1t6ijsxV+LecchB4DknRxP0erOIE8vTKCOmLgK8iBYN+PMEpZLrvzSo1e6ptZ6htN0c/8zxkQYIf2AvcB3wH2BKECRDc4C459LnIcqbz8C/m1AH8StXjxqoc+oFl6Beo+pvj48PzxjsPTywaWCFmsBPh5As4XI3Za5F5XH58AUlgNZJ4fQgZ0NpftgSTh2UCcCaykPJsH9X9XuA3wB1IfCrQznUzRl0fUBlfBD7u45cxqE/4IuBxtcP2FvWlyMMxFpiuhLoY2Rjb5OM9rEBKxZ/wRcVbQ6yh6uND6sWcjn8J2pS65K+oJPsj8DrSS9mNzEIdVGlarwZ4EzAJiCFz8eciG7jqfLzm7Uhs6o6gbCnziXWAYI5+YVcgrUfH4O+4ypQSqQcpv96jBOvT62hSz7ZJH4TGAK6vE+lK/xHS2NJngpQym1gHCBZRj/FKNe5nEfyWq6DRATyPVJA8C+wzjVDmE2sowaYDlwILlWANo4hMSZWaT6naWwp0m0ooe4g1lGBHI0ubFiKVC401TqitwGIl1Mogwwe1S6yhNthE9cAuUcN5EsEu2a4kupAOo/R0n3XAgOkSyn5iDSXYOCT2dQ6ycPtEpCTZJlsspZ7nOmTTw2Jkm9YezbFaidpY2SahikY19k9BBpbMQ2qyxhp4xUmkAHKj2k5LNcyxq1aWJdTeLkCRZI0quU5FgpUnI+uAJyjR/A4P9KtUakM2va8BXkRiZZ1AwjZVN/qIlZ1ozcisrelKtuNUmk1BWrAakcCmWyaBEkiVZgcyBW87Ug+2XO2m7UB7IcNhQ2LZqTbr1D6bpOSKIkHPycA0/bUFCYLWqYRzlDxpAvUhi0O3I1MO3wK8jL/biuTv+o1vnK0C/h+7QAFOD4kOUwAAAABJRU5ErkJggg==;" parent="11" vertex="1">
                    <mxGeometry x="431.5" y="86.49999999999997" width="50" height="50" as="geometry"/>
                </mxCell>
                <mxCell id="68" style="edgeStyle=none;html=1;" edge="1" parent="11" source="33">
                    <mxGeometry relative="1" as="geometry">
                        <mxPoint x="594.5" y="187.2" as="targetPoint"/>
                    </mxGeometry>
                </mxCell>
                <mxCell id="33" value="" style="shape=image;verticalLabelPosition=bottom;labelBackgroundColor=default;verticalAlign=top;aspect=fixed;imageAspect=0;image=data:image/png,iVBORw0KGgoAAAANSUhEUgAABLAAAASwCAYAAADrIbPPAAAABGdBTUEAALGPC/xhBQAAACBjSFJNAAB6JgAAgIQAAPoAAACA6AAAdTAAAOpgAAA6mAAAF3CculE8AAAABmJLR0QA/wD/AP+gvaeTAACAAElEQVR42uzdeZyVdf3+8et932eGnZkBUUPZ0tSCGSAYkAEVymTTzGpI0cyyqG+L2Wol2EnFTFs0v222L5ZC30qRAdJCkxn2HzJIYposLqkwMMPOzJz7/ftDKjOB2ec+93k9Hw96mDJzzrnu+9zn87nO575vCQAAAAAAAAAAAAAAAAAAAAAAAAAAAAAAAAAAAAAAAAAAAADwL0YEAIBsVz7Pw20D9x2neu8ry3STpChUoUwmt5TJe0mS3PZ74Ickyd12hxnPBGFUH0SZmtqi43ZsHGr1pAkgbgYvTXct2NvQN5PK62uZTJ6ZUh6+fFwLMuoaBUE3SQqk3ZFFGYsUeWR1kuTy/UFeqqZ6uXYonY5IEwCQrSiwAACxNvIve/qlwmiw3IeYabCkwZIPlKyvpL6SjpNU1EYPt0dSjaTtctUo0HPutkWuzR7ali6ZQ5srxx/3D5k5WwZAq6XTwbBxDScFHgy2jA2W+ZBIPthk/WU6Tq7jDh/nerbRI9a88o9JWyTf4h5scfctDV0bt2w696s1bBgAQBxRYAEAYmHkX/b0S+VlhlvGi92s2EwlinSGTD1i9lQPSfaUyzfItN7cNqQUPVY1vmgrWxHAa3JZyR9nD/bGoETy4sBU4q5imV4vKT9mz3aPS5vMtF7SBsvYhsZUsH7jlPRONiQAoDNRYAEAOtyoNc93D+q7lVpk42VeJtloSSdk+cuqddOj5qo0t6pDDVHVo5OKatnaQA4e4xakj2sIo3EmjXf3MjcNN6l3lr+s5yStdakylCpru4Vrt0xKH2RrAwA6CgUWAKDdTVz6Us8D+XlvjTyYGJiXuTRSUl7CX3Yk2eMur5TbXxqj4I/rzu61nb0BSJ5Ri7/0ugZPnefuZ5urTKbTc2CcfcjM1rp7lcv+nJ8JHl57QXo/ewMAoL1QYAEA2kXpI7WvD0K/QJGd76azJHXJ8UgimdbJ9aAHejDKK3h47WhrYE8Bsk/5vPJwU/czRpjZBQr8fLnezLhaB+Va5uYPKrIHN5x/w1r2FABAW6LAAgC0DfegdHntWYHbDJfeLulkQjmqnSaviCKft2tP0R+fmmaHiASIr3HzPtVtX49e0zzwGeaaLKmAVI72maDNMt0rRfdUT527UiZufgEAaBUKLABAq4x9pHaUAr88UvBuk/cnkRapk/w+j3z+/j5FSzYOtXoiATrfqRWf6NJdRefJonK5vUNSL1JpkWfk+r0F0fz1U+ZWUmYBAFqCAgsA0Gylj9S+3gJdKelysdKqre2UdE9k/sM1ZUXriAPoeMWL5oyT64OS3p2Ai6/HzdMm/dwV/qR6WvpZ4gAANBUFFgCgSYZu9PwedXUXyv1yyaZKCkmlvT+l/a9y+0Vo9sPlZQXcwh5oR6MeuKagvjH/Peb+P5KNIJF2F8n1Zw/szvx+L/xh7eg7uSYgAODoQ2MiAAAcTenDNQMsL/yEXFdI6kcincC1T6Z7LIxuX3lmn2oCAdrOsIXXjjYFnzTTuyV1JZHOOMTpH4Hrx40Kv7NxevoFEgEAvBYKLADAayqt3DXCpE9LdrGkPBKJyQe3e2Xk/rXVE4rulxnXkQFaIp0Ois9sfItF9klJ5xNIbNTL/B5lUrdUn59+jDgAAP8xDiYCAMC/uNuY5Xumy6NPS5pEIDHeVNIGc//GvqLC33DRd6Bpxs37VLf9PXq+z02fknQaicT4EGda4ubf2DDlxgeJAwAgUWABAA4rXV57rrlulmsUaWSVZ8z8GzW1hd9/apodIg7gvw2dl84PemWuMNeXJXG31OyyUrK51dOuX0AUAJDbKLAAIMeVLq891yLdJKmUNLLaVjPd1O1QwU8emmSNxAFIo9bMymt46YRL5ErLNIREsnjSYlblHs2pnnbjn0kDAHL0s4AIACA3lVbtOieINNfNxpNGoj7YN0Wu9OrxBfO4RhZyVjodFJdG7zPz6yQNJpAEcT1oYXTt+ilzVxEGAOTcOBcAkEtKH64ZYKlgrmTvJY1EW+0WXL26rHcVUSCXlCycM1am2yWNJY3EcpN+G3j0uXXT524lDgDIDRRYAJArk7olL/To2rPL5yS7RtwqPmcmeZJ+m/Hos2sn9NlGHEiyYUuuHRBENldulzHGzRn7TXZHY7fgxo2T0nuJAwCSjQ93AEg6dxtbVXuFu90k04kEkpP2muumvUUF3+COhUiaUQvS3RvCzLWSPi3K+Vy11c0+t2Hq9fOJAgCSiwILABKs9JHa1wemH7jpXNKApCeDyGetOKvoIaJAEhQvvPZss+CHkk4jDUiqyGTC/9l4QZoVpwCQQBRYAJBAE5d66kCX2o95ZHNl6kEieAV36Yf53vDZygn99hAHstGI36cLvUvmay59iPEsXmW/y68/Y+8TX58/Y36GOAAgOfjAB4CEOXN57ZujSD+SNJI0cBTbzO1/Vk4oqCAKZJPhC+fMcNO3JZ1AGjiKyijyDz12/o2PEwUAJAMFFgAkhXswdnntJ9ztFkn5BIIm7ji/7F7f8NGHJh3PBZARa6MeuKagvj7/f810GWmgiQ66PL1hVepWpdMRcQBAdqPAAoAkTOyW7RwYWvBLSWeTBlowGtjsCi5bXda7ijAQR8WL5owz168kvZ400GyuB8O88H3rzks/TxgAkM1DVgBAVhtTVVsu1w8kFZEGWqFR8rmDniu8Yf4M47oxiIWJS9Opnfuj2TKfLSkkEbTCDnf74Ibp199LFACQnSiwACBLlSx5oUe3nl2+7zJOp0FbejiTybtk7dk9/kEU6Nxj3OwhygTzJB9NGmgzru/ut9pPPzXtjkOEAQDZhQILALLQuKq6Uxvdf2dSMWmgHWyXdPGq8YV/Jgp0huH3XzfJA79b0vGkgbbn/y+w1LsenZreQhYAkD0CIgCA7DKmsm56xn0V5RXaUT9JS8ZU1l5DFOhQLiuumH2NB/6AKK/QbuzNkWdWFy+efS5ZAEAWHb2JAACyZWLnNqaq7vOSbhJfQKDj/Obg3oMfqp584j6iQHs6/d7P9+qS6vIzmd5JGuggGZdfu2HqjbfI5MQBAPFGgQUAWaBkyQs9uvTs9muTv5000NFc+n/53nBB5YR+3MEL7aL4/vTrzTILZTqDNNDhxzjXrw5Y7Qe5LhYAxBsFFgDEXOmqvSdaQ+MCSVzIGJ03wZM97xadv6asaB1poC2VLJwzVqZ7JZ1AGui0SZFZVaoxuHDtBekdpAEA8cQpKAAQY6XLaoZaQ+MKUV6hsyd38v6B21/GLqubRhpoK8MXXXeRTH8W5RU6mbuXNYaZ5SMWzH4DaQBAPFFgAUBMjamsfYtZuEzSINJATPR083tLK2v/hyjQWiULZ3/S3X8rqTtpIA5cOjUKbfnwRddOIA0AiB8KLACIodJHdl4gqUJSIWkgZlImfXdMZe3NRIEWtgRWUjHnVpndxlgUMdTXPVgyfNF1k4kCAOKFQQMAxMyYqrpLLAh+J6kLaSDGrqHEQrO5rGTRdd+S9FnCQIx1d/f7hi+azR0xASBGuIg7AMTI2KraWe76nviCAdnje6vKCj4us4gocDTl88rDTT3PuNOkD5AGskRGZldWT73+50QBAJ2PAgsAYmJsVd3H3P0Ojs3IvsGE/6pbfeH7H5pkjaSB1zJxaTpVsz/zUzNdRhrIMpFcH66efsOPiAIAOhff8ANADIytqv2su/+vKK+QhVx22f683T+WO+MK/JeJS9OpmgOZeZRXyNr5kunO4kVzZhEFAHT2ARkA0KnGLKu90l23kASymvnlY6rqfih3Slj8Wzod7DrQ+DOTLiIMZPMRzlzfH14xh9NfAaATUWABQCcaU7XrcpnuFCuvkAwfKK3a/S1igCTJZcWl0XdddilhIAHMpTuHL5wzgygAoHNQYAFAJyldtuudcvsxx2IkaoYn/+SYyl1pkkDJojm3mPmHSQIJErrplyMWXzedKACgM8aZAIAON3ZZ3TQ3/4OkPNJAIrl/etWEIlZj5ajiiuuuN/kckkBCHTCLzls/de4yogCAjkOBBQAdbHTVrpGB218k9SQNJJjL7LJVZQW/JorcMrxizgdc+jFJIOF2yryseuqNTxAFAHQMCiwA6EDjl23v32B5KyWdTBrIAQfdgreuLutdRRS5YcSi2RMjtyWS8kkDiefarFR4ZvXk9EuEAQDtj+uuAEAHGb9se68Gy6sQ5RVyR1fz6N6xK+reQBTJN7Ii/abI7feivEKuMA3xTOb+UQvS3QkDANofBRYAdIBRazyvwfJ+K2k4aSDHHOcZXzTyL3v6EUWCj3GLv/S6jDKLJBWSBnKJSaUNYebnSqeZVwFAO+NACwAdIKyv/aak80gCOeqUvDBz98SlniKK5Bm1ZlZeQxTOlzSQNJCj3l1SGl1HDADQviiwAKCdjamqmym3j5MEctxb9ufX3UgMydPw0vHfkTSeJJDTzK8bvui6iwgCANrxUEsEANB+xq7YWeKZYLkkro8BSC7Te1aVFc4nimQYvvC697r5L0gCkCTVZoKwdOOU9FNEAQBtjwILANrJhEdqi+oDrZZ0CmkA/7LXMuHYlWf3+itRZLcRC9MjIstUSepGGsC/bFB4YFz15K/vIwoAaFucQggA7cHd6gP9SpRXwKv19DDz24lLX+pJFNlr1IL0cZFl7hXlFfBqxZbp+gNiAIC2R4EFAO1gTFXtpyRNIwngNb1xf37+7cSQvRrDzHfFRduB1+SyS0sWXfc+kgCAtsUphADQxkqX1Qw1C9dI6koawFEmea6LV08ovIckskvxojmzzMUKE+Do9gYZf/OjF9z4JFEAQNtgBRYAtKFTK7yLKfy1KK+AYzLT90ct28kqniwyrGL2Keb6OkkAx9QzE9pdo9bMyiMKAGgbFFgA0Ib6FNTeKlMJSQBNUhha8MvyeR4SRfxNXJpOBbK7JPUiDeDYTCptePHEa0kCANoGBRYAtJHSqropkn2cJIBmOXvbyXWfIob423kgSksaSxJAM5hfW7xozjiCAIA2OKQSAQC0XsmSF3p07dV1g1xDSANotkMZC0asLeu9iSjiadiidEngmTWSOB0KaL4ndncLR2yZlD5IFADQcqzAAoA20LVXl5spr4AW6xJ69H2588VaDL186mDmJ6K8Alrq9N77oy8QAwC0DgUWALTSmY/UjZXb/5AE0CrnjKmsu5IY4qfmQObTco0iCaAVzL84fPGcoQQBAC1HgQUArTB0o+dHgX4siYtQA62e4Onr46p2nEQQ8TFiUXqwSdeRBNBq+R7px+XzyhkvAEALUWABQCv03LX7C5LzjSrQNgoynvoWMcRH5JkfSepBEkCbGLup5xms2AaAFuJaEwDQQqUP1wywVLhJUnfSANp0cDJ55fjCP5JE5yqpmP1uyeaTBNCmduVlwtPWXpDeQRQA0DyswAKAlk6y88Kvi/IKaHNu/q2JSz1FEp3n1IpPdDHZV0kCaHNFDWF0PTEAQPNRYAFAC5RW7S6Tq5wkgHbg9qb9eXUfJIjO012Fn3HpVJIA2uUgN2vYonQJOQBA81BgAUCzx50emEe3idOwgfZjmjuuqq4PQXS8Yfd+6QSXriEJoN2EgWe43h8ANBMFFgA009iq2vdJKiUJoF31yUiziaETZtap8GaTepME0K7eUrzwuguJAQCajtUDANAMp1Z4lz4FdU9KGkAaQLurV6POWHVO4Wai6BjDF88Z6pGqxZecQEf42+l7N71p/oz5GaIAgGNjcAIAzVBUsPvDorwCOkq+pfRFYug4HukrjA+BDnPapp5vvJgYAKBpWIEFAE00cal33Z9f95Skk0gD6DANHumM1WcVPk0U7at44ZxiMz0qCiygIydjTxV1C9/40KR0I2kAwNExQAGAJjrQpe7jorwCOlpeENgcYuiAibRpLmNDoGO5dGrNwcxlJAEATRirEAEAHFvJkhd6dO3Z9WlJx5MG0OEyGQuGrS3rvYko2kfx/XNGWaDVjA2BTrE1szc8beOMdD1RAMCR8S0bADRB155dPybKK6CzhKFnvkQM7ccCpUV5BXSWQWGv6L3EAADHGK8QAQAc3ag1nhceqvu7uHg70JkavDFzyupz+j5DFG2rZNHs0+X2V/HFJtCZnqheFb5J6XREFADw2hioAMAxpA7tvliUV0Bny7NU+HFiaA/2WcaEQKc7fcSZ0VRiAIAjY7ACAMfg8k+RAhALHxm1ZmcBMbSdkiXp4+W6lCSAzhe5f4YUAODIKLAA4ChKl9eeK2kkSQCx0Ds8aB8ghrbjmejjkrqRBBCHN6QmDV987RiCAIDXRoEFAEdhkVh9BcTqTWmfnLjUUwTReuPmfaqbyT9CEkB8eBR8khQA4LVRYAHAEYx5uHaIpCkkAcTKoIN5tdOIofX29exZLqkfSQCx8u6SJWnuegwAr4ECCwCOJKUPcpwE4icKgg+SQluwD5EBEDv5lml8LzEAwH9jYgYAr2HiUk+57AqSAGLIfVrpwzXcGbQVShbNPl3y8SQBxPAQJ/uQXEYSAPCfKLAA4DUcyK+dbvL+JAHEUqhU6n3E0KoJ8iyJCTIQU6eXLJkzgRgA4D9RYAHAa07uxKk1QIyZ+QfkzjimBYbOS+ebi1OUgDiLxKnSAPAqDPwA4FXGL9veXzIu3g7EmWtI6Yq6txBE84U9G98uLt4OxF352Ip0b2IAgH+jwAKAV2kMUjMkhSQBxJtFeg8ptIDbJYQAxF63gx5dSAwA8G8UWADw6rmdq5wUgKzwrqEbPZ8Ymm7o0nRPmaaSBJAF4xFzxiMA8AoUWADwCi/f2czGkQSQFYq61+3mNMLmDPz2Z94uqRtJAFlh8tDF6T7EAACHxzFEAACvkApmiDtzAdnDfQYhNJ0FIi8ge+QHnnk7MQDAyyiwAOCVkzszlusD2fSelS7iNMKmOf3ez/eSazJJAFl0jOOyBgDwLxRYAHDY2BU1J8s1hiSArFLIaYRN0yW/6/mSupIEkFXext0IAeBlFFgAcJg3hlPE6YNA9olYVdTEoLh4O5B98g5a9FZiAAAKLAD4FzdNIQUg+5g5xcwxD3AyuZ1HEEA2vn+d8QkAiAILACRJE5d6yiS+4QSy0+mlj9S+nhiOrHjhnDdLOoEkgOzj0jRSAAAKLACQJO3Lry2TVEgSQNaOaDiN8GhMrFIDstfJIyvSbyIGAAz3AACSGcvzgex+E/MePuohjlOkgWwWqZESGkDOo8ACAEnmOpcUgCx+D8snlc/zkCT+29Cl6Z6SxpIEkL3cjHEKgJxHgQUg541a83x3SSNIAshqvZ4ZUDecGF5jsHeo8UxJKZIAspe7ysrnlVPSA8jtMQ0RAMh1qYPdxkrKIwkgu0WRjSeF/2YucgGy/X0s9X6819ChJAEgl1FgAch5blZGCkASJnhOUfNaxzjnGAckYuLmjRzjAOT2cZAIAOT8pNdYnQAkgUsTSOFV0unAuP4VkIzxihivAMhtFFgAcnzG6+bO5A5IiJPKKncNIoZ/G3pmplhSAUkACRiyiNOkAeQ2CiwAOW105Z7TJPUhCSAZGtwopF850ItsDCkAiTF42L1fOoEYAOTsuIYIAOQyU8Rdy4AkDWzMi0nhlQM9LyEFIEFSKd7TAHJ4XAMATHYBJESkgMndK7iMPIAECcW4BUAOz92IAACTXQBJYZTSr+LDyABIFI5xAHIWBRaA3J7scnoNkCyuwWNX1PQmCGnYkmsHiGv8Ack6xAUUWAByFwUWgJw1ftn2XpK4YxmQLOaZvKHEIKU8pKAHksY1tHxeeUgQAHIRBRaAnJXx/DdJMpIAkjbBiyiwJEUevYkUgMTp+mS3019PDAByEQUWgNyd3IViAAgkkWkIIUjygByAJL61Q45xAHITBRaA3J3jRj6YFIAkzu7Ee/vlIMgBSOQAhgILQG6iwAKQsyJjkgswuUswJwcgkeOXyBi/AMhJFFgAcniOS4EFJBLFjeQymQayMwAJHL+Yc4wDkJMosADkssFEACRxdqcTRq15vnsuRzC0In2CpO7sDEAiD3KMXwDkJAosALnJ3SRWJwBJnd2pvmdOv79DZQaxGwCJNZgIAOQiCiwAOWnEQ7UFkrqSBJDQAY5njs/xAE5gLwAS6zil08zjAOTe8IYIAOSiMN/6kgKQXGbK6fe4uR3HXgAkdxgz9EwVEgOAXEOBBSAn5UVM7oAk8xwvcNyckh5IsFRGjGMA5BwKLAA5OrkTkzsgyXJ+BVbAMQ5IsCjI8B4HkHMosAAwuQWQwNldbr/H3SNWZwBJnsRFrLIEkIPHPiIAkJMsYuAHJPo9nuMFllkfdgIguaKASyEAyD0UWAByc+CnoBcpAMllUs+cfv0ujnFAknluH+MA5CYKLAC5efCLojxSAJI8t7MuOR2AWT57AZDgcYyL9ziA3Dv2EQGAnJzcMrkDEs3cc/09zjEOSPI4Rt6FFADkGgosALk58HNj4AckmSnH3+NMboGEz+IoqQHk4KEPAHLx4GfOwA9IMFZgMbkFEs1ZSQ4gB+dwRAAgJ8d9TO6AhM/tcn6VJcc4INFYSQ4g91BgAcjNYZ8sRQpAgnGBY25UAST6EEdJDSD3UGAByNWhXwMZAAAAAEB2oMACkJPc/BApAAAAAEB2oMACkJs8qCcEAAAAAMgOFFgAcpK5U2ABAAAAQJagwAKQk6KAAgsAAAAAsgUFFoCcZJFxDSwAAAAAyBIUWABykgVWRwoAAAAAkB0osADkJlcNIQAAAABAdqDAApCb3CmwAAAAACBLUGAByEmZwHeQAgAAAABkBwosADnJI1ZgAQAAAEC2oMACkJu6HmQFFgAAAABkCQosADlp7ej++yXtIQkAAAAAiD8KLAA5y6UtpAAAAAAA8UeBBSBnmdkWUgAAAACA+KPAApC7PNpCCAAAAAAQfxRYAHLZFiIAAAAAgPijwAKQs9wpsAAAAAAgG1BgAcjdA2DKnyIFAAAAAMiC+RsRAMhVe3sVbZJUTxIAAAAAEG8UWABy1sahVi/pbyQBAAAAAPFGgQUg120gAgAAAACINwosADnNnAILAAAAAOKOAgtATnOzalIAAAAAgHijwAKQ0yxsXE8KAAAAABBvFFgActrKM/s+K+kZkgAAAACA+KLAApDzTKoiBQAAAACILwosADnPZZWkAAAAAADxRYEFIOdZ5KzAAgAAAIAYo8ACkPO6NRasl7SXJAAAAAAgniiwAOS8hyZZo7lWkAQAAAAAxBMFFgBIctMDpAAAAAAA8USBBQCSQosWkQIAAAAAxBMFFgBIWl7WZ4OkZ0gCAAAAAOKHAgsA/sn0R0IAAAAAgPihwAKAw8y1mBQAAAAAIH4osADgsMYu0QOS6kkCAAAAAOKFAgsADls7uk+d5NyNEAAAAABihgILAF7JNI8QAAAAACBeKLAA4BUsiP4g6SBJAAAAAEB8UGABwCusPLPvbpdxN0IAAAAAiBEKLAB4Nec0QgAAAACIEwosAHiVfNXfJ2kvSQAAAABAPFBgAcCrVE7ot0diFRYAAAAAxAUFFgC8BnP7ISkAAAAAQDxQYAHAa1g5oWCFpPUkAQAAAACdjwILAI7AZT8hBQAAAADofBRYAHAEDfXRLyQdIAkAAAAA6FwUWABwBI9OKqqV6dckAQAAAACdiwILAI4iioJbJUUkAQAAAACdhwILAI5izYTeT5hpCUkAAAAAQOehwAKAY4ikb5ACAAAAAHQeCiwAOIbVZYV/krSOJAAAAACgc1BgAUBTmH2dEAAAAACgc1BgAUATDHq29z2SHicJAAAAAOh4FFgA0ATzZ1jGXWmSAAAAAICOR4EFAE20enzBfEnrSQIAAAAAOhYFFgA0lZnLPE0QAAAAANCxKLAAoBlWjSu8V9IakgAAAACAjkOBBQDNYeZREFwtyQkDAAAAADoGBRYANNOacb0rXfodSQAAAABAx6DAAoAWsEZ9TtJBkgAAAACA9keBBQAtsOqcws1u+hZJAAAAAED7o8ACgBbqcaj+Jpc9TxIAAAAA0L4osACghR6adPxeM32WJAAAAACgfVFgAUArrCor+I3L7iMJAAAAAGg/FFgA0EqRZz4haQ9JAAAAAED7oMACgFZaO6HPNpfNJgkAAAAAaB8UWADQBlaX9f5fc68kCQAAAABoexRYANAWzKLGIPygpP2EAQAAAABtiwILANrI2rLem1z2OZIAAAAAgLZFgQUAbWj1+ILvcldCAAAAAGhbFFgA0MYaM8EHJf8HSQAAAABA26DAAoA2tu7sXttNdoUkJw0AAAAAaD0KLABoByvHF/5R0q0kAQAAAACtR4EFAO1kVVnBFyUtIQkAAAAAaB0KLABoL2ZRaDZTps2EAQAAAAAtR4EFAO1oeVnBzkj+LkkHSAMAAAAAWoYCCwDa2ZqyonVyXUUSAAAAANAyFFgA0AFWTSj8kUnfIAkAAAAAaD4KLADoICvLCj4n6TckAQAAAADNQ4EFAB3FzEPbc6XkVYQBAAAAAE1HgQUAHWh52YADmfrwQklPkgYAAAAANA0FFgB0sLWTeu9QFJwv6UXSAAAAAIBjo8ACgE6w6qzefwstepukGtIAAAAAgKOjwAKATrK8rM+GyPxtkmpJAwAAAACOjAILADrRmrKidW7BdLn2kQYAAAAAvDYKLADoZKvLelcpsHdJOkgaAAAAAPDfKLAAIAZWlRUscfMpkvaQBgAAAAD8JwosAIiJ1WVFD7vsrZJ2kgYAAAAA/BsFFgDEyOrxBasj83MlbScNAAAAAHgZBRYAxMyasqJ1lgknuux50gAAAAAACiwAiKWVZ/f6a77Xl0paRxoAAAAAch0FFgDEVOWEfs93r68/W1IFaQAAAADIZRRYABBjD006fm/3+oILJX2PNAAAAADkKgosAIi5hyZZ46rxhR8115ckRSQCAAAAINdQYAFAllg5ofCrkdv5knaSBgAAAIBcQoEFAFlkzYSCRRmPRkpaTRoAAAAAcgUFFgBkmbUT+mzrXl9wtqSfkAYAAACAXECBBQBZ6KFJdnDV+MIrXfqopAMkAgAAACDJKLAAIIutHl/4vSAIR0laRxoAAAAAkooCCwCy3IpxvR7PdCkYK/lXxF0KAQAAACQQBRYAJMDa0dawanxR2gNNlvQciQAAAABIEgosAEiQ1eMKH8x0iYaa/NtiNRYAAACAhKDAAoCEWTu6T93K8UWfNI/OkfQ4iQAAAADIdhRYAJBQKyf0Wda9vuDNh6+NVU8iAAAAALIVBRYAJNhDk+zgqvFFaffMm116gEQAAAAAZCMKLADIAasn9N24enzheR7obZJtJBEAAAAA2YQCCwByyMsXee890syvllRHIgAAAACyAQUWAOSYtaOtYWVZ0e2Z+uBUd31d0n5SAQAAABBnFFgAkKPWTuq9Y/WEws81ZMLBkr4m6QCpAAAAAIgjCiwAyHHrzu61fdX4wi9YmDlN0vckHSIVAAAAAHFCgQUAkCStPLPvs6vGF340pXCg5F+RVEMqAAAAAOKAAgsA8B+qxvd6adX4ovTOuoKTZP4+SU+QCgAAAIDORIEFAHhNT02zQ6vKin4x6LmCoe7+LklLJEUkAwAAAKCjpYgAAHA082dYRtLvJP1uXNWOkzKeukzSRyQNJh0AAAAAHYEVWACAJltedtxzq8YXfm3QcwWnSna+pPmS9pMMAAAAgPbECiwAQLMdXpW1UNLCcVXPdGvM9DjXAiuX2ztl6kFCAAAAANoSBRYAoFWWlw04IGmBpAXjl23/WL3nv90Cf7tcb5NUREIAAAAAWosCCwDQZion9Nsj6S5Jd5XP83Db6+pGeKBzzf0CNxsnTl0HAAAA0AIUWACAdnH4NMO1h/98raxyz/EZZc6O3Mab+XhJI/kcAgAAANAUTBwAAB2ianyvlyT99vAflSx5oUe3Hl3GREEwwdzfLKlE0hBJRloAAAAAXokCCwDQKaonn7hP0tLDfyRJE5e+1PNAXpdhkXmxmZe42+n2cqk1UFI+qQEAAAC5iQILABAbD006fq+kFYf//Jt7UPqXnSdZaIMV2BD3YKBcfc2ivmZ2nFx9XeorqY+k3pJC0gQAAACSgwILABB/ZtFq6Rm9/OeRpvxI+TwP//G6ut6SlAkbuzdmUl0IMncEeZl6UgAAAEgOCiwAQCIdvoj8rsP/dxeJAAAAANmL25kDAAAAAAAg1iiwAAAAAAAAEGsUWAAAAAAAAIg1CiwAAAAAAADEGgUWAAAAAAAAYo0CCwAAAAAAALFGgQUAAAAAAIBYo8ACAAAAAABArFFgAQAAAAAAINYosAAAAAAAABBrFFgAAAAAAACINQosAAAAAAAAxBoFFgAAAAAAAGKNAgsAAAAAAACxRoEFAAAAAACAWKPAAgAAAAAAQKxRYAEAAAAAACDWKLAAAAAAAAAQaxRYAAAAAAAAiDUKLAAAAAAAAMQaBRYAAAAAAABijQILAAAAAAAAsUaBBQAAAAAAgFijwAIAAAAAAECsUWABAAAAAAAg1iiwAAAAAAAAEGsUWAAAAAAAAIg1CiwAAAAAAADEGgUWAAAAAAAAYo0CCwAAAAAAALFGgQUAAAAAAIBYo8ACAAAAAABArFFgAQAAAAAAINYosAAAAAAAABBrFFgAAAAAAACINQosAAAAAAAAxBoFFgAAAAAAAGKNAgsAAAAAAACxRoEFAAAAAACAWKPAAgAAAAAAQKxRYAEAAAAAACDWKLAAAAAAAAAQaxRYAAAAAAAAiDUKLAAAAAAAAMQaBRYAAAAAAABijQILAAAAAAAAsUaBBQAAAAAAgFijwAIAAAAAAECsUWABAAAAAAAg1iiwAAAAAAAAEGsUWAAAAAAAAIg1CiwAAAAAAADEGgUWAAAAAAAAYo0CCwAAAAAAALFGgQUAAAAAAIBYo8ACAAAAAABArFFgAQAAAAAAINYosAAAAAAAABBrFFgAAAAAAACINQosAAAAAAAAxBoFFgAAAAAAAGItRQTJVT7Pw+dO2ts3CtTXMw19ZdZXpr6RBz1N3k2STN7TZXmS5FIRqQFILLf9Zn5IksxV56ZIrsgC1cltdxT4DkW+Q41RTdTjUM3a0f33ExoAAEDbGluR7r1Pjf0Ct+M88L5BFPSVvEdkXiBJgayLZN0PD+B6SLbv5X/0hsh8rySZ2QFz7Y3caoIgU5PJWE2Ql6o5vW5jzfwZ8zOknEwUWFls6EbP775r5xssyBuiyAfLNMTMB0euwSYN2Kq6fpKkSJIdXmznksn/PZ+T/eufjUgBJJm94thn/z7wuR8+GkaH/0UqVHiou8ZU1h6Q9KxLWwJpi7u2KLAtLttioZ5YNbZ3DaECAAD8p5ELrx2UMTvFZIMj2WCzaLA8GCL5YEknHFAmL5BJJpmb/PAYzQ7PSP0V/6tX/rP9++/IX/63Zi73QEEgKZPREz3PUEnFnO0ybZNri2RbXL4lcN8SWOrp4Pjnn1w7+s4GtlJ2osDKEmNX1JycaUwVB+YlcpW4qdhq686QhXny6F/tkztFFAC0kW6S3mDSG/zwoEnuL38J0CiVVtY9b/INMlWb24ZI0Yb9hYV/3TjU6okOAAAkfo5ake59SJlidxW7abikYknDMlKBdLhgkh/+5tA78qn1k6ufpFH/XLLhZsooo8xLJzSUVMx+3KQNkbRBCqqDTKZ6/QVzn2OLxh8FVgyVz/NwS/+dZwRBON7dJ0h2lmc0OLBXNs8AgM5k8v6S+ss12eUymXrU1jWOqapdb+6VbrasoTF8aN3ZvbaTFgAAyHYj/5ju35iJxlvkExRo/AHPjJQUZNnkNE+yEpdK/rney8NAxRVz/mHSWpcvC8wr9/nu1U9Nu+MQWz1u4290PvdgTGXdm91siszfaq4xkroTDAAk4oN2k6RHIvfFQSp6cOWZfXeTCtpbScWczZIGkwSQ0OmD7I4N066/iiTQnoYtuXaAZcIpJj9P0gRJJ+bQy98n0yq5HlQQLq6enF73H9fiQWeNq9EZxqzc3VeZ6C3uOtek6ZJOIhUASLyMTI/K/X6LbMHKCQX/T2YMhtDmKLCAZKPAQnuYuDSd2nWw4Ux5eL6bnyvXm+kM/mW7SQ9FpgejKLxv4/T0C0TS8dgZO9C4qro+GUXny1Uu2RRxCicA5LpnTf47uc9fOb6okjILbYUCC0g2Ciy0lfJ55eGm3qdPMtflcnu7Dl+/CkcVSVou9/kZpe6hzOo4FFjtbMIjtUX1oV9wuLSaLCmPVAAAr2Gbyf9AmYW2QIEFJBsFFlqjfF55+Ldep43zKCiX6RJJ/UilxTKSVsh9vlKp31RPTr9EJO2HAqtdPlE8KF1R9xaLNEvShZLyCQUA0AxPSPppQyb8CReBR0tQYAEJn25QYKEFRiyY/QYPgytd/n5Jx5NIm6s36V6X/fL0vY9XzJ8xP0MkbYsCqw2N+su+14Vhw+WSZkl6PYkAAFrpkKT7PNCdq88s+BOrstBUFFhAslFgoalOrfhEl25W9HaLfJZMb6UD6DDPmuyuwDPfWzd97lbiaBvsvG1g9PLd40OPPu2uCyWFJAIAaAdPyu3bB/cd+Gn15BP3EQeOhgILSDYKLBz7cyB9sinzCZc+JKmIRDpNo1z3RR5947Hz51YRR+tQYLX4U8OD0mW7pltgX5CsjEAAAB1kt8l/pjC6deWZfZ8lDrz2xIUCC0j0VIQCC0cwdPGc4alIH3XpckldSSRGTGvl+nafbuGvH5qUbiSQlkSIZhlX9Uy3Ru/9ITO/Wq4hJAIA6CSHXPp1GIS3rhjX63HiwCtRYAHJRoGF/zruL5w9RWaflfRW0oi9v7t0255u4Y+2TEofJI6mo8BqoqEbPb9nXd0VkduXTd6fRAAAMRFJ+j9FwexVZ/X+G3FAosACko4CC/80fNG1EyIPbjBpImlknZdc/s093VK3U2Q1DQXWMYxa43lhfe0lcvuyuDA7ACC+Ikn/F5p9aXlZwVPEkdsosIBko8DCsPuvLQuC4Hqx4ioJnpH7N/Zb3fefmnbHIeI4soAIjvSp4Fa6rO7SsL7uCbn9XJRXAID4f6aXZ9w3jq2s/c7Iv+zpRyQAACTL0MVzhhdXzFkSBEGlKK+SYoDMbuuuwo0li+ZcLGeh0dEGu3iVMctqR4+trH3EzH/Fda4AAFkm36WP5oWZp8dU7kqfWuFdiAQAgOx2xoNf7FuycM7tYaS1Jp1HIol0ily/KV40Z2XxojnjiOO/UWC9wvhl2/uXVtb+QKaVbjaeRAAAWaynZF/uU1C3YUxVbTlxAACQfUatmZVXsnD2J/PrU3+X6SpJIakkm0ml5qocXjFn3tAF6YEk8m8UWHr5Oldjl9V+sUF5fzNpFrkAABLkDXLNG1NZu3hcVd2pxAEAQHYYXjH7vIaXTtgos9skFZBITjGXysMws7Fk0ezPTVyaThEJRY1KK3eNCOvrlrvpJpl6sEsAABJqcsa9ekzlrvTQjZ5PHAAAxFPx/V8oGl4x5wcuWyzpDSSS03rK7ZadBxrXjlg0pzTXw8jZAmtc1TPdxlTW3myyNXKN4n0BAMgB3ST7co9ddatLK+tKiQMAgHgpXnRduQV5m/zlM4O4mDcOs5LIVVWycM7tQ5eme+ZqCjlZYJUurz03o14bJV0jziEGAOTcGEglJq8aU1n7tYlLvSuBAADQuUoq0icXL5xzv7nPk3Q8ieA1pGS6KjyQeXT4/ddNysUAcqrAOrXCu4yprL3ZIi3h7oIAgJwfBEmf39+ldm1p5a4RxAEAQOcYvmj2O6XMo2aaThpoglM88D+VLJxz+6kVn8ipu03nTIF15vI9b+xTULdcL6+64iLtAABIktubTLZ8TGXtNXLn8xEAgA4yakG6e8nCObe72/9J6ksiaAaT6aruKlgzbFG6JFdedPIHqu42tqp2VhRl1kgayX4OAMB/6Srp5rGVdUvGL9venzgAAGhfIxbNKW0IM4/KdBVpoOVsWOCZlSULZ39SnvxrpiW6wBqxdFfhmOW773XXDyR1Z+cGAODI3HRug+U9Oqay9i2kAQBAe3zYykoq5nw2clWJOwyibXSV2W3DF8353diKdO8kv9DEFlijqnafkZ9vVXK/gP0ZAIAm6yfpj2Mqd6Xlzt2PAABoI0OXpnsWL55zt6Rb9fK1KIE249I7DiizpuT+9LCkvsZEFlhjK+suDqNojaQ3shsDANBsoWRfLq3a/YdRa3YWEAcAAK0zYsHsN4QHGpebawZpoB29QUFm+fCK696TxBeXqAJr4lJPlS6r+5bLfyNTD/ZdAABazuRvDw8Fy0cv2306aQAA0DLFC6+7MBPaGsmGkQY6QE+X/6ak4rqvT1yaTtRKv8QUWBOXvtRzf37tH8z8avZXAADazBsDi1aXVtVNIQoAAJqnZOHsT5r570zqTRroQCb5Z2oOZBYm6bpYiSiwxi/b3n9/fv5fJJvOfgoAQJvrZe4LxlbVziIKAACOrXxeeTh80XX/K7PblPCbpyG+TDrvgDLLhi25dkASXk/Wv5HGVe0sbrC8FZJGsnsCANBuUu76wdjKXbdzcXcAAI5s6NJ0zyd6nvEHd/8YaSAGioNMsGJ4xZys70yyusAavaxuasaDSkkD2CcBAGh/LrtqTOXun41a43mkAQDAfxr5x3T/8EDjI5LOJw3ESP9Iemh4xezzsvlFZG2BVbqsdkZgfq+kXuyLAAB0IPPLw0N1fxhX9Uw3wgAA4GUjF147KGrMPCzZCNJA7IZvUm+XLSipmP3ubH0NWVlgjamqm2mmuyTx7S8AAJ1jWsZ7LRq/bDtfJAEAcl7JotmnZyx4xKVTSQMxli/Z3cULr3t/Nj75rCuwxlTVfljuv5SUYt8DAKBTndNgeX8aV1XXhygAALlqZEX6TXL7s7i0DbJDaOY/Llk056pse+JZVWCNrar9rFzfE3dxAAAgLkob3R8YtXT3cUQBAMg1wxZeOzqjzCOS+pMGsojJddvwitmfyaYnnTVFUGll3VXuulUSdz4CACBWIyC9OcyLWIkFAMgpwxalSwILlkji8w9ZOYRz2ddLFs3+XLY84awosMZW7fqAyW9j/wIAIK5DIJVk5BVcEwsAkAuGL0yfFnjmj6K8QrZz+9rwhXM+kg1PNfYF1tjKuve62w/FyisAAGI+ANLYRqUWlSx5oQdhAACSaljF7FPcMkslnUAaSABz03eHV8z5QNyfaKwLrDFVuy5y+U/ENa8AAMgKbja+S8+uvz+1wruQBgAgaUoq0icHbg+Ia14hWcylO4cvnDMjzk8ytsVQ6fLac+V2t7jbIAAA2TUCkt7Wt6Du53LnCygAQGKc8eAX+0qZP8k0hDSQQKGbfllSMfstcX2CsRxYjv3LnjdZpPmS8tmHAADIPi69Z0xV3U0kAQBIgqHz0vn5Dan5kk4jDSRYvst+X7xwTnEcn1zsCqxRf9n3Og8zFZIK2XcAAMhq15RW1n2UGAAAWc1lQY/Mj+WaRBhIOpN6m+m+oQvTJ8btucWqwBq15vnuYarh95IGsdsAAJCEQZB/u/SRnReQBAAgW5Usvm6umS4jCeSQwWGQub9kyWdjdWOe+BRY7kFY3+NuucayrwAAkBihBcFdYx7ZNZwoAADZpmTRdVfK/YskgZzjGqWo211Kp2PTG8XmiYypqrtB7nxDCwBA8vRSYPeOWrr7OKIAAGSLkoprz5T7d0gCOct1YfGYzJfj8nRiUWCduWzX2yXRagMAkFyDUnnRb8rneUgUAIC4G3bvl06Qgt9K6kIayGUmzRm+aPY74/BcOr3AGrui7g2R2S9ezgUAACSVm87ddlJtmiQAAHE2cWk6FeSF90g6iTQAmbv9rHhJ+ozOfiJB5x4YXurpGf1eUgH7BAAAyeeya0uX7XonSQAA4mrngcytks4hCeBfelkmM6+zL+reqQXWvvz8H0o+lH0BAICcYWb2k9JHal9PFACAuBm+cM4MSVeTBPBfir2x2/c78wl0WoFVWrnrCpMuZh8AACDnFFigu0et8TyiAADERUlF+mQ3fY8kgNdmpsuKK667tLMev1MKrDEP1w4x2e1sfgAAclZpeKj2WmIAAMRCOh3IMr+Q1IcwgCMz+XdGLEoP7ozH7vACa+JSTymluyT1ZtMDAJDTQ6A5pVW7uMYIAKDTlZQ2XiPXJJIAjqkg8syvyueVd/idpTu8wNqfXztb0ji2OQAAOS8w2U/HrqjhSy0AQKcpWZx+s8zSJAE02fi/9Tz9Sx0+cOzIBxtdVTdGMk4XAAAAL3MNiTLhbQQBAOgMg5emuyqTuUtSPmkAzRnC2XXDFl47uiMfs8MKrIlLPRW4f19Sik0NAAD+yaT3j62sPY8kAAAdrffB6DqZziAJoNlSgdmPR62Z1WE35emwAmtfl91flDSSbQwAAF7NpR9MXPpST5IAAHSUYYvSJXL/LEkALWUlDS8e32HvoQ4psMY8svs0c/8SGxcAABzB4H15+V8mBgBARyifVx4GHv1YUh5pAK1g9uVh989+Y0c8VPsXWO6BAv+RpK5sWQAAcOTxjz41ZlntaJIAALS3v/U8/WrJ+cwBWq9LENj35LL2fqB2L7DGLq/7oORnsU0BAMAxhDLdWT7PQ6IAALSXkQuvHeSy60kCaDPnDF805/3t/SDtWmCNWLqr0F1z2ZYAAKCp84ptJ9ddSQwAgPbSGAS3SOpOEkDbcemrox64pqA9H6NdC6z8LsF1ko5jUwIAgCYPgFw3jli6q5AkAABtbdj915aZq5wkgDZ3fEN9l2vb8wHarcAaV1V3qtw/yjYEAADN1K9Lvs0mBgBAm0qnAwuC26T2v1YPkJPMPzl8Yfq09vr17VZgZTy6TVIXtiAAAGgulz4x5pHdp5EEAKCtDB+TucKkUpIA2k2+B5lb2uuXt0uBNXZZ7dskm862AwAALR8A+a3EAABoC0OXpnu6uD4z0O5cF5ZUzH5Le/zq9lmBZbqRrQYAAFo3nPC3j11WdyZJAABaKzyQuUrSiSQBdITga/K2P1W3zQussZW7LnRpDBsMAAC0VmTObc4BAK1y+M5onyEJoKP46BFLrpvW1r+1bQssd3NZmo0FAADagklvK63adQ5JAABaqqG+y6ck9SEJoONEUXR9W6/CatMCa8zyundLGsGmAgAAbcU84NIEAIAWGfH7dKHMP0kSQIeP4N48fPF172jL39h2BZZ74K45bCQAANC2fEJpVe1byQEA0FxR1+jzkgpJAuiEEZz7DUqn26x3arNfNLaq7p0mFbOJAABAWzPXtaQAAGjWHLUi3VvuHyUJoNMMLR7T+Pa2+mVtVmC59Gm2DQAAaCeTRlfVcZMYAECT7VfmI5IKSALoPKagzW6g0CYF1ujlu8dLGsemAQAA7SVwv5oUAABNMWrNrDyTPk4SQGfzCSUV157ZJmPBNvklmYhbkgIAgPZWXla5axAxAACOpXH7Ce+RNIAkgM5nCtrkjL1WF1hjHq4dItPb2SQAAKCdpRoVXEUMAIBjcecSN0Bs3o/SO4dVzD6ltb+n9SuwUv4pSSGbBAAAdMAQ6INjV9T0JgcAwJGMWDR7oqSRJAHERhi4tfpLyFYVWOOqnukm2WVsCwAA0EF6KwovJgYAwJFEro+QAhAzpstHLUh3b82vaFWBlYl6zpBUxJYAAAAdxV0fIgUAwGs548Ev9pXsHSQBxE5hYyrzztb8glYVWCYGkAAAoMONHl21i1NDAAD/pcuh1PskdSEJIH7c9cHW/HyLC6xRVbvPcLMyNgEAAOhoFulKUgAAvFpkfD4AMXbOsPtnv7GlP9ziAiuUz5Jk5A8AADqamV02as3z3UkCAPBPwxddO8GkN5EEEF+BBe9v8c+25IcmLvWU3Ll4OwAA6CwFYX2PdxADAOCfPLIrSAGIOfP3ls8rD1vyoy0qsA7k171FUj+SBwAAnTdT0QxCAABI0qg1s/JkdhFJALF34hM9Tz+nJT/YogLLjQEjAADobD5l1JqdBeQAAKjffvzbJPUhCSALRnAetKhTanaBNWqN58n1DiIHAACdrEtYbxcSAwDAWJULZM/71fxdE5emU839uWYXWHZw97mS+hI5AADodK5yQgCA3DZ0XjpfsreTBJA1jtuxP5rU3B9qdoEVcvogAACIDZs8rqqOU0YAIIeFPaPJkopIAsgeQeDN7paaV2C5By6fRtQAACAm8jLSZGIAgBzmEaeTA1n3vtWFSqeb1Uk16y+fuWx3qaTjSRoAAMRGpCmEAAA5zOw8QgCyTr/i0ZmRzfmBZhVYURBNJWMAABCviYtPlXtAEACQe4YtSpdIGkASQBYO4QJv1peQzRvsmfENJwAAiJt+Y5fVjSQGAMjBCbBnmKMCWStonwJrXFVdH7lGEzAAAIgbDziNEABykRnHfyCLR3Djhi5ON/lmPE0usA5fIDUkYAAAEMMpDBMYAMgxp9/7+V5yjScJIGuFgUdvbepfbnKBZe6TyBYAAMSTjx215vnu5AAAuSM/r+sESfkkAWQvczW5a2pygeXmNNsAACCu8vIOdBtDDACQOwL3MlIAsl3U5K6pSQXWhEdqi+R2BsECAIDYDn8C48s2AMghHnD6IJD9bNioB64paMrfbFKBVR9YmZp7x0IAAICOHP4YExkAyBUTl6ZTcpWSBJD1gob6vHFN+otN+30szQQAAPHmrvHl85wbzgBADtixv2GEpJ4kAWQ/U9NW0Td1VRXfaAIAgLjr/ezJu95EDACQfEEQsMgCSIimng587ALL3SSNJFIAABB3kdtoUgCAnJjycrwHEvN21mi57Fh/7ZgFVumyuiGSepMoAACI/fjHgmJSAIDks8hKSAFIjF4jFqcHHesvHbPAstA5MAAAgOzgjFsAIOkmLk2n3HQGSQDJEXl0zC8hj11gRQEDQQAAkC0YtwBAwu3cpzMkdSEJIEmiY47hjllguTlL8QEAQLboN3bF3hOIAQCSyy3DlxVA8rR+BZb4JhMAAGSRyBv58g0AcnyiCyC7uKx1BdaoNZ4n6fVECQAAsoVF9kZSAIAkH+h1OiEASXtb6w3l88rDo/2doxZYwYG6AZJSRAkAALLIYCIAgCRPdH0IKQCJk/fXbkNPOtpfOGqBZQEDQAAAkGUTG3PGLwCQ7CM9x3kggYIwc9RyOmAACAAAksRdfDMPAAk16oFrCiQVkgSQPGZHL6ePfhH3iBVYAAAg63D9TgBIqMaGfI7xQFJFavkKLDcKLAAAkHUKRizdVUgMAJBAxumDQHLf39FR39/BMX56IAkCAIBs06WbM4YBgARy+QBSAJL6/rZBR/vvRy+wzPsRIQAAyDZRFDCGAYAEskgc34Gkvr/lxx3tvx+9wHI7jggBAEDWidSXEAAgedzEHBVILGthgeVukooIEAAAZN/4hwILAJJ5eOf4DiRYX7nsSP/xiAXWiIdqCyTlkR8AAMi+GQ6ryAEgiZwCC0iyvLGL0r2O9B+PWGB16xIw8AMAANk6w2GCAwDJPMAzTwUS7EDYeMQx3BELrAapD9EBAIBsFCiiwAKARDIucwMkWNTozS+wUpmoO9EBAICsHPzIupECACQS81QgwYIwOOIY7ogFlgeWT3QAACAbmTGOAYCE6kIEQHK5/Ijv8SMWWFEUcWAAAABZOvpxxjEAkEx8QQEkegx35Pf4EQusIAg4MAAAgOwc+xgTHABI4MTWJOURBJBcgYLmr8Bylt4DAIAsZc4pJgCQNEPnp/MkGUkACdaSFViKIgosAACQpWMfCiwASJx+rK4Fkj+G85aswKLZBgAA2cmO9iVdbojYC4BEH+Ny8j2eV6sUWx9INrejXOrqyD8VNBAdAADI0tndodwe/amenQBI8iHOD5ECgGQe3+yIx7cjFlgWOAMfAACQnTzHCyxjHAckWXSUCR4AZPkB7ohjmCMXWM7ABwAAZCfL+RVIAeM4IMmYqwFI6hhOUfNXYEUW0OoDAIDsnNtZbp9eY8YphEDCZ3i8xwHk3PGNFVgAACB53HJ6HONcHwdI9vzOeY8DSKaoJdfAcgsOEh0AAMhGzkXcGccBCWZcAwtAYo9vLTiFMDTbRXQAACArudfkeAKM44Bk20kEAJLIPO+Ix7cjFliHGrSD6AAAQFYKlNsFljOOAxL9FjfnPQ4gkRrDI49hjlhgnfpCz52SIuIDAADZN7sLcrrAMlMNOwGQXJnAeI8DSOThbeMK1R7pPx6xwJo/wzLSkX8QAAAgrsxyewVSxCmUQKKlGiJWYAFIol1Kp4+4kCo4xg8z+AEAANkop8cwgQVMboEE635gP9fAApBz47djFVgMfgAAQNZxz+0LHEdBxJeQQHLtXz7jWweIAUDSmFnLCyyXnidCAACQbaJM6tlcfv3eqOfYC4DE4v0NIKEDGD/q8e3oK7Bcm0kQAABkmYNrz+r+Qi4H0Gv/vi2SnF0BSOD8TszRACTWUY9vRy2wTLaV/AAAQDYxaYvMcrq8OXx60UvsDUACuVFgAUjm4U2+5Wj/PTjGCJCDIwAAyK7Bj2sLKUgSOQBJFATOextAQgdxrViB5d7IwREAAGQXvoD7J3IAEjnBYwUWgIQKWlFgHdrXsIUEAQBAlmH8IlaiAcl9b7MCC0AyD2+7u6aOehmroxZY1ZNP3CfucgEAALKJ+ZOEIAUmcgASKBOGvLcBJNEzWyalDx51bHPMX+HaQI4AACBrJndu1aQgZTwiByB5nt04Jb2TGAAk0DHHLccusEwMfgAAQHZw7VtbVsD1YST12rd/o6QMSQCJwuICAMlkdszj2zELLJdxkAQAANkh0GMyiwhCWj7jWwckPUUSQILmdxRYAJKr9QVWEGZYgQUAALJjcuesHG/uYBBANh3keE8DSKhM0PoCa2+vok2S6kkTAADEHSvHXz3XZbILJGp+p5CSHkAS1Wf262/H+kvHLLA2DrV6SX8lTwAAEHeuaD0pvDIPW0cKQGIc8j3aRAwAEmjjxhnpYy6cCprym0yqIk8AABBzDVGXA2uI4d/q8xuqJDlJAElgq5sywQOArDu6SZVN+XtNKrAiNwosAAAQd2vWju6/nxj+bdO5X62Rjr0kH0D8ufsyUgCQyOObtWGBFYZRJZECAIB4T+7EeOW1chG5AEkQyHkvA0ikKIjarsBaMa5oi6RniRUAAMSVBUzujjDYIxcg+3kqSq0gBgAJtO2xyXOfaeKYpsmWkysAAIjt5M5TXPLgtYIxij0g69/H0uNrL0jvIAkACdTk06ObXmC5/YVcAQBAHJn0RNX4Xi+RxH+rnnLj3yS9SBJAFnN7hBAAJPQA1/YFlqW0hGABAEAcRW6LSeFIgzi5zP9IEED2CgLmYgCSyaNUk49vTS6wVp5Z8KSkvxMvAACIGwtEgXXUwSEFH5DFGlKpQ38mBgAJ9MSG89NPN/UvN+caWHJ3Bj8AACBuDoTazaUOjiIKw8WSMiQBZB+XKte+7Wt1JAEggRY15y83q8AyCxaRLwAAiBMzPbS8bMABkjiyjVPSOyWtIQkgG7GIAEBSx3DNWyHerAIr02XfUkkHiRkAAMQF179q6hyYnICsPMYFvHcBJNKB7nv2NGsFfbMKrLWj+++XxPnXAAAgRrM7v58Qjs3dF5ACkHW2bZx8QzUxAEigPy2f8a1mraAPmvsILp9PzgAAICbWrD6r8GliOLYN59+w1qSnSALIJjZfJicHAIk7upnuae7PNLvAaqjXHyQdIm4AANDpXPMIoRlxmfFFJJBNE7wgwzEOQBIdSqXqm70yvNkF1qOTimolf4C8AQBAJ/MgZGV4swZ+UcBkGMiaI5w2r588dzVBAEgakxa15O6qQcsejMEPAADodCtXjCvaQgxN9+j09KNybSIJIAsmeGbzOH0QQBK5WYs6pRYVWCmv/4MkblcNAAA6cfTjfKHWkkmx9FtSALLgEBewaABAIh3s5sHClvxgiwqsygn99sjEnWwAAEBnacxT4z3E0JJJsf9KYlUHEHOPV09J/z9iAJC8gYj/fuW09O6W/GjQ0se0SD8ieQAA0DlsYeWEfs+TQ/NVT73xCbmWkQQQ4yOcM9cCkNQDXMuPby0usFaOL3hQ0t9JHwAAdPzgx5jctWrsaD8kBSC26gNr/CUxAEigp6tXpR5q6Q+3uMCSmUv6KfkDAIAO9tygZ3stIoaW675vz28l7SIJII789+umfXU7OQBI3uHNf6R0Omrpjweteuy81I8lNbIVAABARzH5T+fPsAxJtNzyGd86YNJdJAHEcH4XcPoggERqDPNSP2/NL2hVgbV6TM8XJFvIdgAAAB0k8kb7CTG0XsZCTiME4ufpDStSfyYGAElj0v3rzku36vqlQaufhEe3sykAAECHDH5Mf1h1TuFmkmi9x6amq2VaShJAjLh/uzWn1wBAXEXSba39Ha0usFZOKFoqaTWbAwAAtP/gJ/gGKbSdwIw8gfjYleme+jExAEgeW7Nh2g0Pt3rc0hZPxd1YhQUAANp36COtWl3Wu4ok2s6jk6+vcOmvJAHE4SBn3984Kb2XIAAkcAz39bb4PW1SYPVo6H2PpG1sFgAA0F4i96+RQpuPKN1c3yIIoNM1yIPvEgOABNpS1C34v7b4RW1SYD00yRrNdAfbBQAAtJOnBz9feC8xtL39VvtLSS+QBNB5XP6r6mnpZ0kCQPIOcH7bQ5PSjW3xq4I2e1JB5k5JO9k6AACgzZlumT/DMgTR9p6adschuX+bJIBOEwUB16MDkEg72vLafm1WYK08s+9uuTjwAgCAtrZ1X0HBT4mhHaUOflvSSwQBdIq710+5YSMxAEgc81va8tp+QVs+t4P7Dt7O4AcAALTp2Ef+lY1DrZ4k2k/15K/vk3QrSQAdLuNheAMxAEig7Zmuqe+15S9s0wKrevKJ+8wY/AAAgDbzVLf6wl8SQ/vb3S38X0nPkQTQccz1yw2T05tIAkDiuM9t6zurBm39HLsdKmDwAwAA2mjsY+mHJlkjSbS/LZPSB2W6hSSADtMQOauvACRw/Cb9o8e+fXe29e9t8wLroUl2UG43s8kAAECrmP918PO97yaIjrPfa38gaRtJAB1wiJN+uuH89NMkASB5xze/YfmMbx1o698btMeT7d7Q+/uScSFCAADQYq7gM9x5sGM9Ne2OQzL7AkkA7W5PKsikiQFAAj2ed/xLP2qPX9wuBdZDk6zRA7+a7QYAAFrG719dVrCYHDpe9ZTr75brEZIA2pH5DWun3PQPggCQuMOb2afWjr6zoT1+d9BeT3r1uMIHzbSIzQcAAJqpIfLws8TQWSNPucLwakkRYQDt4u/7ve7bxAAgge5bP/X6Je31y4P2fOaNCj4tqYFtCAAAms7uWDOh9xPk0Hmqp6T/n+Tc/RFol0Ocf/qpaXccIggACVNvHn6uPR+gXQustWW9N7nsu2xHAADQRNvr6yPuyhUDeUH0RUl7SQJoQ64Hq6feeB9BAEgeu2P99PTf2vMRgvZ+CUHYeJ2kZ9mYAADgmEMf2WcenVRUSxKd7/D1eeaQBNBmDkXuVxEDgATadqjh4Ffa+0HavcBaeWbf3ZJ9hO0JAACO4c8ry3r/ihjio3pV+G0zqyIJoE1c/9j5Nz5ODAASx/wTT1x4y572fpigI17LqvEFC2Wax1YFAABHsN8jfUhmThQxkk5Hngk+LKmeMIBW2ZB3/Iu3EgOAxHH/TUedGh101GuyIHWVpJ1sXQAA8Bqjnzmrzyp8mhzip/r89GMu+xpJAC0WuenD7XVbeQDoRDujxuhTHfVgHVZgrTyz54sm55bYAADg1VYPeq7wdmKIrwPaNVeuTSQBtMi3N0y9YTkxAEgcs08/duFNL3bUwwUd+dpWji/6qcu46wYAAPing6FFV86fYRmiiK+npt1xyF2XiVMJgeZ6PC8TXksMABLHdG/11Ot/3pEPGXT0a2zMBB+U/B9sbQAA4NKnl5f12UAS8bfh/BvWSn49SQBN1hCY3rf2gvR+ogCQMC9G9ZkPd/SDdniBte7sXttNdsXLY1YAAJCrzLRodVnB90kie1SvSn1VpqUkATTJlx6desNqYgCQMO7mH+jIUwf/KeiMV7tyfOEfJf9ftjsAADnrJQWp93PXwSyTTkfy8HJJuwgDOKqHq1eF3yQGAEnjpm9tmHpjRWc8dtBZL7p7feHnJT3G5gcAIPfGPm72vpVn9nyRKLJP9bT0szL7GEkAR1RjmehSpdMRUQBIEnOtP+C1X+qsx++0AuuhSXZQUfAuSXXsBgAA5NDgRz53dVnBYpLIXtVTr/+NXN8lCeC/RC577/oL5j5HFAASZk+UCi9+atodhzrrCQSd+epXndX7b4H75eJ6WAAA5ARzPTjwucI0SWS/vBNevFquR0gCeCW/bsO06xeRA4CkHdzM/IoNk9ObOvNJBJ2dwooJRfe56Wb2BwAAEm9rY0NwyfwZliGK7Ld29J0NGYUzJD1PGoAkaUH1qtRXiQFA0rjsxvVTb/xdZz+PIA5hrB5XMFsuTiUAACC5Dlqkd62d1HsHUSTHxunpF6IoKpdUTxrIcU8Gh8LLue4VgMRxPXjG3se/EoenEosCS2aR8oLLJD3N3gEAQAKZf3jlWYVrCSJ5Hjt/bpVMnyMJ5LA9isJ3PnpRupYoACTM3zNh+J75M+bHYvV8EJdUVo3tXZOxYLqknewjAAAkh5tfv6qs6BckkVzVU2/4tsvuIAnkoIxkl1afn+bu6gCSZqfMp2+cko5NRxPEKZ21Zb03yaN3SDrEvgIAQPYz6Z7V47hoey7YsCq4WqZ7SQI5dpC7qnra9QsIAkDC1Ftk766eeuMTcXpSQdxSWjWhzyMmu0LcmRAAgGyf2T1SU1fwPpnxmZ4L0ukorzGcKWklYSAXuOvm6qk3fJckACTt8GZuH1x//vVL4/bEgjimtXJ8wd3mlma/AQAgO5m0KTS946lpxqrqHLL2gvT+vCBzkaStpIGEH+Pmb1gdXksSABJo9vrp1/8yjk8siGtiKycUXO/u32HfAQAg6zwTyqcsLyvgupY5aO2Um/7hYThF0kukgURyPbhPte/ljoMAknd4szuqp91wU1yfXxDn8FaPL/yEpB+xGwEAkDVeylhwXtX4Ilbg5LANk9ObIgvfJm7Og+RZnukeXvTUtDtYXQogYfznG1YFV8f5Gca6wJKZD3qu4CMu3c3OBABA7NVG5lPWlvXeRBR4bGq6Wq5pkvaQBpLAXOs9api+cVJ6L2kASBTX7/p0S30w7itLg7jnOH+GZaIuBZdLfj97FQAAsbXbZeetKStaRxT4p+rpN6wMpKmS9pEGstwTmcbM5A3n37yLKAAkzJL9VjvzoUnpxrg/0SAb0lw72hq61xeWS1rCvgUAQOzsNo+mrx5fsJoo8GqPTruh0szeJekAaSBLPZ4XZCY9duFNLxIFgEQxLd7dLXxHtpwWHWRLrg9NsoP7Cgve7tL/sZcBABAbu8xt8soJfZYRBY5k/dTrlyjQZJd2kwayiz8aqvGctVNu+gdZAEiYBbu7hhdtmZQ+mC1POMimdDcOtfrBzxW8R2Y/Z18DAKDTvajIJ62cULCCKHAs1VNueMQ9equkGtJAdrA19fmZc9dN++p2sgCQKO6/6dMtfGc2lVdSlhVY0svXxFo1rvf7Zf6/7HUAAHSaZxQFZ686q2g9UaCpHps+d40FOsclVrMg5uwvhxoOvmXTuV+lcAWQrKObdGf16tRl2XDNq1cLsjNx81XjCq8y6RvsfgAAdLgngsDPXnVW778RBZpr/ZQbNnrkb5W0jTQQU/f12LtnyhMX3sIdNAEkikm3rJ96w0fifrfBIwmyN3nzleMLP+vSLEmN7IoAAHSI5Q2Z8KwV44q2EAVa6rHzb3w84+FYydaQBuLFf9inW/iu5TO+xU0HACRJxt0/vn7aDdfI5Nn6IoJs3wqrxxf+UGbni4uCAgDQ3uaHtuet687uxfVg0Gobp6dfULh/oqT7SAMx4HL7SvW0G2dl42k1AHAUe839HRum3/idbH8hQRK2xqqygiUWRmdJepZ9EwCAtmfyb68qK7h4edkAViWgzVRP/vq+0/dueqfL7iANdKKDJrukevr1aaIAkCQu/cMjTVw//cb7k/B6gqRsmJVn9qnOeDRe0jp2UwAA2m5i5/L3rxxf9EmZRcSBtjZ/xvzMhmnXXyX3q8VlIdDxnrMgOmf9tOvvIQoAiWJa62E0dsP5N6xNyksKkrR91k7os617fUGZTD9mbwUAoNWeDSKbuHp80c+IAu2tevqNt5tFk7hDITqM65GMh6PXT5m7ijAAJIr5L/Maw7Mfmzz3mUS9rKRur7FVtbPcdYekfPZeAACaOa8zPRQEqYtXntnzRdJARxr5x3T/KBPNd/cy0kA7ToLuTB3/4sfXjr6zgTSyx4jfpwujLpldJAEc0SG5X1M9/cbbk/jigqRutZVlhXfKNV7SVvZhAACazE3+7R6HCt5GeYXOsO689PNFXYNzTPY10kA72Guyi9dPu+HDlFcAEuY5KZqY1PJKSvAKrH8qq9xzfKMyP5U0jf0ZAICjekkWXLmqrPf9RIE4KFk052K5viepkDTQBtZFkV/62Pk3Pk4U2YkVWMAR3Req8YPrpn010XeKtpzYlO42dnndhzzSN2Xqwb4NAMCrPiqlB/K94YrKCf2eJw3EydAF6YFhmPmFpHNIAy0+xLnu2G+1n39q2h2HiCN7UWAB/+WA3L9YPe3Gb8vkSX+xlktb9szle94YRZm7JI1kPwcAQJJ0UFJ6VVnBrdxlELHlspKK2VfJ7BZxfVM0z4sue/+GadcvIorsR4EF/MeH42PuNnPD9Bs25MorDnJp864Y1+vxnXUF40z6hqQMOzwAIMetixSVrhpf+DXKK8Sayaun33i7BdFZcm0iEDRtt9H8+vzGoZRXABImY9Itmb2pUblUXh0+ruem0spdI8zsR3KNYv8HAOSYA5Lfsq+w8KaNQ62eOJBNRq2ZlVf/0vGfNtlXJHUhEbyaS/8w+VXV0278LWkkCyuwAK+2wD+0fsrcVbn46i2XN/3EpZ7an1/3GUlpSV15MwAAcuCj/5GM2ay1Zb1ZxYKsVnJ/epiC6IeSn0ka+OfMTua/yljq6o1T0juJI3kosJDDDsjtlsy+4KaNM9I5++WjsR9Io5ftPj2w6Afi4qAAgOTaaeafWzmu8Kcyc+JAEpTPKw+f6HH6x2V2g6ReJJLTHjeLZq2fOncZUSQXBRZy1J8zQfjhjVPST+V6EBRYr1D6yM4LLAxul2sIaQAAEqLRpZ80ZsLZ687utZ04kESjFn/pdY1RmHbpSkkhieSUWpfffEB1t3GHweSjwEKOeVbStdVTb/hlLtxhsCkosF5lXNUz3TLe6ypJ14pv8gAA2e3PFkafWnlmn2qiQC4oWZx+szKZ22Q6izQSL5L5XQpSn62enH6JOHIDBRZyxH653bq7e3Dzlknpg8TxbxRYRzB2Rc3JngluluwS5djdGgEAWe/JwP2zKyYU3UcUyDkuK1l83cVyv1nSQAJJpD9FFn76salpyvkcQ4GFhIsk/SpMhV9cd176eeL4bxRYx1C6rGaoWfhlSe8mLwBAzG0z09xuhwp+8tAkayQO5LKh89L5Qa/MFea6TtJJJJKIqcsKSTdVT7t+AVnkJgosJJRLWmjSdeun3bCOOI7yKUAETTOuamdxxoM5osgCAMTPs2b+9W6HCn/w0CRjqTnwCv8ssuRKm/Q6EsnKuV21W3DjhqnXzyeL3EaBheQd3vSgu76w4fwb1hLGsVHENNOYyt3jzKI57ppCfgCATvaMy77eo773nRRXwNGVLPlsD890/bjJrpZ0Iolkw7xOq838xuopNy7gAsaQKLCQnMObuyqCMLp+/ZS5q4ij6ShgWmjsiro3KBN93GUfktSNRAAAHWi9zL+ZyS/8zdrR1kAcQNMNnZfOD3tmLpb8c5INI5H4Tezk+pPMvs2pgng1CixkuXqZ32NmX1s/5YaNxNF8FFitVFa55/hGNX5Uso9L6ksiAIB2+9B2r4zcv7Z6QtH9MmM1AtBKwxddO8E9uEbSdMbF8ZjYhZ66ed209F+JA6+FAgvZyKXd5vqZRdEt6y+Y+xyJtGIsTARto2TJCz269ewy4/CKrHEkAgBoI9tN+kWjBT9aW9Z7E3EAbW/YonSJefRBk18mqYhEOnRmt0mmH4dq/Pm6aV/dTiA4GgosZBMzq4rkP8xvDOetvSC9n0TaIFMiaHujqnafEXp0haQPSOpHIgCAZorM9WcP/Jeh9s5fXjbgAJEA7e/Uik906WZFb7fIZ8n0VsbK7eagSQuiwO/cMPnGP3F9KzQVBRayQK1J8xoDfXfjlBvWE0fb4kO5XQdB3qWod907THqPTFMldSUVAMCRuLTBpHuCwO9aMa5oC4kAnadk0ezT3YNLTT5D0ukk0moZSQ+76Z7wYDjv0YvStUSC5qLAQkwdkFThZvcc8F33PTXtjkNE0j4osDrIuKpnujVmepxrgZVL9i5J3UkFACDzv8o1PwhS96wY1+txAgHiZ/jiOUM9Y+Uyv1iUWc0RSVou9/l5YTRv7ZSb/kEkaA0KLMTIIUkPSJrfTeEfVk5L7yaSDhg2E0HHG7VmZ0FYH06TR1MlmyzpeFIBgJzRIKnKTYsVZRasntCXu9AAWWR4xZyRkp/vsqmSxkgKSeU/7HHpwcB8Scqi+yit0JYosNDJXpS0RKZF3TysoLTqeBRYnc09GLusbqQHmmLuU91srKQUwQBAomwzaUnkvjhIRQ+uPLMvAx4gAYYuTvdJZTLnRuZTJJti0utycTRrrmqZLTaLFof9XqpcO/rOBvYOtAcKLHSwRrmWy7RYQbi4enJ6Hdfs61wUWDFTsuSFHt165I90C8ZLPkGyMkl9SAYAssrTklea2bIoylSyygrIDSP/mO7fmInGW+QTFGi8XCMlBYmb0JnWK1KlB7Ys5Q0PcfdAdBQKLLSzvZLWm2yZS5XBoeARrtcXLxRYMVc+z8MtJ9UWB2ZjoshLzKxYUrG4xTMAxGMiJ3vC5I/JtT4je7SxIVr+6KQiBjsAdMaDX+zb5VA4LpKNCEwl7iqW6Q3KntMO97n0VzOtV+SPBWZr9qp2DRcoRmehwEIb2iWp2swei+TVkWnlm3Zvemz+jPkZookvCqwsVfpwzQAPU8PCwIfKNcSlwZKGHP7D3Q4BoO24pOcl2yxFm821JbLgb1L02P7Cwr9uHGr1RASgqQYvTXfttS8zVKGKze1UyYeY2eDIfUgnnYLYIGmbXJsVaItcm818U6Olqjeu0NNKpyO2GuKCAgvNdMClzSZtMbPN7r7FZRtNwYbqaelniSf7UGAlUOmqvSdaQzTEo8bjFFhfSX1l1tdc/eTqa1IvSXJTgUyBIuXJ1JPkAOSABpn2SpJc+8xV76Z6yWvcgxqZaiSvMdMOi3yHe/jczj29tj41zVhtAKDdDV6a7tqrXoMt09jfFPRz877m3tcV9HX3vmbqK1eepC4KDt/R2tVL/75+6gGZDh7+93VyRTLtd3mNyWpcvsMs2OEe1VhgNZmGcOubDmx8jhUHyBZjK9K9DyizjiRyke+VWYO7InPVHZ7P7jFTjWTbzaOayKzG3GqkzPaM523ZOD39ArkBAAAAAAAAAAAAAAAAAAAAAAAAAAAAAAAAAAAAAAAAAAAAAAAAAAAAAAAAAAAAAAAAAAAAAAAAAAAAAAAAAAAAAAAAAAAAAAAAAAAAAAAAAAAAAAAAAAAAAAAAAAAAAAAAAAAAAAAAAAAAAAAAAAAAAAAAAAAAAAAAAAAAAAAAAAAAAAAAAAAAAAAAAAAAAAAAAAAAAAAAAAAAAAAAAAAAAAAAAAAAAAAAAAAAAAAAAAAAAAAAAAAAAAAAAAAAAAAAAAAAAAAAAAAAAAAAAAAAAAAAAAAAAAAAAAAAAAAAAAAAAAAAAAAAAAAAAAAAAAAAAAAAAAAAAAAAAAAAAAAAAAAAAAAAAAAAAAAAAAAAAAAAAAAAAAAAAAAAAAAAAAAAAAAAAAAAAAAAAAAAAAAAAAAAAAAAAAAAAAAAAAAAAAAAAAAAAAAAAAAAAAAAAAAAAAAAAAAAAAAAAAAAAAAAAAAAAAAAAAAAAAAAAAAAAAAAAAAAAAAAAAAAAAAAAAAAAAAAAAAAAAAAAAAAAAAAAAAAAAAAAAAAAAAAAAAAAAAAAAAAAAAAAAAAAAAAAAAAAAAAAAAAAJrAiCCZNp3+gV7d9zcMyoR+XBD5cZF7PwvU19z7uqyvpK6SekjKP/wjhewPuWnQttPGmNIRSSBbPN//kuMOdglPCjOZ4yPXcRZYX3O9fGwzHSf3lEkFLgV6+U/Bqz759srV8PL/8VpXEJlphyKvMVON5DVuQU0QaUcU2LODt/7qH6QOoCO4y2ruH95fGT85Cr1v4EFfk/d1t76SH6fA+so9kL18XDNXvr88ngOAXJCRaffLB0wdlNkByfd75DVmVuPu2y0IdkRRVBN6asf++q6bB8xYfoDYkoPCIos9e9LlfRtTDcOl4I2KoiEyGyzpn3/6khCaYtC200IKLMTv+HbpyY0pFXvkZ8g0WNIQSYPt5eNbrw5+OgclbZHZFnPfImmLm54Mosz6Ac+8cTPvHwDN4fPKwx1dnjg1kJe47FQzG+zSEMkHSxooqQspAUCbeVGmLe7aYvLNLm0OPdyoQ+FjfWasrSOe7EKBlSWeHnLZ6WEmUxpJxYFsuEvFkvqTDFqLAgudOpHTxNTWQScWm4ej3b1EgYrlKpFUlCUvYZ9JG12+3qQNktZFQZc1Q7b87CBbF8DzC0Z1z/P60kA20s2L5VYiaaikbqQDAJ1ui14ev20w2fogDFYWTV+3lVjiiwIrphO6bQP7D5c0waXxMk2Uqx/JoD1QYKEjvdSvvOeBbqkRko13aYKk8cqesqqpGiWtd6kykNY2plIPnfL0L7ax9YEcOMYtHHqiRWGpuY13+QSTRosVVQCQPcz/Ibe1ki8LLKisCfetfsO0pw4RTEw2DxHEwzMnX1qcCaMpcptyeELHYAcdggIL7clVHm4bmH+mu0+RaYqkN+vl61Llmk0mXxy5LU55w18GPDuf6zEACfDCkpIe4SGbZPKpMk2W6xRSAYBE2WfSw+6+KFK0+PgLNz5FJJ2HAquzBjwnvLfHwa6N/yyspkg6mVTQGSiw0NaePLG8Xyovdb4smGLytyl5K6xaa79cD5v5IrfU/YO3/nIzkQDZY/vC4aepURdY4FPkOkt86QgAOcSekqJFgbSoJnXgz6zO6uD0iaDjbB58RdcgOvQ2l5VLukhST1JBZ6PAQlvYOnBmkaQLXCqXNFlSHqk02V9dmp+Kgl8NePZXfKsHxNCuhSMHRY2Zd0Smcnt5pTwAALWSFrhp/nEHMktsxsZ6ImlfFFjtbOPQ8vzuu1PTLLD3yHWBuNUxYoYCCy315KmX9s5r0LvNfYZLb5WUIpVWcUkrXDZPQf3dQ7bMf4FIgM5T84dhAzywmZLN0MunPwMAcCQ7Zf4Hi/zuPuse+5OlxfyqHVBgtZO/nzzzDUGgK026QtIJJIK4osBCc20dOHNUJM0yaaZYSdpeMpKWmnTnwG3P/970UCORAO3P55WHNfmbJikMZsn9IlHMAwCa7znJfhVm7PtFFz26hTjaDgVWG9o8+Iqu5g3vVBR9SGbnkC+yAQUWmuLwKYLvjaQPmlRMIh36Qf1MJP0k0xj9+NTn736GRIC29+Lvh50SpoIrJb9Cbq8jEQBAG8hIWuSuHx7Xu0+FTeILyTYYF6O1njyxvF9+ft4HXLpKUn8SQTahwMLRbB048/WR9EmTrhSnQHe2SFKFLPrq4K13VxEH0Ho7FwyfEElXyf2dkkISAQC0C/N/eGR35oV+e+H5G3YRSAtjJIKWe+bky05tDKJPmPRBSd1JBNmIAguvZevAmaNc+qRePk2QSV38rDXp2wO3Ndxlmp8hDqDpPK1gx6iS6eb6oqRxJAIA6EB7JP00sMw3+lywcRtxNA8FVgs8ffLMMRZotknTJQUkgmxGgYV/Teoke2bAZRe4Rde6NIZEsmKbPWnmt+w4rtfPR6+9s4FEgCN7suLULkWNPWZJ/hlJg0gEANBpTA1yv0emucddsGETgTQ1NjTZtgHvHRZZ5jpJ7yY7JAUFFiRp68CZ50bSTSaVkkZ2bkKTbhq47fmfcMF34D/5D0bl1fRvuMRdaZOGkAgAIEYimf1fJLv2+AsefZI4jo4SpkkTu0vf5PIvSLpUrLhCwlBg5frx7ZIJ7rpBZhNJIxE2m3TzwG0NP+bUQuQ6TyvYObL4XW7BTZKfSiIAgNgyNch1dyYTfeWEix77O4EcKSYc0bYBF/d3s5tc9l5RXCGhKLBy09MnX1ISBPZNSW8ljUR+uleb26cHbbvrT4SBXLT93pK3m3SrTKeRBgAgi9S77DupjF1fdNGjtcTx6iEu/svGoeX5Pffk/Y9LN0jqRSJIMgqs3PLMyeV9GoO8L5v0MXFx9lzwoMk+OWjbXX8lCuSCHQuKzzC3b7g0jTQAAFlsp7mu79O7z3dsEpeH+CcKrFfZOvCSC1x2u7hGAnIEBVZuWDNqVl6/7Xs/6lJaUiGJ5JQGl74XpRquO+Xp+XXEgSSqWzy0T0N9+GVJH5WUIhEAQEJsCuSf7vP2DYuIggLrX/5+0ntOC4PgB1wHBrmGAiv5nh4w8+zAdKek00kjp73orquHPPPru4kCSeEu23l/yZXuukVSEYkAAJL5gaffemPeVf3etfYfuRyDsR9MTG0b2P9jLs2V1IN3BnINBVZy/f315QVBY971Jn1cXMcP/1aRSaX+55Snf7GNKJDNXry/+PWh2w/kOpc0AACJZ6qzSF/us676Dksrys0IctjTQy4bHmSiH0kazbsBuYoCK5m2Drz0fMm/69IA0sBr2G/S9QO3NXyduxUi2/jSiamdu3d+zI0vHwEAucdcj3jgs467YMOmnHvtubjBnzx1apdUfeH1JvuMuIgxchwFVrI8e9LlfRvDxu9JKicNNGEYUBVG9r4Bz/7qKbJANtj5h+LiKLCfSxpJGgCAHHbApeuO+3/V38yl1Vg5d0rJlkHveWNefdFyk31elFcAEmTrwEvf2hg2rBflFZrMyzJBVL114MxPkgVivae6bPt9xbOiwFaI8goAgG4m3VozquTBmoqSk3PlRefUCqytA2de7tJ3xXJz4F9YgZX9Xl5VWvQVkz4nrnWFFjcE+l0qSs06+blf1BAG4uSF35Ucn5fnP3G36aQBAMCrmOpc/tF+F2z4dfJfag54esglJwSZ4MeSM/ABXoUCK7ttHXjJUDf7tVwlpIHW8+dMwfsGbbvrT2SBONhxX/GFkv1QUj/SAADgqOO4n0YHo6uOn7Fxb1JfYeK/qd868NLxQcb+H+UVgKTZPOCSS1y2kvIKbcdOcvkDmwfOvNmVZjUfOm8IPq883HHf8Jsl+70orwAAaMo47v1Bl3BtzX3Dhyb1FSZ6cLp14MxZLv+zpP7szAASM7HTxNTmgTNvNrNfi1Oi0Q6jH5Ou2Trwyfu2DpxZRBzoaLsXjDquptsTiyW/Rjl+x2wAAJo3itNpLl9Rc29xeTJfXgJtHnxFV8sc+o7MPsAeDBwdpxBmlydPLO+Xl593t6S3kAY6wFNhZO8c8OxdG4gCHWH7gpI3m+v/JA0mDQAAWswl3dG3V5/P2KSHGpPyohK3AuvpITMHWVRfRXkFIGm2DLpkXF5+3qOivELHOTUT+PKtAy+ZQRRobzULSj5oripRXgEA0Fom6aqavTsX1S0e2icpLypRBdbTQy4bHmS0TNxeGUDCbBk0851y+5M4JRodr4fL7t48cGaaKNAe3GXb7y1Ju+uHkrqQCAAAbfUhq3MbGsJV2xcOPy0JLycxpxBuPvmSKRbYPEm92EuBpuMUwvjbOnDmJ136pnLgxhuI/ajhpzuO6/nh0WvvbCAMtIUnK07tUtTY/SeSZpIGAADtpiYKdNHx51c/ks0vIhGToa0DZ86ywBaI8gpAgrjKwy0DZv6vS7eJ8grx2Cnff9z2vRV/f315AWGgteoWD+3Tp6H7A6K8AgCgvfUNIj2w/b6SS7L5RWT1hMgl2zJo5jdd+oGkFPskgKR4vv+s7lsH5t0n08dIAzFzbpjJ+8u2ARdzOita7MX7i1/fUJ9a6aazSAMAgA7RxaRf1dxX/KlsfQFZW2C5ysOtA2b+UK5PsR8CSJKX+pX3rE/tXSBpGmkgph/CJZEFldsGvOcUwkBz7VhQfEaYsYclP5U0AADoUIHLvrnjvuE3Z+WTz85xc3m4ZWDeT2S6kv0PQJJsHnxF4f6ueQ+IOw0i/gZHFj6ydeAlQ4kCTVVz3/Chkv4s08mkAQBAZ/FrdiwYfod7dl0XPesKrI1Dy/O3DsibZ9Ll7HQAkuSpU957vGUOPSTTmaSBLPE6l/356SGXDScKHMv2e4eNdvnDcnsdaQAA0MncP75zwfDvezp7eqGsKrCeObm8W889effJ9E72NgBJsm3Axf1TDZmHZUYRgGxzfJCJ/rxtwMWjiQJH8tK9xWebBX+W1Jc0AACIB5fPqhlZ8lOfVx5mw/PNmgJrzahZeZkgb55Lk9nNACTJkyeW94sseEDSGaSBLNUnsuCBLYMuHkkUeLUdfygZG5jdL+4WDQBA/Jgur+n2xI+zYSVWVhRYrvKw3/a9v5R0PnsXgCT5++vLC/Ly8xZJehNpIMsVSsGSLYPe80aiwD/tvHdYiQJViPIKAID4cr2vZtTw2+P+NIP45yjbOiDvBy69h70KQJK8cMJ7e4SNefdLGkUaSMjgp588/OOWQe8dQhjYvnD4aZEFSyT1IQ0AAOI+jvOPb79v+Dfj/BRjXWC5ZNsGzvwudxsEkDTPnFze7WB+4/2SJpAGEuZkRZmH/v76ywcSRe568ffDTrGML5V0ImkAAJAdTP6pHfeVfCmuzy/WBdbWATO/4tJH2I0AJIkrHWQsdZfMJpIGEjr6GRg2Ni7aPPiKQsLIPbt/d0bfMAwWSepPGgAAZJ25O+4t+Z84PrHYFlibB1zyfpnmsO8ASJotA//2LZldRBJIuDdZVP+7jUPL84kid2xeOrhrfV6X+yS9gTQAAMhSgW6vWTD8vPg9rTgOfgZfNtHMvs9eAyBxk7uBl15t0lUkgRwxqcfu1PeIITe4y3rt6f1juZeRBgAA2fyhrjx3/+2LC4YOj9PTil2BtXXgpW+yKPq9JL6xBZAoWwZdPN3kXycJ5BSzD2weeOkXCSL5di4ouUXSTJIAACAReoUeVtRUlJwclycUqwLrqVPee7zLKyQVsq8ASJKtA2eOkgfzJIWkgVxj8rlbB14ygySSa/t9xbNc+ixJAACQKP29Ufc9v2BU9zg8mdgUWK6JqVR94z2SBrGPAEiSZ04u7+PSfEndSQM5ylz2sy2DLh5JFMlTc1/JmSb7NkkAAJBII7t4w4/i8ERiU2BtHdT/a9yRC0DSuNJBJsy/S9IQ0kCO6yYP5nFnwmR58d5hJ7hrvqQupAEAQFLnNLpkx33DP9HZzyMWBdaWQZdeJNen2C0AJM2WgX+7Se5TSAKQJJ1qUf0vXemAKBIwmF06MRVacI9MJ5MGAAAJZ/6Nl+4tPrszn0KnDyA3D77kDLn/TJKxRwBIks0DZl5o0udJAvgP528d9LdriSH77diz81ZJ55AEAAA5wJUXmM3bsWD4SZ31FDq1wHrhhPf2sMj+IKk3ewOAJNk6cObrzfQLUc4DrzUASm8deOlbCSJ71dxX8i6TriYJAAByyglyv8vnlXfKjak6tcA60CXzTUmnsw8ASNbcfGLKpV+Jch444vjDFf382ZMu70sU2WfHguEnufQDkgAAICedU9P1iWs6ZQDZWa/48Kk1s9j2AJJmy8D+syWNIwngaOykxqDhh+SQXTytQO4/l0T5CABA7vrKjj+UjO3oB+2UAuupU957vBnf3AFInm0DLi016UskATSB2UVbBl36AYLIHjveXPJpSZz+CQBAbksp1F3b7z29V0c+aIcXWC5ZqiHzU0knsM0BJMlL/cp7ZszvkpRHGkBTBwb+7b+f9J7TCCL+dt5fMsykG0gCAADIdUqgLt/oyIfs8AJry4CZH5E0ja0NIGn2dcv7hklvIAmgWXqEYeqnrnRAFDEeo/5gVF7k+rWkrqQBAAAkyU0f2n7viOkd9XgdOljcNuDi/ma6ic0MIGk2n3zJOSZ9iCSAFg1/yrYO+ttHySG+dp7Y+AW5ikkCAAC8kln03Y46lbBDC6woCL4jqZBNDCBJnjx1ahcLgu9JMtIAWsh101P9Lx5AEPGz/d6S092ca/sBAIDXMtAsf25HPFCHFVibB1z6HrnewbYFkDT59X3Skr+RJIBW6ZUKA27wEjOeViDTj8SpgwAA4IjsYzvvHTG+vR+lQwqsZ04u72Pmt7NRASTN0ydfUuLyz5AE0BZjH03dPGDmxQQRHzVvLvmISRNIAgAAHEUQWfSjJytO7dKuD9IRr6QxyPuquOsggIRxyYIwuFPcdRBoM2a67clTL+1NEp3vxXuHnSD5V0kCAAA0wRlFDd0/3Z4P0O4F1tNDLhtu0pVsSwBJs23gzPfKfSxJAG3qhFR9dC0xdL7AgrmSUSYCAICmMX1p+70j+7fb2KTdBz+Z6OuSQrYkgCR5vv+s7pJuJAmgPcY+dvXfT3rPaSTReV5aOGKESVeQBAAAaIaeZlG7XdC9XQusLYMueZekc9mGAJKmPm/fl1zijmlA+8hPheEtxNB5gkx0m/gCEgAANJu/b8eC4WPaZXzSXk9549DyfLndzMYDkDRP9b94gNw/RRJAOw59pAufHnDpeSTR8WruLS6XdA5JAACAFjC53+Yua+tf3G4FVo+9qU9KOpVtByBpUnnh1yR1JwmgfQWB3+pKByTRcXze0PzI7GskAQAAWmHczgXDy9t8bNgez/SlfuU9Jfsc2wxA0mwdeMlQub+HJIAO4CrZMuDJcoLoODVdwitN/7+9O4+zq67vx//+nDuTRRYhk0REkplBEDUkgNgqboUuYiELqIkKdatWq7Zu1WoXW9r6s9VqXdqvrWgtCkkwqQsJi1irVAXqEiEToihIJpMQgWQgbNlm7vn8/oCWKiGZfe499/l8PHgoJHPnzuvc85nP53U/59zolgQAMKppXM5/k795ettYPua4FFi7Htf+jsgxyyEDqjcQx9/EBHwABvCQVOS/zjG2kx/2b9M3u6ZFxJ9KAgAY/SQuntJ//z2vGMuHHPNF2M+OXfr4yOHeMEDl9Hb+zjMipXMkARMox1P65j7x5YIYf4ffd/gbI8UxkgAAxshfjOUurDEvsGoD7e+KiCMdJ6B6C+n81xFjfzNC4CCnXqS/tAtrfG1Zddr0nOKPJQEAjOEs7ri777vnVWP1aGNaYG190qs6IsXbHCSgajYd8/JnReSzJQGT4rjNnU96lRjGz7RpD74lIo6WBAAwlnLK78ur5k0Zi8ca0wKrXht4S0Qc5hABVZNqxXulAJM6/XmPTyQcp2RXzZuSUn6nJACAcdDVP702JreDGLOJ4C3H/fbUHMWbHBugajbPPe/YyLFIEjCJcjyld85PnYfj4O7pxfmR0xMlAQCMk3flPPpbsYxZgTVl34xXReSjHBegcuvmFO+KiJokYJKl/EdCGHtlLtz+AQAYxwVVzL97zYm/OdqHKcbmuUTKkd/uqABVs+WYpTMih3vvQANIkZ6/qev8Z0ti7PRfftKZKfJJkgAAxlOOYtRvRI5JgbW58+VnRcTTHRKgauq19jdHxCGSgAZRxjuEMIaTyTLsagMAxl+KM++64uSTR/MQY7MDy9ZzoIJ+cOob2iPHmyUBjTT3yS+59eiXz5HE6PV/5ZSnR+TflAQAMBGKsv6Ho/r60T6B3s5XdqeI33AogKqZuePBhRHhxsbQWGrtbcXvimH0yqL+exGjv6EqAMCQ5PSy/iufdfhIv3wMdmDVXx9jeDN4gMZZ3eXfEwI0pNflWOqDFUYzf1w1b0qKOF8SAMAEOqQc3PXykX7xqIqnHKe3RY7XOAZA1Wx90vnHRIoXSgIaT46Y03tM229JYuR2TKu9JCJmSQIAmEgp0og3CYyqwOqdc/TZEXG0QwBUzUAtvz4i7PCARp38pGSH5KjyC/kBAJPhmXdddtIpI/nCURVYJo9AFeW4oEhhdyk0tBSLezt/xz3qRuDOy+cfGzlOlwQAMBmKiNeN8OtG5pajls6KyGeKHqiavrm3nBERnZKAhtaWcrlMDCOY/JXx6nDzdgBgsqR8Xl41b8qw5zAjnjW2t780ItokD1RNGdmiGJpAjuRcHcmcMdJSKQAAk+jIe6YVvzHcLxpxgZVSmPwAFVwQn96WIs6RBDTFGXvabd3n2S05DHdfduKCiHiaJACAyVTG8DulERVYm7qWHhURLxA5UDWb5jzp1yNitiSgKaRiML9EDMOYLKbCrjUAoBGmcefecuVxU4fzFSMqsFJuf2n4dC6gggqXD0KTnbQKmWFS+AEAjeCIIwYP+a3hrdVG5qWyBqrmB6e+oT2SywehqeT8q5u6Xt4liIO764qTT46Ip0oCAGgEKedhXUY47AJr89zzjowczxU1UDUdd97/nIjokAQ019wn5drZYji42mBeJAUAoFHkFGflC4beSw27wCpzemH49EGggoqieJEUoBlnP9m5O5SYipATANAwUsTM/lNPeuaQ12vDXuAlk0Sgqmvg8relAE3pjFuO++2pYnhsOy+ff2Tk/KuSAAAaSYo85DXYsAqsHJFyxAtFDFTNpq6lR0VKCyQBTemQKfuOfL4YHls9F3bQAwANJ+eh7xAfVoHV23XeSRFxtIiB6q3u2n47IpIgoFknP3aIj9XkEABgAv3KfV966pDuQzy8SwhLk0OgmoqUzpQCNLGUzFEeQ86RIpXGOACgEdX21qb81pDWbMObGxa/Jlugkgu8iBdIAZra0285auksMTzajitPOj5yeqIkAIBGlIqhrcWGXGDliBQ5P0u0QNX0zXnZkyPC4g6afO7T1t7+HDHsZ7JXls+VAgDQqHKOIc1VhlxgbZnzynkRcaRogcoNmKlm0QsVkFJS1OxHmZMxDgBo3DlcxIn3fPnkIw7294ZcYNXToEkhUNUh0/gG1eBc3v+kUC4AQCMryqJ89kH/0tAnPxZ4QDXlcHkNVORsPnVT12umyeEROy+ff2REnCAJAKCx12QH75yGcxP300QKVM3Pjl36+Ij0dElAJUwtyoFTxfCIfTlOi+F+6jQAwEQr8tgUWLccd/7hEfFkiQKVGyf3tZ1scQfVkVM+RQqPqJWFQg8AaIJJXJySc6QDrt2G8jhT9sX8iAM/EEAzSrU0XwpQoblPDuf0/82jkAcA0BSOuPuyE4850F8YUoFV5rxAloDFLtDoUg5zll8c5IxxAEBTqB9kc8GQCqzk3TvAYhdoipM6TsxxgcuCI2LLqtOmR8TxkgAAmkERxYID//lQWOABFZQjUqSYJwmolEP75v60SwwR06bePy8iapIAAJpjgZZHtwMrP3TvqxMlCVRN39zzuiPiMElAtZQuDY6IiJSS+RsA0ESTlxhdgbWp+xWzI+LxkgQqt8gt81OkABWc+xQum3soiGSMAwCaR47jDvRJhActsFIuuqUIVHRxZ3yDap7czu2ISDm6pAAANJHp26+c94TH+sOD3wOrnk1+gIqu7qJTCFBB2dwlIiKHAgsAaC618rE3UR28wEomgUBV2aUBzu1KkwMA0FTKnLoe688OWmAVUXSJEKiiIhT0UE256+EPoWlZm77ZNS0inuC1AAA0k3SAN+AOvgPLAg+o6hLX5TVQVdN7u5a2dHlz2AOHdUWLl3gAQPM50D08D1pg5chPEiFQNRvnLZ0SEbMkAdVUq9eOafHpn/kbANB0yhSPOYcbwg6sZIEHVM4hD0ztCLsToLLqUXS08s+fSwU9ANB8UuSZj/VnByywHr5/xAwRAlVTqz/2wAhUYPJTxMzW/vlzh1cBANB0c5hIjzmHOWCB1dv1msdHRLsIgaoZbEsWd1DlyU+Olj7HUyQlPQDQdPJId2DV6rst8ICKLm7rxjeosDJau6TO2Q4sAKApV2qH51XzpuzvTw5YYNWzd++Aqi7uwvgGVZ76tHyBY5cpANCcth+y/1tZHfgm7qk4QnRAFRWRjG9Q6ZM8tfQ9PHPEkV4EAEAzqg1MGUGBFXm66IAqKiOMb1DpkzxPbeUfP6WY5kUAADSjeir3O487YIFVpJgiOqCiizsfUAHVPslbusDK2RwOAGhORc7DvwdWhMkPUFGl8Q2qrcV3YEU2xgEAzblUS3n4O7ByKkx+gIqu7lp7dwZU/hRv8TfhchjjAIDmVIuRFFgtfv8IwOIWaE65xUtqYxwA0KzKaBv+JYSFe8QAlV3curwGqn2SZwUWAEBTzmNGsAMLqLwyxQVlSw6KORv/oNozn5Y+x3OK7EUAADSlotzvGvWAk7sy8l7JQaU5xwGqKMc+IQAAzaiM/c9jCpMfaGnOcYAKStkbFABAcyoi7d3/fz/Q5KdIFrdQbRY4ABWUkzcoAIDmVKYR7MBKdmBB1TnHASooG98BgCZV5BHswCoVWFB1dmABVFBSYAEATap8jKsBD1hgFSnvEh1UWd4tA4BKMocDAJpSGiz3u049YIGVU61fdFDlkSE5xwEqOb6H8R0AaEpT6/t27O+/H7DAqteKHaKDCsvhHAeo4vBeZgUWANCMysMG5+/c3x8csMA65EGTH6j0Aie8Qw9QRckOWwCgOd2Tlq2u7+8PDlhgHXXnxQ9GhHvkQGUXOHZgAVRRjmx8BwCa0WPOYYohfLF38KCqXGICUElF2IEFADShA+wiH0qB5R08qKicCgscgAqq57xdCgBA8y1S88gLrByxRYJQTSnlPikAVM+UlMzfAIDmk9NjrlGHsgNrkwShqmND6fwGqKDHHzZjS0QMSgIAaKo16gE6qIMWWCnnzSKEShrs6r1jqxgAqiedcc1gRNwuCQCgmRQp9z7mnx38qws7NKCatqa4xrvzANXVKwIAoJmUaRQ7sCLqJj9QTcppgEpLxnkAoKm0pzzyAiunaSY/UMl1jXfmASo9zB9gCz4AQOPJ9x2xcMM9j/WnBy2wunsv2hmR7hAkVG5w+LEMAKos3SwDAKB5pi7pgGvUoXwKYeTIGyQJ1ZLr4bwGqPI4n+o9UgAAmkUq44BzlyEVWClnEyComFpyXgNUWceup/00InZLAgBoBjmlA26yGNoOrFTYqQHVcvfcLZduEwNAdaVlq+sR4XJxAKApjEmBlWxBh4qNDHZfAbSE5HJxAKA5TI3aTQf68yEVWAPt9/4oIgbFCVVZ0NhVCdAKcpmM9wBAM9h2+KJ1Ow70F4ZUYB1/61V7I+eN8oSKLGhy/qEUAFpAKn8gBACgCaw72F8ohvxQRXGtPKEa2nLxHSkAVN+ePYd+LyL2SQIAaGz5oJ1TMYxHU2BBNdw5Z+slt4oBoPrmLLt+d0TcKAkAoJEVuXbQTRZDLrByql8nUqiArIwGaK1hPxn3AYBGtvfew3eO3SWE3b2X9kbEVrlC0y9lLGQAWkiRsjchAYDGXaFG/KD7jN49B53TDPNxrxctNLcyJ/e/Amgh9aJu3AcAGlZKQ9stPrwCK+drRAtN7b67n3DoDWIAaB2zz954R0T8RBIAQCMqo/yvofy94RVYRdtVooUmluPrz1x34YAgAFpMiq8KAQBoQHsGY8o1Q/mLwyqwujZfvClS/FS+0KTrlxRXSwGgBcf/UoEFADSgHP919KJ1u4byV4thP3YOu7CgSdVrCiyAVnTf4fddExG7JAEANJI0jF3iwy6woszewYPmtPHYTSs2iwGg9XSf0bsnR/yXJACARmSzOP4AADkKSURBVJJTHscCq23qNeEdPGjCkUH5DNDKkvtgAQCNpXfmog03D/UvD7vA6u69aE+k+JqcobkUUbtMCgCtK9XLL0dElgQA0AhyxFeGt6YdyTcp8ypRQ1P5+Zwtx10rBoDW1XHOTVsixfckAQA0giINr1saUYE1fV/bmoh4UNzQHFLkL6S4oJQEQKv/PkjehAQAGsGWGQs3/PdwvmBEBdZRd178YIT7KECzyCksWACIqOVVEeENDQBgUqUUq1Ia3q0NihF/s3AZITTFwBCxpXPzyv+WBAAdZ/VszRHXSwIAmEx5BLvCR1xgtQ8ednm4jBAaf2BIsTq5aS8AD0t25QIAk6u3Y+H67w/3i0ZcYB297cJdKWK13KGxlUXxeSkA8D+mDOxbHhF7JQEATIac43PDvXwwYhQF1kPSZ0QPDSyl7x676ZL1ggDgfxz+4pv7I6U1kgAAJkHZ1lb7t5F84agKrM6+5ddGxEb5Q8OODUpmAB4llfVPSwEAmGg54uojz75h80i+thj1N8/xrw4BNKQH9kyb/gUxAPDLZiy+6euR4meSAAAmUsojv5Jv1AVWe9n2+YjY4zBAo8krn/qTz94vBwAeNXlMkSPHv0kCAJhAd3bc0bZ2pF886gLrmNs/3x85vuQ4QGMpcuHyEAAeU861f4sUA5IAACZGuii9cd2I5x7FmDyFFP/gQEADDQsR35q7Zfn3JQHAY5m15IZtkeNSSQAAE7BIHUhl/f+N5iHGpMDq7FuxLlL8lyMCDTI25OIjUgDgoBPBMv99xPA/xhoAYJhWdJxz05ZRzVvGbsGcLZihEaT46Zwtx10uCAAOZsY5GzZEiv+UBAAwnsqi+NhoH2PMCqy5fSsvj0g/dlhgcqUcH0lxQSkJAIb0e6MMb0ICAOMnx9Wzz77xxtE+zNjtwIrIKfLHHBmYVHcV5cDFYgBgqDqW9Hw1R1ovCQBgPKQox+TNsmIsn9S+Kfd8LkVscXhgsgaG+Ic5W1fvlgQAw/sFUn5ICADAOFg3Y/FNXx+LBxrTAuv4W6/aW+b0AccHJsWO3dOnfVIMAAzXzHUbLs0RPZIAAMZSKtKfpTQ2HxhTjPWT6599yL9GxG0OE0ysnOMDT/3JZ++XBADDnlxeEGWR4m8kAQCM3QQjXdexcP3VY/VwY15gPXPdhQOR0v/nSMGE+vnU+qGfEgMAIzVjYc8XU44bJQEAjImc3zeWD1eMx3Ps3LzvcxHxE0cLJkiKDxy97cJdggBgxL9KUuQy4i8lAQCMVo74zszFPd8Yy8cclwIrxep6znGBQwYToneg/Z5PiwGA0Zq5uGdtRFwvCQBgFHJRlu8Z6wctxuvZdm1Z8YUc+duOG4yzlN91/K1X7RUEAKP+lZIi5yL/YUSU0gAARjSfiLi045ybrhvrxy3G8QnnlGpvNwGCcXVt5+aVXxIDAGNl1sIN6yJiuSQAgBHYXdRqfzIeD1yM57Pu2nzJD1Pkix0/GBdlinhbirH5SFIA+F8p/UlEPCAIAGA4co4PHXn2DZvH47GL8X7y9Vq8JyLucxhhjAeGiM909q1YJwkAxtrMRetvj5Q/KAkAYBiL1K31afH34/Xw415gHbtp5Z050t85kjCmdtbba+8TAwDjZffuQz8SEb2SAACGIqf446PO7HlwvB6/mIgfoqvv9r+PiBsdThgbKdIfH/ezi++SBADjZc6y63enHG+SBABwMDniq7MW96wcz+8xIQVWimsGyzLeGBF1hxVGez7Ft+b2Lf+MJAAYbx1Ler4akS+RBABwALvKIr9lvL9JMVE/zbFbV3wvR/yT4wqjsjen+u+7cTsAE2XK4MDbI8KuXwBgv1LkP3/Cwg23jff3KSbyh5o6eOifRsRtDi+MUI6/7tr8hR8LAoCJcviLb+7PKb9TEgDAfhap35+x56mfmIjvNKEF1tHbLtyVc7w57B6BEYwLef2O2Yf+vSAAmGizFm1YniKulAQA8H/sK3J+fVq2ekJuF1VM9E/XvWXF1ZHSPzvOMCx7yxyveua6CwdEAcBkGBiM10bEnZIAACIiIuf3zVhyU89EfbtiUn7G1P5HOWKDow1DkyK/+9itK3skAcBkOerFPXcVkV8bdtIDgDVqxLc69j71IxP5PSelwOruvWhPLdfOi4g9DjscdGC4em7fSh+AAMCkm7F4w1Up8oWSAICWtjOl+isn6tLB/1FM1k87d8vFN0WK9znucAAptpfFwGt86iAAjWJvmvLOiLhZEgDQosvUlH5/xqKNfRP9fYvJ/KE7Nz/lH3LEfzj8sF85onxtd+/qO0QBQKM4etG6XbnIvxMRe6UBAC23SP3XjkXrvzAZ33tSC6wUF5Rt5cDLI2KTlwE8amR4f9fmS68QBACNZtbCDetyzn8oCQBopSVqWj+Q2t86Wd+/mOwA5mxdfXcu4sURsdvLAf7X1zu3DPyVGABoVLOWbPh0jviMJACgJdxdFuWLj160btdkPYGiEVLo7l1xY4p4o9cDRETE5imD+RUpJvaGeAAwXDvbdv1BRP6+JACg0soi8u88YeGG2ybzSRSNkkZn34qLI/KnvS5ocXtSxEuO3rZyhygAaHTHn3Xr3lTml0TEdmkAQGW9b8biDVdN9pMoGimRgSk7/zAirvXaoEXlSOl1nX0r1okCgGbRcc5NW3IqlkXEPmkAQOVWqf/esajnbxvhqTRUgXX8rVftbau3LYkUP/UqoeWk+IuuzctXCAKAZjNr0Y3X5ByvjogsDQCoivz9fUX7q1NqjN/vRaPFc8ztn+9POX47Iu7yYqFlpPi3rs0r3i8IAJrVrCU9l+Ycfy0JAGh+OWJTPedFk3nT9l9WNGJQnX0rbivLWBQRu7xsqP7IkK958NCB3xcEAM1u5uKev4oUn5MEADS1uyPHbz9hyU13NtKTKho1rWO3rvhezul3I6L02qG68k319sFz5m1c7b4hADS9lCJ37K6/IVJ8UxoA0JT2ljmfO2tJz08a7YkVjZxa95blX4iUfi/cT4Fq+lmR85lPvm31vaIAoCrSso37Um36ORHxPWkAQFOppxS/M3vJhm814pMrGj29rs3LP5si3uF1RMVsjVT7rblbLt0mCgCqpuOs795XqxdnRsQPpQEATaHMEa/sWNTz7436BItmSLGzb8XHc8RfeT1RCSm2R6q/sGvzxZuEAUBVHXnujTsH2moviogfSwMAGlrOkd80a3HPykZ+kkWzpNndt+KCHPlDXlc0uXsjihd1bf6CyTwAlffEs27YHin9Vo7wpg0ANKgc8cezFm+4sNGfZ9FMoXb1rXxvpPiolxdNakeK+I2uzZe4nAKAljFz0frb2+rFr6eI26QBAA0lp5T+aNbing83w5NtqgIrReSuzSvemSLe63VGk7mzVqZf7+xbsU4UALSaI8+9sbdeqz83UmyQBgA0hByR3taxaP0/NMsTLpox5c6+FR+MlP84fDohzTEs9NXLeP6crctN2gFoWbPP3nhHe3v99Ij8fWkAwKSqR47Xzly8/h+b6UkXzZp21+aVf59zenNElF57NLBNUdROf/LWFbeIAoBW9/gXbby7Vq+9MFK6ThoAMCn2pYiXzVzS87lme+JFM6fevWX5v0SKV0XEPq9BGtAPylo+zacNAsAjjjz3xp3l7sEzc8RXpQEAEyjFvVHmszsW93yxGZ9+0ez5d21esTxSeUZE7PBqpHEGhvTVPdOn/fqxm1beKQwA+EWzl218YOaeExZGxCelAQAT4vayKE6fec6GrzfrD1BU4Sh0bb70ulpZnJYjXKbFpMsRF3Zuvn3RU3/y2fulAQD7l5atrs9c3POWlOPt4ZYQADCea9Se1BbPnn32jTc2889RVOWAzNl6ya3t9bbTIuI7Xp5M1riQI/6qu2/FG1NcMygOADi4jiU9H08RyyJitzQAYKxXqXF10Tb9+R1n9Wxt9h+lqNJxOeb2z/dPGTz0zIh0iVcpE2xnirS4u2/FBaIAgOHpWNzzxRTx6xFxuzQAYEzkFPHhjr0nnN1x1nfvq8IPVFTtCB297cJdXX3LX5ki3hhu7s7EuDkX+bTOvuWXiwIARqZjcc9/T0ntJ0eKr0sDAEblgZTzyzoW97w7LVtdr8oPVVT1aHX2rbgwRfr1iPi51y7jJqWV0/bWntndu/JmYQDA6By+aN2Ojt0nvCgifTAiskQAYJhy/LQo4rSOJRtWV+1HK6p83Dr7ll8bqTg13BeLsTeQIt7WtXn5eUfdefGD4gCAsfHQzd3Xvzel9IqIeEAiADBkX0rt039lxsKem6r4wxVVP3pdmy/5eWfftjNSxHsjYsDrmTGwKVJ5emffik+IAgDGR8ei9V9oi1gQKV0nDQA4oD0px9s7FvW8tCr3u9qfohWOZIprBjv7Vnwwl+XzI+JWr21G4eLH7R5Y0LX5UpNpABhnRyzu2dRx6JG/lnP8VUTUJQIAj3JTkctndSzp+XhK1b78vmilo9q99dLvDkxJp+aIC73GGaadOccruvpWvGr29tUuZwCACZLOuGZw1pKeC1LKz08Rt0kEACLioXtFfuKetl3PnLHkpp5W+IGLVjvCx9+6/L7uvhVvTJFfFhF3ec0zBJfXyrYTu7esuFQUADA5OhZtuL6oF6dGis+FG7wD0MIefkPnN2cu7nnb8WfdurdVfu6iVQ94Z9/KVbmYcsLDu7FMgtifO1PEq7v6Viyas/Xzt4sDACbXkefeuHPmop7XlDmfHjl+KhEAWkyZIl1Y31M/aebinm+02g9ftPKR7+69aGd334o35jKfEckkiF+wespgPrGzb8XnRQEAjWX2kg3f2r33kJMj0gfDvbEAaAE5oidSOq1j8fo3zl62sSVva1N4GUR0b135X1MGDj0lcnw4fFJhq/tJivSbXX0rlh29beUOcQBAY5qz7PrdMxevf28u8rMi4gcSAaCiHoic3zPzsBmnzly0/nutHIQC62FHb7twV9eWFe+ulzEvIlZLpOXsTBHvHZhyz0mdfcv/UxwA0BxmLdywrmNRz6+mnJdFRJ9EAKiIHCmtLlJ93swlGz6UzrhmsNUDafOa+EVP3rrilohYtnnu+b9RRv5oipgvlUorI2J5WcvvPnbTyjvFAQDN56GPDd+w+o6rF1xZ2xPvTineExHTJANAc8rfT2V+e8c5N10ni0fYgfUYOvuW/2dX37ZnpMhvDZ9WWM3JbsTXyjKf0tW34lXKKwBofked2fPgrCU9F9SLPC9HXhU+qAeAJpIjNuWUz+9YtOFZyqtHU2AdQIprBjv7Vv7jtL21Y1PE2yNCyVEN10bKv9HZt+LMY7eu7BEHAFTLExZuuG3W4g0vS5HmR0qrQ5EFQGPbknK8fWfbrqfNWrRhxUM7i/llSQRDd9espYfunt7+lhzxnog4UiJNJsd/p5Q/0Nm3cq0w2Dz3FRflSK+WBFR2htPTtXnFSYIgIuLuy05cUBa1P4+cX2r+C0AD2R6RP3L/Yfd/vPuM3j3iONj0jhEsfM87MiL/YY70loiYLZGG942c40PdW1ZcLQoeOY8VWFDxGY4Ci0fpXzv/tJzTeyJiUbgSAYDJ0xspPrp79yGfnrPs+t3iGOr0jhHbOG/plEPvb3/5wzuyni6RhlJGxJW5LN/fvfXS74qDX6bAgsrPcBRYPKY7v3zik2u14q0R8fqIeJxEAJggN0SKj3UcOmOFTxUcyfSOUctxQdE39ydn5xzvjJROl8ikui9SfKZea/v4k2/7vI/S5jEpsKDyMxwFFgf18ytPmTWlXn9zzvGmiHiCRAAYB2VEXJEjf2TW4g3/JY7RTO8YUz970sueUtRqv5siXhsuL5xI61LEhdN3D6yYvX31A+LgYBRYUPkZjgKLIcurltb6p9x8RtSKN0TO50ZEm1QAGKVtEenitsifOmJxzyZxjMX0jnHx8OWFS3LEqyLityOiJpUxtzNHrMpl/n8+TZDhUmBB5Wc4CixGZMfak54UufydiPT7EdElEQCGoR4pvpnKfOGMwzu+7DLBsZ7eMe5+duyr5tbqg8tyjmUp4lckMir3RaQ1KcpV+6bs/Nrxt161VySMhAILKj/DUWAxKnnV0lr/9J+cnnJaVkZ+cYqYKRUA9qMekb8dOa0arMcXj3pxz10iGa/pHRPqZ8e+am7b4OC5OWJpRDzHMRiS3RHxnyli9dS9tS8edefFD4qE0VJgQeVnOAosxkxetbR2z/SfnlbmvDQiXh5uEwHQ6soccX2RY3UZtdWzltywTSQTMb1j0mzqWnpUUba/MEcsjIgXRsTjpfK/bssRXy8ivj5998BV7mvFWFNgQeVnOAosxkVetbS243E3nxz1tCilWBgRzzCnBmgJ/ZHSN3Iuv55SccXMRetvF8lET+9oCD849Q3tM3c88Lyc84tSpF+PiJOjtW4guiNFXFvmuDoVta92bb7YTe4YVwosqPwMR4HFhLjrinlHFfXiRSmlM3OOF0TE0VIBqIS9OeIHkePrKcdVHftO+EFatroulsmc3tGQ7njCKw/ZO3XwlIj03BzxvHjocsMZFfoRfx4R30kR10bEd+b2PeWGFBeUjjwTRYEFlZ/hKLCYFNsvO+XoIgafm1N6XkQ8NyJOiYhCMgCNLt8XKX0vl3Ftyvk7u/cdeu2cZdfvlksjTe9ojlMpltb65k45ocwxPxV5Qc4xP0XMj8b/dJzdEbExUmzIZWwoUmzYt29g/fF3rN7uqDKZFFhQ+RmOAouGcPeqUx8/OHXfSUUR81OO+TnSgog4MSIOkw7ApCgj4mcR0ZNSbIgcN9Vzff2sxRt/llJk8TSuNhE0yzx8dT364kcR8aOI+ML//Pdbjjv/8LY99adFKrojpe6I3BUR3RHRlSI6I2LKBDy9/ojojcibIqeH/rdIvfV63HLs1oHbUthmCQC0phnL1t0bEd96+J+IiMg50r1rF3TVUzq+zGVXiuhOKXXlHP8zj3uC5ABGZU9EbEoRm3JEb47YVKToLVPeNJCn/PjoRet2iaj5KLCa3PG3Lr8vIr778D+Pcstx5x8+de/grMFc6yhqMTPl6CgjdRSRp+aUDss5t6UctZzi8P/7dSnHQE7xQERESvFgyrGvzOneVJTbc6r1tw3m/pzq/Xun3tt//K1X7XUkAACG5qF3+Hs2RcR+7/mZP3Vq+/Zj9nTU6m0d9Vx2FEXRkSJ35Jw7IlItIj08bysfl6KYKlGgVeQUOyNHzqncl3I8GCntzpH7i1TsKOv1/ra29u0DD+7rn71sow8BqyAFVsU9XHDdFw9tkQQAoMGlN64biIg7Hv4HAAg3lAQAAACgwSmwAAAAAGhoCiwAAAAAGpoCCwAAAICGpsACAAAAoKEpsAAAAABoaAosAAAAABqaAgsAAACAhqbAAgAAAKChKbAAAAAAaGgKLAAAAAAamgILAAAAgIamwAIAAACgoSmwAAAAAGhoCiwAAAAAGpoCCwAAAICGpsACAAAAoKEpsAAAAABoaAosAAAAABqaAgsAAACAhqbAAgAAAKChKbAAAAAAaGgKLAAAAAAamgILAAAAgIamwAIAAACgoSmwAAAAAGhoCiwAAAAAGpoCCwAAAICGpsACAAAAoKEpsAAAAABoaAosAAAAABqaAgsAAACAhqbAAgAAAKChKbAAAAAAaGgKLAAAAAAamgILAAAAgIamwAIAAACgoSmwAAAAAGhoCiwAAAAAGpoCCwAAAICGpsACAAAAoKEpsAAAAABoaAosAAAAABqaAgsAAACAhqbAAgAAAKChKbAAAAAAaGgKLAAAAAAamgILAAAAgIamwAIAAACgoSmwAAAAAGhoCiwAAAAAGpoCCwAAAICGpsACAAAAoKEpsAAAAABoaAosAAAAABqaAgsAAACAhqbAAgAAAKChKbAAAAAAaGgKLAAAAAAamgILAAAAgIamwAIAAACgobWJAACgWnasWbApIrok0XL2RMTuh///AyliIEfek3Lqzyn158j9KfL2nIsdKZX9EamvXuTe2bdP2ZLeuG5AfAA0MgUWAABUw7SH/4mIODJHRESKnCIicqSH/z2lHPHwv9XKFP1PHKjvWLPg9hTRm1Nsipx/XET05DLf1HHOTVvECkAjUGABAEBrq0XE3BwxN3K8ICJFGRFRpNixZsE9EdETKW2IMv+gLIrrZi+68RaRATDRFFgAAMBjOTIifi1y/rVIEUUuY8eaBXdGpOtzju8URXndjG1TfuASRADGmwILAAAYjidE5HNSinNyTtH/xIFdO9YuuC6VcXnRVvvKkWffsFlEAIw1BRYAADAaj4scv5lT/Ga9Xv/YjjXzf5RSuqqe4rJZP+i5Nl3w0BWJADAaCiwAAGAMpafnHE8vcvxR/zMW3L5jTXyxSGn1kQvXX5tSZPkAMBKFCAAAgHHypIh4a5nzt/vXLujtX7vgw3dfvuBEsQAwXAosAABgIszNOf6oLGPDjjULfrB9zfw33LVq3qFiAWAoFFgAAMBEOzVF+lQxrbi9f838f7nrspNOEQkAB6LAAgAAJkk6PEd6Y5HyD7evWfCd/svmL82rltbkAsAvU2ABAACTLkU8N6e0qn/aT2/uv2zB27atPfVxUgHgfyiwAACABpKPyyk+NiUPbNq+dsG7FVkARCiwAACAxjQ75fhQex7YvGPN/PdsWXXadJEAtC4FFgAA0LBSxMyI9HfTpz3Yu2PN/Pds+mbXNKkAtB4FFgAA0AxmR6S/O+z+w3+6Y+2CV4kDoLUosAAAgGYyJ3J8bsfaBd+4c+28k8QB0BoUWAAAQPPJcUYt1364Y82Cz9952YlPEAhAtSmwAACAZl7PvLKWipu3r5n/hpwjiQSgugM+AABAMzsiRfrU3WsXXLP9sgUniAOgehRYAABAJeSIF6QUN2y/bMEF+VOntksEoDoUWAAAQJVMTyn+sv+JA9ftWDv/qeIAqAYFFgAAUEXPjJx+2H/Zgre5NxZA81NgAQAAVTU9p/hY/5oFV911xbyjxAHQvBRYAABAtaU4s6jXbuhfe9ILhQHQnBRYAABAKzgq5/zVHWtO+rt8gXUQQLMxcAMAAK0iReT33H3q/DU7L59/pDgAmocCCwAAaCk5p7MHy+J7d39l/nxpADQHBRYAANCC8nFlka7vX7vgpbIAaHwKLAAAoFUdknOs2n7ZggtEAdDYFFgAAEArSynFX25fs+Az+VOntosDoDEpsAAAgJaXIl7X/8TBK/qvfNbh0gBoPAosAACAiIjIv5UHd19zx5cWzJYFQGNRYAEAADzilLa2+Fb/lQuOEQVA41BgAQAA/KIT8mB8584vn/hkUQA0BgUWAADAo3XW2tK37758wYmiAJh8CiwAAID9yemJZRn/2b/mpHnCAJhcCiwAAIDHNjtH/saOtfOfKgqAyaPAAgAAOLDZkdPX7vnyyV2iAJgcCiwAAICDm1Ov5f/Y/sVTnygKgImnwAIAABiSfFxqH/jafV96aocsACaWAgsAAGDoTtzXNuXKbWtPfZwoACaOAgsAAGB4fnVKDF6UL7CeApgoBlwAAIDhynlp/6kL3i8IgImhwAIAABiJHH+yY82CNwsCYPwpsAAAAEbu4zvWLvgNMQCMLwUWAADAyLVFjlU71yzoFgXA+FFgAQAAjM6Meo4vbVl12nRRAIwPBRYAAMAo5RQnT5/24KckATA+FFgAAABj45X9axe8XgwAY0+BBQAAMEZyjn+8+yvz50sCYGwpsAAAAMbOtLJIK90PC2BsKbAAAADG1rxp0x78gBgAxo4CCwAAYIyliLdtv+zksyUBMDYUWAAAAGMvpVR+5udXnjJLFACjp8ACAAAYH0dNqdc/IQaA0VNgAQAAjJOc4+U71sxfIgmA0VFgAQAAjKv0ybtXnfp4OQCMnAILAABgfB1dTh98vxgARk6BBQAAMN5yfvPda096niAARkaBBQAAMAFrrzLnf8nfPL1NFAAjGERFAAAAMCHm7bj/nteJAWD4FFgAAAATJEX+m3u+fPIRkgAYHgUWAADAxJk1WNTfJwaA4VFgAQAATKBUpD/cftmCEyQBMHQKLAAAgImUoz1F/ltBAAydAgsAAGCipXTOjjUn/4ogAIZGgQUAADDxUkr1vxQDwNAosAAAACZBzuns/jULni0JgINTYAEAAEySHPmvpABwcAosAACASZNeePfak54nB4ADU2ABAABMojLyu6UAcGAKLAAAgMmUY9GOy098miAAHpsCCwAAYHKlVNbeLgaAx6bAAgAAmGQ58qvvumLeUZIA2D8FFgAAwOSbmgZrvy8GgP1TYAEAADSAlOJNedW8KZIAeDQFFgAAQGOYffe02iIxADyaAgsAAKBBlBGvlwLAoymwAAAAGkSKeOE9V5zSKQmAX6TAAgAAaKA12mB98HfFAPBLg6MIAAAAGkfK6XfzqqU1SQA8QoEFAADQSFIcs2PqT18gCIBHKLAAAAAaTIq8TAoAj1BgAQAANJic4qX5m6e3SQLgIQosAACABpMiZvbf23+6JAAeosACAABoQCkllxECPEyBBQAA0IDKFOf6NEKAhyiwAAAAGlCKmHn3lB8/SxIACiwAAICGVdbSi6QAoMACAABoWCmHAgsgFFgAAAANLJ16x5cWzJYD0OoUWAAAAA28ZmurpReKAWj5wVAEAAAADSyVZwoBaHUKLAAAgIaWnicDoNUpsAAAABpbV/+VC44RA9DKFFgAAACNbjA9RwhAK1NgAQAANLgc+blSAFqZAgsAAKDxKbCAlqbAAgAAaHwn3XH1gkPEALQqBRYAAEDja2vbl+aJAWhVCiwAAIAmkHKeLwWgVSmwAAAAmkBOocACWpYCCwAAoDksEAHQqhRYAAAAzSArsIDWpcACAABoDh13XTHvKDEArUiBBQAA0CTayrbjpAC0IgUWAABAkyjL6JIC0IoUWAAAAE0iRXRLAWhFCiwAAIAmkYuySwpAK1JgAQAANI1kBxbQkhRYAAAAzSK7hBBoTQosAACA5vFEEQCtSIEFAADQPKbetWreoWIAWo0CCwAAoIm0HzKlQwpAq1FgAQAANJHBPDhTCkCrUWABAAA00yIuF3ZgAa039okAAACgeZRR2oEFtBwFFgAAQBNJZXq8FIBWo8ACAABoIinFVCkArUaBBQAA0ERyZAUW0HIUWAAAAE0k5WKKFIBWo8ACAABoIjlCgQW0HAUWAABAE0kuIQRakAILAACgiWQ3cQdakAILaM2JX06DUoAqn+Qx0NoBGOOg2vOY7BwHWo4CC2jR0S/tFQJUWauf49kYB1Ue4cxjgFZcwokAaMmJXy73SQEqzDlujINKD3HOcaD1KLCAllRa3EGlpdTiuxOSMQ6qfYqHHVhAy1FgAa058cvJ4g4qrGzxS+iS3RlQaTnMY4DWo8ACWnX0M/GDCkstvssy24EFFR/jSjuwgBZcwgG04uKujAekAFVe3MWDLR6BMQ6qPMYVLT/GAS1IgQW05uCXol8KUF05x47WXt1mYxxUWBlphxSAllvDiQBoycVtKi3uoNLneNHi53hhcQtVPsPr5jFAC459IgBacnFbD4s7qPYEp7XP8dLiFip9irfXzGOAVpzfAbSetmizuIMKyy1+CV2yAwsqbereveYxQMtRYAEtqSzsToAqy/XWLrBcJg3VnsYcNjh/pxiAVqPAAlrS3L4VOyN8zDxUdoJTtPYlhKnM270KoJpyxN1p2eq6JICWm9+JAGjJxV1EjoitkoBqmr57cHNLL3Brtc1eBVDZOUyvFIBWpMACWtkmEUAlV3fbZ29f/UArR9CxcP22iNjjxQAVlBVYQGtSYAEmgEClpKycTilyRGzxaoAKnt/egANalAILaOURsFcIUEkWdw8tc41xUEE5mb8Arbp8A2jVpV3OJoBQQaX7wzw0xinyoKILuOzcBlp0/ANo3SHQBBAqyeIuIiInBRZUUVl4Aw5o0dWbCIDWnQC2b4yHPo0QqNbkZqMUInKZfyQFqJy9HbdPvVUMQIvO8QBaU3fvRTtTxFZJQLWUxdSbpBDRnmKDFKBacqSb0xvXDUgCaEUKLKDVJ4I9UoBKndR93b0X7RRExOMX9fRG5PskAdWRIpu3AC1LgQW0+ETQDgWo1kmdnNP/G0XkSIXdaFAh2c5KoIUpsAATQaAylNK/pLRbAyq1eCuNcUALj4EiAFp7IlhY3EGF5JTtOPq/lPRQLe1hjANad+0mAqCVzdmy58cR4R4xUBG1evFdKTwi5/J7UoDK2NZxVo8PnwFalgILaGkpVtcjwgIPquHOOVsv8fHy/8fMw2feGBEPSAKaX478HSkArUyBBZgQRlwrBajEyexc/iXpjGsGI8X3JQEVOJ9TMsYBLU2BBRgII5sQQiU4l/ertOiFSoxwyRgHtPq6DaDF7Z4+/b8joi4JaG5lTi6v2d9kL5XXSQGa3oMzD+lYLwagpec0IgBa3VN/8tn7I3xSFzS53bsfP3CjGB4t1WvXR0QpCWhq/53OuGZQDEArU2ABRESk+IYQoJlP4fjWvI2r90ni0Y4898adEfFDSUBTM08BWp4CCyAiUs5flQI0rzKSc/gAcspXSQGaeIzLyTkMtDwFFkBE7Juy81vho+ahiWc0pQLrQPHUlfTQxO6YtXj9jWIAWn4+IwKAiONvvWpvRFwjCWhKvd29K28Ww2Obse9p342IuyUBTSjF1SlFFgTQ6hRYAP87QXQJEjTp4s6lNQeLaNnqeo78dUlA88llmJ8AhAIL4JEFXnaPGGjSxd3VUhjKGJeulAI0nfrU+r7/EAOAAgvgf3X2rbgtIm6UBDSVB9rywNfEcHBttbwmInxSIzSXaw5/8c39YgBQYAH8ohyrhQBNdc6umbN19W5BHNwRCzfckyO+IQlopiEumZcAPEyBBfB/pBSXRrhRKjTP4i5WSWEYE7+U5QXNY7A+mL8sBoCH5zEiAHjEw5cR/lAS0BTuj9oU978azsRvsPblcBkhNIn8jaNe3HOXHAAenseIAOAXpUh2KEBz+Ep370V7xDB0R557486UshtCg/kIQNNRYAH8krKorwqXEYLFXUXlXHxBCtDw9rUP7vuKGAAeocAC+CXdvZf2RsQ3JQGNLN2xfdYhLh8cgd17HvfvEbFTEtDIQ1y6zKcPAvwiBRbAfuQcn5YCNPLiLn/2mesuHBDE8M1Zdv3uSLFSEtDAQ1zEZ6QA8IsUWAD7sevwgS9Fiu2SgIaUa/Xi38QwiglgWf6LFKBhbZmx+yn/KQaAX5q/iADg0eZtXL0v5bxcEtCQvjFn6yW3imHkZiy5qSd84io0pJTTp9Oy1XVJAPwiBRbAYyiL+FS4mTs0nJxdWjMmOabkUmlowOlHKgY/JwaAR1NgATyG7t6VN6eIb0sCGsqdg1Pv+bIYxmASWJu2IiLfJwloICkun7FoY58gAPYzdxEBwAHmkbn4iBSgoRZ3/3T8rVftFcTodZz13fuSXVjQUMoUH5YCwP4psAAOYM6WS9ZGpB9LAhrCrikD2c3Hx1ItPhYpfJojNIT8/dkLe+z8BngMCiyAA0gROUf5cUlAI6zt4rNHb1u5QxBjp+Osnq2RY7UkoAHmHDn+XgoAj02BBXDQkXLq5yLiTkHApKrXcqFMHo9gU/1DUoDJlSM2zTi8w/39AA60LBMBwIF19160J0e4bAkm11fmbL3kVjGMvScs2rg+UnxTEjB5UoqPpTOuGZQEwGNTYAEMabSc8rGI2CkImBQ5F/F+MYyfMsVfSgEmSco/3xftnxEEwEGWZCIAOLju3ot25giXL8GkyF/s7l1xoxzGz+yFPd+2CwsmSRkfOHrRul2CADgwBRbAUOeXbQMfjYi7JQETe+qVZfyNGMZfqpd/LgWYcNt27z30X8UAcHAKLIAhevJtq++NHB+RBEygHJceu3VljyDGX8c5N10XOa6WBEzkEJf/as6y63dLAuDgFFgAwzBtX+3jEXGXJGBC1HMt2301kYvpWv6ziMiSgAmxeeae8iIxAAyNAgtgGI668+IHU8T/JwmYEP/W3bvyZjFMnFkLN6yLiC9JAiZATn+elm3cJwiAoVFgAQzT3L5tn4zIN0kCxtX9uRh4nxgmXlvEuyNijyRgXP13x+L1y8UAMHQKLIBhSnHNYIr0DknAuJ5of93du/oOQUy8Ixb3bIoUH5UEjJscZbw9JZfrAgyHAgtgBDr7Vnw9Iq6UBIyLnw203/OPYpg85e76ByJimyRgHOS4eOY5Pd8VBMDwKLAARqhWFm+LCPeugDGWIr/j+Fuv2iuJyTN72cYHIvKfSQLG3K6Uyz8XA8DwKbAARmjO1ktujZztEoExlCKu7uxbuVYSk6/jhxs+HynsEoGxlOP9HefctEUQAMOnwAIYhSn1w/4iIn4mCRgTu1Kuv0UMjSFdEGVRz78XdprCGJ1UsaHjjvYPCwJgZBRYAKNw9LYLd0XKb4hwI1YYtZzfN3fLFxTCDWTGORs2RE4fkgSMWpkivzG9cd2AKABGRoEFMEpdm1d+I0dcLAkYlRs7t/z8E2JoPPe0P/j+iPwjScDI5YhPdCzacL0kAEZOgQUwBtrrbe+MiLskASMyGKl4XYprBkXReI4/69a9KcXrI6KUBoxIX95Tf58YAEZHgQUwBo65/fP9Oae3SgJGIKUPdm2+5IeCaFwdizZcHzn9syRg2HIq0hse+mRPAEZDgQUwRrq3LP9CRLpEEjAs6x48dN9fi6Hx3X/4ve+KiJskAcPyjx0L118tBoDRU2ABjKHH7d73poi4VRIwJA+WteL8eRtX+5S7JtB9Ru+eMqdXhU8lhCHKP9q955D3ygFgbCiwAMbQ7O2rH0iRXhMRdWnAQaT89mM3XfITQTTRGLdk/Q2Rs3v5wMHtrafyvDnLrt8tCoCxocACGGOdfcuvjRwfkAQcQIqvdG1e+RlBNJ+OGzZ8OCK+IQk4wBCX4z1PWLRxvSQAxo4CC2AcdG7Z9tcRca0kYD9y9LUNtr1eEE26ML8gytQWr46I7dKA/ZwjKV8xY3HPJyQBMLYUWADjMXmNawbLWn5JRL5dGvAL9haRXnrM7Z/vF0Xz6jirZ2vO6WURMSgN+AW97QMDr04psigAxpYCC2CcHLtp5Z2RYmm44TE8IuU/mLtl+fcF0fxmLVn/zZziTyUB/2tPTvGSw198s4IeYBwosADGUdfmldeniHdLAiIi8qfd96paZi7s+XCOvEoSEBGR3zRrUc8P5QAwPhRYAOOss2/FJ1Lkz0mCFndDrRx8mxiqJaXIeU/5uojYKA1a3CdmLt5wkRgAxo8CC2ACtA8e9uYU8T1J0Jry7W31tHjO1tU+Tr6CZi/b+ECZinNzxA5p0JJSfL3j5+3vEgTAeA+3AEyIbUe/Yua+tnR9RBwnDVrI/bmIF3T3rrhRFNW2Y+1Jvxo5fzMiHicNWkf+Ua1ee+6R5964UxYA48sOLIAJcvS2lTtykRdFxD3SoEXUU+TzlVetYeai9d9LOb8mIkpp0BJS/nmt1naW8gpgYiiwACZQd+/Km8sc50TEXmlQeTm/tbNv5VpBtI6OJRtWR0p/JglawO6op3OPPPuGzaIAmBgKLIAJduyWFd9KkV8fEVkaVFWK9HddW1Z+UhKtZ+ai9X+XIn9KElTYYE7xspnn9HxXFAATR4EFMAk6+1ZeEjn/gSSopJw/O7dv+Z8KonXN+OGGN0fECklQxREu5fTGWYt67C4FmGAKLIBJ0rVl5SdzpHdIgmpJl3RuOeH3kh2Grf0quCDKjj0nvCpSWi0NKiTnlN7csWT9Z0UBMAnzCxEATK7eOef9daR4nySowKziK52bty1Ncc2gMIiIyKvmTbl7Wu3LOeIsadD8L+j8nplLNnxIEACTww4sgEnWtWXFX0SKj0qCppbSVx88dOBlyit+4WWxbOO+val9acrxbWnQ3ENcXKC8ApjksVgEAJMvR6TNc877UKR4lzRowunEFbVy39I5W1fvlgX7c8fVCw5p2xdfiRy/KQ2acIz74MzF698rB4DJZQcWQCNMjSNy15YV704RJsg0lRxp1Y5Zh5yrvOJAjjqz58F7arsWRsRl0qCZhriU0h8prwAaZs0EQCPp7TzvDyLHJ4zRNME04pLOvttf67JBhtwGrJo3pX9qbXmkeKk0aPSXa+T81plLNvyTKAAagx1YAA2ma/OKf8qR3xQRpTRoWCn+ubPv+FcrrxjWy2bZxn0de094eUT+N2nQwOqR47XKK4BGm34C0JA2zTn/ZSnliyJimjRoIDlS/EXX5hXvFwUjfhFdEMXdz1jwwRzu+0fDeaBM+WWzF224UhQAjUWBBdDANnWd/+yU85rIMUsaNIB9KfLrOvtWXiIKxkL/2gWvzzn+OSLapMHkr4zyz3OKRbMWblgnDIAGHKZFANDY+ua87Mllql0RESdIg0l0Ty6KF3f3XnKNKBhL/WtPemHO5eqIdLg0mEQ3Fal+9oxFG/tEAdCY3AMLoMHN3fKFn9XKgeekiG9Jg0myKRf5OcorxkPHovVfK8p4XkRskQaTIsXXiz3tz1NeATQ2BRZAE5izdfXd+6bc88Ic8QlpMKFyvmawvfbs7t6VNwuD8TLjnA0bcq49O1K6ThpMpBTpwo5t7WfNWLbuXmkANPqYDUBT2Tz3vFfmiE9FxHRpMI5yjvhQV9/An6VYXRcHE/Ki++bpbf333/P+iPweaTDOHkiRXtexeP0qUQA0BwUWQBPq7Xz5KZGLL0ZEtzQYB/dHyq/t2rzyi6JgMmxfO/+8lNOnI+Jx0mAc3FIU8eIZC3tuEgVA81BgATSpbUe/YubetrQiRfyWNBg7+aayVnvpsZsu+YksmEx3XXHyyUVZ/nvkeLI0GENfSm3TX9tx1nfvEwVAc1FgATSxHJH65p731hzxwYiYKhFG83LKEZ+eOnjoO47eduEucdAItl92wmFFmvbhHPkN0mCUdqccf9KxpOfjogBoTgosgArYPPcV83JKKyLHAmkwAnelSK/r7Ft+uShoRP1rFrwkR1wYETOkwQisyznOn7Wkx85SgCbmUwgBKqCzb+XGnKY86+FPKcwSYahSxNciFScrr2hkHYt7vpjK8uSIfI00GIYcEZ/o2FN/jvIKoBLzVgCqZNMxr3hRKtK/RESnNDiAnZHyuzs3r/zXpPSkSeQLorj7GQvemiPeHxGHSIQD+ElZxO/NXtjzbVEAVIMCC6CCth39hsftbXvgL1LEuyKiJhF+yeVt9fSmY25fvlUUNKMda096UuT4p4h8jjT4JYMR6SP3H3bvBd1n9O4RB0B1KLAAKqy38+WnRC4+ExHPkAYR8fMU6a2dfcv/XRRUQf9l85fmlP5fRMySBhFxQ07x+lmLen4oCoDqcQ8sgArr2nzpDTtmHfrsHOlPI+IBibSswRzxiXrbwNOUV1RJx5INq6ek9qdHyp+NiFIiLeueiPTWjj0n/IryCqC67MACaBG9nb/zxJzLC1LE68Jlha3kP2tlesecrcs3iIIq2752wTOKHB/NES+QRssoI2L54GC866gX99wlDoBqU2ABtJjNc887tYz80RTp+dKorhxxSxHxZ519K1ZLg1ayfe2CRZHj4ymiWxqV9o0il++YseSmHlEAtAYFFkALyhGpd855L0tF/FXkeIpEKuXOFPG3Dxw28M/zNq7eJw5a0ZZVp02fPvXBt0eKd0fEkRKp1OplQy7jz2ct6VkjDIBW+xUAQMvKcUHRN/enL8kRH4iI4yTS1PpzxD8NTkn/cPyty+8TB0TctWreocW04i0R6b0RcYREmtrNkeJvO3afsDwtW10XB0DrUWABED849Q3ts7Y/8Ioc8ZcRcaxEmsr9OeKTZdvA3z75ttX3igMe7d6vzpuxb2/tramIt0eOx0ukqfTmyH8787COz6YzrhkUB0DrUmAB8L9uOe63p7YPHPHKyMU7I/LTJNLQtuXI/xjF1H/p7r1opzjg4H5+5Smz2gbqb0kp3hwRsyTSwIuUHDfmSB/pOPzISxVXAEQosADYjxyR+uae9xs54m0RsVAiDfWb+6cpxyfLYsqnunsv2iMQGL5brjxu6pH1x70scn5PRHq6RBrq98+1keKDMxf2XJ5SZIkA8Mg0GAAOYPPc807NOd4ZKV4SEVMlMinKFPEfZY6Pdm1Z8bUUFnUwFvIFUfQ/Y/6iSOltkeN0c+NJsytSvrRI6aMzFvbcJA4A9scvaQCGZFPXa44oyn3Lcs5vjpROksiE2JYjLi4iLuzsW3GbOGD83LX25ONTWZ6fUvxuRMyRyETIP4qIz08ZHPjM4S++uV8eAByIAguAYevtfPlzIorXR46lEXGoRMbUQKS4IqL8TOfm+ldT+LQtmEj5U6e29x81uCin/PoU8cKIqEllTFcf90YZK3MRn561qOeHAgFg6L9CAGCENnW9ZlpR7v2tHGlpRJwbyqyRqkfEf6eI1QPttZXH/eziu0QCk+++Lz21Y1/7lLMfLutfFBFtUhmR3RHxn5Fi9b5o//ejF63bJRIAhkuBBcCYuOMJrzxk95T6ohR5WaR0ZkQ8TioHNBAR30oRq9oH85eO3rZyh0igcW3/4qlPTG37XpIiLcspnhN2Zh3M/SnFFTnSqvsPvfeq7jN6fegEAKOiwAJgzOU4va1v7hOfXUZamCJ+MyKe4XdORETcGRFfSxFry2LKf3T3XrRTJNB87lo179A0vXZGkdPCnPNZkeIYqUSkiNtyxOVR5rX3TNn97ePPunWvVAAYw98zADC+bus+rzPV84tSKn4t5fy83Do3SN6RI1+XUvGtlMuvdvat3OjVANWSc6TtV558UlHmF6Wcn58jnhMRR7TEzx6xKUW+NuXim2UUX5215IZtXhEAjBcFFgAT7tajXz6nrb32/CjzaZHieRFxYjT/vWVypLgl5bgup/hORP26zs1fuDlFZEccWke+IIp7nrng6fUyPTdFfm6keE7keHIFVg0DkWN9pLg2lfnaMtquVVgBMLG/igBgkv3g1De0z9p+/1Mi0tPLiHkp4tSIeHpEdDfo76p7I+KmHLGxiPhRRF63e/r09U/9yWfvdzSBX9Z/5bMOL8tdx6ec5kWOUyPF0yPHSRExqzFXCPnnEWlj5PhRpFiXU964Z9ehP5qz7PrdjiYAk/brSQQANKpbjjv/8Nqesiul1F2k6CojuiNyd4o0J0XMzBEdMfY3i98bEf05oj/l2BpF9EbkTSmn3pTLTW311OuG68BYuONLC2a3FdGdaqkr57IrRXTnnLoevqdWR6ToiBztY/xtH4yI/ojYHpG25IhNKeXeHLGplmLTvvbYdNSZPQ86OgA0GgUWAE1tyzFLp+8tazNrU4qOokwdETE9Ik+PiMgpDk85ajnntpSiFpH+54bC90RElDn2FSkeTLncWa/FjkMerO+YvX31A1IFGkX/lc86vDa4u2MwpVlRLw+PWhyaymiPVKQyyiMiIlJK06KMgZxyvcjFYER5f0REGbVdKZW7i1zuKIta//2H3tvv0wABAAAAAAAAAAAAAAAAAAAAAAAAAAAAAAAAAAAAAAAAAACAFvb/A4wfIxkkxlvLAAAAJXRFWHRkYXRlOmNyZWF0ZQAyMDIxLTEyLTI3VDAwOjE0OjQ5KzAwOjAw+hVjpAAAACV0RVh0ZGF0ZTptb2RpZnkAMjAyMS0xMi0yN1QwMDoxNDo0OSswMDowMItI2xgAAAAASUVORK5CYII=;" parent="11" vertex="1">
                    <mxGeometry x="569.5" y="86.49999999999994" width="50" height="50" as="geometry"/>
                </mxCell>
                <mxCell id="35" style="edgeStyle=none;html=1;exitX=1;exitY=0.5;exitDx=0;exitDy=0;entryX=0;entryY=0.5;entryDx=0;entryDy=0;" parent="11" source="29" target="33" edge="1">
                    <mxGeometry relative="1" as="geometry"/>
                </mxCell>
                <mxCell id="36" value="Slack" style="text;html=1;align=center;verticalAlign=middle;resizable=0;points=[];autosize=1;strokeColor=none;fillColor=none;" parent="11" vertex="1">
                    <mxGeometry x="569.5" y="51.599999999999966" width="50" height="30" as="geometry"/>
                </mxCell>
                <mxCell id="5" value="" style="shape=image;verticalLabelPosition=bottom;verticalAlign=top;imageAspect=0;image=data:image/png,iVBORw0KGgoAAAANSUhEUgAAAgAAAAIACAYAAAD0eNT6AAAACXBIWXMAAAu4AAALuAE+shgXAAABNmlDQ1BQaG90b3Nob3AgSUNDIHByb2ZpbGUAAHjarY6xSsNQFEDPi6LiUCsEcXB4kygotupgxqQtRRCs1SHJ1qShSmkSXl7VfoSjWwcXd7/AyVFwUPwC/0Bx6uAQIYODCJ7p3MPlcsGo2HWnYZRhEGvVbjrS9Xw5+8QMUwDQCbPUbrUOAOIkjvjB5ysC4HnTrjsN/sZ8mCoNTIDtbpSFICpA/0KnGsQYMIN+qkHcAaY6addAPAClXu4vQCnI/Q0oKdfzQXwAZs/1fDDmADPIfQUwdXSpAWpJOlJnvVMtq5ZlSbubBJE8HmU6GmRyPw4TlSaqo6MukP8HwGK+2G46cq1qWXvr/DOu58vc3o8QgFh6LFpBOFTn3yqMnd/n4sZ4GQ5vYXpStN0ruNmAheuirVahvAX34y/Axk/96FpPYgAAPj9pVFh0WE1MOmNvbS5hZG9iZS54bXAAAAAAADw/eHBhY2tldCBiZWdpbj0i77u/IiBpZD0iVzVNME1wQ2VoaUh6cmVTek5UY3prYzlkIj8+Cjx4OnhtcG1ldGEgeG1sbnM6eD0iYWRvYmU6bnM6bWV0YS8iIHg6eG1wdGs9IkFkb2JlIFhNUCBDb3JlIDUuNS1jMDE0IDc5LjE1MTQ4MSwgMjAxMy8wMy8xMy0xMjowOToxNSAgICAgICAgIj4KICAgPHJkZjpSREYgeG1sbnM6cmRmPSJodHRwOi8vd3d3LnczLm9yZy8xOTk5LzAyLzIyLXJkZi1zeW50YXgtbnMjIj4KICAgICAgPHJkZjpEZXNjcmlwdGlvbiByZGY6YWJvdXQ9IiIKICAgICAgICAgICAgeG1sbnM6eG1wPSJodHRwOi8vbnMuYWRvYmUuY29tL3hhcC8xLjAvIgogICAgICAgICAgICB4bWxuczp4bXBNTT0iaHR0cDovL25zLmFkb2JlLmNvbS94YXAvMS4wL21tLyIKICAgICAgICAgICAgeG1sbnM6c3RFdnQ9Imh0dHA6Ly9ucy5hZG9iZS5jb20veGFwLzEuMC9zVHlwZS9SZXNvdXJjZUV2ZW50IyIKICAgICAgICAgICAgeG1sbnM6ZGM9Imh0dHA6Ly9wdXJsLm9yZy9kYy9lbGVtZW50cy8xLjEvIgogICAgICAgICAgICB4bWxuczpwaG90b3Nob3A9Imh0dHA6Ly9ucy5hZG9iZS5jb20vcGhvdG9zaG9wLzEuMC8iCiAgICAgICAgICAgIHhtbG5zOnRpZmY9Imh0dHA6Ly9ucy5hZG9iZS5jb20vdGlmZi8xLjAvIgogICAgICAgICAgICB4bWxuczpleGlmPSJodHRwOi8vbnMuYWRvYmUuY29tL2V4aWYvMS4wLyI+CiAgICAgICAgIDx4bXA6Q3JlYXRvclRvb2w+QWRvYmUgUGhvdG9zaG9wIENDIChXaW5kb3dzKTwveG1wOkNyZWF0b3JUb29sPgogICAgICAgICA8eG1wOkNyZWF0ZURhdGU+MjAxMy0xMC0xNlQxNToyMjo1Ny0wNTowMDwveG1wOkNyZWF0ZURhdGU+CiAgICAgICAgIDx4bXA6TW9kaWZ5RGF0ZT4yMDEzLTEwLTE2VDE2OjAzOjA4LTA1OjAwPC94bXA6TW9kaWZ5RGF0ZT4KICAgICAgICAgPHhtcDpNZXRhZGF0YURhdGU+MjAxMy0xMC0xNlQxNjowMzowOC0wNTowMDwveG1wOk1ldGFkYXRhRGF0ZT4KICAgICAgICAgPHhtcE1NOkRvY3VtZW50SUQ+eG1wLmRpZDo4OWQwZjU3Ni1hZTIzLWU1NDMtODk3Yy1kYzVmNjljNzQ0ODM8L3htcE1NOkRvY3VtZW50SUQ+CiAgICAgICAgIDx4bXBNTTpJbnN0YW5jZUlEPnhtcC5paWQ6ZjkyNmVmMGYtOWE2Ni1mNTQ2LTlhOWYtMTAxZWFkY2MxMTVlPC94bXBNTTpJbnN0YW5jZUlEPgogICAgICAgICA8eG1wTU06T3JpZ2luYWxEb2N1bWVudElEPnhtcC5kaWQ6ODlkMGY1NzYtYWUyMy1lNTQzLTg5N2MtZGM1ZjY5Yzc0NDgzPC94bXBNTTpPcmlnaW5hbERvY3VtZW50SUQ+CiAgICAgICAgIDx4bXBNTTpIaXN0b3J5PgogICAgICAgICAgICA8cmRmOlNlcT4KICAgICAgICAgICAgICAgPHJkZjpsaSByZGY6cGFyc2VUeXBlPSJSZXNvdXJjZSI+CiAgICAgICAgICAgICAgICAgIDxzdEV2dDphY3Rpb24+Y3JlYXRlZDwvc3RFdnQ6YWN0aW9uPgogICAgICAgICAgICAgICAgICA8c3RFdnQ6aW5zdGFuY2VJRD54bXAuaWlkOjM3Nzg1MjFlLTUxY2MtOTE0Mi1iNjIwLWIzYzA1M2Q5ZGY0Nzwvc3RFdnQ6aW5zdGFuY2VJRD4KICAgICAgICAgICAgICAgICAgPHN0RXZ0OndoZW4+MjAxMy0xMC0xNlQxNToyMjo1Ny0wNTowMDwvc3RFdnQ6d2hlbj4KICAgICAgICAgICAgICAgICAgPHN0RXZ0OnNvZnR3YXJlQWdlbnQ+QWRvYmUgUGhvdG9zaG9wIENDIChXaW5kb3dzKTwvc3RFdnQ6c29mdHdhcmVBZ2VudD4KICAgICAgICAgICAgICAgPC9yZGY6bGk+CiAgICAgICAgICAgICAgIDxyZGY6bGkgcmRmOnBhcnNlVHlwZT0iUmVzb3VyY2UiPgogICAgICAgICAgICAgICAgICA8c3RFdnQ6YWN0aW9uPmNvbnZlcnRlZDwvc3RFdnQ6YWN0aW9uPgogICAgICAgICAgICAgICAgICA8c3RFdnQ6cGFyYW1ldGVycz5mcm9tIGFwcGxpY2F0aW9uL3ZuZC5hZG9iZS5waG90b3Nob3AgdG8gaW1hZ2UvcG5nPC9zdEV2dDpwYXJhbWV0ZXJzPgogICAgICAgICAgICAgICA8L3JkZjpsaT4KICAgICAgICAgICAgICAgPHJkZjpsaSByZGY6cGFyc2VUeXBlPSJSZXNvdXJjZSI+CiAgICAgICAgICAgICAgICAgIDxzdEV2dDphY3Rpb24+c2F2ZWQ8L3N0RXZ0OmFjdGlvbj4KICAgICAgICAgICAgICAgICAgPHN0RXZ0Omluc3RhbmNlSUQ+eG1wLmlpZDpmOTI2ZWYwZi05YTY2LWY1NDYtOWE5Zi0xMDFlYWRjYzExNWU8L3N0RXZ0Omluc3RhbmNlSUQ+CiAgICAgICAgICAgICAgICAgIDxzdEV2dDp3aGVuPjIwMTMtMTAtMTZUMTY6MDM6MDgtMDU6MDA8L3N0RXZ0OndoZW4+CiAgICAgICAgICAgICAgICAgIDxzdEV2dDpzb2Z0d2FyZUFnZW50PkFkb2JlIFBob3Rvc2hvcCBDQyAoV2luZG93cyk8L3N0RXZ0OnNvZnR3YXJlQWdlbnQ+CiAgICAgICAgICAgICAgICAgIDxzdEV2dDpjaGFuZ2VkPi88L3N0RXZ0OmNoYW5nZWQ+CiAgICAgICAgICAgICAgIDwvcmRmOmxpPgogICAgICAgICAgICA8L3JkZjpTZXE+CiAgICAgICAgIDwveG1wTU06SGlzdG9yeT4KICAgICAgICAgPGRjOmZvcm1hdD5pbWFnZS9wbmc8L2RjOmZvcm1hdD4KICAgICAgICAgPHBob3Rvc2hvcDpDb2xvck1vZGU+MzwvcGhvdG9zaG9wOkNvbG9yTW9kZT4KICAgICAgICAgPHBob3Rvc2hvcDpJQ0NQcm9maWxlPkFkb2JlIFJHQiAoMTk5OCk8L3Bob3Rvc2hvcDpJQ0NQcm9maWxlPgogICAgICAgICA8cGhvdG9zaG9wOlRleHRMYXllcnM+CiAgICAgICAgICAgIDxyZGY6QmFnPgogICAgICAgICAgICAgICA8cmRmOmxpIHJkZjpwYXJzZVR5cGU9IlJlc291cmNlIj4KICAgICAgICAgICAgICAgICAgPHBob3Rvc2hvcDpMYXllck5hbWU+TkdJTlg8L3Bob3Rvc2hvcDpMYXllck5hbWU+CiAgICAgICAgICAgICAgICAgIDxwaG90b3Nob3A6TGF5ZXJUZXh0Pk5HSU5YPC9waG90b3Nob3A6TGF5ZXJUZXh0PgogICAgICAgICAgICAgICA8L3JkZjpsaT4KICAgICAgICAgICAgPC9yZGY6QmFnPgogICAgICAgICA8L3Bob3Rvc2hvcDpUZXh0TGF5ZXJzPgogICAgICAgICA8cGhvdG9zaG9wOkRvY3VtZW50QW5jZXN0b3JzPgogICAgICAgICAgICA8cmRmOkJhZz4KICAgICAgICAgICAgICAgPHJkZjpsaT54bXAuZGlkOjgyNjc0M2IwLTZmZDctMTM0My04MWY3LTg2ZjAxMTU2MzlmNjwvcmRmOmxpPgogICAgICAgICAgICAgICA8cmRmOmxpPnhtcC5kaWQ6ODlkMGY1NzYtYWUyMy1lNTQzLTg5N2MtZGM1ZjY5Yzc0NDgzPC9yZGY6bGk+CiAgICAgICAgICAgICAgIDxyZGY6bGk+eG1wLmRpZDo5ZTJjM2ExYy05OWE2LTM3NGEtOTNjYS1hZmFkNmNmYzI4Yjc8L3JkZjpsaT4KICAgICAgICAgICAgICAgPHJkZjpsaT54bXAuZGlkOmFmNTQyNGU1LTIzN2QtYTM0Mi1hMzMwLTg2ZGUxYmFiNmM3MjwvcmRmOmxpPgogICAgICAgICAgICAgICA8cmRmOmxpPnhtcC5kaWQ6Zjc2ZTkwNTgtMjUxZi01MjQ2LWI1NjEtM2MxZGZkZjg2OTFiPC9yZGY6bGk+CiAgICAgICAgICAgIDwvcmRmOkJhZz4KICAgICAgICAgPC9waG90b3Nob3A6RG9jdW1lbnRBbmNlc3RvcnM+CiAgICAgICAgIDx0aWZmOk9yaWVudGF0aW9uPjE8L3RpZmY6T3JpZW50YXRpb24+CiAgICAgICAgIDx0aWZmOlhSZXNvbHV0aW9uPjMwMDAwMC8xMDAwMDwvdGlmZjpYUmVzb2x1dGlvbj4KICAgICAgICAgPHRpZmY6WVJlc29sdXRpb24+MzAwMDAwLzEwMDAwPC90aWZmOllSZXNvbHV0aW9uPgogICAgICAgICA8dGlmZjpSZXNvbHV0aW9uVW5pdD4zPC90aWZmOlJlc29sdXRpb25Vbml0PgogICAgICAgICA8ZXhpZjpDb2xvclNwYWNlPjY1NTM1PC9leGlmOkNvbG9yU3BhY2U+CiAgICAgICAgIDxleGlmOlBpeGVsWERpbWVuc2lvbj41MTI8L2V4aWY6UGl4ZWxYRGltZW5zaW9uPgogICAgICAgICA8ZXhpZjpQaXhlbFlEaW1lbnNpb24+NTEyPC9leGlmOlBpeGVsWURpbWVuc2lvbj4KICAgICAgPC9yZGY6RGVzY3JpcHRpb24+CiAgIDwvcmRmOlJERj4KPC94OnhtcG1ldGE+CiAgICAgICAgICAgICAgICAgICAgICAgICAgICAgICAgICAgICAgICAgICAgICAgICAgICAgICAgICAgICAgICAgICAgICAgICAgICAgICAgICAgICAgICAgICAgICAgICAgICAKICAgICAgICAgICAgICAgICAgICAgICAgICAgICAgICAgICAgICAgICAgICAgICAgICAgICAgICAgICAgICAgICAgICAgICAgICAgICAgICAgICAgICAgICAgICAgICAgICAgIAogICAgICAgICAgICAgICAgICAgICAgICAgICAgICAgICAgICAgICAgICAgICAgICAgICAgICAgICAgICAgICAgICAgICAgICAgICAgICAgICAgICAgICAgICAgICAgICAgICAgCiAgICAgICAgICAgICAgICAgICAgICAgICAgICAgICAgICAgICAgICAgICAgICAgICAgICAgICAgICAgICAgICAgICAgICAgICAgICAgICAgICAgICAgICAgICAgICAgICAgICAKICAgICAgICAgICAgICAgICAgICAgICAgICAgICAgICAgICAgICAgICAgICAgICAgICAgICAgICAgICAgICAgICAgICAgICAgICAgICAgICAgICAgICAgICAgICAgICAgICAgIAogICAgICAgICAgICAgICAgICAgICAgICAgICAgICAgICAgICAgICAgICAgICAgICAgICAgICAgICAgICAgICAgICAgICAgICAgICAgICAgICAgICAgICAgICAgICAgICAgICAgCiAgICAgICAgICAgICAgICAgICAgICAgICAgICAgICAgICAgICAgICAgICAgICAgICAgICAgICAgICAgICAgICAgICAgICAgICAgICAgICAgICAgICAgICAgICAgICAgICAgICAKICAgICAgICAgICAgICAgICAgICAgICAgICAgICAgICAgICAgICAgICAgICAgICAgICAgICAgICAgICAgICAgICAgICAgICAgICAgICAgICAgICAgICAgICAgICAgICAgICAgIAogICAgICAgICAgICAgICAgICAgICAgICAgICAgICAgICAgICAgICAgICAgICAgICAgICAgICAgICAgICAgICAgICAgICAgICAgICAgICAgICAgICAgICAgICAgICAgICAgICAgCiAgICAgICAgICAgICAgICAgICAgICAgICAgICAgICAgICAgICAgICAgICAgICAgICAgICAgICAgICAgICAgICAgICAgICAgICAgICAgICAgICAgICAgICAgICAgICAgICAgICAKICAgICAgICAgICAgICAgICAgICAgICAgICAgICAgICAgICAgICAgICAgICAgICAgICAgICAgICAgICAgICAgICAgICAgICAgICAgICAgICAgICAgICAgICAgICAgICAgICAgIAogICAgICAgICAgICAgICAgICAgICAgICAgICAgICAgICAgICAgICAgICAgICAgICAgICAgICAgICAgICAgICAgICAgICAgICAgICAgICAgICAgICAgICAgICAgICAgICAgICAgCiAgICAgICAgICAgICAgICAgICAgICAgICAgICAgICAgICAgICAgICAgICAgICAgICAgICAgICAgICAgICAgICAgICAgICAgICAgICAgICAgICAgICAgICAgICAgICAgICAgICAKICAgICAgICAgICAgICAgICAgICAgICAgICAgICAgICAgICAgICAgICAgICAgICAgICAgICAgICAgICAgICAgICAgICAgICAgICAgICAgICAgICAgICAgICAgICAgICAgICAgIAogICAgICAgICAgICAgICAgICAgICAgICAgICAgICAgICAgICAgICAgICAgICAgICAgICAgICAgICAgICAgICAgICAgICAgICAgICAgICAgICAgICAgICAgICAgICAgICAgICAgCiAgICAgICAgICAgICAgICAgICAgICAgICAgICAgICAgICAgICAgICAgICAgICAgICAgICAgICAgICAgICAgICAgICAgICAgICAgICAgICAgICAgICAgICAgICAgICAgICAgICAKICAgICAgICAgICAgICAgICAgICAgICAgICAgICAgICAgICAgICAgICAgICAgICAgICAgICAgICAgICAgICAgICAgICAgICAgICAgICAgICAgICAgICAgICAgICAgICAgICAgIAogICAgICAgICAgICAgICAgICAgICAgICAgICAgICAgICAgICAgICAgICAgICAgICAgICAgICAgICAgICAgICAgICAgICAgICAgICAgICAgICAgICAgICAgICAgICAgICAgICAgCiAgICAgICAgICAgICAgICAgICAgICAgICAgICAgICAgICAgICAgICAgICAgICAgICAgICAgICAgICAgICAgICAgICAgICAgICAgICAgICAgICAgICAgICAgICAgICAgICAgICAKICAgICAgICAgICAgICAgICAgICAgICAgICAgICAgICAgICAgICAgICAgICAgICAgICAgICAgICAgICAgICAgICAgICAgICAgICAgICAgICAgICAgICAgICAgICAgICAgICAgIAogICAgICAgICAgICAgICAgICAgICAgICAgICAgICAgICAgICAgICAgICAgICAgICAgICAgICAgICAgICAgICAgICAgICAgICAgICAgICAgICAgICAgICAgICAgICAgICAgICAgCiAgICAgICAgICAgICAgICAgICAgICAgICAgICAgICAgICAgICAgICAgICAgICAgICAgICAgICAgICAgICAgICAgICAgICAgICAgICAgICAgICAgICAgICAgICAgICAgICAgICAKICAgICAgICAgICAgICAgICAgICAgICAgICAgICAgICAgICAgICAgICAgICAgICAgICAgICAgICAgICAgICAgICAgICAgICAgICAgICAgICAgICAgICAgICAgICAgICAgICAgIAogICAgICAgICAgICAgICAgICAgICAgICAgICAgICAgICAgICAgICAgICAgICAgICAgICAgICAgICAgICAgICAgICAgICAgICAgICAgICAgICAgICAgICAgICAgICAgICAgICAgCiAgICAgICAgICAgICAgICAgICAgICAgICAgICAgICAgICAgICAgICAgICAgICAgICAgICAgICAgICAgICAgICAgICAgICAgICAgICAgICAgICAgICAgICAgICAgICAgICAgICAKICAgICAgICAgICAgICAgICAgICAgICAgICAgICAgICAgICAgICAgICAgICAgICAgICAgICAgICAgICAgICAgICAgICAgICAgICAgICAgICAgICAgICAgICAgICAgICAgICAgIAogICAgICAgICAgICAgICAgICAgICAgICAgICAgICAgICAgICAgICAgICAgICAgICAgICAgICAgICAgICAgICAgICAgICAgICAgICAgICAgICAgICAgICAgICAgICAgICAgICAgCiAgICAgICAgICAgICAgICAgICAgICAgICAgICAgICAgICAgICAgICAgICAgICAgICAgICAgICAgICAgICAgICAgICAgICAgICAgICAgICAgICAgICAgICAgICAgICAgICAgICAKICAgICAgICAgICAgICAgICAgICAgICAgICAgICAgICAgICAgICAgICAgICAgICAgICAgICAgICAgICAgICAgICAgICAgICAgICAgICAgICAgICAgICAgICAgICAgICAgICAgIAogICAgICAgICAgICAgICAgICAgICAgICAgICAgICAgICAgICAgICAgICAgICAgICAgICAgICAgICAgICAgICAgICAgICAgICAgICAgICAgICAgICAgICAgICAgICAgICAgICAgCiAgICAgICAgICAgICAgICAgICAgICAgICAgICAgICAgICAgICAgICAgICAgICAgICAgICAgICAgICAgICAgICAgICAgICAgICAgICAgICAgICAgICAgICAgICAgICAgICAgICAKICAgICAgICAgICAgICAgICAgICAgICAgICAgICAgICAgICAgICAgICAgICAgICAgICAgICAgICAgICAgICAgICAgICAgICAgICAgICAgICAgICAgICAgICAgICAgICAgICAgIAogICAgICAgICAgICAgICAgICAgICAgICAgICAgICAgICAgICAgICAgICAgICAgICAgICAgICAgICAgICAgICAgICAgICAgICAgICAgICAgICAgICAgICAgICAgICAgICAgICAgCiAgICAgICAgICAgICAgICAgICAgICAgICAgICAgICAgICAgICAgICAgICAgICAgICAgICAgICAgICAgICAgICAgICAgICAgICAgICAgICAgICAgICAgICAgICAgICAgICAgICAKICAgICAgICAgICAgICAgICAgICAgICAgICAgICAgICAgICAgICAgICAgICAgICAgICAgICAgICAgICAgICAgICAgICAgICAgICAgICAgICAgICAgICAgICAgICAgICAgICAgIAogICAgICAgICAgICAgICAgICAgICAgICAgICAgICAgICAgICAgICAgICAgICAgICAgICAgICAgICAgICAgICAgICAgICAgICAgICAgICAgICAgICAgICAgICAgICAgICAgICAgCiAgICAgICAgICAgICAgICAgICAgICAgICAgICAgICAgICAgICAgICAgICAgICAgICAgICAgICAgICAgICAgICAgICAgICAgICAgICAgICAgICAgICAgICAgICAgICAgICAgICAKICAgICAgICAgICAgICAgICAgICAgICAgICAgICAgICAgICAgICAgICAgICAgICAgICAgICAgICAgICAgICAgICAgICAgICAgICAgICAgICAgICAgICAgICAgICAgICAgICAgIAogICAgICAgICAgICAgICAgICAgICAgICAgICAgICAgICAgICAgICAgICAgICAgICAgICAgICAgICAgICAgICAgICAgICAgICAgICAgICAgICAgICAgICAgICAgICAgICAgICAgCiAgICAgICAgICAgICAgICAgICAgICAgICAgICAgICAgICAgICAgICAgICAgICAgICAgICAgICAgICAgICAgICAgICAgICAgICAgICAgICAgICAgICAgICAgICAgICAgICAgICAKICAgICAgICAgICAgICAgICAgICAgICAgICAgICAgICAgICAgICAgICAgICAgICAgICAgICAgICAgICAgICAgICAgICAgICAgICAgICAgICAgICAgICAgICAgICAgICAgICAgIAogICAgICAgICAgICAgICAgICAgICAgICAgICAgICAgICAgICAgICAgICAgICAgICAgICAgICAgICAgICAgICAgICAgICAgICAgICAgICAgICAgICAgICAgICAgICAgICAgICAgCiAgICAgICAgICAgICAgICAgICAgICAgICAgICAgICAgICAgICAgICAgICAgICAgICAgICAgICAgICAgICAgICAgICAgICAgICAgICAgICAgICAgICAgICAgICAgICAgICAgICAKICAgICAgICAgICAgICAgICAgICAgICAgICAgICAgICAgICAgICAgICAgICAgICAgICAgICAgICAgICAgICAgICAgICAgICAgICAgICAgICAgICAgICAgICAgICAgICAgICAgIAogICAgICAgICAgICAgICAgICAgICAgICAgICAgICAgICAgICAgICAgICAgICAgICAgICAgICAgICAgICAgICAgICAgICAgICAgICAgICAgICAgICAgICAgICAgICAgICAgICAgCiAgICAgICAgICAgICAgICAgICAgICAgICAgICAgICAgICAgICAgICAgICAgICAgICAgICAgICAgICAgICAgICAgICAgICAgICAgICAgICAgICAgICAgICAgICAgICAgICAgICAKICAgICAgICAgICAgICAgICAgICAgICAgICAgICAgICAgICAgICAgICAgICAgICAgICAgICAgICAgICAgICAgICAgICAgICAgICAgICAgICAgICAgICAgICAgICAgICAgICAgIAogICAgICAgICAgICAgICAgICAgICAgICAgICAgICAgICAgICAgICAgICAgICAgICAgICAgICAgICAgICAgICAgICAgICAgICAgICAgICAgICAgICAgICAgICAgICAgICAgICAgCiAgICAgICAgICAgICAgICAgICAgICAgICAgICAgICAgICAgICAgICAgICAgICAgICAgICAgICAgICAgICAgICAgICAgICAgICAgICAgICAgICAgICAgICAgICAgICAgICAgICAKICAgICAgICAgICAgICAgICAgICAgICAgICAgICAgICAgICAgICAgICAgICAgICAgICAgICAgICAgICAgICAgICAgICAgICAgICAgICAgICAgICAgICAgICAgICAgICAgICAgIAogICAgICAgICAgICAgICAgICAgICAgICAgICAgICAgICAgICAgICAgICAgICAgICAgICAgICAgICAgICAgICAgICAgICAgICAgICAgICAgICAgICAgICAgICAgICAgICAgICAgCiAgICAgICAgICAgICAgICAgICAgICAgICAgICAgICAgICAgICAgICAgICAgICAgICAgICAgICAgICAgICAgICAgICAgICAgICAgICAgICAgICAgICAgICAgICAgICAgICAgICAKICAgICAgICAgICAgICAgICAgICAgICAgICAgICAgICAgICAgICAgICAgICAgICAgICAgICAgICAgICAgICAgICAgICAgICAgICAgICAgICAgICAgICAgICAgICAgICAgICAgIAogICAgICAgICAgICAgICAgICAgICAgICAgICAgICAgICAgICAgICAgICAgICAgICAgICAgICAgICAgICAgICAgICAgICAgICAgICAgICAgICAgICAgICAgICAgICAgICAgICAgCiAgICAgICAgICAgICAgICAgICAgICAgICAgICAgICAgICAgICAgICAgICAgICAgICAgICAgICAgICAgICAgICAgICAgICAgICAgICAgICAgICAgICAgICAgICAgICAgICAgICAKICAgICAgICAgICAgICAgICAgICAgICAgICAgICAgICAgICAgICAgICAgICAgICAgICAgICAgICAgICAgICAgICAgICAgICAgICAgICAgICAgICAgICAgICAgICAgICAgICAgIAogICAgICAgICAgICAgICAgICAgICAgICAgICAgICAgICAgICAgICAgICAgICAgICAgICAgICAgICAgICAgICAgICAgICAgICAgICAgICAgICAgICAgICAgICAgICAgICAgICAgCiAgICAgICAgICAgICAgICAgICAgICAgICAgICAgICAgICAgICAgICAgICAgICAgICAgICAgICAgICAgICAgICAgICAgICAgICAgICAgICAgICAgICAgICAgICAgICAgICAgICAKICAgICAgICAgICAgICAgICAgICAgICAgICAgICAgICAgICAgICAgICAgICAgICAgICAgICAgICAgICAgICAgICAgICAgICAgICAgICAgICAgICAgICAgICAgICAgICAgICAgIAogICAgICAgICAgICAgICAgICAgICAgICAgICAgICAgICAgICAgICAgICAgICAgICAgICAgICAgICAgICAgICAgICAgICAgICAgICAgICAgICAgICAgICAgICAgICAgICAgICAgCiAgICAgICAgICAgICAgICAgICAgICAgICAgICAgICAgICAgICAgICAgICAgICAgICAgICAgICAgICAgICAgICAgICAgICAgICAgICAgICAgICAgICAgICAgICAgICAgICAgICAKICAgICAgICAgICAgICAgICAgICAgICAgICAgICAgICAgICAgICAgICAgICAgICAgICAgICAgICAgICAgICAgICAgICAgICAgICAgICAgICAgICAgICAgICAgICAgICAgICAgIAogICAgICAgICAgICAgICAgICAgICAgICAgICAgICAgICAgICAgICAgICAgICAgICAgICAgICAgICAgICAgICAgICAgICAgICAgICAgICAgICAgICAgICAgICAgICAgICAgICAgCiAgICAgICAgICAgICAgICAgICAgICAgICAgICAgICAgICAgICAgICAgICAgICAgICAgICAgICAgICAgICAgICAgICAgICAgICAgICAgICAgICAgICAgICAgICAgICAgICAgICAKICAgICAgICAgICAgICAgICAgICAgICAgICAgICAgICAgICAgICAgICAgICAgICAgICAgICAgICAgICAgICAgICAgICAgICAgICAgICAgICAgICAgICAgICAgICAgICAgICAgIAogICAgICAgICAgICAgICAgICAgICAgICAgICAgICAgICAgICAgICAgICAgICAgICAgICAgICAgICAgICAgICAgICAgICAgICAgICAgICAgICAgICAgICAgICAgICAgICAgICAgCiAgICAgICAgICAgICAgICAgICAgICAgICAgICAgICAgICAgICAgICAgICAgICAgICAgICAgICAgICAgICAgICAgICAgICAgICAgICAgICAgICAgICAgICAgICAgICAgICAgICAKICAgICAgICAgICAgICAgICAgICAgICAgICAgICAgICAgICAgICAgICAgICAgICAgICAgICAgICAgICAgICAgICAgICAgICAgICAgICAgICAgICAgICAgICAgICAgICAgICAgIAogICAgICAgICAgICAgICAgICAgICAgICAgICAgICAgICAgICAgICAgICAgICAgICAgICAgICAgICAgICAgICAgICAgICAgICAgICAgICAgICAgICAgICAgICAgICAgICAgICAgCiAgICAgICAgICAgICAgICAgICAgICAgICAgICAgICAgICAgICAgICAgICAgICAgICAgICAgICAgICAgICAgICAgICAgICAgICAgICAgICAgICAgICAgICAgICAgICAgICAgICAKICAgICAgICAgICAgICAgICAgICAgICAgICAgICAgICAgICAgICAgICAgICAgICAgICAgICAgICAgICAgICAgICAgICAgICAgICAgICAgICAgICAgICAgICAgICAgICAgICAgIAogICAgICAgICAgICAgICAgICAgICAgICAgICAgICAgICAgICAgICAgICAgICAgICAgICAgICAgICAgICAgICAgICAgICAgICAgICAgICAgICAgICAgICAgICAgICAgICAgICAgCiAgICAgICAgICAgICAgICAgICAgICAgICAgICAgICAgICAgICAgICAgICAgICAgICAgICAgICAgICAgICAgICAgICAgICAgICAgICAgICAgICAgICAgICAgICAgICAgICAgICAKICAgICAgICAgICAgICAgICAgICAgICAgICAgICAgICAgICAgICAgICAgICAgICAgICAgICAgICAgICAgICAgICAgICAgICAgICAgICAgICAgICAgICAgICAgICAgICAgICAgIAogICAgICAgICAgICAgICAgICAgICAgICAgICAgICAgICAgICAgICAgICAgICAgICAgICAgICAgICAgICAgICAgICAgICAgICAgICAgICAgICAgICAgICAgICAgICAgICAgICAgCiAgICAgICAgICAgICAgICAgICAgICAgICAgICAgICAgICAgICAgICAgICAgICAgICAgICAgICAgICAgICAgICAgICAgICAgICAgICAgICAgICAgICAgICAgICAgICAgICAgICAKICAgICAgICAgICAgICAgICAgICAgICAgICAgICAgICAgICAgICAgICAgICAgICAgICAgICAgICAgICAgICAgICAgICAgICAgICAgICAgICAgICAgICAgICAgICAgICAgICAgIAogICAgICAgICAgICAgICAgICAgICAgICAgICAgICAgICAgICAgICAgICAgICAgICAgICAgICAgICAgICAgICAgICAgICAgICAgICAgICAgICAgICAgICAgICAgICAgICAgICAgCiAgICAgICAgICAgICAgICAgICAgICAgICAgICAgICAgICAgICAgICAgICAgICAgICAgICAgICAgICAgICAgICAgICAgICAgICAgICAgICAgICAgICAgICAgICAgICAgICAgICAKICAgICAgICAgICAgICAgICAgICAgICAgICAgICAgICAgICAgICAgICAgICAgICAgICAgICAgICAgICAgICAgICAgICAgICAgICAgICAgICAgICAgICAgICAgICAgICAgICAgIAogICAgICAgICAgICAgICAgICAgICAgICAgICAgICAgICAgICAgICAgICAgICAgICAgICAgICAgICAgICAgICAgICAgICAgICAgICAgICAgICAgICAgICAgICAgICAgICAgICAgCiAgICAgICAgICAgICAgICAgICAgICAgICAgICAgICAgICAgICAgICAgICAgICAgICAgICAgICAgICAgICAgICAgICAgICAgICAgICAgICAgICAgICAgICAgICAgICAgICAgICAKICAgICAgICAgICAgICAgICAgICAgICAgICAgICAgICAgICAgICAgICAgICAgICAgICAgICAgICAgICAgICAgICAgICAgICAgICAgICAgICAgICAgICAgICAgICAgICAgICAgIAogICAgICAgICAgICAgICAgICAgICAgICAgICAgICAgICAgICAgICAgICAgICAgICAgICAgICAgICAgICAgICAgICAgICAgICAgICAgICAgICAgICAgICAgICAgICAgICAgICAgCiAgICAgICAgICAgICAgICAgICAgICAgICAgICAgICAgICAgICAgICAgICAgICAgICAgICAgICAgICAgICAgICAgICAgICAgICAgICAgICAgICAgICAgICAgICAgICAgICAgICAKICAgICAgICAgICAgICAgICAgICAgICAgICAgICAgICAgICAgICAgICAgICAgICAgICAgICAgICAgICAgICAgICAgICAgICAgICAgICAgICAgICAgICAgICAgICAgICAgICAgIAogICAgICAgICAgICAgICAgICAgICAgICAgICAgICAgICAgICAgICAgICAgICAgICAgICAgICAgICAgICAgICAgICAgICAgICAgICAgICAgICAgICAgICAgICAgICAgICAgICAgCiAgICAgICAgICAgICAgICAgICAgICAgICAgICAgICAgICAgICAgICAgICAgICAgICAgICAgICAgICAgICAgICAgICAgICAgICAgICAgICAgICAgICAgICAgICAgICAgICAgICAKICAgICAgICAgICAgICAgICAgICAgICAgICAgICAgICAgICAgICAgICAgICAgICAgICAgICAgICAgICAgICAgICAgICAgICAgICAgICAgICAgICAgICAgICAgICAgICAgICAgIAogICAgICAgICAgICAgICAgICAgICAgICAgICAgICAgICAgICAgICAgICAgICAgICAgICAgICAgICAgICAgICAgICAgICAgICAgICAgICAgICAgICAgICAgICAgICAgICAgICAgCiAgICAgICAgICAgICAgICAgICAgICAgICAgICAgICAgICAgICAgICAgICAgICAgICAgICAgICAgICAgICAgICAgICAgICAgICAgICAgICAgICAgICAgICAgICAgICAgICAgICAKICAgICAgICAgICAgICAgICAgICAgICAgICAgICAgICAgICAgICAgICAgICAgICAgICAgICAgICAgICAgICAgICAgICAgICAgICAgICAgICAgICAgICAgICAgICAgICAgICAgIAogICAgICAgICAgICAgICAgICAgICAgICAgICAgICAgICAgICAgICAgICAgICAgICAgICAgICAgICAgICAgICAgICAgICAgICAgICAgICAgICAgICAgICAgICAgICAgICAgICAgCiAgICAgICAgICAgICAgICAgICAgICAgICAgICAgICAgICAgICAgICAgICAgICAgICAgICAgICAgICAgICAgICAgICAgICAgICAgICAgICAgICAgICAgICAgICAgICAgICAgICAKICAgICAgICAgICAgICAgICAgICAgICAgICAgICAgICAgICAgICAgICAgICAgICAgICAgICAgICAgICAgICAgICAgICAgICAgICAgICAgICAgICAgICAgICAgICAgICAgICAgIAogICAgICAgICAgICAgICAgICAgICAgICAgICAgICAgICAgICAgICAgICAgICAgICAgICAgICAgICAgICAgICAgICAgICAgICAgICAgICAgICAgICAgICAgICAgICAgICAgICAgCiAgICAgICAgICAgICAgICAgICAgICAgICAgICAgICAgICAgICAgICAgICAgICAgICAgICAgICAgICAgICAgICAgICAgICAgICAgICAgICAgICAgICAgICAgICAgICAgICAgICAKICAgICAgICAgICAgICAgICAgICAgICAgICAgICAgICAgICAgICAgICAgICAgICAgICAgICAgICAgICAgICAgICAgICAgICAgICAgICAgICAgICAgICAgICAgICAgICAgICAgIAogICAgICAgICAgICAgICAgICAgICAgICAgICAgICAgICAgICAgICAgICAgICAgICAgICAgICAgICAgICAgICAgICAgICAgICAgICAgICAgICAgICAgICAgICAgICAgICAgICAgCiAgICAgICAgICAgICAgICAgICAgICAgICAgICAgICAgICAgICAgICAgICAgICAgICAgICAgICAgICAgICAgICAgICAgICAgICAgICAgICAgICAgICAgICAgICAgICAgICAgICAKICAgICAgICAgICAgICAgICAgICAgICAgICAgICAgICAgICAgICAgICAgICAgICAgICAgICAgICAgICAgICAgICAgICAgICAgICAgICAgICAgICAgICAgICAgICAgICAgICAgIAogICAgICAgICAgICAgICAgICAgICAgICAgICAgICAgICAgICAgICAgICAgICAgICAgICAgICAgICAgICAgICAgICAgICAgICAgICAgICAgICAgICAgICAgICAgICAgICAgICAgCiAgICAgICAgICAgICAgICAgICAgICAgICAgICAgICAgICAgICAgICAgICAgICAgICAgICAgICAgICAgICAgICAgICAgICAgICAgICAgICAgICAgICAgICAgICAgICAgICAgICAKICAgICAgICAgICAgICAgICAgICAgICAgICAgICAgICAgICAgICAgICAgICAgICAgICAgICAgICAgICAgICAgICAgICAgICAgICAgICAgICAgICAgICAgICAgICAgICAgICAgIAogICAgICAgICAgICAgICAgICAgICAgICAgICAgICAgICAgICAgICAgICAgICAgICAgICAgICAgICAgICAgICAgICAgICAgICAgICAgICAgICAgICAgICAgICAgICAgICAgICAgCiAgICAgICAgICAgICAgICAgICAgICAgICAgICAgICAgICAgICAgICAgICAgICAgICAgICAgICAgICAgICAgICAgICAgICAgICAgICAgICAgICAgICAgICAgICAgICAgICAgICAKICAgICAgICAgICAgICAgICAgICAgICAgICAgICAgICAgICAgICAgICAgICAgICAgICAgICAgICAgICAgICAgICAgICAgICAgICAgICAgICAgICAgICAgICAgICAgICAgICAgIAogICAgICAgICAgICAgICAgICAgICAgICAgICAgICAgICAgICAgICAgICAgICAgICAgICAgICAgICAgICAgICAgICAgICAgICAgICAgICAgICAgICAgICAgICAgICAgICAgICAgCiAgICAgICAgICAgICAgICAgICAgICAgICAgICAgICAgICAgICAgICAgICAgICAgICAgICAgICAgICAgICAgICAgICAgICAgICAgICAgICAgICAgICAgICAgICAgICAgICAgICAKICAgICAgICAgICAgICAgICAgICAgICAgICAgICAgICAgICAgICAgICAgICAgICAgICAgICAgICAgICAgICAgICAgICAgICAgICAgICAgICAgICAgICAgICAgICAgICAgICAgIAogICAgICAgICAgICAgICAgICAgICAgICAgICAgICAgICAgICAgICAgICAgICAgICAgICAgICAgICAgICAgICAgICAgICAgICAgICAgICAgICAgICAgICAgICAgICAgICAgICAgCiAgICAgICAgICAgICAgICAgICAgICAgICAgICAgICAgICAgICAgICAgICAgICAgICAgICAgICAgICAgICAgICAgICAgICAgICAgICAgICAgICAgICAgICAgICAgICAgICAgICAKICAgICAgICAgICAgICAgICAgICAgICAgICAgICAgICAgICAgICAgICAgICAgICAgICAgICAgICAgICAgICAgICAgICAgICAgICAgICAgICAgICAgICAgICAgICAgICAgICAgIAogICAgICAgICAgICAgICAgICAgICAgICAgICAgICAgICAgICAgICAgICAgICAgICAgICAgICAgICAgICAgICAgICAgICAgICAgICAgICAgICAgICAgICAgICAgICAgICAgICAgCiAgICAgICAgICAgICAgICAgICAgICAgICAgICAgICAgICAgICAgICAgICAgICAgICAgICAgICAgICAgICAgICAgICAgICAgICAgICAgICAgICAgICAgICAgICAgICAgICAgICAKICAgICAgICAgICAgICAgICAgICAgICAgICAgICAgICAgICAgICAgICAgICAgICAgICAgICAgICAgICAgICAgICAgICAgICAgICAgICAgICAgICAgICAgICAgICAgICAgICAgIAogICAgICAgICAgICAgICAgICAgICAgICAgICAgICAgICAgICAgICAgICAgICAgICAgICAgICAgICAgICAgICAgICAgICAgICAgICAgICAgICAgICAgICAgICAgICAgICAgICAgCiAgICAgICAgICAgICAgICAgICAgICAgICAgICAgICAgICAgICAgICAgICAgICAgICAgICAgICAgICAgICAgICAgICAgICAgICAgICAgICAgICAgICAgICAgICAgICAgICAgICAKICAgICAgICAgICAgICAgICAgICAgICAgICAgICAgICAgICAgICAgICAgICAgICAgICAgICAgICAgICAgICAgICAgICAgICAgICAgICAgICAgICAgICAgICAgICAgICAgICAgIAogICAgICAgICAgICAgICAgICAgICAgICAgICAgCjw/eHBhY2tldCBlbmQ9InciPz40VTbeAAAAIGNIUk0AAHolAACAgwAA+f8AAIDoAABSCAABFVgAADqXAAAXb9daH5AAADj9SURBVHja7N15dFRlou/9X2WeGUMCCWMYQhjCmBAQHBjEGRAHlCDgBIra57Qemz73Xdd737vUbvvc93YDgkOLhlEFBEVFBkVQyMAUxjCEMZGEAAlJyJzU+4eN17YTUlXZldSu+n7W6nXWOmed9K5fPez67b2f/TyWhMWTrAIAAB7FiwgAAKAAAAAACgAAAKAAAAAACgAAAKAAAAAACgAAAKAAAAAACgAAAKAAAAAACgAAAKAAAAAACgAAAKAAAAAACgAAAKAAAAAACgAAAKAAAABAAQAAABQAAABAAQAAABQAAABAAQAAABQAAABAAQAAABQAAABAAQAAABQAAABAAQAAABQAAABAAQAAABQAAABAAQAAABQAAABAAQAAgAIAAAAoAAAAgAIAAAAoAAAAgAIAAAAoAAAAgAIAAABcjA8RAPaLDY/R2B4jFRseo6iwSIX5B0uSQv1DGvz/KakslSTlFueruLJUWQXZ2nZ6l3KL83/5vwFAc7EkLJ5kJQb38Pr4VzQ2ZqThf/eNHYu1/uhmQ//mjMFT9HxiskP/v4vSlill/7pm/8GfMWjKP37wIwz/+yWVpTpWkK2M3IP67OhmwwqBEWMicclkxqED47Apf/u3Y2Pc0mRDP/ekuAmaP2auIX9rW/Yu/XHLW5yAuQMAdzRj0BTDT7xmEOofonmJyRobM/KmV/ZG/XclRMcrITpezycmq6SyVNuydynlwDrlFuczCE04DlP2r/vlLlFTx8b8MXP1xo7FhmZpVHE18rjQvJgDgEZFhUVoUtwEj/rhX3Dva9o6a5kmxU1w+o9/Q8cwKW6C1j22RFtnLdOMwVMYhyYch0ZdGU+Km2DYnacZg6cY9rcWpi3j8RUFAJ5w9eUJP/yvj39FW2ctU0J0vEsd19geIxmEJhyHucX5hj2u+oMBt+xD/UM0Y9BkQ44nqyDbI+8MUgDgkVdf7nwVmhAdr88eW+yUZ9dGSDmwjkFo0nG4KG2ZIY9xbjwiaop5icmG3dHiuT8FAB519TXZPT/X4ClacO9rLXKr39aryG3ZuxiAJh6Hbxr0nLwpdwGMfISSsp+5KRQAeJRQ/xC3uwvw+vhXDJmp7Uzbsn9k8Jl8HKbnZBpS4ppyB+QPBs36zy3O16K0ZQxECgC4+jL3j7+r3vL/p6utA58x8NxgHL6xY7EhE+ZmDJps992q2PAYw+a1vMmsfwoAPPfqy9WvmN3pxz89J5NZ1m4yDksqS7XQgCvnG68F2sOod/7TczKVnpPJAKQAwFNNbqFX4wy7ehw8xRQ//pK0/hizrN1pHK4/utmQH9CxMSNtfpVvUtyEJq9FcKPA/HHLXxh4FAB4+tXXPJPeBYgNjzHNlSOT/9xzHP5xy18Muavz+vhXbCu8Br06mXLgM+5GUQAANcvqeM5g60nTFTD5zz3HYUllqSHzOmLDYxqd1f98YrIhi/5kFWQ3+/LboACAqy/DGHUyvNmJPasgW+k5mUrZv+6X/6TnZCqrINvuTX+Y/Oe+dwFS9q9TVkF2k//OzT57qH+IJhv02h/v/Lsn9gKAwybFTTDNWvVGngx/+6P/2dHNdt8ejQ2P0eS+EzQ8Or7eUsLkP/cch7/9UV332JImj+vnE5PrfS1v/pi5htwdWX90M+/8cwcAqO+qeoYpjtPIFdBuWJS2TOOW/nzytffHOqsgW2/sWKwpK+f88jd+fZJl8p97jsNfM2qZ4Mn17BMQFRZhyETX3OJ8NvuhAAD1s2c2ckte/Ru5iUxucb6mrJxj2DPRkspSpexfpykr5+iJtS9r/dHNTP5zw3HYUIls6tV1qH/IvyzyY9SiPyxBTQEAbsqok42zGLloTG5xvp5Y+7LTboneuDMA9xuHDTFiYZ1f7xNgxJ4B0s+PodjshwIANHryceWrL6NWQCupLNULG/87z+YZh4YyapngGwXIiCJUUlnKin8UAHgCI1q+q159RYVFGLIIivTz3udMhmIcOoMRywRHhUVowb2vGVKCPmPiHwUAnqG4srTJq5MlRMcb9kNrpLExowz5O+x9zjh0JqOWCTbibheb/VAA4EGiwiINud033wWvvoZHDTTsCg2MQ2cyapngpuKdfwoAPExucX6TTz5G7jhm5I+KEVf/RizaAs8dh7Z606AdAx21LXsXY50CAM+68or45eTTVK60zn6of4ghz0PZ/Yxx2JwFqKVWgCypLOVOFwUAnnz11dTZyLHhMS6z015fg54FbzvNO/mMw+Zj1DLB9lrowIJWoADA5H69Qt6itBQDrr5cY1U2o7ZA5ZYo47C5NfdzeCa5eib2AoDC/IP/6epr/dHNTVo5LyosQpPiJrT4CSW2fdMLgK2vQqXNaZ7bti9sfM1tH0m46zh0dNw19fO7cuEAdwDgoox4HcmoPchd4UQMxmFLeGPH4mYZfyn71zHOKQDAz0oqS5t81XTj6qslGTEBMLc4jwHBOGwxzl6Nj3f+KQDwcPXtkmfEhCB3uAtQUnWdAcI4bDFGLRPcECPmWoACADe8+mrqiScqLEIzBk8hTDAOm+ANJ60N4OxyAQoATMyYq6/JBAnGYRP0DY+p9+5IU4vVH7f8hcFFAQAaPkl81sRnsKH+IfUuysKrdWAc2sasGxyBAgCTW2TA1dfkuAmGX8GAcegJ43D+mLlO2eI41D9Er49/mYFFAQBuzoirLx4FgHFoH2e/wZAQHW/qNyRAAQBXXw0y4t3mqNAIBgDjsEUsuPd/OP2/Y15iMnfnKADAzTV1g5JQ/xDNM+EGLZ3CKACMw+b3fGKyU27915fHwntfY2BRAICbnHgNWC1s0q+uvppjOdusy02f4GXEdsLw7HFo/5hr3tcWY8NjeF2XAgDc3PpjTV9TfX4zzmg2YhW/X69Pf9OyUZBt83/gWePQXq+Pf6XZ/ztnDJrcLHcc4FrYDAh2XX1N6juhSSeKsTEjFZUW0SxrjxvxYxvqH6KE6PhGrxSfWGvbjOqE6Hgt4JarR41Du36IB08xZBdLR8b56+NfsXkcgzsA8MST74F1Tf4bN95rdvbe47nF+Yb8d4ztMZIvnnHYLD/CLfmWQmx4TL1rJYACAEiS1h/d3OSrpoTo+Ga73WjEFd7YGAoA49D5Xh//covPyG+pOxCgAMDDrr6KK52/0Y5RjwGYJMU4dKZJcROUEB3vIkXkFQYXBQBw7tWXrRPsmmLbaWM2O5nUlwVTGIfOYeSriSn7m16KosIiKAEUAKBhRmwj2hy3O9NzMg15xstJkXHoLPPHzDXkGLZl79KitGWGvNo4NmYkj74oAEDDJxuzvNJ2zKDj5KTIODSaUWOqpLJUb+xYLEl606Dtg59PnMEqgRQAoKGrr2WmOM5lTVw97tdeH/8K66czDg3zfOIMQ/7Or7dMzi3Ob/K+CdLPd73msxMhBQCoT3pOpimuvtJzMg1933v+mLl6ffwrXB0xDptcJo14CyGrIFvrf/ODvyhtmWFvwFB4KQBAvW7cdnR1Rqwe99sT49ZZy+zerpW9BTx7HN4QGx5j2OOkP255y67/vb3YMMh9sRIgmnz1kVWQ7fLvDhuxelx9JsVN0KS4CSqpLFVx5XWVVJYqqyBbxZWlig2PUdg/TpxRYRGcRBmH/3T1b9S4buhKP6sgW9uydzW5aNzYMIhVArkDAJj26suI98ZvdpKMCotQbHiMJsVN0IzBU5QQHa/Y8BjFhsfw4884/IVRO/3lFuc3Ov/hDYMmBLJhEAUAaPBKwxV3Vfut9Uc3m+I44b7j0Mid/mx5BbKkslQLDZokyYZBFACgXm+a5Orrj1v+4jJrv8PzxqFRt/7TczK1Ldu2Ra6MKr43NgwCBQD4J7nF+aa4uv71+9JgHDan5xOTDZmjUFJZqj9u+UuLFCM2DKIAAKa+C3BjxTQwDptLVFiEJhv0Ol3Kgc/svouVW5xvyDLB0s8bBvEogAIAmPIugPTz7GlKAOOwuRi1bkRTfsiNWhtAkhbc+z8YaBQAwJx3ASgBjMPmMilugmGvJzb13X6jcmFvDAoAUO8Viq2Tk1ylBLyw8TUmBjIOncLInf6M2PfAnsmDjWFvDAoA8C+M2KGtOaXnZGryyrmm3lQGrjkOXx//siG3/o2cvGrU2gASGwZRAIB6rr7WH91sqmMuqSzVE2tf1gsbXzN03wAjj29b9i7DdjZkHDrfpLgJSoiON+Rv/XqzHyPGklFrA7BhEAUAqPeEZUbpOZmasnKO/rjlrRa/I3DjB2zKyjkatzRZf9zyFo8qTDIOjbz1X99mP021/uhmw8Y3jwLMi70A4LQr1vVHN5t2J7Ft2bu0LXuXQv1DNGPQZI2NGeXUV59KKkt/mb2+7fQuHkeYfBzOHzPXsFvjRm3qU9/fXffYEsM+b3rOQQqqyVgSFk+yEgNgm9jwGI3tMVKx4TGKCotUmH/wL1d8N/sR+vVVffE/NgzKuvzzBjau+MgBAHcAAPzKjV3nAMDsmAMAAAAFAAAAUAAAAAAFAAAAUAAAAAAFAAAAUAAAAAAFAAAAUAAAAAAFAAAAUAAAAAAFAAAAUAAAAAAFAAAAUAAAAAAFAAAAUAAAAAAFAAAACgAAAKAAAAAACgAAAKAAAAAACgAAAKAAAAAACgAAAKAAAAAACgAAAKAAAAAACgAAADCcDxHAlQX7Benb2SsIAh4tcclkQgB3AOA54iP76vPp7xEEPF73Np0JARQAeI7nRyQrxC+IIODx/jBmjiyyEAQoAHB/t3QdpvjIvgQBSBrUMU73xY4lCFAA4OaD0mLRc4nJBAH8yrwRM9QmMIwgQAGA+7qz162KaduFIIBfaRUQqpeSZhEEKABwT75ePnpm+KMEAdRjYu9bNTRqAEGAAgD3MylugjqFRhAEUA+LLHp19LPy8/YlDFAA4D4CfQM0e+hDBAHcRNfWUZoxeApBgAIA9/HYwPvVNrA1QQCNeGLwg+rSqhNBgAIA82sdEKbH4x8gCMAGft6+epW1AUABgFtc0Qx5UMEs+gPYbFjUAE3sfStBgAIA84oIaa+p/e4iCMBOLyXNUquAUIIABQDm9NSwR5jVDDigTWCY5o2YQRCgAMB8urfprHv73EEQgIPuix3LstmgAMB85iQ8Ji8LwxBwlEUWzb91rny8vAkDFACYQ78OvXVr90SCAJqoe5vOmj5oMkGAAgBzeC5xOq8xAQaZPeQhRYdFEgQoAHBtCdHxGsaa5oBh/H389MroZwgCFAC4LosszFwGnGBE58Ea3/MWggAFAK5pXMwo9WnfgyAAJ/i3kU8q1D+YIEABgGvx9vLWswmPEQTgJO2CWuu5xGSCAAUAruW+2LHq3KojQQBONKnvBA2I6EMQoADANfj7+OmpoQ8TBODsE7vFolfHzJE3awOAAgBX8OiAexUe3I4ggGbQq103TRt4H0GAAoCWFeofomQWKgGa1VPDHlFkaDhBgAKAlpM8aLJC/UMIAmhGgT4BeuUW1gYABQAtpH1QGz0y4B6CAFrALV2H6fYeSQQBCgCa3+yhDyvAx58ggBby+1FPKtgviCBAAUDz6dyqox7oO54ggBYUHtxOc1h/AxQANKdnEx5jm1LABUztd5f6hvckCFAA4Hx92vfQuJhRBAG4wsne4qX5t86Vl4XTPigAcLK5bPcLuFwpf5gJuaAAwJmGdOqnpM6DCQJwMc8On6YOLMgFCgCcge1+AdcV5Buo39/yFEGAAgDj3do9Uf069CYIwEXd1n2ERncdThAUAMDAAWXx4nUjwAReHv20An0DCIICABjj7t63qXubzgQBuLjIkHA9PexRgqAAAE3n5+3LCQUwkUcH3Kve7bsTBAUAaJoH+93FzmOAiXh7eesPY+bKy8LruhQAwEHBfkGaOeRBggBMpl+HXprSbyJBUAAAxzwe/4BaB4QRBGBCcxOmq31QG4KgAAD2aRPYStMG3kcQgEmF+AXpd6NmEwQFALDPU8MeUZBvIEEAJjY+5haN7DKEICgAgG26to7S5L4TCAJwAy/f8owCfPwJggIANO75xGR5s90v4BaiwiI0e+jDBEEBAG5ucMd+urV7IkEAbuTx+AcU07YLQVAAgPpZZNGLSTMJAnAzPl7eenXMXLbypgAA9Rvf8xbFdehJEIAbio+M1QNx4wmCAgD8Mz9vXz2XOJ0gADc2LzFZbQJbEQQFAPi/Hup/tzqGdiAIwI2F+ofopaRZBEEBAH7WKiBUs4Y8RBCAB7ir960aHjWQICgAgDR7yEMK9Q8mCMBDvDpmjvy8fQmCAgBPFh0WqQf730UQgAfp3KqjZg6ZShAUAHiy5xKT5evlQxCAh0keNFndWkcRBAUAnmhARB/dEZNEEIAH8vP2ZW0ACgA80Y1Ff/jHD3iuIZ366Z4+txMEBQCe5LYeIzQwMpYgAA/3QtITah0QRhAUAHgCHy9vzUtMJggAah0QphdGzCAICgA8wYP9Jiq6VUeCACBJuif2Dg3p1I8gKABwZ6H+wXpy6CMEAeAXFln06mjWBqAAwK3NHDxVrQJCCQLAP+nWJlrTB00iCAoA3FFkaLgeHnAPQQCo16whD/F4kAIAdzQ3YTq3+AA0yM/bV6+OfpYgKABwJ33De+rOXqMJAsBNJUTHa2KvMQRBAYC7YNEfALb63cjZCvUPIQgTYmF3/JPR3RJ4xcdB/+93C7Tx+LcEYVJ+3r5a8fD/UZdWnQjDDm0CW2leYrLe2LGYMLgDALPyZtEfh524fEZfnfiOIEysqrZaf9qxRFZZCcNOD8SNVzyrhVIAYOJ/xLHj1K1NNEE4YEHqR6qz8sNhdntyD2nTie8Jwk4WWfTqmDny8fImDAoAzCbYL0jPDJ9GEA7YfWG/0nMyCcJN/HX3Ul2rKCEIO8W07arH4h8gCAoAzCZ50GS1CWxFEHaqs9Zpwe6PCMKNFJYXa1HaMoJwwJNDH1an0AiCoADALDoEt9O0gfcRhAO+yNqm7KvnCMLNfH5sqzLzjhGEnQJ8/PXK6GcIggIAs3h2+DQF+PgThJ3Kayr0bsYqgnBDVln1xveLVVNXSxh2GtlliMbFjCIICgBcXa923XR3nzsIwgErDmzQ5bJCgnBTZwovaPmBzwjCAf82crZC/IIIggIAV/Zi0kx5WVj0x15Xyoq0PHM9Qbi5D/Z9qpziPIKwU/vgtpqbMJ0gKABwVUmdByshOp4gHPBuxkqVV1cQhJurrKnSWzvfJQgHTOk3Uf069CIICgBc7ou3eOmFpCcIwgGnr57X51nbCMJDpF7Yry2nfiAIu88xFv1hzFx5szYABQCu5d4+dyimbVeCcMCC1BTVWesIwoP8f7v+rpLK6wRhp97tu+uR/mwrTgGAywj0CdCzCY8RhAMycg9q1/m9BOFhrpQV6W3WBnDIM8OnKSKkPUFQAOAKHh/0gNoHtSEIO9VZrSz648HWH9usw/knCMLeCw7fAL1yy9MEQQFAS2sX1FrT4ycRhAO+PrFdxy+fJggPLoBv7lisWtYGsNvobgm6tXsiQVAA0JKeGTZNgb4BBGGnypoqvZOxkiA83MkrZ7Xq4BcE4YCXb3macw8FAC2lR9suur/vOIJwwOpDXyi/9DJBQO/v+Vh5JQUEYacOwe00ZzhzjygAaBEvjJghLwtfub0Ky4v10f51BAFJPy8B/dYPrA3giIcH3KM+7XsQBAUAzWl41ECN7DKUIBy64lut61VlBIFf/HBuj747vZsg7P3BsXhp/q1zuRChAKD5/tFZWPTHQeeKcvXZsc0EgX/xXz/+nWLogL7hPTU5bgJBUADQHCb2uo3bbg5alLaMWd+oV8H1K1qSzsRQR1itVkKgAMDZ/H38NIdFfxxy4OJRfX8mjSDQoDVHvlZWQTZB2OmpYY8qmN0CKQBwrkcH3McqXI5cociqv+5eShC4qTprnV7//m2WhrZTu6DWenLowwRBAYCztAkM0xODpxCEA7ac+kFHL50iCDTq+OXT+vTwVwRhp0cG3KturaMIggIAZ3hy6CPcZnNAVW213k5bThCw2ZL0lbp0/QpB2MHHy1svj36GICgAMFrX1lGaEncnQTjg08Nf6WLJJYKAzcqqy/VfP7xPEHYaHjVQY2NGEgQFAEZ6PjGZfbgdcK2iREv3rSEI2G37mVTtPJdBEHZ6MWmmAnz8CYICACMM6hjHxhsO+mDfpyqpLCUIOOQvO99TeXUFQdghMiRcM5irRAFA01lk0YtJMwnCATnFeVp7+GuCgMPySgv03p7VBGGn5EGT1Sk0giAoAGiKcT1HqV+HXgThgLfTlqm6roYg0CSrD23UyStnCcIOft6++t3IWQRBAUBT/hE9n5hMEA44nH9C32aztjuarrauVm98v1h1rHZnl1u7Jyqp82CCoADAEQ/1v1sdQzsQhJ1uLPpjFSdsGOPIpRNad3QTQdjp97c8LT9vX4KgAMAeYf4hmjVkKkE4YPvpVB3MyyIIGGpx2nJdLiskCDt0btVR0wbeRxAUANhj9tCHFOofQhB2qqmr1cK0ZQQBw5VWlen//PgBQdhp1pCHFB7cjiAoALBFdFikpva/myAcsPbIJuVcu0gQcIot2T9o1/l9BGGHQN8AvTBiBkFQAGCL5xKT5evlQxB2Kqm8rg/2fkIQcKq//PCuKmoqCcIOE3qN1qCOcQRBAcDN9I/orTtikgjCAR/uX6OiimKCgFPlFudTNO1kkUW/H/UUq5lSAHAzLybNkkUWgrBTXkmBPjn0JUGgWazI3KDTV88ThB16t++uqf0mEgQFAPW5vUeS4iNjCcIBi9OXq6q2miDQLGrqavXmjsW8amqnp4dNU5vAMIKgAODXfLy8NY9FfxySVZCtb07uJAg0q8y8LG04tpUg7BDqH6y5CdMJggKAX3uw30RFt+pIEA5g0R+0lEWpKSosv0YQdrgvdpz6hvckCAoAJCnEL0izhz5MEA7YeTZd+346QhBoEcWVpfrr7qUEYc+PlMWil295mrlOFABI0swhU9U6gOdi9qpl0R+4gK9PfK+M3IMEYYf+Eb11d5/bCIIC4NkiQ8P1yIB7CcIBG7K26mxhDkGgxf1pxxImodrphREzFeofTBAUAM81N2E6m2U44HpVmd7LYJ92uIYL1y7qw31rCMIObQLD9PSwaQRBAfBMseExurPXaIJwwLIDn+lqeRFBwKXG5NmiXIKww9R+ExXTtgtBUAA8z4sjnmAijAMuXb+iVQe/IAi4lKraav1pxxLeSLGDt5e3fj/qKYKgAHiW0d0SNDRqAEE44J2MVazFDpe076fD+ur4doKww9CoARrf8xaCoAB4Tutl0R/HnLpyVl8d/5Yg4LL+tvtDXasoIQg7/Oetzys6LJIgKADu74HYcerWJpogHPDX3R+qzsotVriuoopi/S31I4KwQ6BvgP7b7fPkZeGRKAXAjQX5Burp4Y8ShAN2X9iv9JxMgoDL+zLrWxaostPgjv30yID7CIIC4L5mDJ6itoGtCcJOddY6LdjNVRXMwSqr/rSTtQHsNTfhcXVtHUUQFAD30yG4naYNpOE6dEV1/DtlXz1HEDCNs4U5Wn5gPUHYwd/HT/952zyCoAC4n2eHT1OAjz9B2Km8pkJLMlYSBExn6b5PlXPtIkHYgS3RKQBup2e7brq7zx0E4YAVBzbo8vWrBAHTqaqt1p92vkMQaBY+ROCaXkqayQxXB1wpK9LyzPUEAdNKz8lU0jtTeHsF3AHwREmdByshOp4gHPDunlUqr64gCJgaP/6gAHjiF2Lx0gtJTxCEA05fPa8vsrYRBABQAMznnj63K6ZtV4JwwILUFNXW1RIEAFAAzCXAx19zhj9GEA7IyD2oXef3EgQAUADMZ/qgSWof3JYg7FRntbLoDwBQAMypXVBrTY+fRBAO+Obk9zp++TRBAAAFwHyeGTZNgb4BBGGnypoqLU5fQRAAQAEwn+5tOuu+2LEE4YDVh75QfullggAACoD5vDDiCXl7eROEnQrLi/XR/nUEAQAUAPMZHjVQo7oOJQgH/H3vx7peVUYQAEABMFn4FguL/jjoXFGuPjv6DUEAAAXAfO7sdav6tO9BEA5YlLZMNSz6AwAUALPx8/bVnAQW/XHEgYtH9f2ZNIIAAAqA+UwbeL8iQ8IJwk5WWfW33R8SBABQAMynTWCYnhg8hSAcsDX7Rx25dJIgAIACYD5PDn1EwX5BBGGnqtpqLUpdRhAAQAEwny6tOmly3J0E4YBPD3+liyWXCAIAKADm8/yIZPmw6I/diitLtXTfGoIAAAqA+QzqGKfbuo8gCAd8sPdTlVSWEgQAUADMxSKLXkyaSRAOyCnO09ojXxMEAFAAzGdczCj169CLIBzwdtoyVdVWEwQAUADMxc/bV3MTpxOEAw7nn9C32bsJAgAoAObzUP+7FRUWQRAO+NvupbLKShAAQAEwlzD/EM0aMpUgHPDdmVRl5mURBABQAMxn9tCHFOofQhB2qqmr1cLUFIIAAAqA+USFRejBfncRhAPWHtmknGsXCQIAKADm81xisvy8fQnCTqVVZfpg7ycEAQBO5EMEztE/orfGxowkCAd8tH+tiiqKCaIJAnz81b1NZ3Vv01lRYRHqFNZBd/e+nWAAGyQumUwBgONeTJoliywEYae8kgKtPvgFQdipXVBrJXUeosEd49Qvore6to6Wl4XxB9jj9NXzemPHYu4AwHG3dx+h+MhYgnDA4vTlLPpjA4ssGhgZqzHdEpTUZbB6tO1C4QSa6FpliQ560JtHFACjA/Xy1nMjkgnCAVkF2frm5E6CuInosEg90He87uw1RhEh7QkEMEh+6WUt2O1Zbx5RAAz2YL+J6tKqE0E44G+pH7HoTwOGdOqv5EGTlNRlCFf6gBMcuXRCRy6doADAMSF+QZo99GGCcMDOcxnam3uIIH5jdLcEzRoylX0kACcqqijWorTlHve5KQAGemLwg2odEEYQdqpl0Z9/0ad9D/1u5CwN6dSfMAAn23rqR49cd4QCYJDIkHA9OvA+gnDAhqytOluYQxCS2gS20vOJybqnzx3M4geayft7P/bIz00BMEjfDj3lZWFdJXuVVZfrvYzVBCFpfMwtenn009xFAprJppM7dL4oV4Xl1ygAcNyVskL5eHkThJ2WH1ivq+VFHp1BoG+A/mP0MyzUAzSzYVED9Ob3iz3281MADHKQXevsdun6Fa3I3ODRGUSGhOutifPVu313BgTQjCpqKvXJoS9VXlPhsRlwz9pAs9e9Sgh2eCdjlSpqKj328/eP6K0PpvyZH3+gBVhk0aaT33t0BhQAAx25dELfnt5FEDY4deWsvjr+rcd+/qTOg7X4/v+ldkGtGQxAC1h58HPll16mAMA4b3vgu6SO2HfxiOqsnrnoT0J0vP505x/YKRJoIYXl17TswGcenwMFwGAXrl3U2iObCKIRk/pOUMfQDh73uYd06q+3Js6Xv48fgwBoIe/v+VjXq8ooAAwF5wwu3Jyft6+e97A9E7q1idZbE+crwMefAQC0kLNFufrs2GaCoAA4x9XyIkqADcbFjNKAiD4e8VmD/YL01sT5CvEL4osHWtDC1BTV1tUSBAXAeTz99TZbWGTRSyNnecTmNvPHzGWTKKCF7fvpiHaeTScICoBzlVWX662d7xJEIwZE9NG4mFFu/RnHxYzS+J638GUDLcgqqxakfkgQFIDmsZ7nTDZ5fkSy286ID/UP1r+PeoovGWhh35zcqaOXThEEBaB51NTVav7mtwiiER1DO+iRAfe65Wd7augjvOsPtLCq2motTucVbQpAM/vu9G4duXSCIBoxc8hUtQl0r01wOgS305R+E/lygRb2yaEvlVdSQBAUgOZllVULdrPXfWNC/IL01NBH3eozTR80icV+gBZWVFGsD/evIQgKQMvYf/GIfji3hyAaMTlugrq1iXaLzxLkG6j7Y8fxpQIt7IO9n6ik8jpBUABazqK0ZR6/7W1jvL289eKImW7xWe7okaRA3wC+VKAF5bAyKwXAFZy+el4/nttLEI0Y1XWoEqLjTf85JvQczZcJtLCFactUw6I/FABX8G7GKl2rKCGIRryUNFNeFvMOzWC/IA3u1I8vEmhBmXlZ+u70boKgALiGS9evaP2xLQTRiJ7tuunePneY9vgHRvRh8h/Qgqyy6m+7lxIEBcC1pOxfq8LyawTRiDkJj5v2GXp/D9nfAHBV32bv1uF8Xr+mALiY0qoypexfRxCNaBfUWjMGTTHlsce07cIXCLSQqtpqLUrj1WsKgItac+RrFqWwwWPx9ysipL3pjrtjaAe+PKCFrD3ytXKL8wmCAuC6DXVJxgqCaESAj7/mJjxuuuMO8Q/mywNaQEllqT7Y+ylBUABc2zcnd+jE5TME0YiJvW9V3/CepjrmMP8QvjigBSzdt0bFlaUEQQFwbXVWqxbynKpRFln00siZpjrmUO4AAM0ur6RAnx7+iiAoAOaQduGA0nMyCaIRgzv20+3dR5jmeKtqqvnSgGb2TsYqVdXyb48CYCILU1N0+fpVgmjEvBEz5OvlY4pjLasu5wsDmtHJK2e16eR2gqAAmMvxy6e196fDBNGI6FYdNbX/3aY41gIKHdDsF1J1VitBUADMZ0n6SkKwwZNDHzLFBLvc4jy+LKCZZOQeVOqF/QRBATCnn0rytfrgFwTRiFD/ED059GGXP87sq+f5soBmYJVVC1OZTE0BMLml+9aoqKKYIBoxtf/d6tyqo0sf4+H843xRQDPYcuoHZRVkEwQFwNyKKoq1MvNzbc3+kTBuwsfLW/NGzHDpYzyYf5zZyICTVdfVaEk6C6pRANzEx4c2amBkLEE04rbuIzTEhbfbvV5Vpv0/HeGLApxo7WGW/KUAuJGKmkq9l7Fae3MPEUYjXkqaJS+LxWWPb3P2D3xJgJOUVpVp6b41BEEBcC8bj3+rtkGtCaIRseExmtjrNpc9vm+zd6m8uoIvCnCClP3rmDNFAXA/ddY6LUpbruyr5wijEXMTH1eAj79LHltZdbm+OL6NLwkwWMH1K/r40EaCoAC4p51n01VaVUYQjegQ3E6Pxz/gsse3/MB6JgMCBns3Y7UqaioJggLgvhbs/kh5pQUE0YjkQZPVPqiNSx5bfullrT3yNV8SYJAzhRe08fi3BEEBcG+H8o/rGO+3NirQN0BzEh536auVS9ev8EUBBliUukx11jqCoAC4v8Vpy1VYzkSXxtzT5w71atfNJY+trLpcf97xDl8S0EQHLh7VznMZBEEB8AzninL13ZndWpG5njBuNogtFr00cpbLHt/OcxnacorXAgFHWWXVgtSPCIIC4Fne37Na9/YZSxCNGB41UKO7DnfZ43tzx2Kdv/YTXxTggO2nU3U4/wRBUAA8y5WyIq1hIplN5iU9IW8vb5c8ttKqMv3Hpjd5uwOwU21drd5OW04QFADPtPzAel0pKyKIRnRrHaUpcXe67PGdKbyg//jmTV5hAuyw/tgW7p45iXfUvbGvEYNrq66rUWVtlSyyuPxOeC0trkMvrT+62WXfv79YcknHCk7pjh4j5eOidysAV1FWXa4/fPNnldewqiZ3ADy5BR/drC78+DeqdUCYZg15yKWPMe3CAb36zZssEgQ0YkXmBl0tLyIICoBnq6mr1dvpy3Ws4BRhNOLhAfeoU2iESx/j7gv79dzn/w+PdoAGXC0v0orMDQRBAYAkfZu9W3VWK0E0ws/bV8+PSHb54zyUf1yz1/2HTl45y5cG/Mb7ez5mQy0KAG6wyqqFqSnKKc4jjEaMjRmpgZGxLn+ceaUFenr9fH19YjtfGvAP56/9pPXHthAEBQC/tu+nwzpXmEsQjbDIot+NnCWLLC5/rOXVFXrt27/qv239L12rKOHLg8d7O225autqCYICgN9alJbCxBgb9OvQW+N6jjLN8W459YMe/fhFfZG1jUc98FiH809o++lUgqAAoD7ZV89r1/l9BGGDeYkz5Ofta5rjvVpepP+1faFmrn2Zlc/gkRakfiSrKMDNgXUATOr45dOaNvB+gmhEiH+wKmoqlJl3zFTHfaWsUF9kbdOpK2fVMSxCHYLb8WXC7e08l6GU/esIggKAm7leVaYAH3/FR/YljEbEdeilz7O2mXIFvrNFOdpwbIv2XzyqtkGtFd0q0hTzGgB71Vnr9Idv/qyiCnZApQCgUccKsjVj8BSCaISft6+C/QL1w7k9pv0MF0suadPJ77X55E5V1FSqY1gHBfsF8eXCbXxxfJs+z9pKEBQA2KKqtkrl1RVK7DyIMBrRu113fXcmVYXl10z9Oa5Vligj96A+PvSF0nMyda2iRMF+gWob2JovGaZVUVOpV7/5s8qqywmDAgBbHb98Wnf3vk0h/sGEcRNeFi9FhUVq08nv3eLzWCXll15Wek6m1h7ZpPVHN+v01fMqqbouP29fhQWEymLhUQHMYfmB9fr+bBpBNDNLwuJJTLc0ubt7367/fseLBGGDl778n0q9sN/tP2egT4C6t41Wt9adFd0qUp1CO+iu3rcxAOCS7vjgcV1nq2wKABy5urUoZer/Vq923QijEdlXz2v6p/+mOmsdYaBZRLfqqI8fWcDujw343z/+XR8f2kgQLfHbQQTmV2f9eYlgNC6mbRfd33ccQaDZzEtM5se/AbnF+Vp3ZBNBUADQFKkX9isj9yBB2ODZ4dMU5BtIEHC6/hG9dVuPEQTRgCXpK1RdV0MQFAA0FXcBbNM2sDWvT6JZvJg0k3UbGpBVkK0tp34gCAoAjPoHtfnUToKwwWMD71dkSDhBwGlu7Z7IQl2NXLCw5C8FAAZakr6ClbRs4O/jpzkJjxMEnMLby1vPJSYTRAN4ZEkBgBPkFufrm5M7CMIGE3uPUVyHngQBwz0QO07dWkcRRD2YtEwBgBN9sPdT7gLYwCKLfjdyNkHAUIG+AXp6+KME0YBNJ7fr5JWzBEEBgDMUVRTr40MbmWBjg/jIvrq9RxJBwDDT4yexNHMDqmqr9U7GKoKgAMCZVmZ+rsEd4wjCBvNGzJCfty9BoMnaBbXW44MeIIgGfHr4K+WVFBAEBQDOVFFTqff2rNae3EOE0YjosEhN7XcXQaDJnhk2TYE+AQRRj5LKUn24bw1BUADQHL44/q3aB7UhCBvMHvqwWgWEEgQc1q1NtO6LHUsQDVi6b62KK0sJggKA5lBbV6u305cz4cYGof7BemrYIwQBh81LTJY3S/7WK6+0QJ8e/pIgKABoTt+fSVNZdQVB2GBK3ER15dUtOGBQxziN7pZAEA14N2OVqmqrCYICgOa2MPUjQrCBj5e3XhgxgyBgF4ssejFpJkE04NSVs/r6xHaCoACgJRzMy9L2M6kEYYPR3RI0LGoAQcBmd8QkqV+HXgTRgEVpy1RnZclfCgBazOK05Sosv0YQNngxaaa8LGzggsb5sOTvTe3JPaRd5/cRBAUALelsUS53AWzUp30P3d3nDoJAox7sN1HRYZEEUQ+rWPKXAgCX8f6ej3WtooQgbDB3+GMK8PEnCDQo2C9Is4c+TBAN2HrqRx0rOEUQFAC4gstlhVpz5GuCsEH74LaaPmgSQaBBTwyeotYBYQRRj+q6Gi1JX0EQFAC4khWZG3SlrIggbDB90CS1D25LEPgXHYLb6dEB9xFEA9Yd+UY5xXkEQQGAK7leVaYP963RrvN7CaMRgT4Bmjv8MYLAv3h2+DT5+/gRRAPnmKX7PiEICgBcsp0f3aQuLHhjk7v73KE+7XsQBH4R07Yrk0RvYtmBz1RYznbkFAC4pJq6Wi1JW6Gjl5ig0+g/EAuLvOCfvZD0BK+JNuDy9atadfALgqAAwJVtzf5RnMNsMyxqAMu8QpI0PGqgkjoPJogGvLtntSpqKgmCAgBXduMdXSbq2HjVN2KGfNjoxbNPlhaLXkh6giAacKbwgjYe/5YgKAAwgz25h3S+6CeCsEHX1lGaEjeRIDzYhJ6jmQ9yE2+nLVdtXS1BUABgFovSlvFaoI2eGvaIQv2DCcID+Xn7am7CdIJoQGbeMe04m04QFACYyakrZ5V6YT9B2KBVQCgrv3moh/rfrcjQcIKoh1VWLdjNjqMUAJjSuxmrWCLYRlP73cXa7x4m1D9Es4ZMJYgGbD+TpkP5xwmCAgAzyist0Mbj27Tu6DeE0Qg/b1/NGzGDIDzIrCFTFeofQhD1qK2r1eK05QRBAYCZLd23Vrd3TyIIG9zeI0nxkX0JwgNEhobrof53E0QDNmRt1bmiXIKgAMDMSipLtezAZ/qOLYNt8ruRs2URCym4u7kJ0+Xn7UsQ9SivqdD7e1YTBAUA7uDTw1+qb/sYgrBBXIeemth7DEG4sf4RvXVnr9EE0YCVmZ/zBhEFAO6iqrZa7+5Zpcy8Y4RhgzkJj3N16K4nRotFL9/yNHd5GnC1vEjLD6wnCAoA3MnXJ7Yr2DeQIGwQGRKux+IfIAg3dF/sOPUN70kQDfj7nk9UVl1OEBQAuJM6q1WL0pbpTOEFwrDBjEGT1TawNUG4kVD/YBb9uYkL1y5q/bHNBEEBgDvadX4fz/ZsFOwXpGeHTyMINzIn4XG1CQwjiAa8nbZcNSz5SwGA+1qYmqKC61cIwgb39x2nmLZdCMIN9G7fXVPi7iSIBhy5dELfnd5NEBQAuLNjBaeUmZdFELb8I7J46cWkmQRhchZZ9PtRT8nLwmmxIQt2p8gqK0FQAODuFqctZ4lgG43oPJh94k1uQq/RGtQxjiAa8MO5Pdp/8QhBUADgCXKK8/TNqR36+NBGwrDBi0kz5e3lTRAmFOQbqBdY4rlBddY6LUpbRhAUAHiSD/Z+qgk9WfDGFj3adtH9seMIwoSeGvaIwoPbEUQDvjz+nU5fPU8QFAB4ksLya/r08Jf65uQOwrDBs8OnKdgviCBMpFvrKD0y4F6CaEBlTZXezVhFEBQAeKKVmZ9raKf+BGGDNoGt9MTgBwnCRP591FPy4dFNg1Yf2qhLvBFEAYBnKq+p0Pt7P1F6TiZh2GDawPsUGRpOECZwa/dEJXYeRBANuFZRopT9awmCAgBP9nnWVnUIaU8QNvDz9tW8RCaUuboAH3/9+8gnCeImPtj3qUqrygiCAgBPVltXq8Vpy3Xi8hnCsMG4nqPUr0NvgnBhMwZP4U7NTfxUkq91RzYRhBvzIQLYavuZVD3O5jc2sciiD6b8iSBgWkvSV6qqtpoguAMA/Gxh6kfKKykgCMCNHb98WptP7iQICgDwf2XmZen45dP6666lhAG4bdFnyV8KAFCPt9OXa8bgKQQBuKG0Cwd444cCANTvbGGOvj+brpT96wgDcCN1VqsWpqUQBAUAaNh7Gav0QN/xBAG4kW9O7uBNHwoAcHOXywq17ug32pi1jTAAN1BVW60lGSsIggIANG7Zgc80sutQggDcwJojX/OGDwUAsM31qjJ9uG+tfjy3lzAAEyupvK6lez8lCAoAYLt1RzapW5toggBMLOXAOhVXlhIEBQCwXXVdjZakr9CRSycIAzCh/NLL+vjQRoKgAAD223LqB3lb2E4VMKN3M1apsqaKICgAgP2ssmphaoouXLtIGICJZF89p69OfEcQFADAcRm5B5VbnEcQgIksTF2mOitL/lIAgCafTFJ0uayQIAAT2Jt7SLvO8wYPBQAwwMkrZ5Wec4AgABdnFUv+ggIAg72TsUpFFcUEAbiwbdm7dPTSKYKgAADGySsp0JfHv9PaI5sIA3BBNXW1Wpy2nCBAAYDxPty3Rnf0GEkQgAtad3STcpiwCwoAnKG4slQrMtfru9O7CQNwIderyvQBS/6CAgBn+vjQRvXt0JMgABeyInODCsuvEQQoAHCeqtpqvZexWgcuHiUMwAVcLivUyszPCQIUADjfVye2K9Q/hCAAF/DentUqr6kgCFAA4Hx11jotSkvRmcILhAG0oLOFOfoiaxtBgAKA5vPjub08cwRa2Nvpy1VbV0sQoACgeS1MTVF+6WWCAFpAZl6Wvj+TRhCgAKD5Hbl0UofzTxAE0CIF/CNCAAUALeft9OUsEQw0s+1nUnUwL4sgQAFAy8m5dlFbT/2oVQd5DQlwNqusqmXJX1AA4Cre3/ux7up9G0EAzi4AVqs+z9qqs0W5hAEKAFpeYfk1fXLoS206uYMwACepqatVRU2l3t/zMWGAAgDXsTLzcw3r1J8gAKcVgBqtOviFLpcVEgYoAHAd5TUV+vveT5Sek0kYgMEqaipVVl2uFZkbCAMUALieDVlbFRHSniAAA1llVU1drZbuXaPrVWUEAgoAXM+N2cnHL58mDMAgpZXXVVR+TeuObiIMUADgurafSVNVbTVBAAaVasmit9OXq4Ylf0EBgCuzyqoFuz/SxZJLhAE00bXKEp2/9pO+zd5NGKAAwPVl5h3TqStnCQJogoqaSvl6+WphaoqsshIIKAAwh0Vpy9ktEGiCkspSHczL0r6fDhMGKAAwjzOFF7TzXIY+2r+OMAAHfvwDfQO1KC2FMEABgPm8m7FaD/QdRxCAvQWg6rq2n96t7KvnCQMUAJhPwfUr2nBsiz7P2koYgB3/bkL8gvXuntWEAQoAzCtl/zrd0nUYQQA2qqip0vqjm5VfepkwQAGAeZVWlemj/eu081wGYQCNuHDtokL8gpRygLkzoADADaw7skkxbbsQBHATtXW1qrXWKWX/OpVUXicQUABgflW11VqSvlKH808QBtCAM4UXFODtpzVHviYMUADgPjaf3Clfbx+CAOpRVl2uAN8ALU5fzlLaoADAvVhl1cLUFJ2/9hNhAL9xrihX16vKtPnUTsIABQDuJz0nUxeL2SMA+LXLZYVqE9hKC1NTVGdlyV9QAOCmFqal6HJZIUEA/5BXUqDzRT8pPSeTMEABgPs6cfmMMnIOEgQg6fy1n9QprIMWprLkLygA8ABLMlaoqKKYIODxrpYVKT3noI5fPk0YoADA/eWVFOirE9t53QkeLasgW93aRGtJ+grCAAUAnuPDfWs0LmYUQcAj1dbVqqy6Ql+f2K6LJUyMBQUAHuRaRYlWZm7Qt6d3EQY8zoGLR9WjbWct3beGMEABgOdZfWij+nXoTRDwOD7ePlqZuUHXKkoIAxQAeJ7Kmiq9t2e19v10mDDgUSJDwrX60EaCAAUAnuvL49+pdUAYQcCjvLdntSprqggCFAB4rjprnZ7d8J8EAY8rvoCzWBIWT2JNSQBwEaH+wbpeVa5gvyCVVJYSCJyGbdcAwIWUVF7/x//kxx/OxSMAAAAoAAAAgAIAAAAoAAAAgAIAAAAoAAAAgAIAAAAoAAAAgAIAAAAoAAAAgAIAAAAoAAAAgAIAAAAoAAAAgAIAAAAoAAAAgAIAAAAoAAAAUAAAAAAFAAAAUAAAAAAFAAAAUAAAAAAFAAAAUAAAAAAFAAAAUAAAAAAFAAAAUAAAAAAFAAAAUAAAAAAFAAAAUAAAAAAFAAAAUAAAAKAAAAAACgAAAKAAAAAACgAAAKAAAAAACgAAAKAAAAAACgAAAKAAAAAACgAAAKAAAAAACgAAAKAAAAAACgAAAKAAAAAACgAAAPjF/z8AtV6uK8szrg8AAAAASUVORK5CYII=;" parent="11" vertex="1">
                    <mxGeometry x="80" y="102.5" width="49" height="47.5" as="geometry"/>
                </mxCell>
                <mxCell id="60" value="" style="shape=image;verticalLabelPosition=bottom;labelBackgroundColor=default;verticalAlign=top;aspect=fixed;imageAspect=0;image=data:image/png,iVBORw0KGgoAAAANSUhEUgAABLAAAAKICAYAAABg2AM1AAAABGdBTUEAALGPC/xhBQAAAAFzUkdCAK7OHOkAAAAgY0hSTQAAeiYAAICEAAD6AAAAgOgAAHUwAADqYAAAOpgAABdwnLpRPAAAAAZiS0dEAAAAAAAA+UO7fwAAAAlwSFlzAAAASAAAAEgARslrPgAAdXdJREFUeNrs/XeUnHl97/u+n6quzrmlVivnljRMZBhSYYzBBGMwGLAxGGzywAx7n7PXubW8wzn73n3u2eeuu2rdvfbZh4EhBwM2GLBJtjHBpCIzeUZq5axWq3NOVc/94ylp8oyk6e7n6ar3a62ZgZbU/enqUlU9n/r9vr8ASZIkPa18gXpgB9Bb/u9uYBuwEVgDtAENQFD+I3PABDAMnANOAIeAI+X/HsxlGY/7+5IkSVoNgmf+KSRJkipTvkAnUWH1u8ALge3AJqCdq38dNQWcBU4CvwL+FbgfOJ/LEsb9PUuSJCWRBZYkSdJj5AtsB14N/CHwPKLCKrUMXyoEpoG7gX8Cvg7sz2UpxX0bSJIkJYkFliRJUlm+wCbgz4C3A3uB2hX88iXgKPBl4DO5LIfivj0kSZKSwgJLkiRVvXyBZuA1wAeALJCOMU4I3AvcCXwll2Uo7ttHkiQpbhZYkiSpauULZIAXEBVXrwZa4870CDPAD4E7gB/ksszEHUiSJCkuFliSJKnq5AsERKcIvgd4C9Fg9qQaAr5GtCLr3lyWYtyBJEmSVpoFliRJqir5At3AnwC3As9ieYazL4ejwGeAz+WynIg7jCRJ0kqywJIkSVUhX6AJeBlwO/BioD7uTFdhEfgN0Wqsb+SyjMQdSJIkaSVYYEmSpIpW3i74HOD9wBuA9rgzLYFp4DvAh4Cf5rLMxx1IkiRpOVlgSZKkipUvsAN4O/CXwPa48yyD88CXgI8DD+ayhHEHkiRJWg4WWJIkqeLkC7QTrba6FbiFyn/NcwD4BPDFXJZzcYeRJElaapX+Yk6SJFWRfIE64HeB24CXA41xZ1pB88DPgQ8D/5TLMhF3IEmSpKVigSVJkla9fIEUcC3wPuBNwLq4M8VoDPg2UZH1a+djSZKkSmCBJUmSVrV8gY3AnwPvBnrjzpMgZ4DPA5/MZTkUdxhJkqRnwgJLkiStSvkCbcAfEG0XfB5QG3emBCoB9wMfA76SyzIQdyBJkqSrYYElSZJWlXyBNPBCouLqNUBz3JlWgTngh8AdwPdyWWbiDiRJknQlLLAkSdKqkS+wF3gX8FZgY9x5VqFh4O+BjwJ35bIU4w4kSZJ0OSywJElS4uULrAXeDLwXuD7uPBXgGPAZ4HO5LMfjDiNJkvR0LLAkSVJi5Qs0AK8AbgdeDNTFnamCFIG7gI8A/5DLMhJ3IEmSpCdjgSVJkhInX6AGuAn4APBHQFfcmSrYFPA9ovlYP3U+liRJSiILLEmSlCj5AtuBvyz/sy3uPFXkAvBlovlYD+SyhHEHkiRJusgCS5IkJUK+QBfwOuD9RKuvauLOVIVC4CDwSeBvcllOxx1IkiQJLLAkSVLM8gVqgZcAtwGvBOrjziQWgZ8DHwa+ncsyEXcgSZJU3SywJElSLPIFAqITBd8L/CmwNu5MepwJ4NtEg95/nsuyEHcgSZJUnSywJEnSissX2Ai8DXgHsDfuPHpaZ4AvEm0tPOh8LEmStNIssCRJ0orJF2gBXkO0XfD5OOdqNQmBB4CPAV/OZRmIO5AkSaoeFliSJGnZledcPZ+ouHoV0BZ3Jl21WeAnwB3A93NZJuMOJEmSKp8FliRJWlb5AnuAdwN/DmyIO4+WzCjwD0SD3n+by1KKO5AkSapcFliSJGlZ5AusA/4EeB/wLCAVdyYti+PA54DP5rIcjTuMJEmqTBZYkiRpSeULNACvINou+BKgNu5MWnYl4C7gTuDvc1mG4w4kSZIqiwWWJElaEvkCKeAW4Fbg9UBH3Jm04maA7xHNx/phLstc3IEkSVJlsMCSJEnPWL7AduAdwNuAHXHnUewGgK8QnVj4QC5LMe5AkiRpdbPAkiRJVy1foAN4A/B+4Nk450qPdgj4FPDXuSxn4g4jSZJWLwssSZJ0xcpzrl4M3A68FGiKO5MSax74NdFphf+YyzIadyBJkrT6WGBJkqTLli8QANcTnSz4J8DauDNp1ZgE/gn4EPDzXJaFuANJkqTVwwJLkiRdlnyBTcBbgXcDu/F1hK7OOeCLwCdzWfbHHUaSJK0OvvCUJElPKV+gBXgN8AHgBUBN3Jm06oXAg8DHgS/lspyPO5AkSUo2CyxJkvSE8gVqgCxRcfWHQHPcmVRx5oGfEM3H+k4uy1TcgSRJUjJZYEmSpEcpz7naA7wHeDOwKe5MqngjwDeBjwC/dT6WJEl6LAssSZJ0Sb7AWqLS6n3AdXHnUdU5CXwO+HQuy9G4w0iSpOSwwJIkSeQLNAMvAz5ItG2wIe5MqlpF4F7gTuAfclkuxB1IkiTFzwJLkqQqli+QBp4DvB94PdAedyapbBb4PvAh4Ie5LLNxB5IkSfGxwJIkqUrlC+wA/rL8z9a480hPYgj4O+BjwD25LGHcgSRJ0sqzwJIkqcrkC3QCfwzcCtwMpOLOJF2Gw8Cngc/nspyMO4wkSVpZFliSJFWJfIFa4KXAbcDLgfq4M0lXqAj8Cvgw8I1clvG4A0mSpJVhgSVJUoXLF0gRnSh4K/BGoDvuTNIzNAF8h6jI+lkuy1zcgSRJ0vKywJIkqYLlC2wE3ga8C+iNO4+0xPqBvwU+Dux3PpYkSZXLAkuSpAqUL9AGvBq4HbgFqI07k7RMQmA/UYn15VyWs3EHkiRJS88CS5KkCpIvkAFeCHyAqMBqiTuTtELmgQJwB/CdXJbJuANJkqSlY4ElSVKFyBfYC7wb+HNgfdx5pJiMA98APgL8MpelGHcgSZL0zFlgSZK0yuULrAPeTFReXYfP7xLAKeCvgc8Ah3LZuONIkqRnwhe4kiStUvkCDcCrgNuA3wUycWeSEiYE7gU+CvxdLstQ3IEkSdLVscCSJGmVyReoAW4mmnP1WqAz7kxSwk0DPyKaj/XDXJapuANJkqQrY4ElSdIqki+wHXgn8HZgW9x5pFVmGPgqcCdwTy5LKe5AkiTp8lhgSZK0CuQLdAGvJ1p1dQNQE3cmaRU7Cnwa+Hwuy/G4w0iSpKdngSVJUoLlC9QDLyGac/UyoDHuTFKFKAK/Jjqt8Ju5LCNxB5IkSU/OAkuSpATKFwC4EXgv8KfAmrgzSRVqBvhnovlYP8llmY87kCRJejwLLEmSEiZfYBPwNuAdwJ6480hVoh/4MvBx4CHnY0mSlCwWWJIkJUS+QDPwR0TbBZ8PpOPOJFWhA8AngC/mspyLO4wkSYpYYEmSFLN8gVrgBUTF1auA1rgzSVVuDvgF0bbC7+SyjMcdSJKkameBJUlSTPIFAqItgu8B/gzYGHcmSY8yDnwL+DDwq1yWhbgDSZJUrSywJEmKQb5AD/AnwK3APiAVdyZJT+oM8NfAp3NZDsYdRpKkamSBJUnSCsoXaAJeQbRd8HeAurgzSbosJeB+4KPAV3NZBuIOJElSNbHAkiRpBZS3Cz4X+ADweqAt7kySrso88K9E87G+m8syG3cgSZKqgQWWJEnLLF9gB/AO4O3AtrjzSFoSQ8A/EK3IuiuXpRh3IEmSKpkFliRJyyRfoAN4I/B+4Nn4vCtVomPAZ4HP5LKciDuMJEmVyhfSkiQtsXyBeuAlwO3AS4HGuDNJWlaLwF3AncDXc1mG4w4kSVKlscCSJGmJ5AukgOuIThZ8I9AddyZJK2oa+C7wIeAnuSxzcQeSJKlSWGBJkrQE8gU2A38OvBvYFXceSbG6AHwJ+DhwXy4bdxxJklY/CyxJkp6BfIE24DVEc66eB2TiziQpMfqATwJ/k8tyOu4wkiStZhZYkiRdhXyBGuBFwG3Aq4GmuDNJSqQi8DPgw8C3clkm4w4kSdJqZIElSdIVyBcIgL3Ae4A3AxvjziRpVRgH/hH4CPCLXJb5uANJkrSaWGBJknSZ8gW6gbcQlVfXxp1H0qp0Bvgi8AngUC5LGHcgSZJWAwssSZKeRr5AE/AK4HaibYN1cWeStKqVgAeBjwF/l8tyPu5AkiQlnQWWJElPojzn6mbgA8AfAR1xZ5JUUeaAHwN3AN/LZZmKO5AkSUllgSVJ0hPIF9gBvAP4S2BL3HkkVbQx4GvAncBvcllKcQeSJClpLLAkSXqEfIEu4A3A+4CbgHTcmSRVjePAZ4HP5bIcjTuMJElJYoElSRKQL1ALvJRoztXLcc6VpHiEwG+JVmN9LZdlJO5AkiQlgQWWJKmq5QukgOuBW4lWXnXHnUmSgGnge8CHgR/lsszGHUiSpDhZYEmSqla+wCbg7USzrnrjziNJT+AC8BXgo8D9zseSJFUrCyxJUtXJF2gDXgPcBtwCZOLOJElP4xDwSeCLuSyn4g4jSdJKs8CSJFWNfIE64AVExdUrgda4M0nSFVgAfkW0rfDbuSxjcQeSJGmlWGBJkqpCvsA+4D3AW4GeuPNI0jMwDXyLqMgq5LIsxh1IkqTlZoElSapo+QI9wJuJyqtn4XOfpMpxFvgb4FPAQ7ls3HEkSVo+voiXJFWkfIEG4A+Itgu+GOdcSapcDwAfB/42l2Ug7jCSJC0HCyxJUkXJF0gTDWb/APBaoCPuTJK0AuaAnxJtK/yXXJbJuANJkrSULLAkSRUjX2AH8E7gbcC2uPNIUgxGgG8SFVl35bIsxB1IkqSlYIElSVr18gU6gTcQrbq6EUjFnUmSYnYK+CzwmVyWI3GHkSTpmbLAkiStWuU5Vy8hmnP1e0BT3JkkKUGKwL3AR4B/yGUZjDuQJElXywJLkrTq5AsEwA3ArcCfAF1xZ5KkBJsDvgfcAfwgl2Uu7kCSJF0pCyxJ0qqSL7CZaMbVO4HdceeRpFVkEPgK0YmF9+SylOIOJEnS5bLAkiStCvkCLcDriOZcPQ9Ix51Jklapw8Cngc/lspyOO4wkSZfDAkuSlGj5AhkgC9wOvBJoiTuTJFWAReBXRPOxvpXLMhp3IEmSnooFliQpkcpzrvYC7wXeDGyIO5MkVaAJ4F+I5mP9zPlYkqSkssCSJCVOvsA64M+A9wH78PlKkpbbeeCLwCdzWR6MO4wkSY/lBYEkKTHyBZqBVwC3EW0brI87kyRVkRDYTzTk/cu5LGfjDiRJ0kUWWJKk2OULpIFbiAa0vw5oizuTJFWxReAnwIeBf8plmYo7kCRJFliSpFjlC+wE3gG8Hdgadx5J0iVjwDeAO4Ff5bIsxh1IklS9LLAkSbHIF+gE3kQ05+rZ+JwkSUl1EvgC8CngcC4bdxxJUjXyYkGStKLyBeqB3wM+WP5vQ9yZJElPqwTcR7Qa66u5LINxB5IkVRcLLEnSiijPuboeuBX4Y6A77kySpCs2A/wQuAP411yW6bgDSZKqgwWWJGnZ5QtsBt4GvBvYGXceSdIzNgJ8hWhF1t25LGHcgSRJlc0CS5K0bPIF2oHXEJ0ueAuQiTuTJGlJHQE+DXwhl+V43GEkSZXLAkuStOTyBTJAFrgd+AOgKe5MkqRlUwJ+BXwE+Houy1jcgSRJlccCS5K0ZPIFAK4B3gP8GbA+7kySpBUzBXyHqMj6cS7LfNyBJEmVwwJLkrQk8gXWAW8hmnN1bdx5JEmx6Qe+DHwM2J/LUoo7kCRp9bPAkiQ9I/kCjcCriLYLvgiojTuTJCl2IdAHfAL4m1yWs3EHkiStbhZYkqSrUp5z9RyiAe2vATriziRJSpx54OfAHcB3clnG4w4kSVqdLLAkSVcsX2An8E7gL4DNceeRJCXeJPAN4MPAL3JZinEHkiStLhZYkqTLli+wBngDcCtwA5COO5MkaVU5DXwe+EwuS1/cYSRJq4cFliTpaeUL1AEvA24r/7c+7kySpFXtHuDjwJdzWQbjDiNJSj4LLEnSk8oXCIAbiVZcvRFYE3cmSVLFmAN+SLSt8Lu5LDNxB5IkJZcFliTpCeULbAbeDrwD2B13HklSxRoCvg58BLgnl2Ux7kCSpOSxwJIkPUq+QCvwR0TbBZ+Lc64kSSvjGPAZ4HO5LMfjDiNJShYLLEkScGnO1QuB24GXA61xZ5IkVZ1F4C6i1VjfzGUZijuQJCkZLLAkqcqV51ztBd4LvAXoiTuTJKnqzQDfIZqP9aNclvm4A0mS4mWBJUlVLF9gPfBm4D3APiAVdyZJkh5hAPgy8Ang3lw27jiSpLhYYElSFcoXaAJeRTTn6kVAbdyZJEl6CgeATwFfyGU5G3cYSdLKs8CSpCqSL5AmGsx+G/BaoC3uTJIkXaZF4OdE2wq/ncsyEXcgSdLKscCSpCqQLwCwE3gX8OfA1rgzSZJ0lcaAfyIqsn7pfCxJqg4WWJJU4fIFOoE3Ae8HbsTHfklSZTgLfAH4ZC5LX9xhJEnLy4sYSapQ+QKNwEuA28v/bYw7kyRJS6wEPAh8FPhqLkt/3IEkScvDAkuSKky+QAq4AbiVaOVVV9yZJElaZvPAD4m2Ff5LLstM3IEkSUvLAkuSKki+wBbgbcA7gV1x55EkaYWNAn9PtCLr17kspbgDSZKWhgWWJFWAfIE24I+I5lw9F6iJO5MkSTE6Bvw18JlclmNxh5EkPXMWWJK0iuULZIAXEc25ehXQFHcmSZISogTcBdwJfC2XZSTuQJKkq2eBJUmrUL5AAOwD3gu8GVgfdyZJkhJqCvgBcAfwY+djSdLqZIElSatMvsA64C1E5dU1ceeRJGmVGAS+DHwMuC+XJYw7kCTp8llgSdIqkS/QAryCaLvgC4G6uDNJkrTKhMBh4JPAF3NZTsUdSJJ0eSywJCnh8gVqgFuADxANam+LO5MkSatcEfg58BHgW7ks43EHkiQ9NQssSUqwfIFdwDuBtwOb484jSVKFmQK+TVRk/TSXZTHuQJKkJ2aBJUkJlC/QBbwJeB9wI5CKO5MkSRXsDPAl4BPAAedjSVLyWGBJUoLkC9QBLwM+CPweUB93JkmSqsgDwMeBv81lGYg7jCTpYRZYkpQA+QJp4Hrg/cAbgDVxZ5IkqUrNAgXgDuB7uSwTcQeSJFlgSVLs8gU2E824ehewM+48kiQJgDHgH4A7gV/nshTjDiRJ1cwCS5Jiki/QDrwWuA24GcjEnUmSJD3OSeBzwGdzWQ7HHUaSqpUFliStsPKcqyxRcfVKoDnuTJIk6SmFwG+BjwFfy2UZijuQJFUbCyxJWkH5AtcA7wXeAqyLO48kSbois8D3gQ8D389lmYs7kCRVCwssSVoB+QI9RKXVe4B9+PgrSdJqdgH4GvBR4D7nY0nS8vMCSpKWUb5AI/Bq4HaibYPOuZIkqXIcBj4NfC6X5XTcYSSpkllgSdIyyBeoAW4hmnP1GqA97kySJGlZLAC/IdpW+O1clpG4A0lSJbLAkqQllC8AsBN4F/A2YEvcmSRJ0oqYAv6JqMj6aS7LQtyBJKmSWGBJ0hLJF1gDvBF4P3AdkI47kyRJWnHngS8Cn8xleTDuMJJUKSywJOkZKs+5+j2i7YK/BzTEnUmSJMXuAeBTwN/mspyLO4wkrXYWWJJ0lfIFAuBGohVXbwI6484kSZISZRH4CdG2wn/MZZmOO5AkrVYWWJJ0FfIFtgBvB94B7Io7jyRJSrQR4NvAR4BfOx9Lkq6cBZYkXYF8gVbg9UTbBZ+Dc64kSdLlOwX8NfCpXJYjcYeRpNXEAkuSLkO+QB2QBW4HXgE0x51JkiStSkXgfuBO4Gu5LBfiDiRJq4EFliQ9hfKcq33Ae4E3A+vjziRJkirCLPADovlYP8hlmYk7kCQlmQWWJD2J8qqrPwH+A1GJ5WOmJElaaiPAV4lOLPxlLksp7kCSlERejEnSE8gX6AL+LfBBPF1QkiQtvxNEJdYnclnOxh1GkpLGAkuSHiNfYDPwX4C3AZm480iSpKpRAr4D/D9zWX4ddxhJShILLEl6hHyBvcD/F/hDPGFQkiTF4yHgPwLfzmVZjDuMJCWBBZYkleULXAv8X8BL484iSZKq3mngr4C/dS6WJFlgSRIA+QL7gDuA34s7iyRJUtkZ4H8BvpLLUow7jCTFyQJLUtXLF9gBfAh4FT4uSpKkZDkBvA/4l1w27iiSFJ9U3AEkKU7l0wb/dyyvJElSMm0F/k/gWXEHkaQ4WWBJqlr5Ag3A/wN4E5ZXkiQpuW4C/tfyG2+SVJUssCRVpXwBgD8BbgPq4s4jSZL0FFLAG4C35Qu+6SapOllgSapWzyY62ac17iCSJEmXoZbojbdnxx1EkuJggSWp6uQLtBCd6HNN3FkkSZKuQC/wvvIYBEmqKhZYkqrR64HXxh1CkiTpKrwBeEHcISRppVlgSaoq+QKbgVuBlrizSJIkXYUu4C/yBRrjDiJJK8kCS1LVKA89fR3wvLizSJIkXaUAeBVwQ9xBJGklWWBJqibrgLcDNXEHkSRJegbWAa/NF7yek1Q9fMCTVBXyBQBeDlwbdxZJkqQl8CqiIkuSqoIFlqRq0QK8GpwXIUmSKsIO4Plxh5CklWKBJalabAN+J+4QkiRJS6QNeGG+4GgESdXBAktStXguLrOXJEmV5dlAR9whJGklWGBJqnjl0wezOLxdkiRVlmcB3XGHkKSVYIElqRq0AXvjDiFJkrTEOoDtcYeQpJVggSWpGmwB1sYdQpIkaYnVAHviDiFJK8ECS1I1WAe0xx1CkiRpiaWAzflC3DEkaflZYEmqBp1AS9whJEmSlkEPEMQdQpKWmwWWpGrQBNTFHUKSJGkZtGCBJakKWGBJqgaZuANIkiQtE9+kk1QVLLAkSZIkSZKUaBZYkiRJkiRJSjQLLEmSJEmSJCWaBZYkSZIkSZISzQJLkiRJkiRJiWaBJUmSJEmSpESzwJIkSZIkSVKiWWBJkiRJkiQp0SywJEmSJEmSlGgWWJIkSZIkSUo0CyxJkiRJkiQlmgWWJEmSJEmSEs0CS5IkSZIkSYlmgSVJkiRJkqREs8CSJEmSJElSollgSZIkSZIkKdEssCRJkiRJkpRoFliSJEmSJElKNAssSZIkSZIkJZoFliRJkiRJkhLNAkuSJEmSJEmJZoElSZIkSZKkRLPAkiRJkiRJUqJZYEmSJEmSJCnRLLAkSZIkSZKUaBZYkiRJkiRJSjQLLEmSJEmSJCWaBZYkSZIkSZISzQJLkiRJkiRJiWaBJUmSJEmSpESzwJIkSZIkSVKiWWBJkiRJkiQp0SywJEmSJEmSlGgWWJIkSZIkSUo0CyxJkiRJkiQlmgWWJEmSJEmSEs0CS5IkSZIkSYlmgSVJkiRJkqREq4k7gCRJkvS0AgjK/zO89C9JklQtLLAkSZKUcAFzQ11MntpMaSFDXecwTRtPk66ftciSJKlKWGBJkiQpuQKYH2vh/C9eyNzgGsIwIFU7T8PaAdp6D9C44QypzKJFliRJFc4CS5IkSYk2P9LB3HAnBCFBEBIu1jB9diOzg2tp2nSKtt4D1K8ZJEgXLbIkSapQFliSJElKrhCKc/UQBo/+eBBSWsgwcXQn0/3radl2jNadh6jrGI6GZVlkSZJUUSywJEmSlHDBU/xSSHGmgdH91zB9ZhMtOw7Rsv0omebJuENLkqQlZIElSZKkijA/1sbQPTczdXoLrbv6aN5ygnT9vKuxJEmqABZYkiRJqgxB1FTNXuhmbqSTyZPbo0Hv68+RyixYZEmStIpZYEmSJKmyBCFhMc30mU0PD3rf3Uf9mgsE6ZJFliRJq5AFliRJkipTEFKar2XiyC5mzm2gefsRWncepq59xEHvkiStMhZYkiRJqmxByOJMA6MPXVse9H6E1u1HqGmaijuZJEm6TBZYkiRJqhrzox0M3fNspk5toa23j6bNJ0jXOehdkqSks8CSJElS9QhCCINo0PtoBw0nttHeu5+Gnn5SmUWLLEmSEsoCS5IkSdUnCAkXa5g+vZnZC900bz55adA7qdAiS5KkhLHAkiRJUvUqD3ofP7yb6XPradl+jNadh6htG3XQuyRJCWKBJUmSJAUhi1PNjDx4LVOnN9G66xAt245Q0zgTdzJJkgSk4g4gSZIkJUIQLbeaH+1g6O6bOffjlzF+dCelxUzcySRJqnquwJIkSZIeKQgJSylmB7qZH+lgbngNXdffQ6p2Lu5kkiRVLVdgSZIkSU8kCCktZBjr28vYkV1xp5EkqapZYEmSJElPJggJi2kmju1kYbIlGuwuSZJWnAWWJEmS9FSCkIXxVubH2wgssCRJioUFliRJkvQ0SgsZSvMOc5ckKS4WWJIkSdLTCQPcPyhJUnwssCRJkiRJkpRoFliSJEmSJElKNAssSZIkSZIkJZoFliRJkiRJkhLNAkuSJEmSJEmJZoElSZIkSZKkRLPAkiRJkiRJUqJZYEmSJEmSJCnRLLAkSZIkSZKUaBZYkiRJkiRJSjQLLEmSJEmSJCWaBZYkSZIkSZISzQJLkiRJkiRJiWaBJUmSJEmSpESzwJIkSZIkSVKiWWBJkiRJkiQp0SywJEmSJEmSlGgWWJIkSZIkSUo0CyxJkiRJkiQlmgWWJEmSJEmSEs0CS5IkSZIkSYlmgSVJkiRJkqREs8CSJEmSJElSollgSZIkSZIkKdEssCRJkiRJkpRoFliSJEmSJElKNAssSZIkSZIkJZoFliRJkiRJkhLNAkuSJEmSJEmJZoElSZIkSZKkRLPAkiRJkiRJUqJZYEmSJEmSJCnRLLAkSZIkSZKUaBZYkiRJkiRJSjQLLEmSJEmSJCWaBZYkSZIkSZISzQJLkiRJkiRJiWaBJUmSJEmSpESzwJIkSZIkSVKiWWBJkiRJkiQp0SywJEmSJEmSlGgWWJIkSZIkSUq0mrgDSJISLoBwMU2pWEOQKpHKLEQfD+MOpiQIw4fvCgEQBHEnkiRJUiWywJIkPbEASnO1TPevZ+rMZhYmW0jXz9LYc5qmTaepaZyJfp9FVtW5+COvT7fR2XANjZm1AEwtnGd4+kHmipMQRIWWqtxj7wQ+Xigguh+EAWEp+v9BKnz445IkPQkLLEnSo5VXXM0M9DDat5eZ/vWU5msv/fLUqS1MHB2grbePpk2nSdXOe9FRRcIQ6mva2db+Kq7rfiedjddQV9MKIcwVR7kwdT/3D3yCE2PfZ35xwhVZ1SqA0nyG4lw9YSlFkCqRrp2LHi9U1RbGW5g6vYWZgW6Kc3UEQUimdYKmjadpWHeOVO2CzymSpCdkgSVJigRACeZGOhg7uJfJE9spztZDEEb/lIXFFDPn1zM3vIbGjado37uf+jUDBOnQi44KFoaQTtWwoSXLjetvY2fHH5JJNz3q99TVtNJat4VNrb/DoeGvc0//hzk/+StKYckiq1oEUFqoYfrMJiZPbmNutIPSfC2pzCKZ1lGaNpymecsJ0g2z0e/3MaM6BFCcq2XyxHbGDu5lbqQDSinCMHpgCM6FTBzbQePG07Tv8TlFkvTELLAkSRDAwmQzE0d3Mn5kFwsTreWPP8nVQxBSWqxh8vgOZgfW0bL9KK27DlLbNhb3d6Jl0tV4Ddd1v4t9a99Kc+36p/y9dTWtXNv9dra0/S4PDnyOBy98lpHZw24prGQBhMWA2cFuxvr2MnVm88MrN4MQwoD50Tamz25k4vgO2nr307ThLKk6V3BWtADCxRqm+9cx1ncN0/09hIuZS2+MBI94jiktZJg8Vn5O2eZziiTp8SywJKmaledcTZ7awtjBvcwOrYFS6smLq8f9+ZDF6SZGHrqWqbObaNvdR8u2o9HqCi9KV70whKbadexZ82ZuWPde1jRee0V/vrVuC8/f/J/Y0fFq7j3/UQ4OfZWZhSFXY1WS8tyi+bFWxg/3MnFsJ4tTTY9buXnxf4fFNDP965kbWkPjhtO09fbR0H2eoKboY0YlCYBSwNxweUXvyW1PuKL38X8uZHHqsc8px0g3zHj/kCRZYElSVQogXEwxc76HsYP7mDq74VHvil/Z54p+//xIB4O/vYXJU1to3/MQjRvOksosetGxCoUh1Kab2Nr+Km7q+QCbWn+HdKr2qj5XQMC65mfz0sb/i52dr+Oe/o9wcvR7LJZmLbJWuwCKM/VMnNjO+ME9zI12QBg8/WPIxRWcJ7Yzc76H5i0nad3VR33XEKTcNrbqBbA42cz40R2MH+llYaKl/PHLf2MEHvmcsrX8nHLG5xRJqnIWWJJUTS6+Kz7SwdjBPdG74jMNV1dcPe5zh4SlFDPnNjA33EXTppO07zlAXdcQQarkRccqEALpIEN387O5qec2dna+lvqajiX53DWpenZ2vJr1zc/l0NDfc+/5O7kwdR8lFt1auNpcnHPVv56xA9cwc76HsJi+8seRIKQ4V8/YoV6mz26geftRWnceorZ1/PEn0l383KH3lsR65IreQ3uYHVx7ZSt6H/f5Lj6nrGduKHpOadvTR33XBYK0zymSVI0ssCSpGpSv+RYnmxg/uvPhd8UvZ7XEFX+tkNJcHRNHdjPTv4GWnYdo23mITMuEx6Qn1MUfSXvdLq7tfifP6n47rXWbl+VrNWbWcEPPe9na/jIeOP8ZHrzwOcbnTwBYZCVd+e/v7IW1jB3aw+SJrZTm65akAF+YbGHkgeuZOrWF1l0Hadl2jJqm6Uu/XlrMWF4lVXn+2cxAD2N9+5g6u5Fw4SpX9D7h5w8pLWSYOLqLmf71tOw4TOuuJyk6JUkVzQJLkipdAMXZOqZOb45OfxpaQ3jxXfGlLq8ufc3o8y5ONTHywPVMn9lEW29fdPpYvfOxkiQMoTGzll2dr+fGnvfT3XQDQZBe9q/bXr+DF275z+zo/EPu6f8wR0e+xczCsNsKE2xhvIXxo7uYOLqLhcnm6INL9RhycdvYaAdDdz+HyZPbaNvdR8O685QWapg6tXl5Cnc9QwFzI22MH9rD5IntLE43Lt9zy6WZi9czfXYTrbsP0rL1uPOxJKmKWGBJUqUKICxGc65G+/YxfXYj4WLN8hZXj8sQbfmZG1rDhV93MHVqC2179tPYc86hzTELw2hb35b2l3Jjz+1sa38Z6VTdimZIBTVsaHke3U3Xc2zkO9zdfwenx39MsTRvkZUU5W1hEye3XirAl7VIKm8bmx1Yx9xwF7Wt44TFNPMTLZZXSRLA4nQDE8d2Mn6ol/nxtpUpGINoRtrccBeDv3nupeeUpvVnCDI+p0hSpbPAkqRKEwAlmBvuZOzwHiaPb6M4u0Rzrq46U0hYTDF1ejOzg2tp3nKctt191HUOO7R5hYVEg9V7mp/N9eveR2/XG2nIdMWaqSbVwO6u17Oh9YUcuPAl7h/4BIPT95WzKhYBhItpps9H28Km+zcQLqxgAR6EhMU0c8Odl/6/EiCA0nyG6bMbGe27htkLa69u/tkzzhEVndNnNzI7tIbmzSdp232AujWDBD6nSFLFssCSpEoSXJxztYvxI7tYmGhN1rabIKQ4W8/YoT1Mn9tA665DtO44TE3zlBccKyAEWmu3cM3av+C67nfQ3rAz7kiP0pTp5uYN/4Zt7S/n/oFPsX/wC0zOnXU11kq6dNBDO2MH9zJ5YjvF2fr4CvCkPHZVu4Dyyri10cm1pzdRmq+N940RuDRzcfzwbqb719Oy/Qhtuw6RaXE+liRVIgssSaoEjzz96eBeZofWPHz6U9IuAMt5FiZaGbr3JqZOb6Ztz36aN50iVTfvBccyCEOor2lnZ+fruLHn/fQ030JqBeZcXa2uxr28eOt/ZWfHa7mn/yMcHf0W84sTFlnLLYjm1k0c3cnY4d3JK8C18sol0PxYG+OHdzFxbBeLU03Jem65OHNxspmRB69j+swmWnsP0LLlOOmGOZ9TJKmCWGBJ0mpW3uYzM7CO0b59zJzbQGkpT39a1uzRfKzZC93MjXYwdfIMbXsP0LD2vPOxlkhItD1vY8sLy3OuXk5tujnuWJclFWTY3PY7dDfdwLHRf+Lu/js4N/EriuGc2wqXWrkAnzqzidG+fcwNrl3+gx6UfAEUZ+qZOLGd8UO9zI0kfDvnxZmLw10M/uZ5TJ3aSvue/TT0nCOVWfQ5RZIqgAWWJK1G5XfF54Y7GTu4J/5tPs/oewkJF2uYPLmNmQvraN52lPbdfdS2j7oF5CpdnB21puFarl/3PvatfTONme64Y12VuppW9q55M5taX8xDF77I/QOfYHjmAOB8rGcsgLAUMNO/7tK2sHBxlRTgWj4BhIspps5uYqxvHzPnex6ec7UalOenTZ/ZVJ65eIK23gPUdw45c1GSVjkLLElabQJYmGhi4vhOxi9u84HVc3HxpN9XeT7WgWuYObeR1l0Hadl2lJqmaS84rkAItNRuZE/Xn3H9uvfQ2biHoAKqnuba9dyy4d+xvf2V3Hv+oxwa+gqT8/1uK3wG5kfaGTvcy+TxHSxON1pcVbvy/LPZwS7GDu5l6vSW1fvGCETzseZro/lY59bTuvMwrTsOk2mZiDuZJOkqWWBJ0mrxyDlXh/YyO/iIOVcVZn60naG7nsPU6fIR6RtPuQXkaYQh1NY0s6P9D7mx5zY2tr6QVFBZT/NBkGJt07X83vb/xq7O13FP/4c5PvodForTFlmXK4DidD3jx3cwfngP86Md5SV7/uWqWuWVrgsTTYwf6WXiyC4WJlvKv1YZ94vFyRaG77uRqTObadvdR/OW46TrnY8lSatNZb2ylaRKVN7OMXN+PaMH9zJ9bgPhaplzddXfc0gYBsz09zA33EnTxlO07dlP/ZpBgnTJi45HCIFUkGZjS5Ybez7Azs4/pDbdEnesZZUOMmxr/33WN9/CoeGvc2//nfRP/pISpQpYa7ZMAigt1DB9dhOjB/Yxe6H74W1h3mjVK4DibF35AJB9zA13VuYbI+XvZ25wDRdG25k6Fb050thzzpmLkrSKWGBJUlJdOs6+I5pzdXIbxZmGyi6uHncbhJQWMkwc28nMQA8t24/Suusgta1jcSeLXTTnKqCzfjfXrXs3+9a8lZa6TXHHWlF1NW1c2/0XbG79XR668HkeGPg0Y3NHLs0AE+U5VylmL3Qx1rePqdNbKM3XVtfjiB7v4gEg59cz2ld+Y2SxpvLvF+X5WFOnN5fnYx2ntbeP+o5h52NJ0ipggSVJSVO+8l6cbGL82K7ynKuW6j7OPghZnGpi5MFrmTqzkbbePlq2HiPdMFt1Fxxh+V+NmW72rHkzN6x7L2uarq2IOVdXq61+K8/f9B/Y0fEH3HP+Yxwa+gozC0PVva2w/L0vjLUydmQ3E0d3sTjVVPkFhZ5aJR0A8oxuh/LMxUN7mDq3kdadh8rzsSajX6+im0KSVhMLLElKkvJ2jqkz0elPs0OPmHNVTRcXT3jbRN///Egng7+9halTW6Ij0tefrZr5WGEItelmtrS9lJt6Psimtt+hJlUfd6xECIIU65qfzUsb/xu7O/6Iu/s/xKnxH7NQmqq+ai+A4kw9kye3MnZoL3Mjnc65EgCLU02MH93J+JHdLIxXyAEgV6v8fS9ORPOxpk9vpq33AE2bTzofS5ISygJLkpIggLAYzbka69vL1NmN1bGd42pcPCL97EZmh9bQvPkEbXsq+4j0MIRUkGJdy3O4secD7O78Y+pr2uKOlUiZVCM7Ol/N+tbnc3Dwq9x7/qMMTN1FGIaVvyKrvC1s+twGRvv2MtO/4eE5V6peAZTma5g6vZXRvr3MDq6tzDlXVysIIQyYHVzL3GgHjae2Rm+O9Jxz5qIkJYwFliQlwNxQZ3Sc/Ynt1Tfn6mpdPCL9yG6m+yv3iPQQaK/fybPW/gXP6v5L2uq3xh1pVWio6eSGnveytf2l3H/+0+wf/AJjc8crczVWAJRgdmgNYwf3MnVqS3VuC9OjBRAW08wOrGW0bx/T5zY6/+ypXJyPdWoLsxfW0rz1OG27+6jrGIYUFlmSlAAWWJIUl+Ax2znGyitqvLC4YouTLQzff0N0RHrvgeiI9Lr5VX3BEYbQkOlkV+cbuKHnVnqab67qOVdXq71+Jy/a8r+zs/M13NN/J0eGv87s4mhlrMZ6xLy8sSO7mTiyi4WJKt8WpktzruZH2xg7tIeJ4zsoTjdaXF2uIKQ428DYwaj0uzgfq6Z5alU/p0hSJbDAkqSVFkBprpbJ01sY69v76DlXujrlLSDREenPLx+R/hCN686vuiPSQ6AmqGVz+8u4sec2trX/vnOunqEgSLGh5fmsbbyeXZ2v557+D3N6/IcUw4XVWwlefBw5tTV6HBnu8nFE0Rsj0w1MHt/O2KG9zI+1VfcBIFerfHstjLcydO9NTJXnYzVvPklqlb85IkmrmQWWJK2Ui8eWD3Rf2s4RLmR8V3wpPXILSPmI9LbePuraRxI/HysEUqRZ23QdN6y7ld6uN9KYWRt3rIqSSTfS2/V6NrY8nwNDX+G+8x9laPohQkqrp8h61OPINUyf2+DjiKJCc6GG6TObGD24l9mBdQ/PP/N+cfUuzse60M38aAeTp7bQvucADd2r780RSaoEFliStELmhjsZO9TL5PHtFGedc7WsgpDiTANjB/dGW0B2HYy2gDRNJ/KCIwRaajdzzdq3c133O+lo2BV3pIrWVNvDzes/yPb2l3Pf+U+y/8IXmFw4m+wSq7wtbG64PC/vmI8j4uH5ZxeiOVdTp7c452o5BCGlxRqmTm5jdqCHlm3HaL04H0uStGIssCRpmYXFFONHdzPy0LUeW76SHrEFZPjeZzN9ZhNdN95Fw7rzJKnFCkizveMPeN7Gf8/6lueSDjJxR6oanQ17+J0t/wc7O17Db8/9d46OfJtSOB93rMcrz8ubOLaD8cO7mR93Xp4iC+MtjB3uZeLYThYnmy2ullsQUpyrY7RvL1PnNtDeu5/WXQdJZRbjTiZJVcECS5KW2eTJbQze9RxKc3VeWMQhCAlLAdPn11P81fPpedEPqescTUiHFbCz87W8dPv/oLVuc9xhqlI6VcvmthezpvEafnTir3hg4DNAKe5Yl4TFNJOntjDWt4+ZC93OudIl0/09DN51C3NDa5xzFYOFsTYG734Oxbk6Oq+7jyBdjDuSJFW8VNwBJKliBbA408Dowb0ULa9iFwQl5kc7GTu0l7AU/2axMITOhr28cPP/y/IqARoya3juxn/P2sbrCBPyV7W0mGH4gRsY+EWWmfM9lhSKBDA/3srgXbcwO1iek+f9YuUFIeFiDaN91zB5cmvcaSSpKlhgSdIyCQKYG17D/EgnQTKW+yiEmf71FGca4k5CEKTZ2fk61jZdH3cUlXU27GZb+ysJgmS8PJo6tZnR/c96eKaRBBAGTB7fztzQGgLvF/EKQkpzdYwf3VV+oyruQJJU2ZLxCk2SKlRxpqF88Rl3El1UWqhlcbop9p9JJlXP+ubnEcQdRI/S3Xwz6VT8c8hKizWMH91NaT5jeaWHBVCcq2PmQnlFnuIXhMwNd0WHKkiSlpUFliQtozB07VXihAFhGP/TXxCkqE03xx1Dj1GfbiNIwMujxekm5sfa4o6hBAqLaYqz9XHH0COUFmoSsTVdkipd/K/QJEmqWl7wJE20fTDmn0t5lU1Y9GWankAYEPt9VI/mj0OSVoSvjCRJkpLGkkKSJOlRLLAkSZIkSZKUaBZYkiRJkiRJSjQLLEnS5fHEK0mSJEkxqYk7gCQpwcIAUiVqGmZI1S5QnKmnOFcXfTzwfEVJT+Ni8e3jhR7rEaf0BuB9RJL0tCywJEmPFwYENYs0rOunZdtR6jqHSdUUKc5lmDm/nonj25kb6XRVlggJGZk5TCpI0V6/AweP65IwIFU3R03DNAuTLYSLNZYUioQB6YYZahqnAFicaqY4W+/9Q5L0lCywJEkPK6+squscom3PAZq3HCNdP08AhEAtUL9mkOatxxk/vJvxI7tYnGqO/qwXHlVnemGAhy58gXv7P04qqOGGnvexd82f0ZhZE3c0xam8crNhXT/tex+ifs0gkye3MHZwH/Njba7grGblN0eaNp6irbeP+jUDEAbMXOhh7OAeps9tsOiUJD0pCyxJUiQMqGmepGX7Edp2HSLTMl7+OJe2eVz8b6Zlgs4b7qFp4ylG+65h6vQmSvN1XnRUiYXiFMdHv8fd/XdwZvzHLIZzAPzoeI4jI9/m2T0fZEv7S8mkGuKOqhhk2kZp23WIlu1HqGmaBqB9734a159j7OAeJo7voDjT4ONFNSmXmvVrLtDWe4DmzSdJ1c1felJp2nSK+jUDTJ7cytjBvdEK31LK+4gk6VEssCSp2oUBqdr56B3xPftpWHsBUo9orZ7wz0AQlKjvvkB3R4HpM5sYPXANs4NrCYtpLzoqVCksMjB1L/f0f4hDw19ndmGYIHh402AxnOX4yD9zfvI39Ha9gRt7bmNt43UEgWfGVLwwIFU3S8u2Y7Tt7qOuc5hLSzfLattHWXPzr2nadIrRA/uYPrfR1TZVISDTMkHrzkO07DhMpmUyul888sceQrp+jrbdB2nsOcf4kd7yCt8m7x+SpEsssCSpWl3c5tN9nrY9+2nadJpUZuHxFxZP+TkgVbNI87bj1Hf3M3F0F+OHe5kfd5tQpRmfO8mDA5/n/oFPMD53jBAInmDcVRDAzOIg953/GCfHfsB13e/lmrV/Tkvdxri/BS2HMCBIF2lYf5b2Pftp7DlHUFN84seREIJUicYNZ6nrHGTy5LZotc1wl48Xlag8A61580na9uynvnPoqd8cKX880zpB5w13l1f47mXq9BZK87XePyRJFliSVK0yrWO07TpIy46j1DRNXVlx9Vgh1DTO0nHNAzRuOMPYwb1MntzmNqEKMLc4xpGRf+Se/v+b/snfUAwXCHjqUe0Xf21k9jCFU/8bR0e/xU09/4YdHa+iNt0S97ekJVTbOUR7bx/NW46Tbpi9vMeRENJ187T1Rqttxg7vZuLoLhanm+L+drQUwoAgvRi9ObJ3P03rzxJkFi//OebSCt8ButuHmd58ktG+a5i9kOAVvgmMJEmVyAJLkqpJ+R3xlq3HaOs98ITbfK7+cwMB1HWOsPaWX9K8+WS0TajfobyrUSkscnbiF9x97kMcHfkm88WpR20XvBwBUArnOT32EwYm72ZX5+u5qed21rc8122Fq1kYkG6cpnX7EVp391HbOn51jyNhtNqm68a7adp0mrED1zB1ejOlhYyPF6tReRVdbccIbbv7aNl2hHTD3NW/ORJCKnNxhe8AE0d3MHZ4DwvjrYlbsZdKlwgSlEeSKpUFliRVkfq1F+i87h4a158jqLmCd8SvxMVtQhvPUNc1yOTJ7Yw+dE20rVCrwsjMIe4f+AwPXfgcE/OnoxVXV9JcPUYQwEJpkv2Dn+f0+I951tp3cO26v6C9fmfc36quRBiQyizQuOE0bXujeXlBuviMV28GQUhD9wB17aNMndnEaN9e5ga7CYsO8V41woCaximatx2jbfdBattGyx9/qj8DpcUMQc0iwdNsLaxpmH54he+hPUye2J6cFb5hQG3baDSUXpK0rCywJKkahEG0HeN5P6euc2h5iqvHfc2LQ3kPUNs2zMAvssyPdiTjgkNPaGZxhIODX+He/o8wMH33xUV1S2p8/iS/OPP/5tjoP3Fjz230dv0xdTWWm4l28QS5rkHa9uynecsJUrVXOC/vab8GpDLztGw/SkN3P+NHdzN+qJeFyebErbbRI4QBQWaBpg2nadtzgIbufoL0U5RR5QeUhclmxo/sZG5oDZnWcdp2HqK2ffSpV/JdXOH7nF/RvOkUo337mD4X/wrfIF2iacsJahpm3EooScvMAkuSKl15u0/X9Xc/XF6t2NeO/tOwboD2ax7gwq9eEM0wUaIUS/OcHPshd/ffwcmx77FQmn7aOVdXK/qcIf2Tv+b7xz7IkZFvclPPbWxqezHpIBP3TaHHCqMT5Fp2HKZ15yEyzZPljy/X14Oapmk6n3UfjRtOM9YXzdMrzdfGfUvoscKATPMEndffQ/PWE6Rq55+61AygNFfL5KktjPbtY264i7CYJkiVmD6zmdbdB2nZdoSaxpmnXI318ArfC0wc38Hw/TdGq7Fi+P4JQpo2H6d1xyFsryRp+VlgSVIVaFzXT0PPuVhfXzdtOMt4xwgzF9Y6KyRBQkrcP/AZfnbqPzO1cH7ZiqvHCgJYLE1xaPhrnJv4Odkt/wfXrXsnwYp8dV2WMKC2fZS1t/ySxvVnlm5e3tN+XSAIqe8aou65v6B+zSBDd99McbbelVgJEqRKtPX20brrUPSBpyiuwmKKmQvrGDuwj6mzGwnLc86CVAmA+dF2hu66manTm2jf8xCNG86Sujj4/YmEkK6fp733IMWZRobvv2Flv/mLc+B2HKJ97/6HZ31JkpaVBZYkVbpUifq1Fy5dKMQihJqGKTJNE8wMdHsRmiBzi+M8OPApJufPk4qhOwqA8flzPHThr9mz5k+o85TCRGnoOUfjhjMrs+34sUII0kVadxxm/MguFmfrrTcTJKhZpH7duScvNssfnx9rY+zQHiaO7nx4btVjnwOCkLCUYubcBuaGumjecpK2Pfup7xyCJ5uPFUbb9+rXXCBVu0BpfgVWcJZPWGzccJb2fQ/S0H2eIF2yvJKkFWKBJUkVLgBStXMrt3riyaQgqF1w9VXCFMMFimG8w4ej0woXCMPFuG8OPUaQLsYd4VErdZQgQUgqvfCkv1ycqWfixHbGDu6J5h+W/8zTfc7SQi3jR3Yxc76H1p2HaNl5iEzT1BP//hCCmiJBqghh7bK/OVLbMUz7nv00bz1Bun42nmJXkqqYBZYkacU8k5PstDyCR/xbSi7vo6tJcbaOgV++gKnTW6K5h1dRLC1MtDB0341Mn9vAmlt+SX3XCs9wvCgMSNfP0rz9KO29B6ITFuN+Q0iSqpQFliRJkqSlEUSnDE73r7/q8ir6PCGEAbNDa5gfa48KrJUUBgTpIg09/bTvfYDGnn6CmqKrriQpRhZYkiRJkpZQKlpxuxRb+oIwhtW7AZm2Mdp7D9Cy/SjphhmLK0lKAAssSZIkSQoDUnVzNG85QfveB6nrGC2vBIs7mCQJLLAkSZIkVbPydsH6tRdo3/sgTRvPENQsuupKkhLGAkuSJElS9QmjvYk1LRO07T5I686D1DS6XVCSksoCS5IkSVJ1CQNStfM0bTpJ+96HoiHxKbcLSlKSWWBJkiRJqg5hAKkS9WsGo+2Cm0+SyrhdUJJWAwssSZIkSZUvDKhpmqJ15yFad/WRaZ4qfzzuYJKky2GBJUmSJKlyhQFBZoGmjaej7YJrBwjcLihJq44FliRJkqQlFYZBtF0veIYtUXnQ+lX/2SCkrmuI9j0P0bz1OKnaBbcLStIqZYElSZIkaWmEkK6dpbZljNn5tc/wkwVkmifItIw9+e8IwicuycKAdMM0rTuO0La7j0zr+KV8kqTVyQJLkiRJ0pLJtE6w7kU/ZuzQHiaO7qI403BlK7HKJwQ2bzlB+56HqOscesLiKQRqmiZI18+yONVMQIkQSKWLNG44S/veB2hY10+QdrugJFUCCyxJkiRJS6q2bZw1N91F88bTjPbtY/rsRkoLmacussKAIF2kvvs87Xv307j+LKnMwpOXTyFkmiZp3/sQYwf2UVqoJV0/Q8uOw7RsPU66YdbtgpJUQSywJEmSJC2tEIJUkYb156jrHGTy1FbG+vYxO9wFpdSji6zyrKratlFaew/Ssu0wNY2XWT4F0LbzIE3rT1OcayDdMEVNwywEl/FnJUmrigWWJElVLwlXeUnIoCeSjB4g/gR6jDCgOF9/Gb8PUrULtO48TMO6fsaP7Gb8yC4WJ1su/ZZ0wwzNW4/R3ttHbftoVG5dyY88gJrmaWqapx/+c95lJKniWGBJklTFMukmWmo308/dseZord1CTaox7ptDj1GcbqC0mCaoKcZTCARQnGmgOFfHMziLTsugtJhh+sxmGtadJ0hdXuGUaZmk6/p7aNp4mtG+vcwO9FDbPkzbngM09pwjSJeufsufhZUkVTwLLEmSqlgm1cgLNv9nAI6P/guLpVmCFWoKwhAy6Qa2t/8Bz9v0H6lJ1cV9c+iRgpCpM5sZuvdG2vb0kWmejD6+EkVBednX3FAXww9cx/xY+5UNAdfyC2H8yG6CmgXadh2m5nLuHyEQhNSvvcC6jmFKxRpSqSJBZtFZVZKkp2WBJUlSletpvplX7foUB4e+xr3nP8qFqXsoUVy2FS8hkCLNuuabubHn/ezuej31NR1x3wx6AqWFDCMPXcfM+Q209R6gefMJUnXzy140LE42MX50F+NHdrEw0YbNRjIV5+oYuf9Gps9uoq23j6bNJ0nXzT39jyuEIF0knS5e+v+SJD0dCyxJkkRDposbet7LlraXcv/AJ3nwwmeZnDsLAUtWZIXlf7XWbeZZ3e/guu530Va/Le5vXU8nDJi9sJa50Q6mTm+ife9+6teeJ0hf4ZyipxNAaaGGqVNbGO3bx+zg2scP+1bihGHA7IVu5kY6aTy5hfY9B2h45HZASZKWiAWWJEm6pKNhJ9kt/4UdHa/m7nMf5tjot5krjj/jEisMoa6mnZ0dr+Wm9R+gp/kWUoEvQ1aNICRcTDN5YjuzF7pp2X6U1t0HqW0dW4LPDWEpxezAWsb69jF1ZhOl+dqouLK8Wh2CkLCYZurUVmYHu2necpy23X3UdYzAZc7HkiTp6fjKUZIkPUo6yLCp9UV0N93A4eFvcve5D9E/9WtKpcUrno8VhpBOZVjf8jxuWv9v2NHxamrTzXF/i7paQcjidBMjD13L1NmNtPUeoGXbUdL1V7GtsDznamG8mbHDe5g4upPFqWaLq9UsCCnONDB2cC/T5zbSuvMQrTsOUdM0HXcySVIFsMCSJElPqDbdwjVr38rm1hfzwMDneGDgU4zOHQGeflthWP49HQ29XNf9Hp7V/ec0126I+1vSUiiXS/MjnQz+9rlMnd5C+96HolPkLve0wiCanzR5citjfXuZG+mCUmBxVQnKP8OF8VaG7r2JqdObaevdT/PmUysyP02SVLkssCRJ0lNqqdvE8zf9e7Z3vJJ7+j/M4eF/YGZh+ElXY4UhNGbWsLvrjdzQ8wG6G68jCFJxfxtaauVtY9NnNjE3tIbmrcdp691PXfvok28bCyBcTDMz0M3ogWcxfW4D4WKNq64qURCW56d1MzfaweSps9F8rO7+yy86JUl6BAssSZL0tIIgRU/zzfz+jjvY2flH3H3u/+b0+E8oluYvFVlhCDWpOja1vYRnr/+3bG1/GTWpurija7kFIcXZesYO7mH63HradvfRsuMoNY3TD5cU5e2C8yMdjB3qZeL4DoozDRZX1SAICRdrmDq5ldmBdTRvPUZbbx91HcOX7heSJF0OCyxJknTZalL17O58HRuan8/+wb/l/vMfZ2jmQQDWNl3HDetuZc+aP6UxszbuqFpJl7aNtTF0z81MndlC254Hadp4llRmgcXpBiaOb2f80B7mx9of9WdUJYKQ4lxdeT7WBlp3HqZ1x2FqmqbiTiZJWiUssCRJ0hVrql3Hczb8T2xrfzkPDHyKgBquW/dOOhv2xB1NcQpCwlKKmf4e5oY7ad58gvq1F5g8uYXp/g1QSllcKSo6L83HOkDzlhOkahdcjSVJekoWWJIk6aqtabyG39n6/yEAUkEm7jhKiiCktJBh/OguJk5sd86VHu0R87HmRzuYPLWV9j37aeg+73wsSdKTssCSJEnPSNriSk8hLKYtrvTEgpDSxflYF7qjgwB291HXPvLkBwFIkqqWBZYkSZKk+AQhxZkGxvr2Mn12I627+mjdfpSa5vJ8LIssSRIWWJIkSZLidukggFaG77mZqVNbaNvTR/Omk6Tq5i2xJEkWWJKkFeQFiCTpqQQhYRgwe2Edc6OdTJ3cStveh6L5WOmSzyOSVMUssCSp0gUhqZqFuFNEUWoWIYg7RXKElOKOoMcolhbwCllKgCAkXKxh8uRWZi6sfcR8rFHnY0lSlbLAkqQKl6qdI9M8HncMAOo6hglSRcJSKu4osSuGC0zNnYs7hh5jfO4kpXAx7hjl7VReoSdPAn4mqRJBOgH30ZUShBRnGhnr21eej3WI1h1HqGmaSsSPQ5K0cryCkKQK17z5FJnWyUS80G9cf4a6ziEIXYa1WJrj9MSPKIbzcUdR2XxxkhNj3ymvwopRCOm62Wi7lBIjyCyQysRcHIWQrp2ntm0k7ptjZV2aj9XG8D3P5tyPf4/xIzspzde6qleSqogFliRVqjCgobuf9mvuJ5VJwBbCEGoap+m8/l4yLROWWIQcG/1nTo39MO4gItrOeWDwS5wc+0EiLogzjVNR2atkCANqmyeobRknjPnNgKBmkebNJ0nXz1bf4+jF+VgD3Vz45Qvp/9mLmD67gbCYTsTfW0nS8rLAkqRKEwYEqRLNW47T/dyfU9s2nojVVxc1bTzN2lt+QV3X4KW81SgAJufP8pMT/yunxn5MGLraJi6lcJGDg1/l56f+C3PF8URcBweZIm29B0g3zlTt35FECUKatx4n05KAx9MQGjecoa13fzRXsBrvH0FIabGGqZPb6P/p73Lht7cwN9JR/rW4w0mSlks67gCStNxe8W6eA7xmpb9uEMDs0BqmTm8hWKkX1EFIXdcQndffQ8e1D5BpScbWwceqbR2ncf1ZUpkFFqeaKC3UrdQNRCqzQPO242SapuK+GQiAqYWznBz7PrPFMVrrtlJf0xF3rKoyMnOY35z9b/zyzH9lcuFcoq59M03TpDMLzA6tJVzIeGEehzAgSJdo3XGEzmclZDUrEAQh9V2DpBtmWZxupjhbH3ekmG4ICBdrmBtay3T/esLFGjJNU6Rqk/FzWkHHgL/+7qeS+IwvSUvHAktSxav4AisMgICa5kna9+5nzU130bjhHKmaxUSWVxel6+dpXHeO+u4BCAMWploIF2uW+SI9WQXWRXPFcc6O/4Qz4z8lCNK01W+nJtUQd6yKNrMwxIMX/pofn/grDg1/lfnSVOL6oSAIqesYprZ1nMXpRhZnGiFMWWSthDCAAGrbx+i87l46rnmAdMNs3KkeJUiXqF8zSGPPOVLpIguTLYQL1TsTqjTbwPT59cwOdhOkSmSaJwlqqmZlqwWWpKrgKYSStJqFAen6WZo2n6Stdz91nSMEqVKii6uHswMB1K8dpLb9FzRtOclY315mzveUi6zV8E0sjYBoBlP/5G8ZOvY/cXj4G9zY8362tP0eNakqXVmxTBaK05wc+wF393+Y0+M/YqE0TVQBJ9PF7cD1XRcYP7aT8SO7WRhvjTtWZQsDahqnad52lLbdfdS2jZU/HnewJ1bbPkbXTXfRtPkUo317mT6zqTzcPKGBl0sQQhgwO7CO+ZFOpk5tpa13Pw3d56Miq8puDkmqRBZYkrQahQFBzSIN6/pp33OAxvVnCGqK0Qv01fYiPYRUeShxw9oBJk9sYezgPuZGO6CUqqqLsCCAxdIUR4a/wdmJn9Hb9SZu7Hk/axuvJQhcNP1MlMIiA1P3cm//nRwa/iozC8MEQXKLq8eqaZ6i89r7aNpwmrHDe5g8vj3aNlZFfz+WXRiQyszTuPEM7Xv2U792IDoJMuk3cQhBqkjDun7qOgaZOrOZsYP7mL2wtjzcPOnfwBIrz8eaPLGNmYF1tGw9RltvH7Vto5AKk//zlCQ9KV8NS6p4FbWFsLytpW7NEJ3X3kvn9fdS1zVMUCEXKKnMIvVdQ+X5WEUWppopzdcBS9U0JHML4eNSBrBQmmZg6jccH/seC6VpWuu2UVfTFne0VWls7gR3n/sQPz35nzgx/n0WSzMrN5duidU0ztDYc466riFKC7UsTjVDyRPYnpEwgFRI/doBum68m45n3U9t2/iqfFwN0iXqOkZp3HCGdP1MNB9rrv7Sc0dVCSBcyDA7tIbp/uikwkzTZKXOx3ILoaSqYIElqeJVUoGVaZmkfe9DrLnxLho3nCVVU1zpb2tFpOvnaVjXT0P3AIQpFqebCBeXYoj16iiwoqSR2cVhzoz/iLPjPyMV1NFat8VthZdpdnGEA4Nf4scn/ooDQ3/DzOJworcLXq4gFVLbOkHj+rPUtoyzONNIcbbB+VhXKdM2Tsc1D7Lmxrtp6C6vulrlUpkFGtZeoGHdOYJ0iYWp5uqcj1X+fkuz9cwMrGdmcC2pVJFM01S0arlyWGBJqgpuIZSkpAsDUrVzNG89QdvuPuq7Bit/G0RYPmVr7QXqOoaZ3ryR0b69zJxfX3VbYgKgFC5yZuLnDEzfx+HhV3HT+g+ysTVLOsjEHS+RiqV5To3/hLv7P8SJ0X9hoTi9qrYLXpYQ0vWztO4+REPPWcaP9DJ+ZBeLky3Rr1fR35GrUp4f2Lz1KG29B6nrGL44jK6i1HWMsubZv6Fp80nG+vYxdWZT+UTLCvtGn04QEpYCZs/3cH64i6aNp+m89j7qOofiTiZJugIWWJKUVI+Yc9W2Z3900lRmcXXOubrq2wCCdJGmLSepXzvA5MltjB3aw9xIR/n0xepxcT7WweGvcnaiwJ41f8b1695NV+OzCCqrmrlqYVhicPoB7j3/cQ4O/R1TC+ejFVeVevOUHwcyLVN0XX8PTRtPMXZwL1Ontzgf68mEAUFmgcaec7Tv2U/Duv7VOz/wsr7f6CCAxp5+6juGmTq7ibG+vcwOVu98rHCxhsnj2wmLNax74U9I189W5s9ekiqQBZYkJU0YQBBS1zVE2+4+mrceI10/V7kXWJd1m0C6YZa23gM0rj/L+JFdjB/ZzeJUU/TrVXQRFgCTC/3cde6/c3z0O1zX/R72rX0rzbU9cUeL1eT8WR668EXuP/8JRmb7Lh5yWR1CIAipXztIXcfPmCqvtpk531OdJcUTCQNIlajrGqK9dz/NW06Sqquix9UQUnXztGw/SkN3PxPHdjJ2uDc60bL8nFNVgpCZgW4WZxqiAkuStCpYYElSkoQBNS0TtGw/QtvOQ2RaJsofjztYAlxcbdI6TucN99C06RRjfXuZPL2F0lxdVV2AXSxmhmb285OT/5EjI9/kxp4PsKPjD6hNt8Qdb0XNLY5zdOTb3NN/J+cmf0ExnK+IOVdXJYyGeDdviU70nDixnfFDvcyNdFZnSfEImZYJWnYcpnXnQTLNU5dur6pS/n5rmqbpeNYDNG08zdjBXiZObKc401hd948wIJVeJAhW/7wzSaomFliSlARhQKpujubNJ2jr7aO+6wKkqL4LrMsRQhCUovlY7SM0bTkRrTYZWEe4WFNVF2HRfKw5To39kIGpu9jR8Rpu7LmN9S3Prfj5WMXSPOcmfsnd/XdwbPQfmVucqLw5V1erPB+rfc/+aMXi4V1MHN3F4nRTVf39iB5XZ2nefJK2PQeo7xyq/PmBl3W7RP+q7RhhzXN+Hc3HOriPqbMbq2M+VhiQqp2ndfdBMs2T3h8kaRWxwJKkOIUBQbpIQ8852noP0LThTGXPY1lKIQQ1i9Fqk+7zTBzfzvihPVW52iQIYK44zv7BL3Jq/Edcs+ZtXLfu3XQ27I472rIYnu7jvoFPsv/CF5hcOFvZc66eodq2MbpuuoumTacvzccqzVd4SXHxcXXdOdr3RiWej6tP4OJ8rA3nqO8aZPL0FsYO7mN2cA2UUpV3HylvI63vPk/b7j5athwnSFfUSYSSVPEssCQpFgEEJeo6hmnrPUDzlpOkG2a8wLoaIaTr5mjfc3E+Vi8Tx3awONlceRdgT+FifzM5f4bfnM1zbPQfuX7d+9nT9SaaarvjjrckpubPc2Dwy9x//mMMzjxISOiKq6dTPtGzYd156jpGyvOx9jJ7obsy52MFIXUdI7Tu7qNl6zHSDbM+rj6dEFK1C7TuPELjun7Gj+1k/PBuFiZa4062dAKo6ximdechmrceo6ZxOu5EkqSrYIElScsoXTtPKl0kLKWiD5RPzqtpmqR155FoHkvLREUe3x6H2rZx1tz4W5o3nWDs4F4mT22lNF/7qIv0IFUknZmLO+qyie5KJS5M3c8Pj/87jgx/nZvWf5Bt7b9PTaoh7nhXZaE0zfGR73J3/4c4Pf5jiqV5twteqRBSmXlath27NMR7/FAv8+Ntq3/F4qXH1Slath+mdfchalvGfVy9UiHUNE/Ree19l060nDyxffWeaBlGDxKZpgladhylZcdhalvHvF9I0ipmgSVJyyQMoX7NAA0955g+uxHCgHT9LE0bT9G25wB1XUMEqZKrA5bSxdPYui9Q2zFC0+YTjB2M5mOVFjOk0os0bjgTlYYVfpsHAZTCeY6P/Qv9U79hd8fruaHnfaxrfg6pIB13vMtSChfpn/wN9/TfyZGRbzC7MBIVVzZXVy+EmoYZOq55kKYNZxg91BuVFNOrdIh3eZ5R06ZTtPXup37NIEHax9WrVr7N6jpHWPucX9G85SSjfXuZPrdhdc3HCgPSjdPRXMldB6nrHAGfbyVp1fMloKSKly9wK3BnXF9/YbyNmYFuSotpalvHaeg+T5Ap+iJ6JQRQnGlg5vw6FqfrSTfM0dhzruqOTb94V2ur28Y1a/+C67rfSVv9trhjPaXR2aPcP/AZHhr4HOPzJwBftCy5AMJiwMz5ntU3xLs856p+7QBte/bTtPEMqcyCj6tLLYDiXC1TpzYz1ncNs8NdyZ6PVS40Gzeepm13Hw3d/QTpqhjc/33gFbksHqsoqaK5AkuSllmmbYzatrFocRDRyqwqeDGdDCGk62do2Xb80bd/lblY/IzNHeeXp/8rx0b+kRt6bmV35xtoyHTGHe9RZhaGODj0Ne49/1EuTN1DiaLF1XIJIUiF5SHeQ+Uh3nuYHVyb3JKivN2xtn2U1l0Had1+mHSjc66WTRhthW/ddYSGnvNMHNnJ+NHdLEy0JGvraRgQ1BRpWNdP2+4+GtefIVW74P1CkiqMBZYkLbdHvPnr6+h4XCytqv32j0a/FOmf/A1Dxx7i8PDXubHng2xuezGZmOdjLZRmODX2Q+4+dwenxn/AQmkmOl0w7hutGoSQqp2ndefh8nysHYwf6Y1KiiQpbwtr2XqMtt191LaPOs9opYSQaZ6k87ryfKzDe5k8sS3++VhhQJAqUbdmkNbdfTRvOuWBKJJUwSywJEmqMkEAi6Vpjgx/i7MTP6e360+5sedW1jZdT7DClVFIyMDkvdx7/k4ODn2FmYUhB7THJYRMyySd191P08bTjB3cx8SJbZTm6uIvKTILNG04TdueA9E2bOdcrbzyjMG6NcOsbf9FNGOwb180H2uxZmXvI49Yidey4xCt249Q0zz9cE5JUkWywJIkqUoFAcwuDnHf+Y9wcuy7XNv9Lq5Z++e01m1Zka8/PneShwY+zwMXPsXo7JFLmRSjMPpXXdcwa2/55cMlRf/6WEqKIF2irusCbb37ad50ilTdvMVV3EII0iWaNp6hvmuQyVNbGTu4h7kVnI9V0zxJy7boZMG69tFLuSRJlc0CS5IkMTJzmMKp/40jw9/kxvW3s6vjtdTVtC7L15pbHOPw8De5p/8O+id/TSksWlwlTQhBepGmTaepXzPA5MntD5cUyz37qPz5M63jtO48SOvOI9Q0TV3KpYQIIV0/R9uugzT2nGX86C7Gj+xmcbLl0mqtpf16Aam6OZq3nKBtdx/1XYOQqooB7ZKkMgssSZJEEEAYFjk7+XMGj9zP4favc2PP+9nU+iLSqdol+RrF0jynx3/CPf0f4fjod5gvTkbbBS2vkiuEdN18NBi75yzjR3YzfnRnVFIsR4kVBqTrZ2jeeoK23Qeo6xixpEiy8s8l0zJJ13X3lree7mXq1Jalm48VBqQyCzSuP0Nbb1/5JN9FV+JJUhWywJIkSZcEwEJpkoPDf8eZiZ+wt+vNXN/zProa9hIEqav6nCElhqYPcG//x+gb+hJT8/0WV6tQpnWCrhvuioZ4H9rL5MmtlOZrl6ykCGoWaew5R9ue/TT2nCOoKVpSrBblFVf1awapa/8505uPM3rwGmb6e65+62kYEKSL1K8doK33AE0bT3uyoCRVOQssSZL0OAEwtdDPXf3/g+Nj3+W67nezb+1baK5df0WfZ3L+HPsHv8j95z/J8MwBQkKLq9UqBAKo775AbccITZtOMta3j5mBdYTF9FWXFKRC6joHaes9QPPW46Sdc7V6hRCkizRtPk392gtMntzG2MG9zI10Qukyt56GAaRK1HUO07rrIC1bj5FumPU+IUmywJIkSU8s6plChmYe4icn/wNHRr7BjT23s73jldSln3o+1lxxnGMj3+Ge/js4O/FziuE8AZ4uWBFCSNUs0rz1BPVrB5g8sY2xQ3uYH+24wk8UkGmZoGX7EVp3HiLTMnHp82uVCyFdN/fw1tOjuxk/spPFqRae7gecaR2jdccRWrYf8T4hSXoUCyxJkvSUAqAUznNq7Eecn7qLnR1/xE09t7G+5RZSQeZRv7cULnB24tfc038HR0a+yfziRLRdMO5vQksvhJrGGdr37qdxw1nGD+1h/NgOitONT73SJgxI1c7TtOU47b0O4650mdYJuq6/m6aNJxk7uJfJU1spzdURhg8/MARBiXTDDC1bj9K661B0sqD3CUnSY1hgSZKkyxIEsFCc4MDgFzg9/kN2dryere0vpSmzDgiZmj/PibEfcGTk60zMn4lWXNlcVbZywVDbNkbXTb+ladNJRvv2Mn120+PnY5VnGjWs66dtzwEa158h5TDuyndxPtbaQWrbf0Hz1uNMntzGwngLYSlNKjNPXdcwTZtOUN81RJAueZ+QJD0hCyxJknTFJubPcM/5O7jv/EeoSTUAsFiaoUQJcMVV1QkhSBVp6OmnrnOQqTObmTy5jbnhLkrzGYKaIrVtYzRvOk7z1pOkG2YsKapNeetp06bTNG08TWkxTVhMkcosEqTC6EHD+4Qk6SlYYEmSpCt2saAKKbFQmnrcx1WlQkhlFmnZfoymTacpzWcgTEEQkqpZIFU7f+n3qUqVf/apmiLUFB/3cUmSnowFliRJkpZWSFRYZRYe9TFJkqSrZYElSZKk5WFpJUmSlkgq7gCSJEmSJEnSU7HAkiRJkiRJUqJZYEmSJEmSJCnRLLAkSZIkSZKUaBZYkiRJkiRJSjQLLEmSJEmSJCWaBZYkSZIkSZISzQJLkiRJkiRJiWaBJUmSJEmSpESzwJIkSZIkSVKiWWBJkiRJkiQp0SywJEmSJEmSlGgWWJIkSZIkSUo0CyxJkiRJkiQlmgWWJEmSJEmSEs0CS5IkSZIkSYlmgSVJkiRJkqREs8CSJEmSJElSollgSZIkSZIkKdEssCRJkiRJkpRoFliSJEmSJElKNAssSZIkSZIkJZoFliRJkiRJkhLNAkuSJEmSJEmJZoElSZIkSZKkRLPAkiRJkiRJUqJZYEmSJEmSJCnRLLAkSZIkSZKUaBZYkiRJkiRJSjQLLEmSJEmSJCWaBZYkSZIkSZISzQJLkiRJkiRJiWaBJUmSJEmSpESzwJIkSZIkSVKiWWBJkiRJkiQp0SywJEmSJEmSlGgWWJIkSZIkSUo0CyxJkiRJkiQlmgWWJEmSJEmSEs0CS5IkSZIkSYlmgSVJkiRJkqREs8CSJEmSJElSollgSZIkSZIkKdEssCRJkiRJkpRoFliSJEmSJElKNAssSZIkSZIkJZoFliRJkiRJkhLNAkuSJEmSJEmJZoElSZIkSZKkRLPAkiRJkiRJUqJZYEmSJEmSJCnRLLAkSZIkSZKUaBZYkiRJkiRJSjQLLEmSJEmSJCWaBZYkSZIkSZISzQJLkiRJkiRJiWaBJUmSJEmSpESzwJIkSZIkSVKiWWBJkiRJkiQp0SywJEmSJEmSlGgWWJIkSZIkSUo0CyxJkiRJkiQlmgWWJEmSJEmSEs0CS5IkSZIkSYlmgSVJkiRJkqREs8CSJEmSJElSollgSZIkSZIkKdEssCRJkiRJkpRoFliSJEmSJElKNAssSZIkSZIkJZoFliRJkiRJkhLNAktSNViIO4AkSdIymYs7gCStBAssSdVgBpiPO4QkSdIyGAPCuENI0nKzwJJUDYaBybhDSJIkLYNzWGBJqgIWWJKqwSDRu5OSJEmVpAgcy2XjjiFJy88CS1I1OA0MxR1CkiRpiS0C++MOIUkrwQJLUjUYBE7EHUKSJGmJncbXOJKqhAWWpIqXy1IEfgOU4s4iSZK0hO4GBuIOIUkrwQJLUrX4JTAddwhJkqQlsgD8HJiIO4gkrQQLLEnVog94MO4QkiRJS+Qc8K+5rCcQSqoOFliSqsUA8CM8ZlqSJFWGAr45J6mKWGBJqgq5LIvAd4gGukuSJK1mk8CXgPm4g0jSSrHAklRNfln+R5IkaTX7V+DHuWzcMSRp5VhgSaomU8AXgJm4g0iSJF2lUeDTuSwjcQeRpJVkgSWpapTfpfw+8JO4s0iSJF2lbwL/EncISVppFliSqs0F4OPAeNxBJEmSrtBh4H/kskzFHUSSVpoFlqSqUl6F9R3g63gioSRJWj2mgf8B3BV3EEmKgwWWpKqTyzIB/HeidzElSZKSLgT+DvhcLksp7jCSFAcLLEnV6h4gD0zEHUSSJOlp/BT4r7ksY3EHkaS4WGBJqkrldy+/CHwWKMadR5Ik6Un0Af8xl+VQ3EEkKU4WWJKqVnkA6v9JdJqPJElS0pwE/gr4WdxBJCluFliSqlouyzngPwDfjzuLJEnSI5wD/hPwTedeSZIFliSRy3IA+LfAv8SdRZIkCThDtPLqi5ZXkhSxwJIkIJflIeCDRCf8zMedR5IkVa1DwP8M/I3llSQ9LIg7gCQlSb5AN/DvgPcBnXHnkSRJVeUu4K9yWb4XdxBJShpXYEnSI+SyDAD/BXgvUAAW484kSZIq3iLwLeDdYHklSU/EFViS9CTyBbYAbwbeBezBx0xJkrT0hoHPAP+/XJazcYeRpKTyYkySnkK+QArYB7yHqMxaH3cmSZJUEWaBfwXuAL6fyzIbdyBJSjILLEm6DPkCtcCLgNuBVwDNcWeSJEmrUhG4H7gT+Pvy+AJJ0tOwwJKkK5Av0Aq8DrgNuAVIx51JkiStGqeAzwOfymU5HHcYSVpNLLAk6SqU52O9HXgHsCvuPJIkKdFGgW8DHwZ+ncuyEHcgSVptLLAk6SrlCwTAjcD7gTcCXXFnkiRJibII/JRoztU/5rJMxx1IklYrCyxJeobyBRqBlxBtK3wp0BB3JkmSFLsHgU8Cf5vLci7uMJK02llgSdISyRdYA7yBaEXW9TgfS5KkanQe+Bvgk7ksD8QdRpIqhQWWJC2xfIEdwLuIZmRtiTuPJElaEVPAPxPNufppLst83IEkqZJYYEnSMsgXqCE6pfADwGuAjrgzSZKkZbEA/JaouPpWLstI3IEkqRJZYEnSMirPx3oV8EHgRUAm7kySJGnJHAE+A3w2l+VU3GEkqZJZYEnSCsgX6AHeDLwHeBY+/kqStJoNAn8P3Ancm8tSjDuQJFU6L6AkaQXlC+wjKrHeCvTEnUeSJF2ROeAHwB3A93JZ5uIOJEnVwgJLklZYvkAt8ELgNqLthS1xZ5IkSU8pBO4GPgZ8NZdlMO5AklRtLLAkKSb5Am1EA95vIxr47nwsSZKS5xTwOaI5V4fiDiNJ1coCS5Jili+wEXg78C5gd9x5JEkSAOPAN4hOF/yVc64kKV4WWJKUAPkCKeB64FbgDUB33JkkSapSc8DPiOZcfTeXZTzuQJIkCyxJSpTyfKyXArcDLwMa4s4kSVIVeQj4BPA3uSz9cYeRJD3MAkuSEihfoJNoJdatwLOBVNyZJEmqYOeALwMfB/bnspTiDiRJejQLLElKsHyBHcBflv/ZGnceSZIqzDTwT0Rzrn6Sy7IQdyBJ0hOzwJKkhMsXqAFuBt4PvA7oiDuTJEmrXAn4BXAn8I1clrG4A0mSnpoFliStEvkCTcDLieZjvQiojzuTJEmr0BHgU8AXcllOxB1GknR5LLAkaZXJF1gL/BnwPuDauPNIkrRKDAFfBT4K3J3LEsYdSJJ0+SywJGkVyhcIgD3Au4G3ABvjziRJUkJNAz8E7gB+mMsyHXcgSdKVs8CSpFWsPB/rhUTbCl8NNMedSZKkhCgB9xKtuPpKLstQ3IEkSVfPAkuSKkC+QAvwGuADwAuAmrgzSZIUoxPAF4BPA4dz2bjjSJKeKQssSaog+QKbgLcSbS3cjY/zkqTqMgZ8g+h0wV/mshTjDiRJWhpe2EhShckXSBENd38f8CdAd9yZJElaZovAj4EPA/+cyzIVdyBJ0tKywJKkCpUvUA+8mGg+1ktxPpYkqfKEwH7g48CXc1nOxh1IkrQ8LLAkqcLlC7QDf0w0H+tmIBV3JkmSlsB54G+IyquHnHMlSZXNAkuSqkS+wDbgHcDbgR1x55Ek6SpNAP8C3AH8PJdlNu5AkqTlZ4ElSVWkPB/rZqLVWK8HOuLOJEnSZVoEfg18BPhGLstY3IEkSSvHAkuSqlC+QAPwcuA24CVAXdyZJEl6CoeAzwKfy2U5FXcYSdLKs8CSpCqWL9ANvAm4lejkQudjSZKSZAj4CvAx4O5cljDuQJKkeFhgSVKVyxcA6AXeBbwN2Bh3JklS1ZsDvkc05+oHuSxzcQeSJMXLAkuSBEC+QC3wXKJthX8AtMedSZJUdYrAvcBHgb/PZbkQdyBJUjJYYEmSHiVfoBn4Q6Ii64VATdyZJElV4RTwOeDTuSxH4g4jSUoWCyxJ0hPKF9gAvJVoa+G+uPNIkirWCPAtotMFf5PLshB3IElS8lhgSZKeVHk+1nXAe4E/BdbFnUmSVDHmgZ8CHwb+OZdlKu5AkqTkssCSJD2t8nysFxNtK3wl0Bh3JknSqvYg8Engi7ks5+MOI0lKPgssSdJlyxfoBF4LfAB4NpCJO5MkaVU5B/wtUXn1YC4bdxxJ0mphgSVJumL5AluAvwTeCWyPO48kKfGmgX8k2i74k1yWxbgDSZJWFwssSdJVyReoAW4A3g+8HlgTdyZJUuIsAL8mGtD+rVyW0bgDSZJWJwssSdIzki9QD/w+8EHgd4H6uDNJkhLhCPAp4PO5LCfjDiNJWt0ssCRJSyJfYA3wJ0QnFt6IzzGSVK0uAF8DPgrcl8tSjDuQJGn18+JCkrSk8gV2E83GehuwOe48kqQVMwP8gGjO1Q9yWWbjDiRJqhwWWJKkJVeej/VcotMK/whojTuTJGlZ/Rb4GPCVXJbhuMNIkiqPBZYkadnkC7QArwRuB14A1MWdSZK0pE4CnwM+m8tyOO4wkqTKZYElSVp2+QI9wFuI5mPtizuPJOkZGwf+AbgT+GUuSynuQJKkymaBJUlaEfkCKaLy6r3AnwLr484kSbpic0ABuAP4bi7LRNyBJEnVwQJLkrSi8gUywO8QbSt8JdAUdyZJ0tMKgf3Ax4Ev5bKcizuQJKm6WGBJkmKRL9AKvA54P/A8IB13JknSEzoLfImovDqQyxLGHUiSVH0ssCRJscoX2AK8HXgHsCvuPJKkSyaBfwI+AhRyWebjDiRJql4WWJKk2JXnY90IvA94E9AVdyZJqmIl4BdExdXXnXMlSUoCCyxJUmLkCzQCLyGaj/USoDHuTJJUZQ4Bnwa+kMtyMu4wkiRdZIElSUqcfIEu4I1E87FuAFJxZ5KkCjcMfBn4GHB3Lht3HEmSHs0CS5KUSPkCADuBdwF/DmyNO5MkVaAZ4AfAHcAPc1lm4g4kSdITscCSJCVavkAaeC7wAeC1QHvcmSSpAhSBe4E7gb/PZRmMO5AkSU/FAkuStCqU52O9CrgNeDGQiTuTJK1SJ4DPA5/KZTkadxhJki6HBZYkaVXJF+gB3gy8B7gG52NJ0uUaBb5BtOrq17ksi3EHkiTpcllgSZJWnfJ8rH1EJdZbgZ64M0lSgi0CPwI+DPxzLst03IEkSbpSFliSpFUrX6AOeAFwO/AKoDXuTJKUICHwIPBx4O9yWc7FHUiSpKtlgSVJWvXyBVqJBrzfRjTwvSbuTJIUs37gi8Anc1keijuMJEnPlAWWJKli5AtsAt4OvAPojTuPJMVgAvgOcAfws1yW+bgDSZK0FCywJEkVJV8gAG4E3ge8EVgbdyZJWgELwK+J5lx9O5dlNO5AkiQtJQssSVJFyheoBV5KtK3w5UB93JkkaZkcAj4N/HUuy+m4w0iStBwssCRJFS1foAv4Y+BW4CYgHXcmSVoiF4CvAh8D7s1lKcUdSJKk5WKBJUmqCvkCO4C/JJqPtSXuPJL0DMwB3yXaLvh951xJkqqBBZYkqWrkC9QANwMfIDq1sDPuTJJ0BUrA3cCdwD/ksgzGHUiSpJVigSVJqjr5Ao3AK4Dbgd8B6uLOJElP4yTwWeBzuSyH4w4jSdJKs8CSJFWtfIG1wJ8B7wWuizuPJD2BUeAbRNsFf5vLshh3IEmS4mCBJUmqavkCAPuAdwFvATbGnUmSgFmgANwBfDeXZTLuQJIkxckCS5IkIF8gDWSB24DXAE1xZ5JUtR4APgH8TS7LQNxhJElKAgssSZIeIV+gDXg10aD35wG1cWeSVDXOAn8LfBLYn8sSxh1IkqSksMCSJOkJ5AtsAt4KvBvojTuPpIo2DXybaM7VT51zJUnS41lgSZL0JPIFUsC1wK3AG4F1cWeSVFEWgV8SFVffzmUZizuQJElJZYElSdLTyBeoA34XuB34faAx7kySVr3DRFsFv5jLcjLuMJIkJZ0FliRJlylfoB14A9GKrFvweVTSlRsEvgLcCdyfy1KKO5AkSauBL7wlSbpC+QI7gL8A3g7siDuPpFVhCvhX4A7gR7ksM3EHkiRpNbHAkiTpKuQLBMBzgPcTrcpqjzuTpEQKgbuIVlx9NZdlJO5AkiStRhZYkiQ9A/kCTcDLiOZjvRiojzuTpMQ4Dvw18NlcliNxh5EkaTWzwJIkaQnkC3QDbyKaj3UtkIo7k6TYjAH/QLTq6lfOuZIk6ZmzwJIkaYmUtxXuBt4NvIX/f3t39v1bXddx/CEzCiKKGg7hlJpmJaZpW0zNpYlDaOZQYoSiDNffv2LfCigiCoVzCzWH5ZSh7cCVoqUuFSsxRRxJEQSBA118sUyFDnDO7/Mbno+1zvV5rnNz9nqtvd9fHji6KcmGuh6fwBn48GpyzeigJEm2iwasJEn2sHmxP56IU3AsDhvdlGSvuglfwll452pyxeigJEm2mwasJEn2klvuYz3Xesh6MvYd3ZRkj7sCb8Ub8OXVNDonSZLtqQErSZK9bF7c3/qTwhPxSP3/m2wHV+FDOB0XryY/HR2UJMl21gN0kiQbZF48Bifhpbj36J4kd8guXIwz8d7V5Mejg5Ik2QkasJIk2UDz4iDrzwlPwzNwyOimJLvtUrwJ568m3xgdkyTJTtKAlSTJAPPicDwfp+Jo7De6Kcmt+gHeYX2k/XPduUqSZOM1YCVJMtC8+HWcgFfgoaN7kvwf1+Kj1neuLlxNrhsdlCTJTtWAlSTJYPNiXzwWr8FxOGJ0U7LD3Yh/sb5z9Z7V5Pujg5Ik2ekasJIk2STmxYF4pvVnhU/HAaObkh3o6zgPb1pNvjY6JkmSrDVgJUmyycyLe+NF1r9Y+DvYZ3RTsgNcib+zfuvqM6vJjaODkiTJ/2rASpJkk5oXD7e+j3U8HjC6J9mmbsCFOAMfWk1+MjooSZL8sgasJEk2sXmxPx5v/Vnhc3CP0U3JNnEzvoCz8fbV5Dujg5Ikya1rwEqSZAuYF4fiWTgNT8KBo5uSLewKnI9zVpMvjY5JkiT/vwasJEm2kHnxa/hzvBKPGt2TbDFX4wM4HRetJjeMDkqSJLunAStJki1mXtwFj8ar8GIcObop2eSuxz9b37n6wGryw9FBSZLk9mnASpJki5oX++Ep1vexjsXBo5uSTeirOAd/vZpcPjomSZLcMQ1YSZJscfPiHngeTsYTsN/opmQT+C7+Fq/HF1aTXaODkiTJHdeAlSTJNjEvjsJf4EQ8dHRPMsh1+Ij154IfX01+OjooSZLceQ1YSZJsI/NiX/y29dtYL8QRo5uSDXITLsHrcMFqcuXooCRJsuc0YCVJsg3Ni4PxNJyGp+Kuo5uSvejrOBfnrSb/PjomSZLseQ1YSZJsY/PinvgzvBpHj+5J9rAf4QKciU+vJjeNDkqSJHtHA1aSJDvAvHgYTsDLcdTonuROug7/iNPx0dXk6tFBSZJk72rASpJkh5gX++D3re9jHYe7j25Kbqeb8UW8AW9bTb47OihJkmyMBqwkSXaYeXEInoVTcAwOGN2U7IbL8Tacja+sJjePDkqSJBunAStJkh1qXhyJF+MkPErPBdmcrsb7re9c/dNqcsPooCRJsvF6UE2SZAebF3fBI61HrJfgfqObklvswkU4A+9fTa4aHZQkScZpwEqSJObFgXgSTrP+vPDQ0U3ZsW7GV/FGvHU1+cbooCRJMl4DVpIk+R/z4lD8ifV9rCdin9FN2VG+j3fg9fh8d66SJMnPNGAlSZJfMi8eiJfjBDx8dE+2vWvw9zgdn1hNrh0dlCRJNpcGrCRJ8ivNC3is9X2sF+Neo5uy7ezCZ/E6XLCaXDk6KEmSbE4NWEmS5DbNi4PwVJyKZ+Dg0U3ZFi7DeXjzavK10TFJkmRza8BKkiS7ZV4cgeNwMn4X+45uypb0Q7zb+q2rT68mu0YHJUmSza8BK0mS3C7z4sH4KxyPB43uyZZxA/7B+s7VR1aTn4wOSpIkW0cDVpIkud3mxX54nPWvFT4P9xzdlE3rJnwRZ+Fdq8m3RwclSZKtpwErSZLcYfPiYPyx9X2sP8T+o5uyqVyB83H2avKV0TFJkmTrasBKkiR32ry4r/UvFb4Kj9Ezxk53FT6IM/Cp1eSno4OSJMnW1sNlkiTZY+bFb1rfx3o5jhzdkw13Az5lPVy9fzW5anRQkiTZHhqwkiTJHjUv9seTrD8rPBaHjm7KhrgU5+BvVpPLR8ckSZLtpQErSZLsFfPiMOsB61Q8AQeMbspe8T28A2/Av64mN48OSpIk208DVpIk2avmxf1wvPWnhY8Y3ZM95jp8GKfjwu5cJUmSvakBK0mS7HXzYh/r4+4n4UW47+im3GG78FmcifesJj8YHZQkSba/BqwkSbJh5sUBeJr1Z4XPxEGjm3K7fB3n4s2ryddGxyRJkp2jAStJkmy4eXFPHIfX4Pewz+im3KYr8V7rt64uWU1uHB2UJEl2lgasJEkyzLx4iPV9rBPwoNE9+SXX4ZM4Ax9ZTa4ZHZQkSXamBqwkSTLUvNgXR+NkvACHj24K+DzOwttXk++NjkmSJDtbA1aSJNkU5sUheDpOwzE4eHTTDvUtnI9z8OXVNDonSZKkAStJkmwy8+IIvASvtv7lwp5XNsY1eB9Ox0XduUqSJJtJD4RJkmTTmRd3wcNxIl6GB45u2sZuwMXWd64+uJr8aHRQkiTJL2rASpIkm9Yt97H+AKfgeThkdNM2cyneiLesJt8cHZMkSXJrGrCSJMmmNy8OxbNxKibsN7ppi/su3oXX4wuryU2jg5IkSW5LA1aSJNky5sX98VK8Co/Qs8ztdQ0+Zv254IWryXWjg5IkSXZHD31JkmRLueU+1qOtj7y/BPcZ3bQF3IzP4ExcsJr81+igJEmS26MBK0mSbEnz4iA8GafhGbqPdWsuw7k4bzX5j9ExSZIkd0QDVpIk2dLmxWF4AU7G47HP6KZN4oe4wPqtq8905ypJkmxlDVhJkmRbmBdH4S/xCjx0dM9A1+GTeC0+tppcMzooSZLkzmrASpIk28Yt97Eeh9fgT3H46KYNdBO+iLPwztXkO6ODkiRJ9pQGrCRJsu3Mi4PxRzgVT8eBo5v2ssvxFpyNr64mN48OSpIk2ZMasJIkybY1L+6DF1q/kfUY7Du6aQ+7Ch+wvnN18Wpy/eigJEmSvaEBK0mSbHvz4mE4EcfjAaN79oBduAin432rydWjg5IkSfamBqwkSbIjzIv9rX+l8FQ8B/cY3XQHXWr9qeBbV5Nvjo5JkiTZCA1YSZJkR5kXd8OxOAVPxv6jm3bT9/F26yPtn+/OVZIk2UkasJIkyY40L47Ey/BKPGp0z234CT6K1+KTq8l1o4OSJEk2WgNWkiTZ0ebFb1mPWC/DfUf3/Jwb8Vm8Du9eTa4cHZQkSTJKA1aSJNnxbrmPdYz1faxn466Dky7DuXjzanLZ4JYkSZLhGrCSJEluMS8Ox3NxEo7G3TY44XJ80PrO1SWrya7R/yZJkiSbQQNWkiTJL5gX98Ez8Xw8BffCfnvpr7sWX8aH8V58ejW5fvS/QZIkyWbSgJUkSXIr5sXd8RDrEesYPAwPsB607uhz1LW4At/AJfg4Podv9cZVkiTJr9aAlSRJshvmxQE4Co+0HrV+Aw+2HrSOwGHWt7N+9nx1PX6MK/Ft/Cf+7ef+XNph9iRJkt3z32HdSBgq2ISkAAAAJXRFWHRkYXRlOmNyZWF0ZQAyMDE3LTA3LTEzVDE2OjI5OjE2KzAwOjAwzRkMcQAAACV0RVh0ZGF0ZTptb2RpZnkAMjAxNy0wNy0xM1QxNjoyOToxNiswMDowMLxEtM0AAAAZdEVYdFNvZnR3YXJlAEFkb2JlIEltYWdlUmVhZHlxyWU8AAAAAElFTkSuQmCC;" vertex="1" parent="11">
                    <mxGeometry x="58.19999999999999" y="184.8" width="92.59" height="50" as="geometry"/>
                </mxCell>
                <mxCell id="62" value="App Server" style="text;html=1;align=center;verticalAlign=middle;resizable=0;points=[];autosize=1;strokeColor=none;fillColor=none;" vertex="1" parent="11">
                    <mxGeometry x="65" y="154.8" width="80" height="30" as="geometry"/>
                </mxCell>
                <mxCell id="3" value="" style="image;aspect=fixed;html=1;points=[];align=center;fontSize=12;image=img/lib/azure2/databases/Azure_Database_PostgreSQL_Server.svg;" parent="11" vertex="1">
                    <mxGeometry x="87.80000000000001" y="282.2" width="33.38" height="44.5" as="geometry"/>
                </mxCell>
                <mxCell id="13" value="DB Server" style="text;html=1;align=center;verticalAlign=middle;resizable=0;points=[];autosize=1;strokeColor=none;fillColor=none;" parent="11" vertex="1">
                    <mxGeometry x="60" y="246.45" width="80" height="30" as="geometry"/>
                </mxCell>
                <mxCell id="38" value="Node Server" style="text;html=1;align=center;verticalAlign=middle;resizable=0;points=[];autosize=1;strokeColor=none;fillColor=none;" vertex="1" parent="11">
                    <mxGeometry x="60.78999999999999" y="337.82" width="90" height="30" as="geometry"/>
                </mxCell>
                <mxCell id="41" value="" style="shape=image;verticalLabelPosition=bottom;labelBackgroundColor=default;verticalAlign=top;aspect=fixed;imageAspect=0;image=data:image/png,iVBORw0KGgoAAAANSUhEUgAAAgAAAAIACAMAAADDpiTIAAADAFBMVEUAAADdSBTdSBTdSBTdSBTeSBTdSBTdSBTdSBTdSBToRhfeSBXeSBTdRxXdSBTdSBTdSBTdSBTdRBHdSBTdSBTbSSTiRRTYThTdSBTdSBTdShTeRxbeSBXdSBTeQxbcSRPdSRTcSBTdSBTeRxPdSRTdSRTeShDbSRLdSRTdSBTdSBTfShPcRxXcRxXcRhbeShXdSRTgRhfjRw7dSBTfSBjeSBTcRhHbSRLeRxPcSBTdSBTdSBTcRxTZTBPdRxTcSBXdRxTdRxbeRxPcSBTdSRPdSBXdSBXdSBPcSRXcRxTdRxTeRxPdSBTdSBTeSRTcRhfdSRXfShXdSBXcRxTdSRTeSBbbSBLdSBTdSRTfSBbdSBTeRxXdSBTdRxTdSBPeRxTdSBPcSRXdRxTdSRTeSBTdSBTgSxPeSBTeSBTdSBXbSRXbRxPdSBTeSBXdRxTdSBTcSBTcRxTdSBTeSBPcSRbeRxTdSBPdSBTcSBTeRxXeSRTeSBPeSBTcSRPdSBTeSRTdSRXcSBTdSRXdRxTdSBTcSBPcSRPcSBXdRhTcSBPdRxTeSRLdSBTeSBXcRxPeSBTdSRTeSBPcSRTdSBXdSBTdSRPeSRXdRxXdSBXfUBDdSBTdSBTdSRTdSBXcRxPdRxTdSRPeSBTdSBTdSBTdRxTdSBTdSBPbSBTdSRTdSBTdSBTdSBTdRRXeSRXdSBTdSBTcSBXdSBPeRxXbSRLdSBPcSBTfSRLdSBTgRxTcSRXdShfcSBPdSBTcSRXdSBPeRhLbRxTfShXdSBPeSBXdSBTdSBPdRxTdRBHcSBTcSRPdSRPeRxXdRxPdSBTfSRTdSBTcSBTdSBTdRxTdSBTdShTeRxTdSBTcRhLdSBXbSRbdSBTXQw3dSBXdSBTcSBXjVRzbRxLdSBPcSBTdSBTVQBXeSBPcSRTcRhTdSBTbSRjdRxXmTRrdSBTaSxffRhPdSBTdSBTdRxPVVQDdSBTeSRTZTRrhSw/dSBTdSBTdSRO/QADfQCD/VQDMMwD/gAD/AAAFkD1UAAABAHRSTlMA//79u5n8+e74C1XdiPvEgOIP6/MHGg3k9zQv7NAXXuGi3Daz2h8qzL7yN0gkOj5bIRLpILAsHGx12NWaG8F8llNrsZ6tSp9X1s9dpu1lFtMwhkGXLjmN6Ee8PdHIQ6jfk49wJ70pzk6VMU+noGjjm31ZXDtkUtvAeoKDt0KOdGJYuq/CX4VgTLiBRphjdoqJkoy5tKx7YZQQspx+h4S2kL/gckt/akClyaPmJVSkw241Vg55qTjUGUktUc1teEUyGKvGccVaHmdQaaGd3j/Xi/DvyyZz5x08I/ETrrXHCSvS5eoMkWYz2RVvCsoiKPT6RAb2TRQRqvV3BAgDBQIBu1CiKAAAJclJREFUeNrs3Yl3VOUZBvDnucNkIyskhISYkEU5jSgiICqa4lKVKlUUUOpStVqrglutB6nFY/XYU6sVOK5IQVRAFhFBxK0elbqhEIiAgAoESExCNkISss54jpBwA1nuvfPdmfnufL+/Yc438y7PO1AURVEURVEURXG6fSelTvq8+PzGxmkxMU+63e6nY+Y2Nq4ovvSik0/pA8WpWrff8NTc5fML90SyG7HXjMpbPeOuwZXNUJxi5HuNUx5LCKM5Sz97fc4HFV4oEovK/t3M+RH0Qe5O9/lDXoQin361MXHhFCM6s3i3egvk0XLHmZclULBhIx4+tQZK0Kvr7d5KmzT0aqyEErxafmqMc9Fe0e5aVSEEpV0PTI6gXzTMzlANgyCTVJu5g34UmZOxCkqQaNlW1Jd+l5KTkQwl8Ha/nMYAqbpwIpSAau7dS2Mg5TfWQQmUQTFjGXCRhw6oJlEgNN1XziBRsnA/FP9KLnuFQWRT0blQ/OeT+AgGmfDMM6D4x7jl1QxC2o+LoNhvUKaLwSruKij2GuoOYzCLGwLFPie5Yxnsev0ExR793NWUgPasmhnboaYsl5KIdav2oHC16ymRsWVNUAS6I4+Syb8IiijpLwVv5de1EadAEcGbkUYppcSrLVIBKnpRWoXZUHzTVFZFibnc+6D4YEI5JXfjJChW1fw3+Bt/PZuiVogtqvyQjjBQzQcsyZD621/PVaTKAdNKL6CDlC+DYsqBPXSUhjIoxrXerNFpVqsYiWGlt9KBSnZDMeT+pXSkxN5QDCgOp0NpRa1QetD8DR1sajqUbg09gY42UG0Mdiv7Gjpc1Z1QuvRVAx0vbAWULpTJuPhjXlELlE60zGSIeFSFiTsR5ajmf/fKVTFwnNMXM4REV0Dp4HKHl3/H2qrC5B28u4YhZtg4KO2GShX7IRlWuORv64pPO3/ON+UHaU3EyVCOqOxPmRRc/OdktGv+98y+tCJ3A5RfDBhGiZTcFYVjJD1SSAsODoYC4H2Zgj971zWhE55LEmhepFoZB7B5K+Xxm1J0YdVojaY1qH1hDE+gNGIXohsrq2habshnx/plURq5B8T/lhk7ASGtdAylUXUtejBoK00bdgtCWP1vKY2wSejRx1U07e6hCFnNcZTHWTDgDY2mZZUiRHlWUx4PeWHEPTRv7S6EphmUR+JwGJKcQPM+9SAUfUmJPAeDMmjBRoSg92TK/u/dB4M8hbRgHULOOGnOPpp6AIDnaUFsyB2V6yfVADC2HwxrTqMFiQMQUmo+o0x+hAkv0YroeoSSFyiVhTDhNVoyL5RKgQzKZTtMWOWiJU8gZAyQLABUAFPW0BLtA4SI+mjK5TGYsprW5IbI/wx45lEyS2DK07SoMAqh4F7K5mWY8iqtmoIQ8I5MHcDD5sKUM2nZJXC8ZIlWgNrMgCnraFnBF3C6ixkMUhIW56x2u2fFxC+IKXIvOfTjm+tT2KUimPI2rZvq9G5AbwZUdUnO1XfdsDkZnag7Y/A/Hx+R5eJxnoUps+iDt+FoIyMYKNW3PfnUhCb0KCr1+Vlx4dT7FqaMoA+qU+Fgnl8xIMLnP3dqM0zYtWjB76vY5mArzIimL0qcXAv+kQEwatbgKFjQ+gLbpMKEdI0+uR2OdVIi/W1U/CBYVcs2H8GES+kb1zY41b/oX1n3VsIHl7PNYphwiD4akwRnyqA/RU6+wQvfZPEI7RYYVhfJo9RcUOfyvvSfE///PXw2nW1ugmEP02fhzrwrfhn9pvwNDwSYyDaJ6TBo/1b6bq0T20Gv0U+0eYsghncg24yGQWdRhP/Bcfa/Qj/ZuwqixLNN7McwZHgiRcjtB6dZQL+5EqKUNrDNFUkwwPsPivE1HGZkA/3m4BcQ5Xa2c/v1Y6457XLE6/SjJRBlaArblaFHD7goylovnGSiRj/S3oIoT7CdthA9mJRCcT6Hg3gX06/yIMqu9WynlaFbj6RQoLuddFI8gzZz7WEHX0GUizQedWEzutQyTaOe6gceFbWH9nplyE8u6pW0QpSN1FnzDrpwy04KdvA7OMVHtFdmH2A8O1gBUVrjqONyj0Qn6jdGUrh74BCr0min3EcA4Ps06qW9CFHOHUi9yPF34BgVV2+iDaq3wxnm0E6jKvGLYnYwC8IsW8qObpt2fxKOqMn+z06Nx1DdIL36Atrosn04zPMt9SIrIMzuvjxW7JicKUXuc3IKI2mfMGdkxebSPmFb0C7bRb3VEOdPWQyIyXCAulzaJvHObi4zbIM4p9/KQHA54W7IRtomYQD0SiPsa6a23uxiAPwA6ZU20C6F76KjhexgJUTadjb9T5P/CVhAu6ytxzFabqPe+iSItOvxKvpdJiSXdA1tcmsyjnOqRr2HIVZd/A76WbXs7cBi2uTRmp6jpwXfQ7D0B/PZqVza5GlIzZNPe1xQg86kF1BvJsTLnn6Cix1FTx/SNJ722JQMmdXSHjk16NwK6lVvhh3qa+dcPPXGiIiItDF5f1jwWjoAeL6hPV6FzKbSFg8loQtN11HvUfiNZwltMbAJ8kqlLa6PQpeu1ai3AX7TNJu2uA/y+pp2OLsO3VhCvW89OF7z+19tuenTqaO2RhSQDRHD8uNmj268LzUKvtm/k3bYCWm9eJA22DMc3Xl3B/X+gg5a3ir7+opYdsoV/UPjhihYV1dCO7wPWZ1JGzR8bOpK28BdaLdsyzM72IPwvF9ne2FRxV7aoAiyuo7iaSvRg9Y11HsQh427chQN6n/73z2wZEM1xRvbDDmdTBtMQ4+uol5uOoBPXr2OpiTMXQYr1tEGp0FO91C8H7zo2WTqjcdbr4fTNNcFQ2CBm+LNh5SSEylcdB8YcG4idWKvp0XlK1tgVk05hdM2Q0bFFC481WhGW5D1X7bApIpNFG4GZPQZhVsBY2ryKUrhAZj0BoVbKuPBiC80ijbbC4MOUJzZm2HOaAq3CPLZQtH6psOwTylO9fQomLH/RIo2GvIpp2i9Ydx3VRRo/TaYMTGMgu2VbyI0VKNgy2GCN4cixcY3BXYR9gBk00jBhp0O40rnUbDFm2Fccz4FOwey+ZCCXQrjhvSncFXnwbirNIqV1gq5bKdgeV4Y9tdq2kCL98Kw5RRsMOTSSLEiK2FUy8u0SWYSjEovCPGseB7FioFR+5+hbeJKAzYK7y/X0ag+1RRqbx8Y1OdN2ijrOxjUejbFmgCZnMef27vv+Ciqf//j7/emh4TeO0gJ0nsRpCiCdAQbqKgo9t6+XvVe7/f3tXex94K9YEGKgBRp0pTeeyf0VFJ2fz68hMxsNpmZ3bM7Z3bO838eZIcXm9mdc87HpunN2VczrD7pBJP+oFgvwknuplA9CmHOll0Ms6a9YNJ/KFQLOIjvLgrVF+bUOMKwO1jdnvUwCU7aIfIrhdrlgyn5LRgBPYbDnA8p1B9wju62PATw9mdETD4FU6ZSqOfhHDdSpBFemHIJI+RCmDORIn0CxziVYcfWmMGMmE9hykYK1QlO0ZIiVcqDGT/WYsTEz4ApV7t0cfCnFKk7zKjcmBG0ahPM+F+XrgrZSoGOd5BvIAG5sAAm5FWiQFfBKdZToOtgxguMsO6RPyU5pjKcoTVFqgMTqq9mhCX9ChO2JLnxkXADCvQVzLiAETfoFEzoT4EegTM8T4GWwIT7aIOKMOEiNz4OGERxcn+GscodacC24WQFNSlOVWfsDylMojhDYMJLtMXXMCGVArWGE/wa6ScgRw2Ks3U42VwKNBNOsIjinJsvYBeQvcPJGlOcz+AEqRF+l+0SQ7vMjPDleB1OsC3CvwFep21G+GDoAMU5CCeoGdlVMDtjaJ85MOTbTWFikiG/DhH+4Ps9bfQhjA2gOE4YKb0ysith6yfQRp4JMDSQ4rwA+e2P7Fr4e2irOBjKjqcwqZDfkxRnP4zk3UVbZWTB0FcU5hfI70sK1BsGnqbNDsPQ5RTmCOT3Oy1K3PbXsHInT84c/EFOJfq73jA3m6VFdJvUHsjvG1rR8IO5XhRrPf4m6r2BsiQfp90mwMg8irMXssv30LztmV74q701hhqeBijDItrunoh+G9wFsjtG0z65DQHNvZoaJ6aidL/QdmkwNI7CZEJ2rWhWn2SUwjs+gcUa10Bp8hJpO88GGJlCYWZDdnfSnNyBKEPtSiw2AKW5nxJ4AUZmUJjLIbvPaMrQNihT12lmFkN+QAl8CSPVRf5lsnuFZqwaCQNbLuZZIwoQ2GRKYL0PRqpQlGcguy9pQtJKGNpQk2cNQ0CFGZRBaxj5naKsgewmCjvxpc0JFtl9CoHUphQWRfCJ5bWQXRqN9Ycpvxld49mUwkcw8ixFOReyu5aGNk+HnvEU0IUIZDmlcD6MPEFhqkFyVWloAUwaa7BBbCGlUCWSaySqQ275NHTFDpg1puxhYXUphywYuME9UySr09BvMO0xFpmFkg5REhthINs9s0Na00j5eTDNl8IzPNUFHERi28cAXwJFuQhyay5gHaXGf+lnAOvdRkmchpG7XHNY3K000g0WtCxrctoSSuKCcn97av/+/Xee/lvF1L/F/W1Zzt8mxsbGnp9Wi6IMhNxa0khzWJC3mWdsQwkV6UKDIbexNHDcBys+5hmVUMItdKEHILeTNDAryMMmYrzwN4Au9DnkdhENzA/20NnK8DeELrQAcptJA+/CkiUssgH+ttKFfoPcfqKBfbDkXhbZCX/b6ELvQW7laOCtYE8cWwt/79CFekNut9HAMljSjUXqw998ulB3yK2VwC8C9Z/1d8Df13Shw5DbKBpIgSW384xaKOFuutCdkNv9NBCfDiuu4hn1UMJ/04Ueh9xqi52D3SGmjNnhL1ISSYmJiVVZKlcNDbiURi6BBQ+W9fm3ASXxMs7Ym52dnXX0b78eOHCg9sm/ZZb72/79V1CU7yC3YzTS1AfzhpR1HNNzlES3CG4MuBlya09Dl8G0n3N5xvFqKGEnJXEbDOTFUJQrIbctNDQEpi1gkc4oKT+ecrgUBqZTmMsgN288jcR/C5Pyd5f9FLQxpRCfDwMjKcy3kFwVgQee/sYix98GIOvDgIciOTWgAyTXQ9zok8XHWaQnAnmVUugMI90oSrz0IwMW0thdWTDBG8uz5ho8erTVGzByvYtOibqAJmzzWloRzH8joMWUwpwIjjT6E7K7UNQsuAYeFompg8B2UwIx2TAygqJUgOz+EjQAa+YJE8OaX6cEborkEJ3OkN1pmnOLF2UZFs+zEqvjH5LuDHgVRrpQmOWQXTuaFFsfpar2FjV+AiDxTcAMcdfE2LOQ3f0065sHUYrag8yuIZpG2x3fASN/UZg3IbteNO/RkQig6/Mx1Jj2s8GltVl/GPq3ezYHA94kmudpclEe9M7pmUCtmotRhh9pu8Ew4l1FYTpBegdpyfq4gb1wRvZFf/1Jvc11UKamtFnGzzByKYU5kQfpTaRlm49MzMnZNrkjS6g71XDRqM1uh6GlFGYF5BdHcSo1h4G1HtrrooiOtboR8vuN4hyDoVja6iEvDFWiMO9CfgMpziQY+oO2mg1DOynOG5DfrxTnFRgquJY2Wr0XhtaRrjkgBgAKEyhMUxjrThu9hMj+ktoEB6gX2Re8twptU34xDCUnUZiq0i8HEb1lbwGMTaFtvoex7yjO1XCCFynO75D5LSBhE4zlUJw4OEEriuNpBmPraJNUGEs/TnG6wQmqU6B1MHbqIG2xp3KEfwOwLRyhCsX5CibcRlv0gwmvky5aEy7+cw93ApJ+HfhnHowdSqA4DeEMz5IRnpPWqSojLuYLmLCAAg2BMzxHgepWE3idI14mrqJA/eAMP8dToO9gQsF2RtjFO2BCS4p0KxyiHgX6GGZs2syIKn8OzPiSAm0ugEPcQpFqCzihUriKMKN6AkkXDY0s0o4iLYMpyxlB5xfCjA9cdUhosU4UKWE6zEi/iRGzIgtm7NhDka6BY9SkSKkwZcN6Rsi5XWBKN4pUfi8coxFFOn4IphzIZUTE3AxTqt1Fki7aF1rsXgp1Ccz5KZ6RcBrmLHXXMdFaHeIpUtVDMOcJD8PvephTeC2FOgAH2U6h3odJ3Rl2+3wwZzaFusIRq4GKvEehMhbDpN4Ms+t8MKdyFQrVCE5yDsX6Gmb18zCcevpgUirFuhdO4t1DoWJqw6xhMQyfj3wwaUMGhYrPgqN8T7HO98GsmccZJuWXwrRxJOm69aDF/peCPQHT5tZkWCSehGlz3DYryN/eXIq1pwNMq36EYdD0BphWrSkFWwuHmU/BesK8U/s8FG1bB/s+BZE3wWm+o2AxY2HBzNUUKnepD+btTHLbvMiS0qtSsMZ7YcEzFOmrtbAgbw0F8xyF49xO0UbDvD8oUPnUQlhxD0X7Cs7zB0XzXAmzdqygOGMuhSV1EijaOjhP/maKVvMQTKpIYQ7eDGuSzxOf/mI40DIK96EXphytRUESFxTCogEkSdcuBSg21r7h6e9QjI73bIFVg1nETeeDBuL7k8KV3wgTJlFr97B6DEqP/fmwrHlVCrc5GY60juJ90wuG8hv7//f5Yn4CLYppcbMX1mU3pXij4UyHEijemh0W1wTU8wLAlm5HaMGRT7siGAXP8B8uXguk9QvD4HYfytYsN/Cs4vbjP46nGfXe2CRgXIY4s+BUJxkO96BsW6n1GjSyb/uoXgzL0vSOwdMRtGEMh6VwKm8Kw8DzOMpyJbXKN4efGht/uPD3PSzh+E3fT5mUhVA8XZ5hkFsZjvUbw6H80+bPixmNwCrXaXXfgidTX4mLi0u9ZN2bN8/NQsha5jIcLoRzdTjOcMi9zGxzm4cjYo7tYTh4usDBXmFYJM5FKTbok5uCMKl2w5xy5cp91/ZYZZzRuibD4lE42dF4hsXQkaZO5Wu4A+LlTX3xtd0eFql5wT3XFALNGvIst24JDWQ+w6PKpQjkGuq0g2i+tstXsYTERotSGB6D4GwtGSZ75qKkwouptcYHsdLXXcsIaweHm8wwqXrScGfYWAh1av9uRtpdhXC4PxgutW6Gn+rnUmsrhLryExpSK0FK8F7McCn/OPSGUOvEtxAoewBtMPRnON5PDJ9ULzRWeqi1DwLVrkk7TIHz+eoxfLYm46y8q6i1egvE+S6XdqhSA1HgNobRrGYoMj58vz0f9tAWnyIa+NYwjOq2wv+Zt4paKdXCOBLfU6/nD5OmflvnwNP9+gyKZ7js3oGoMIPhFPOsN9DBVOUgTDfqXb2kOjSyHp/oYTHXzYcwYSHDKrY6gI0eai30QZS+Hmp4/t9IlHCsZ3mK17AaosRjDK+h36GgHrU8UyFK61XUmPUjAprwDIUbhqixjWF2xxTqjIMo+YNY7MTpPJTmgXMp1jQHTAo369gJRlRSe4jyEot1bIsyNE+hUHMQRa5nRP0FUZpr0l3RCWXKWkOBLkA0ya7CCKryNkRpwbNSNsBA9k0UJuFbRJWljKDZECWTZ62aAEPDKwl8E4suBbsYMT0KIUoFFvFcBBNq16IYHR28FDiwUYyYm8OxnOUtmHKaYjyAqDOfEbKnUxh+5obJMCVvFkU44pjxQObNS2SExDQ5B0LUqMUig2HSRgpQ3jHzwax4gZEz8aTY2UfneWHWGCEDEqKRrwUj6M9PsxCqziyyJKLD0w/mIyq1zmAkJY27xodQeDfzjHOTYZq3IUPk+QJR6jQjrOHll4XQQBcW+QUWvM8Q3Y1olXcTI67S9fcXhHzTsggWrGRovnkbUevWBNogsf+drWFZ+wZHWGQDLCjMZUhmIoqdpk1WLF8ytxAm+Zrf+f1dLLYblhxhKN5FNPN+TPvUuvq6B9rWR5myHpsdt3AV9VrAkgsZgoMOGg8ZjA2JtNnmtCHvj2938td5+cVZZh86Nuq+Fz+av/AKBnIHLHmEwTvxI6JcOcojIbFuSkpd4yQvhyXjXb4TxMAAOs77sOROBu1fjhoOGJwajek0FgOYzWAlboALnJNEh4mL0NFYnr5whSV0mK2w5BYG6SW4xIV0lothyYcMzo1RtA68bPlpdJTy1WBFRwal0iG4RrO6dJQvYEF7BiXpHLjINfF0kvdhQTfXbwQzYwqdpKkP5t3IYCyHu/ga0UlWwrRO8QzC5ChdBFS6aufTQXJg2uUMwsEtcJ0OPegcnjowafhmWlc3yvaBmbNpD53jNZjUh9ZltIEr/ZhL5/gJprSMp2WeRXCpvjF0jCvmwYQdf9K67nCt8XSOyYUw5BtC696Ci91D57jQF5aRxXe4YAlAGd6nc7zrC8OS162ueQIUmO8WOseX+ShDwV+0btspuJzXSUvErm6PUmVNpHUtouQs0FAU5NA5zl3iRWADO9K67VG+BtycwgvoIIOeQwBtxjAIadlQABSOo5MMevxn6OQvasFgLIy6c4CCVeCwNWJJ2xa0ScY/dhy4s/8qBmVMMpQzfNfRcarUS1uza3c8g/WO6x4Al6kiXWac48eBRcu+YXt87fLvfwKY7axlgqG53AfFX6tz6RLxs6EEUKcmXeF4JpSAetWjC3xTG0opajzKqDetGZRSnVrGKBervv4r2/4TjGZx6uO/kbHrGbWqDoRiqNfvjFJNf4ViQl4qo1KTKD4CVLB2TtoxYJIn1d2rP62pcx6jTM1roFiQv8/DaLLVhbs/Q/TcN4waGYehWDa8CaPEmrVQguDbHxX3gp59rl/7H7QJFeh4F2+EEsKbwGY62onUalBCMb0/HWzWXCihynTsOpHc01E4ANQGHZY76CAJjXcWQxHjwH/oOAcnQREn81o6SuJp9dlPrB2nq9IxYhoNhyLahiFOeTwQ2wVKOPya44QEtqtV3+HTUvrnA7vKqU0/YdXmRkpsmvrnD7850q4ZvHigWvQTEQcaxVM+Fcqp7/0iZtO+XEolpsllUCLp0OlvKI2qcWrJR+TtGLaGUjjYXZ32ZZPmqXVps6Sck+rG30b55WI9tM/Fp7Og2GzCSw1piz2jXTXqT2Y7K6YwwhIbZaqNvhLxbtz3DSNmVaNM9bRXOgVf/DWCEbCiz9Nqoaes6jfIWc0wqhV7+gAUqRWuTP3qBMMgZtcrM9KhOEH6xsM5dSlQboXUzA5QnMT769JG9RIYsvgevyw4R93wO1Te0cyKOed5GJzECnGHN6pD3Z0vu0273u+OSTlBk2Iqnb+s4hMr60OJKgXNVi6aXfG6If8eVCmXJdSqeVWLnD6PjB98srX6jO8C6dnZR49OOPC3nUePbslW05sURVEURVEURVEURVEURVEURVEE8G7KPL0MigsVHD15OK7CcZKE4i4T+vYeVy+J/1ABuBD/oQJwLRWAy6kAXE4F4HIqAJdTAbicCsDlVAAupwJwORWAy6kAXE4F4HIqgFLlwQ1UAAFNz6wYmws3UAH4y9u5v9F57rkWKgC9j7YnuOtaqAD0XHctVAAqABWACsBlL1oFoAJQAagAVAAqABWACkAFoAJQAbjtRasAVAAqABWACkAFoAJQAagAVAAqALe9aBWACkAFoAJQAagAVAAqABWACkAFoAEtX9c2Py04nfryS8+eXjJ46hbIrtqWo3XazClXrly7/fv3l+t7cuWxHSqAYAOoduVLN66mztDtl0+qAflk1x74cFznCgc3s6Qrvvryhx8LVQAWA/A+3b8qAypf4fO3IY0tX3w++vy6NJIxZli2CsB8AAVLVrAMGY0ug+0KR775Uex6mpZwwRxnB0ANmONjMY+FADKn0ci2kcHEJerPTP387rQEWrawFYzRIvjxsJgP5lDDZ3cAe9/cThM846rbFwCDFdteBeCPfo7TpMR2zguAx3/wqgD0GLz+2Y4LgOyfrgLQYQgeusF5AbBeVxWAFkNR5X7nBcCHhqsANBiSWtc4LwAeSVYBCLuYVVs6LwA28akAhF3MoV2cFwD7qQDOoqHExASWIaWy8wI43loFYOIFr1j2+XOb8gGgoP7GB647yMDmSxJAlVmdn/9g/OAZbQ50Obp4+NG1lz34Q9yaUtodowIwesGDujeDn/a9dzOQfnYHkPPy0hnN0xHI3u/GnWAA16gAzmBAr/2IQAqfCJRARnubA0CZFr8VzxKu9gm6zlEZwCdfoDR7/4phCZ2lDgBo2YMlzFEBlBrA8soow5VVWMIMuQNAh8n094sKoJQAts9B2TqtoL8eBXIHgPQ19JO0RQXwD+p5RsHQhofob6DkAaDXFfTTTwUQMACY8O1q+qnnkzwAPEU/21QAQQeASTH085zsAfhmUS83XwUQdAB4nn6ayB4AXqCfkyqA4AN4ez31TmTJHkByVep9pgIIPgAsoZ9+sgeAC6jXWQUQQgCFDan3u/QB9KNeQxVACAHgU+p5pssewE76yVYBhBDAoRPUu0/2ALybqfejCiCEANCZegNkDwAtqPeTCiCUAO6jXiXpA+hDvdMqgFACqO+h3lHZA1hHvdEqgFACwCDqzZQ9gJnUe10FEFIAfaj3mewBjKVeCxVASAEMo15/2QPoQr16KoCQAqhNvaayB9CVepVUACEFUIN6CT7JA8ii3h4VQEgBYA/1DkkeQDb1VqkAQgtgO/XqSB7Az9TLUAGEFsBW6s2QPIBk6sWrAEILoCf1npI8gHz6UQGEFsAl1Ptc8gAKVQBiA3iDep9KHoBXBSA2gHXUe0PyAKACEBvAD9R7RAXgrgD6Ue8SFYC7Avgf6vVWAUQoAK8cAfSm3jqjC17gsgAKwhVAvhwBfEC9pUYXPNllAaSHK4C9cgQQR70njC54B5cF8LbAAHzU2CJHAE2odxv8eKjXy2UBzBMYQD41OskRwE3UuxV+Eqi3KfoD8FHjmMAAKlNjrhwBDKXeFvipSr2d0R+AlxptBQZQnxpzpAigK/Wqwl8i9Q5EfwB51PhOYACLqbFIigAuot558Leeem2jP4BCaswWGMAxajwsRQBvGK6y/pN65RwQQHkWS4Zlp6hxncAADlCjpxQBtKDei/A3mXqzHRBAhumbbeOb9YkCAxhLjRtlCCA5iXqjDLcPvu+AAFaxWCtYtoMalQQGcCU1qsgQQCb1YmrA37vUm++AAPbonm5Zlk6t6eICaEWtZhIEkEO9XSjhPertckAAK1hsFizzxlCjr7gATlKrr/0BdEgyfn9vR71aefIHsIbFPPNg2WZq/Le4AEZRq4/9Aayjn6kooSX9HJA/gGeocRiWVaLGQXEBbKRWiu0BpK+n3novSthCP7PlD+BLahyBZbuodUxYAN9SZ6fdASygnzgE8An1tsofwF/U2gSr5lPrPWEBpMdQ62WbA5i+mn6mmrlRzE2WPoB+1FoHqz6jVsMCUQHgYmrtLrQ3gNfpJ83cjcJA6QO4iFoVYNWD1MkUFsCF1HnT1gCeor+nEMhU+qkgfQDHqBXTGhY1o84Rn6gA2lGnaaGNAfxYi3725CMQb0f6aSN7AHm1qNUfVvWgzh+iAvA/k+lh+wJoXZP+1pl73yLXFEgeANZQ5wFYtI86n9QQFADqUadWF7sCWFuT/j6pZvJcJvJ/ZA/gXepk3A9rZlCvp6gAKlLv2uH2BNBmPUu4D6U41ZF+ys+RPIA3qZfYBZacqku9w4ICaE4/V/WyI4ClCSzhiNf0DmJyVVu5A9hAPzWbwZI+1Iv/QUwAmEY/d22MeACbJrKkjOYoVacY+stYJHUA6EE/TeehNAWTfoa/NvR3dw0hAfxAfzFvHYpoAPVfzqCe8Xvc9yzp9uoyB5BKf40vRUAbKlZiJkpIo7+a9xYICCB5KEvIvW4kSjFvZd9gAph0QyEC8t0/OoOBjPGiDO2TWFKtfc0RWFf7A7jBQ39JqVnwlz7ztXiSH6GEP1hSyvheKIV3p8kA8AgDafpKu7WnUCzr2Ni+h1+9/fcE0mwAehktHp7T1a+CZotu+YSBNT6EMn3EgAa9n9nVh7P2tm7z4Lq3tqV47A8Ak1lS0tbx5+ThjLwNM6Y0yeA/RqAE3y4GELP9kpmd8nBWwbwuowY/PPq185JoNoDKNVkKz+60hbGxk9NGpFwRTw1LAeh1HDEmJ2dZXNzlcV++MyKXpRp6A8r2dkOWJqlpWovY2CNpDzXMoIbdAdzMwJLWn1chtkXaVes9BmsGRnlYivhKaZNjYyuknZdShRomA0AmTRAQgAVJbWHksRgakykAbKcFi1DSWwyaDxbuqOwPoOocGLuc/iQPYKWH5i1HSXsbU0tcADv0bdoewNDLYELBVurJHgBuoXkNEcCEodQQFwDmXUsNuwNIOQZT0q+mlvwBJDelea0RQNskaogLAGs1BdgdQE5lmJT1O4s5IABMqEvTliCQzFxqiAsA1a+iho0B1FoK8/J/4RnOCABtMmhWDgKaWoUa4gJA5c7UsC2A19bCCl/vBJKkUwLAZVfQpCpeBPTtLAoLQO+pVbYH0GMGrLo0jcGAXZoNokm3IrDCz06EJwAsvqM8rfnzbpTiIVq3q0EhrMvrVpMWxYzoCdsUTsmgCf8aeAqlqfMarWm8HOas/dp0AieOXP/gcJSq4LHeTarQgpjYVj4EJ79bJZqW+MxnV1aGrY4uT2DZHrqkOcp0zjYPTfozrl0vmDe82+8eGoifNqBfy2owVv3k4Z4LV9NYzH9mV0cICq5ZvpqGOj76ZN/2kEH1JxuzVAefHAljzaaMoJFVH7/6xyFY1qxB3DQPA0po2uTVJWP3wpKuzy14vsVulqb8mn33TkfIqo3qva20COIbjhn96aRekEmd9z7cQ3+elHH7N8GsY8PuaMrA6m4fMKXvJh+CVuPSmw9f3zOnc+zHsbGxnXOWXffBiy88PbI+gldj58kGv+0b0D82rWlKyjeJibtTZm3fNvrFcrXTIYy368bBvfssy3n0nx97fs7yj/6r+wtPz51eADk1e+7Nz3rmbI39142x/Ydc3/2+lnthVfatMxfsezfngn9e8dacC6+vuKDBqBvSoSiKoiiKoiiKoiiKoiiK2/1/ihgYqDzzJcoAAAAASUVORK5CYII=;" vertex="1" parent="11">
                    <mxGeometry x="70.78999999999999" y="367.82" width="62" height="62" as="geometry"/>
                </mxCell>
                <mxCell id="63" value="" style="rounded=1;arcSize=10;dashed=1;fillColor=none;gradientColor=none;dashPattern=1 1;strokeWidth=2;" vertex="1" parent="11">
                    <mxGeometry x="40" y="60" width="130" height="390" as="geometry"/>
                </mxCell>
                <mxCell id="69" style="edgeStyle=none;html=1;entryX=1;entryY=0.5;entryDx=0;entryDy=0;" edge="1" parent="1" source="51" target="43">
                    <mxGeometry relative="1" as="geometry"/>
                </mxCell>
                <mxCell id="51" value="" style="shape=image;verticalLabelPosition=bottom;labelBackgroundColor=default;verticalAlign=top;aspect=fixed;imageAspect=0;image=data:image/png,iVBORw0KGgoAAAANSUhEUgAAAZQAAAGUCAYAAAASxdSgAAAACXBIWXMAABYlAAAWJQFJUiTwAAAgAElEQVR4nO3dTWxUZ77n8d9x9YbRoGGclW8stVtqezc0CfLl7iiWnUEKGTZcNVLCwlJH8nQCUm7uCgKr7hsJSFRSL7yASLQuGzpEYpLViPLuMqUQh5mVHanrSk6sWbSvR76SV/aZxTkF5fKp13Oet3O+HykCv1U9TdLnx//5Py8SAAAFiFwPAPDV/vLiKUknej69Vmu0dlyMB/AdgYLS2V9enJM0l37YHQq/0uGAyAqMvNYk7fR8/P/S37fTf1RrtJoFvy/gHIGC4HQFRicQzqZfMhEQprW7/vnXrt9TCSE4BAq8tb+8WFcSHHNKQuOEktCokqaSiud7JdVOu9ZorTkdEdAHgQLn9pcXO0FRl/Tz9PdVC45xNZVUMt8rqWaaLgcDSAQKHEib3XUlPQ3CozhrSoLme0nNWqPVdjoaVA6BAuPSqau6kmmrEPscodpREjCrSgKGqTIYRaCgcF0VyFlJF9yOBl0IGBhFoCC3tAdyQa8ChAokDG0lAfOVkoBhVRlyIVAwkXTp7gVJbyupRhC+ppJweUz/BZMgUDCydCrrXSUBQiO93DoN/i+YGsOoCBQM1BUiF/Rq9zmqpS3psQgXDEGg4Iiu6ax3RSWCw9YkfSGmxZCBQIGkQ431zpQWMExTr8KFhj4IlKpLp7Q+EKuzMLkdJVNinzElVm0ESgV1VSMfiCktFKst6aaoWiqJQKmQtDdyQ1QjMK9Ttdyk11IdBEoFpEef3BC9EbjRVDId9tj1QGAWgVJi+8uL7ykJkjm3IwEkMR1WegRKyaT9kQ+V9EeY1oKPdiR9JukuwVIuBEpJECQI0I6k+0qmw9puh4IiECiBI0hQEvdFAz94BEqgCBKU1H0RLMEiUAJDkKAi7ioJFnosASFQAkGQoIJo3geGQAkAy39RcTtKqpW7rgeCwQgUj6UbEu+I41EAKdnHcpUNkv4iUDyUHpFyR9zHDmRpKgkWDqL0DIHika4+yQ3XYwECQOPeMwSKJ/aXFy8oqUrmHA8FCMmOkmrlvuuBgEBxLp3euicObgTyaIppMOcIFIf2lxc/EcuAgSLdFMuMnSFQHGD1FmBUW9KVWqPVdDyOyiFQLEqb7jeUNN4BmEXT3jICxZK0Krknmu6ATW1RrVhDoBhGVQJ4gWrFAgLFoP3lxVNKqhJ6JYB7bVGtGDXlegBlla7g+k6ECeCLOUlP0/9vwgAqlIKxrwQIwpqkd7h3pVhUKAVKd7t/J8IE8N0pSd+lJ3mjIFQoBdlfXrwjGu9AiO4r2WVPwz4nAiWndIrrS9ErAUK2pqRhz9EtOTDllUPXFBdhAoTtlJKG/XuuBxIyAmVC6UqRL8U5XEBZnJB0L52+xgSY8hpTulHxS9F4B8psTdI5+irjIVDGkG5U/FIcnwJUwY6SUKGvMiKmvEaU9kueijABquKE6KuMhUAZwf7y4oeiXwJUUaev8onrgYSAKa8h9pcX70l6z/U4ADh3X+xXGYhA6SNtvj8VS4IBvEKzfgCmvDKkmxUJEwC9OvtVeDZkoELpkf6H8lT0SwD0xwqwDFQoXdJbFQkTAMN0VoBdcD0QnxAoqXRpIGECYFQnJH3JsuJXmPLSyzC553ocAIJ1pdZo3Xc9CNcqX6EQJgAKcC/dr1Zpla5Q2GMCoGD3a43WFdeDcKWygUKYADCksqFSyUAhTAAYVslQqVygECYALKlcqFQqUAgTAJZVKlQqEyiECQBHKhMqlQgUwgSAY5UIldLvQ0nXhr/nehwAKu29KuxTKXWFwqZFAJ4p9Y760gYKYQLAU6UNlVIGSnoC6JeuxwEAfZyrNVpN14MoWukChftMAASglPeplCpQCBMAAdmR9Eat0Wq7HkhRSrPKK70D/p4IEwBh6NynUppnVmkCRdwBDyA8nVmVUihFoKQbFwkTACE6lT7Dghd8oOwvL34iNi4CCNt76bMsaEE35dlrAqBk3qk1Wo9dD2JSwQYKK7oAlFDQy4mDnPJKV0V8KcIEKK9jxxXNn5aOHXc9EpuCXvn1M9cDmNCXkuZcDwJATseOK5p/U5pdUPTL09JrM9L0zKFvOTSNsrku7f274h++lTaeK95cl/Z2rQ7Zgjklz7hzjscxtuCmvPaXF+9IKv2pnUBpTc8oOnlW0Znz0uxC7peLX6xKL1aTX8sVLndrjdZV14MYR1CBQhMeCFc0f1qqX1J08qyx94ifPVH89Yq0vWXsPSwLqkkfTKDQhAfCFM2fVvTrJWn+TWvvWaJgCep4liACJW1QsRMeCMmx44ouXk2mthyJv1lJgiVsa7VG6w3XgxhFKKu87ogwAYIRzZ/W1M3HTsNEkqJfL2nq4weF9GocOpX2jr3nfYVC3wQIS/TWUjLF5ZO9XcUPbiWN+3B530/xukLZX16cU1KdAAhAdPm6f2EiSX/dUrzx3PUo8rqXPhO95XWgiM2LQDCiy9edT3Fl2lzXwefvl2FJceeKDm95GyjpQWn0TYAABBcm4e6+r/t8iKSXPZT95cW6SnRHAFBmIYbJ1O/+mCwtbj50M7b83vDxvC/vKpSumxcBeC46cz7IMNHsgqKL14xusjTsno/nfXkXKJJuiHO6AP/NLii6fN31KI4aIUw6osvXQ53+OqXkWekVrwIlnerinC4gAFO/CTtMXn5+6VN74yvWh+kz0xveBApTXUA4oreW/NssOG6YdMy/ydRXQbwJFDHVBYRhekZR/ZLrURw2aZikoovXQp36mpNHU19eBApTXUA4oreW/Hr45gwTSUlInvMsJEfnzdSX80BhqgsIyPSMX6u6igiTlHdV13i8OFHEeaAoqUzmXA8CwHDR35UzTDo/51VYjueUDxsenQZKeseJN/N/AAbz5oFbdJikAq9Sbrg+68t1heJFmQZguOjk2SP3vTthKEwkJT/rw//GyTltHzgLlPRY+rqr9wcwpvnTrkdgNkxSAS8hlpKzvi64enMngZI24qlOgIA4f9BaCBNJfgRnPndc7U1xVaHcEMfSA+E4dtztVJCtMJEUzb9Z2Gs5MidH2zCsB0raNGLPCRCQyOWueIth0nld704BGJ+TBr2LCoU9J0BoXP2tvcgw2VzXwY23dfDf/1YHN96WNtf7fmsUdmO+w3pbwWqgpLs56zbfE0ABXOyML7gyOVj5SNreSj7Y3lL85wHP2/ArFEm6YHsHve0KheoECFD0uuUHrIlprk6YpOKNbwdWKSVhtUqxFijpMuE5W+8HIFCmNi1mrN6K//dq9jfbDlBzTqXPXiusBArLhAGMxGQD/sx/Pfq5jeeZ3xr5dPhlfjdsLSO2VaF8KJYJAxjE8Gou5/to3JmTpZW1xgMlTcYPTL8PgIDZWBqcUXXEf/0p/+uG4QMbVYqNCoVNjAD6s7XPpPf1JUWv/U3mt8Y/fFvMe/rjhCxUKUYDhU2MQDnE24b+Jr+9ZW3TYtynX1IhxqsU0xUKR9MDZdCz5LYo8dcr9nbANx8e/Vy/DZvlXE5svEoxFihpdfKeqdcHYJHNB+xrM8k/BYqfPUn2nfSI/kt2oz42FKAeMFqlmKxQqE6AkogNBUpUv3S0Wd6vp5JD/Chj18LsQv8qqJwVimS4SjESKFQnQMlsb5mZ9ppdSKa3TIbK9lbm60z9t2vZ31/+XouxKsVUhcIyYaBksqaMCmE6VKZnjhy9H50537d/Er9o5ns//xmrUgoPlDT53iv6dQE49qLPMSVFMBwqU0ufJhsbZxcU1S8puni17/fGJv93+sNIlWKiQmFXPFBC8YvVQvsaR5gMldkFRUufaurjB4ouXut/evLmurEVbZ4xUqUUGijsigfKLX72P8y+gY2eygBx1tLi8ir8WV10hXJBVCdAacVP/9n8m7gKlb3dqkx3dZwo+iTiogOFpcJAmW1vKX72xPz7OAiVuPnQeAXkoUKf2YUFyv7y4gVx3wlQevHXK3beyGao7O0qflqp6a6OuSJvdSyyQqF3AlTB9pbib8oVKvGjO1WsTjoKq1KiIl4k3cj4lyJeC4Ahx44rml1I9l8cO/7yWt94+6dkZdPmenKA4igP1mPHNfWPD47s7zCmX4D0C5xxbDzXwee/zTe+8P2i1mi1875IUYFyT+w9AfwzPaPo784nZ1aNetjixvPk7KshvZJo/rSi3/2xgEGOyESo7O3q4PeXq7JUeJD7tUbrSt4XyR0o6VLhv4jVXYA3ojPnk3Oy8pzYu72l+NHtgSuforeWFP16afL3GFfBoRI/uGVnkYH/dpRUKTt5XqSIHgpLhQEfHDuu6K0lTf3T/1R0+Xr+49+nZxQtfapo6dO+D+r46xW7D+QCeypx8yFh8soJJc/yXIoIFJrxgEudILn5OKkW8vQTMkQnzyav3edO9vjRHbun8xYQKvGzJ4of3TY0wGDlfpbnmvLaX148Jem7vIMAMJnozHlFby2Za45vbyWHQm5vJb2VfgdEmroUa5AJp7/iZ08UP7hlYYBBeqPWaK1N+sN5A4VmPODC7EJy/Hq/Gwfz2niu+JuV8U4YPnZc0eXrfSsZI8YMFcJkqFzN+YkDhWY84EA6vRXVL5l5/e2tpFGd46j66OI1c+PLMmKoxI9uV+2srknkas7n6aHQjAcsiuZPa+ofHxh7WMfPnujg95dz33sSP7qteOUjexsFh/VUNtcVf/4+YTKaXM35PBXKU0n1SX8ewIhMVyUaYSpodiHZCNm5631zPbkWeND+jekZTV2+YW5arpelE4kroFlrtM5N8oMTBQo74wE7ovnTyRJggzvSB4VJVL+k6Nzf93//zfWhy2+jk2eTO0hs7KonVIoy0c75n034ZrnXKwMYzMamwb5hMrugqaVPh4fA7ELSiD9zXgd9prniF6uKX6wWs9lymL1/T6qoTQIlpwuS7o77Q5NWKN9JOjXJzwIYYnomeZgbXoLbL0yik2eTqmjc/SzbW0moDNuT0rmG9+TZYvbMpEfqx//yhCNUirNWa7TeGPeHxg4UprsAcyZ+mI+pb5icOZ+8/6TGnXKaXUiC5fWF5ODKUabFNtcV/7ie/PpilRAxZ+w9KZNMebEzHjDA1nJbY2EiJQHx1tLou9A7zX1JcfdrZARq/NefCA+73pVkPFDonwBFsrjL3GiYdF6rfim5KnjSh//m+qtwgUsXJF0d5wfG2oeSHrUyN87PAOgvmj+tqZuPSxMmL1/z3N8X+npwYi595o9s3I2NVCdAQaL6peQ+EcP9EslumEhS9EtLe09g2rvjfPO4gfL2mN8PoFfnzKuL16y8ne0wkWT3kEiYNFYRMXKgpKu7WCoM5DE9o6nf/VHRmfNW3s5JmKBM5tJn/0jGqVCY7gLymF1I7mG39Ld3wgQFGfnZP06gWDyTGiiX6Mx5TX38wEq/RPIgTFjeWyYjtzpGCpT0qHoqFGAC0cVrVisC52Ei5T6xGF6ppxkw1KgVSn3ysQAV1Wm+W7wbxIcwkSS9WLX3XrBhpIJi1EBhdRcwjnSzoq3mu+RRmHSOREGZjNTyoEIBima5+S55FCaSDv7EFbslVEyFki4Zm8s5GKASovnTyTEqNu7+SPkUJvGDW8NPG0aIToyya36UCoVmPDCC6Mx5azvfO3wLk0EXbSF49WHfMEqgsFwYGCJ6a8n+A9yXMNnbTe5sJ0zKbmgWjBIo9fzjAMorunzd+M2KvXwKk4PP389cJmxzQQKsGDpbNTBQ0jmzkdYfA5Vz7LiipU+tPzi9CZPNdR38/nJmzySqX7K6XBp27C8v1gd9fdh9KAN/GKgsi3eYdPMqTPrczNi5Y54psFKqS2r2++KwQKF/AvSaXdDUb65XNkz6jUPHjiu6ePVVxbbx3NqYYM3ATKBCAcYxu5BUJhZXckkehUnzYfb1vhkVG8evlNLApcN9eyjp/hP6J0BH1cPkwa3sMOn8uXRXbJvrHBBZTgP3owyqUOrFjwUIk6sj370Ik73dJEyyjlPpE7LxD0x3lVhd0lrWFwYFyq+MDAUITNXD5ODz97NXcp05r+ji1cyKLX76zzZGBzf6ZsOgQOF2RlRepcNkc10HKx9lTl0NHAfTXWXHlBcwrs7yV9u8CZMhy4L7iZsPTY4M7p3aX148UWu0dnq/kNmUH7Z5BSi7KodJ/OxJdph07ncZ9Oeyt8v+k2rIrFL6VShMd6Gyqh4m/faYjLKRk+qkMurK2ODYL1B+bnIkgJeOHdfU0qfS/JvW39qLMOl3WvD0TPLnMmwj596u4qcESkVkZgQVCiA5O0pF8iBM9nYVP7qTHSZj7L2Jmw8zey4opbGmvOrmxgF4puJh0ndZ8MmzyRhG2chJdVI1mYFypCmf7pAHqqHKYdJZydVvj8nSpyOfCkB1Uj1Zi7eyKpQ54yMBfDC7kPQGLF7X2+FNmGQtC754bbyj56lOqmqu9xNZgVI3PgzANUfncknuwyR+sZq8/wR7TDJf7+sVqpNqmuv9RFagsMIL5VblMMm5LPiIzXWWClfXkaPsmfJCtVQ5TB7dzn745+gjxX++U8DIEKgjp9Ez5YXqqHKY9NtjkuPPJH72hDtPqu3ISq9Dq7z2lxe5/wTlVNUw2dvVwR8uZ4ZJNH968j+TdO8Kqq13VXDvsmE2NKJ0ojPnNfXxg+qFyfbW4GXBOQK2X1MflTPX/UHvlNecgBJxdfy85DhMBi0LfmtJ0a+XJn7p+MVq9mVbqKJT6jrTi0BBaVU1TIpeFnxIensjkDrUJukNFJYMoxQqGyaDlgUXcPAlU13ocej2RioUlE5lw+SblWSTYa+CjpeJnz1hqgu9BlYorPJC0CobJgaWBR+yvcWqLmQ5tJCrN1BY5YVgVTJM9nYVr/xD9n6QApdKH6x8xFQXshwqQjKvAAZCU9UwOfj8/cwwKXKpdPzodubSY0A6vBflZ12frLsYDJBXJcNk0LLg+iVFF68V8jbxi1XO6sIwc5LaUv8LtoAgFPnwHJezMNl43ncKKvey4G7bWywRxli6A4WGPIJS6MNzTK7CZNCy4OjydUUnjxwAO5m9XfomGNXLzY0/6/kkEIRKhknzYdLP6GXg1sn40R36JhjVy2KEKS8Ep5JhMmhZcMG3TsbPnmS/FzAEgYKgVC5M0qNOMjcUmjhBeXOdvgnG9fKEle5AKWjyFTCjimEy8LTgi1eLDZPO6cTAeOY6v6FCQRAqFyab60lTfHvLzvvShEcBCBR4r5Jh0m+PiaE/i/jBLZrwyI2d8vDfxnMnb+siTOJnT3Twh8tHw6SzLNhEmDy6zaGPyGOu85vuCqVufRjACDorjmzuhncSJhaXBb98z2dP2AmPvOY6v2HKC0GwGSpOwmTQsuDfXDcSJtp4zoouFIopL3in39RO313iBbIeJp1lwYOOnjcRJp2mP1AgKhR45WWYpIHS+6A1Wam4CBOry4J735cVXSgYgQJv9FYmnYe4jVCxHiab6zr4U/bKKit7WwgTGECgwAv9prlshIqTMOm3LPjiNUX1S8W/Z6pfRQQUgUCBc8OWw5oMFdthEj97khy8aHGPycv3Zq8JDKMpD6dGfYiaaNQ7CZMHtzL3mEx9/MB4mHDgI0zZX148IaUVyv7yIkfXw7px/0ZeZKViPUz6PdCnZ5LTgk2s5Oq8d/MhYQLTTklqdqa8uFwLVk06vVNEqHgTJiZOC+5972dPsjdLAgbQQ4F1eXsFeULFapgMWhZ88mzyfqbDhI2LsIhAgVVFNZ4nCRWrYbK9lWwctL0sOBW/WCVMYFNbehUoa+7GgaooehXTOKFiNUwGLQt+a0nRr5eKfb+M9ydMYFOt0WpL6SqvWqO143Q0KD1TS2JHWf1lM0ziF6uDj563ECZsXIQrTHnBONP7KwZWKttbije+PfozJsKkX8/i2PFkJdf8m4W+3xGECRwjUGCUrcux+oaKrTB5dDv7GHiDR88fQpjAAwQKjLF20+LerrS5Ib02M3xMJsLE4bJgSa/ugidM4BiBAiOMhsnmuuIfnie/bnybee96pmPHkxN8izJoWfD8aUVL/2Q+TLgLHh4hUFC4QsNke0vx5rq08a3040bmFNbI0gAopGoYdvS8jdslB4wBcIFAQaFyhUk6dRX/8G1afTwv/m/eaa8hV6i4XhYsESbwUnegtNV1NzAwrrHDpHvq6sd1Mw/H6ZmjU2J5QmXjed8pJps9I8IEHml2fkOgoBDRxWuDH6adqasf15O7zPNMXY06pnTqKbNpPkGoDFoWHF2+rujk2QJGPQRhAo8x5YVCHHmYbjx/NXW1uT5647yo8XT1MfotKR4nVOJvVhR/vXL0C7aWBUuECbxHoKAQB5/9VtH8aXNTV2PIaornCZWBy4KXPk2m1UwjTBCA7gu2OH4Fk9veSh66HobJy6/163H0a7Lv7Sr+/P3Be0wIE2C185vuQPnewUCAwoyyXHfkUEkf4v122k99/MD8HpOucRAmCAFXAKMUxtn7MTRUNp7r4PeXs/eY1C/Z2WMiESYITncPhSkvBGmSjYSDeyq/7fszVpYFS4QJQvLy+pOfZX0SCEWeXel9Q6VXemQLYQJkelmMsMoLwZooTMbdTGlzWbBEmCBovRsbgSCMFCYFbKaM5t8kTIABao1Ws/P7qPsL+8uLsfXRAOOantHUza+Oft7QZkorhz0SJghUrdF6mSO9U147kk7YHQ4wgY3nird/Sn4tYjPlseNJNaLkGt9uWXfUF4rLsRCuQ7333kBZk1S3NhRgEttbfVdijSqaPy29Pi/Nn1Y0u3B4g2LGznhjoUKYIGyHVgfTlEf5Tc8kATK7oOj1haF3uw+8o14FhgphgvC1uz/oDZRVUaEgZMeOJxXH/JuKfnlamp2faEe78VAhTFAO/9r9QVYPBQjH7IKiXyYrsaL504WerWUsVAgTlEe7+4OsHgrgp+mZtPo4PdLUVREKDxXCBOXS7v6ACgV+6pq60usLyQosG4cxZigqVOIXq8kFXYQJyuNQERL1fpW9KHDNyr6PCfS7F2WU8fa97REIWPceFCn7tGGmveCMr2Ei9T8cclhYECYoqWbvJ7IChWkvOOFzmHSMGyqECUqs3fuJrEBZzfgcYFQIYdIxaqgQJii5f+39RNbGxrb5cQCvhBQmHcMa9XptRvHXK7aHBdjU7P0EgQKnQgyTjqGhApRbu/cTR1Z5Saz0gh0hh0m3fqu/gDLrXeEl9b9TnpVeMKosYSJZvhoY8EMz65MECqwrU5hIkvZ2kyP0gerIzIh+pw0f6d4DRShdmHCUCqopMyP6VShNc+NAVZUtTOIXq4QJqmqsCoUpLxSqdGHSfKj40W3XwwCc6L5HvltmhVJrtHZEqKAgpQuTB7cIE1RZs98XBt3YuCbpVOFDQaWUKkz2dpMprrz31wNh61tsDAqU7w0MBBVSqjCh+Q509M2GQYHSLH4cqIoyhQlncgGHNPt9IXOnfMf+8uK/STpR9GhQbqUKE3bBA912ao3Wf+73xX7LhjtozGMspQmT7S0d/OEyYQIc1hz0xWGBwlH2GFlpwmTjuQ5+f5nmO3DUwEwYFijN4saBMitLmMTfrOjg89/SfAeyNQd9cWAPReLkYQxXijDZ21W88g+KN751PRLAVwP7J9LwCkWiSsEApQiTjec6uHGBMAEGaw77hkHLhju+klTPOxKUTxnCJH50W3HzoethACEY2lMfJVCa+ceBsgk+TLa3dLDyEY13YHSPh33D0B6KxH4UHBZ6mMTPnih+dIfGOzC6dq3R+sWwbxqlQpGSZHov13BQCkGHyd5uslHxBavhgTE1R/mmUZryEvtRoMDDJN1bQpgAE/lqlG8ap0K5N/lYELqQw4TGO5Bbc5RvGqlC4X6Uags2TDbXk+NTCBMgj2aaAUONWqFI0hfifpTKCTVM4m9WFH+94noYQBmMNN0ljd5DkUZYMoZyCTJMOlUJYQIUZeRn/0jLhjv2lxf/Imlu3NEgPCGGCVUJULi1WqP1xqjfPE6FIlGlVEJwYUJVApgy8nSXNH6gfDHm9yMwoYVJ/M2KDv7AUfOAIWMVEWNNeUlMe5VZUGGyua6DP90iSABzRtod322cVV4djyV9OMHPwWPBhMneruKvV1gKDJg3dotj3CkviWmv0gkmTDq73QkTwIaxn/VjT3lJ0v7y4ndiT0opBBEmnMEF2DbW6q6OSaa8JDY5lkIIYRI3HyartzgZGLBpopmoSQPlsaQ7E/4sPOB9mNB0B1yaaIvIRFNekrS/vPhU3OQYJK/DhKY74Fqz1midm+QHJ61QpKQkquf4eTjgc5hw8RXghYkXXuUJlM60Fzc5BsLbMNlcV/znO4o3vnU9EqDqdpTjRJRJlg1LenmkPUexBMLLMNnbVfzodnJsCmEC+ODxqEfVZ8lToUjSZ+JqYO/5GCZMbwFe+izPD0/clO9gT4rfvAuTjec6+PNtVm8B/plo70m3vBWKlCQa1wN7yKsw2d5KVm89e+J6JACy5apOpGIChea8h7wJk73dZHPi04dMbwH+KqQnPnFTvoPmvH98CZP42ZPk7C12ugO+y9WM7yiiQpGkm6I57wUvwoQ+CRCam0W8SO6mfAc7591zHibbW4of3eYQRyAsE++M71VUhSIlCVcv8PUwBqdhsrer+NEdGu5AmHI34zsKq1AkbnN0xVmY0HAHQjf2rYyDFFmhSEmVwhJii1yFCRsTgVIopHfSUWiFIkn7y4v/JpYQW+EiTOJnT5JVW9tbVt8XQOF2JP2iiNVdHUVXKFIyH3fDwOuii/Uw2Xiu+JsVztwCyuOzIsNEMhModyV9IKoUY6yGCUEClNGOkmd1oXJvbOyVJl5hqwZwmLUw2d5SvPKRDj7/LWEClM/9oqsTyUyFIlGlGGElTDhzC6gCI3/pL7wp37G/vPiJ6KUUxniYECRAVdyvNVpXTLywqQpFokopjNEwIUiAqil0qXA3YxWKRJVSBGNhQpAAVWSsOpHMVigSVUo+0zNGwiR+dFtx82HhrwvAe8aqE8nAKvsWsysAAAj+SURBVK9urPjKaXtL8YNbhb4kYQJU1t1ao9U2+QZGAyV1V8maZ0wgfvak0FAhTIBK2pHh6kSyEChUKWOanjnyqcJCZeN5/tcAEKLCd8VnsVGhSEmV0rb0XsGKzpzX1M2vFJ05f+RrhYTKa0fDCkDpGdkVn8VKoKTJaLzcCln3aq7o8nUzoTI9Ix07PvnPAwjRTRvViWSvQlGt0bovac3W+4Uka2mwqVCJ5t+c+GcBBKdda7SsVCeSxUBJXbX8ft4btM/ESKjMn57s5wCEyOoz12qg1BqtpqTHNt/TZ6NsWiw6VKLXF8b+GQBBatYaLavPW9sVikSVImm8HfCFhgpTXkBVWH/W1my/4a3/9dPOjb99PZJUt/3evpjkOJXo5NnklsQf1w9/4cd1aXsr+fqofnjOjYtAud2tNVpf2H5TFxWKVOFlxHnO5iqsUqFKAcrM2apaJ4GSLmGr3NRXEQc9FhEq0S9pzAMldtXWMuFerioUpc2ipqv3t63IU4Nzh8rsfCHjAOCdZrpFwwlngZIydoyyT0wcQZ8rVI4dl2ZZ7QWUkNOZH+tN+W5VaNCbvBwrV6P+/7al9v8xMi4ATtysNVpOT391XaGo1mh9opLuoLdxB/zElQobHIEyacvSeV2DOA+UVOka9DbC5OV7TRAqEVNeQJlccdWI7+ZFoKQ76J2na1FshsnL9xw3VKZnMo/KBxCcu+kz1DkvAiV1U2XYm2Lo2t5RjBsq0Wt/Y2NYAMxpy6OT3L0JlLRcC37Vl+uH9Mihsrer+K8/WRwZAAO8mOrqiFwPoNf+8uIdSR+6Hkcu0zOvguX1eek/vLqD5NCmwmP/0djy3fjBLcXPnhz5fDR/Wpp/U/G/POH4FSBsd2uNllf9Zx8D5YSkp5JOuR6LdbMLirovwOo+ImV6RtF0V/UzOz/0sqx+oQIgeG1Jb/hUnUgeBook7S8vnpL0netxBOPY8cOrtqZnXl73Gz99KO3tOhoYAEPO+dKI7+ZloEjS/vLiJ5JuuB4HAHjmZrp/zzveBook7S8vPlWJd9EDwJjWao3WG64H0Y83q7z6uKLkKGYAqLodSe+4HsQgXgdKrdFqqwRLiQGgAFfTZ6K3vA4U6eUx96XZRQ8AE7jv8lj6UXkfKJKUrrUu5QGSADDEmgI57zCIQEm9I/opAKplR57thh8kmEChnwKggq7WGq1gZmeCCRSJfgqASrkbQt+km9f7UPphfwqAkvN6v0k/QVUoXd5RGY66B4Cj2pLOuR7EJIIMlLRBRZMeQNnsSHonlCZ8ryADRZLSRhVNegBlElQTvlewgSK9bNJ7c1sZAORwM7QmfK8gm/K99pcX70l6z/U4AGBC92uNVvAzLkFXKB3pv4hgy0QAlRbMTvhhShEoqXMiVACEZU3JZVlBNuF7lWLKqyO96fGppBOuxwIAQ+woCZPS/EW4VIEiESoAglC6MJHKNeUl6eVyYq8voQFQeVfKFiZSCQNFkmqNVlPsUQHgpyvplofSKd2UV7f95cX3JN1zPQ4ASF0Jfa/JIKWsUDrSf3GlWI4HIHhXyxwmUskrlA42PgJwrBQbF4epRKBIhAoAZyoRJlKFAkUiVABYV5kwkSoWKBKhAsCaSoWJVMFAkQgVAMZVLkykigaKRKgAMKaSYSJVOFAkQgVA4SobJlLJ96EMk/6LZ58KgCJcqXKYSBWvUDrYUQ8gp1LvgB8VgZIiVABMiDBJEShd9pcXLygJFY6+BzDMjqR30sNoIQLlCO5TATCCUt5nklelm/JZ0v9AuE4YQD9rkt4gTI6iQuljf3nxhJJK5ZTrsQDwRqnugC8agTJAGip3xF4VABXfYzIKAmUE+8uLn0i64XocAJy5WWu0PnE9CN8RKCNKlxXfEc16oEp2VOIre4tGoIyBFWBApbSVLAum+T4iAmVMNOuBSmgqCROa72MgUCa0v7x4R9KHrscBoHB3a40WZ/xNgEDJgb4KUCr0S3IiUHJK+yr3xBQYELI1JVNcbdcDCRmBUgD2qwBBY4qrIARKgZgCA4LCFFfBCJSC7S8vzkn6UkyBAT5rKgmTtuNxlAqBYgi76wFvsevdEALFoP3lxbqShv2c25EAUNJ4v8JGRXM4vt6g9OKdNyTddTwUoOruivtLjKNCsSStVr4UDXvApraSqqTpeByVQIViSfof9C9EtQLYclfJRVhN1wOpCioUB+itAEatSbpKkNhHoDiSbob8UKwEA4rECi6HCBTH0qNb7kiqOx4KELKm2FfiHIHiCXbZAxNpK5neYre7B2jKe6LWaN0XTXtgHDeVNN0JE09QoXiIaTBgoMdKqpK264HgMALFY/vLixeUBMuc46EAPmD1lucIlADsLy92VoPRX0EVtZWs3rrveBwYgkAJRNcy4w9EsKAadiR9puS+Eu52DwCBEpg0WG6I++xRXgRJoAiUQKX3rtwQt0SiPAiSwBEogSNYUAIESUkQKCWRBssHSoKFHgtCQJCUDIFSMjTvEQCCpKQIlJJKg+WCkumwObejASSx/Lf0CJQKSDdIfiB23sONpqTPOCKl/AiUCulq4F8Q02Ewa0fJESk3OSKlOgiUCmI6DAatKemPPKY/Uj0ESsWlB1F+IKoWTK5TjXxWa7TWXA8G7hAokHSoanlX9FowmqakL0Q1ghSBgiPSXksnXE65HQ08s6ZXIdJ2PBZ4hkDBQOmU2LtKAmbO7WjgSFvJlNYXTGlhEAIFI0vD5YKkt0XlUnZtESIYE4GCiXRNi70tei5lwXQWciFQkFva0K/rVbjMORwORtdZnbUqGusoAIGCwqVTY3VJZ9NfWY7sj6akryQ1mcpC0QgUGEfAOLOjZBprVUmANN0OB2VHoMC6tP9Sl/Sr9Fca/MVYS//5XlQgcIBAgRf2lxfrSoLl5+mvdZfjCcCakpVY3yuZxlqjBwLXCBR4K61kTulV0MypekGzpmTqalVJgLSZuoKvCBQEJ11VdkpJwMzpVdh0/glJp88hJaHR+XiHKSuEhkBBKaVTaFKyAKDTo/lPOtyvOaHi+zfdAdH5+PuMr7XZ64GyIVCAProqoW5UDgAAACb9fxQ1wSyFL6f8AAAAAElFTkSuQmCC;" vertex="1" parent="1">
                    <mxGeometry x="585" y="640" width="60" height="60" as="geometry"/>
                </mxCell>
                <mxCell id="53" value="Postman/curl" style="text;html=1;align=center;verticalAlign=middle;resizable=0;points=[];autosize=1;strokeColor=none;fillColor=none;" vertex="1" parent="1">
                    <mxGeometry x="570" y="610" width="90" height="30" as="geometry"/>
                </mxCell>
                <mxCell id="67" style="edgeStyle=none;html=1;" edge="1" parent="1" source="55" target="23">
                    <mxGeometry relative="1" as="geometry"/>
                </mxCell>
                <mxCell id="55" value="" style="points=[];aspect=fixed;html=1;align=center;shadow=0;dashed=0;fillColor=#FF6A00;strokeColor=none;shape=mxgraph.alibaba_cloud.user;" vertex="1" parent="1">
                    <mxGeometry x="585" y="521.4" width="60" height="60" as="geometry"/>
                </mxCell>
                <mxCell id="57" value="SRE" style="text;html=1;align=center;verticalAlign=middle;resizable=0;points=[];autosize=1;strokeColor=none;fillColor=none;" vertex="1" parent="1">
                    <mxGeometry x="585" y="491.4" width="50" height="30" as="geometry"/>
                </mxCell>
            </root>
        </mxGraphModel>
    </diagram>
</mxfile>